<?xml version="1.0" encoding="UTF-8" standalone="no"?>
<!-- Created with Inkscape (http://www.inkscape.org/) -->
<svg
   xmlns:dc="http://purl.org/dc/elements/1.1/"
   xmlns:cc="http://web.resource.org/cc/"
   xmlns:rdf="http://www.w3.org/1999/02/22-rdf-syntax-ns#"
   xmlns:svg="http://www.w3.org/2000/svg"
   xmlns="http://www.w3.org/2000/svg"
   xmlns:sodipodi="http://sodipodi.sourceforge.net/DTD/sodipodi-0.dtd"
   xmlns:inkscape="http://www.inkscape.org/namespaces/inkscape"
   width="1620"
   height="1080"
   id="svg1341"
   sodipodi:version="0.32"
   inkscape:version="0.45.1"
   sodipodi:docbase="/home/brett/Documents"
   sodipodi:docname="agpl-logo2.svg"
   inkscape:output_extension="org.inkscape.output.svg.inkscape"
   version="1.0">
  <sodipodi:namedview
     id="base"
     pagecolor="#ffffff"
     bordercolor="#666666"
     borderopacity="1.0"
     inkscape:pageopacity="0.0"
     inkscape:pageshadow="2"
     inkscape:zoom="0.5054504"
     inkscape:cx="897.55388"
     inkscape:cy="461.72056"
     inkscape:document-units="px"
     inkscape:current-layer="g2803"
     inkscape:window-width="1278"
     inkscape:window-height="971"
     inkscape:window-x="0"
     inkscape:window-y="27"
     showguides="true"
     inkscape:guide-bbox="true"
     width="18in"
     height="12in"
     units="in"
     showborder="true">
    <sodipodi:guide
       orientation="horizontal"
       position="1885.3861"
       id="guide2344" />
    <sodipodi:guide
       orientation="horizontal"
       position="2033.8652"
       id="guide2346" />
    <sodipodi:guide
       orientation="vertical"
       position="-820.12302"
       id="guide3321" />
    <sodipodi:guide
       orientation="vertical"
       position="-118.58401"
       id="guide3323" />
    <sodipodi:guide
       orientation="horizontal"
       position="965.80899"
       id="guide5223" />
    <sodipodi:guide
       orientation="horizontal"
       position="830.01431"
       id="guide5235" />
  </sodipodi:namedview>
  <metadata
     id="metadata1346">
    <rdf:RDF>
      <cc:Work
         rdf:about="">
        <dc:format>image/svg+xml</dc:format>
        <dc:type
           rdf:resource="http://purl.org/dc/dcmitype/StillImage" />
      </cc:Work>
    </rdf:RDF>
  </metadata>
  <g
     inkscape:label="Layer 1"
     id="layer1"
     inkscape:groupmode="layer">
    <g
       style="fill:#000000;fill-opacity:0.94117647;fill-rule:evenodd;stroke:none;stroke-width:1pt;stroke-linecap:butt;stroke-linejoin:miter"
       transform="matrix(0.6317225,0,0,0.6317225,143.84821,113.18531)"
       id="g68">
      <path
         style="fill:#000000;fill-opacity:0.94117647"
         d="M 3.86,0 C 3.86,0 3.85,0 3.85,0 C 2.91,0 2.08,0.31 1.3,0.94 C 0.72,1.4 0.32,2.02 0,2.71 C 0,2.71 0.04,2.71 0.04,2.71 C 0.36,2.02 0.76,1.4 1.33,0.94 C 2.11,0.31 2.94,0.01 3.86,0 z "
         id="path70" />
    </g>
    <path
       style="fill:#bd0000;fill-opacity:1;fill-rule:evenodd;stroke:none;stroke-width:1pt;stroke-linecap:butt;stroke-linejoin:miter"
       id="path74"
       d="M 47.554121,37.075609 C 47.554128,37.075605 25.582031,132.93948 25.582031,132.93948 C 25.588347,132.93948 25.58914,132.93948 25.601773,132.93948 C 25.601773,132.93948 127.24985,132.93948 127.24985,132.93948 C 127.24985,132.93948 180.11711,132.93948 180.11711,132.93948 C 173.81884,132.38989 168.8464,130.17885 165.88362,126.14847 C 165.33403,125.40303 164.87997,124.59996 164.48198,123.75976 C 164.2293,123.14068 163.99161,122.51606 163.75155,121.88434 C 163.11982,119.87546 162.86793,117.64627 162.98164,115.271 C 163.29751,108.65054 166.404,100.77549 171.78628,92.528991 C 177.50336,83.765099 185.78919,74.579705 196.04836,66.055877 C 198.34782,64.146808 200.72547,62.261593 203.21446,60.429596 C 206.29094,58.166142 209.39113,56.081608 212.49289,54.132111 C 223.92074,46.937425 235.32017,41.903074 245.42141,39.345861 C 235.7687,42.494997 224.92439,47.841108 214.21038,55.119181 C 213.82504,55.37945 213.44442,55.646036 213.06538,55.908832 C 207.12087,60.027665 201.73544,64.402028 197.03543,68.819657 C 181.91199,83.039739 173.91834,97.774654 177.55074,106.40714 C 177.80975,107.00096 178.1185,107.56793 178.47858,108.1049 C 182.38262,113.84725 192.05825,114.83984 204.31998,111.75704 C 205.15385,111.54856 205.98772,111.31247 206.84686,111.0661 C 210.76354,109.9353 214.92186,108.40812 219.20493,106.52559 C 220.23463,106.07075 221.27541,105.60327 222.32406,105.10421 C 222.43145,105.05368 222.53253,105.00314 222.63992,104.94628 C 236.15878,98.22918 246.54825,90.500214 248.79718,85.856421 C 249.28993,84.846308 249.40837,83.985099 249.07356,83.309792 C 247.46899,80.056426 236.24091,82.254342 222.63992,88.146415 C 221.54704,88.620201 220.44153,89.107738 219.32338,89.627013 C 220.23306,88.782409 221.17986,87.934632 222.14639,87.100123 C 223.68779,85.772241 225.28368,84.47374 226.98301,83.191347 C 229.64257,81.177408 232.33134,79.356787 234.97825,77.742741 C 247.37264,68.391994 253.63854,59.546604 252.33088,56.26418 C 252.0845,55.645717 251.56017,55.220255 250.75157,54.961249 C 248.16781,54.139387 243.45202,55.120285 237.7223,57.468398 C 232.99702,59.406531 227.56973,62.281017 222.06743,65.858464 C 222.06743,65.858464 221.31726,66.351996 221.31726,66.351996 C 221.31726,66.351996 221.17907,66.430956 221.17907,66.430956 C 221.17907,66.430964 218.53373,68.187935 218.53373,68.187935 C 218.53372,68.187931 220.05381,65.404409 220.05381,65.404409 C 222.30907,61.276098 225.98253,56.968706 230.55619,52.967377 C 233.91064,50.041868 237.74283,47.285349 241.86798,44.873432 C 243.42833,43.959969 244.98631,43.111559 246.54667,42.346545 C 248.14493,41.565734 249.74397,40.871785 251.30433,40.253963 C 255.83762,38.461161 260.165,37.371828 263.93877,37.075609 C 263.5951,37.075605 253.33768,37.075609 253.33768,37.075609 C 253.33769,37.075605 217.60589,37.075609 217.60589,37.075609 C 217.60589,37.075605 60.050377,37.075609 60.050377,37.075609 C 60.050377,37.075605 47.554121,37.075609 47.554121,37.075609 z M 160.9088,37.213799 C 160.28973,46.662471 162.12171,60.501933 166.27845,75.86731 C 167.01756,78.601408 167.82221,81.383826 168.70663,84.198152 C 169.25623,85.936012 169.8232,87.646727 170.40438,89.330895 C 170.06326,89.832487 169.71975,90.330913 169.39757,90.831235 C 164.21114,98.779559 161.17965,106.29106 160.41527,112.82307 C 158.22319,105.48245 156.57282,97.442056 155.63787,88.916327 C 155.37255,86.473454 155.16487,84.057913 155.02589,81.671265 C 154.00249,64.334911 156.26564,48.619548 160.9088,37.213799 z M 57.405045,49.512646 C 57.523349,49.509853 57.639971,49.512646 57.760386,49.512646 C 57.760386,49.512639 81.114372,49.512646 81.114372,49.512646 C 83.110618,49.512639 84.654387,49.886781 85.753582,50.6379 C 86.846457,51.393445 87.256297,52.370716 86.997284,53.559615 C 86.997291,53.559623 84.213758,66.134838 84.213758,66.134838 C 84.213758,66.134849 75.98163,66.134838 75.98163,66.134838 C 75.981637,66.134849 78.686191,53.895218 78.686191,53.895218 C 78.686183,53.895218 58.076251,53.895218 58.076251,53.895218 C 58.076243,53.895218 50.633769,87.534436 50.633769,87.534436 C 50.633776,87.534436 47.94895,99.714835 47.94895,99.714835 C 47.94895,99.714846 68.539151,99.714835 68.539151,99.714835 C 68.539151,99.714846 68.558893,99.635867 68.558893,99.635867 C 68.558893,99.635874 72.684827,81.000056 72.684827,81.000056 C 72.684827,81.000048 63.01158,81.000056 63.01158,81.000056 C 63.01158,81.000048 63.939421,76.795154 63.939421,76.795154 C 63.939417,76.795147 81.844803,76.795154 81.844803,76.795154 C 81.844803,76.795147 76.712058,100.05044 76.712058,100.05044 C 76.64257,100.38145 76.520965,100.68137 76.356713,100.97827 C 75.933462,101.74898 75.195136,102.40913 74.165429,102.95241 C 72.737744,103.70417 71.028925,104.07766 69.032683,104.07766 C 69.032683,104.07767 45.69844,104.07766 45.69844,104.07766 C 43.70219,104.07767 42.158424,103.70416 41.059229,102.95241 C 39.966358,102.20067 39.550202,101.2406 39.815528,100.05044 C 39.815531,100.05043 50.100753,53.559615 50.100753,53.559615 C 50.366072,52.37072 51.193639,51.393437 52.627644,50.6379 C 52.678183,50.610741 52.735038,50.604576 52.785572,50.578677 C 54.094427,49.923068 55.630499,49.554557 57.405045,49.512646 z M 94.00546,49.512646 C 94.005453,49.512639 123.40029,49.512646 123.40029,49.512646 C 125.37127,49.512639 126.92056,49.886781 128.01976,50.6379 C 129.12528,51.393445 129.54853,52.370716 129.2832,53.559615 C 129.28321,53.559623 123.79512,78.354721 123.79512,78.354721 C 123.53612,79.536032 122.68881,80.499889 121.24849,81.256694 C 119.80816,82.016019 118.11277,82.40169 116.13548,82.40169 C 116.13548,82.40169 94.775373,82.40169 94.775373,82.40169 C 94.775373,82.40169 90.649435,101.01776 90.649435,101.01776 C 90.649435,101.01777 89.97823,104.07766 89.97823,104.07766 C 89.978233,104.07767 81.923768,104.07766 81.923768,104.07766 C 81.923768,104.07767 82.535747,101.31388 82.535747,101.31388 C 82.535747,101.31389 94.00546,49.512646 94.00546,49.512646 z M 134.61336,49.512646 C 134.61336,49.512639 142.66782,49.512646 142.66782,49.512646 C 142.66783,49.512639 133.54733,90.712786 133.54733,90.712786 C 133.54734,90.712794 131.55346,99.714835 131.55346,99.714835 C 131.55346,99.714846 150.82099,99.714835 150.82099,99.714835 C 151.02315,101.19244 151.25925,102.64365 151.51194,104.07766 C 151.51193,104.07767 122.53167,104.07766 122.53167,104.07766 C 122.53168,104.07767 124.82166,93.733209 124.82166,93.733209 C 124.82167,93.733209 134.61336,49.512646 134.61336,49.512646 z M 101.09259,53.895218 C 101.0926,53.895218 95.742693,78.019114 95.742693,78.019114 C 95.742693,78.019107 115.81962,78.019114 115.81962,78.019114 C 115.81962,78.019107 121.14978,53.895218 121.14978,53.895218 C 121.14978,53.895218 101.09259,53.895218 101.09259,53.895218 z M 84.213758,107.868 C 84.292545,107.86535 84.371294,107.868 84.450659,107.868 C 85.385608,107.86801 86.202106,108.03225 86.859097,108.34179 C 87.560311,108.67028 88.06174,109.15829 88.339699,109.80265 C 88.611341,110.42806 88.682407,111.13795 88.537108,111.91497 C 88.537108,111.91498 88.477889,112.21109 88.477889,112.21109 C 88.477893,112.21108 86.168153,112.21109 86.168153,112.21109 C 86.168146,112.21108 86.187895,111.93471 86.187895,111.93471 C 86.247607,111.39182 86.180304,110.96491 85.970737,110.67127 C 85.943426,110.63444 85.903857,110.58583 85.872031,110.55282 C 85.819914,110.49961 85.741635,110.43879 85.674622,110.39489 C 85.351437,110.19132 84.845884,110.07903 84.19402,110.07903 C 83.328562,110.07903 82.681836,110.22985 82.239632,110.53308 C 81.810058,110.82999 81.538419,111.16165 81.449978,111.55963 C 81.36153,111.96393 81.50683,112.17634 81.607911,112.29006 C 81.611059,112.2932 81.623815,112.30627 81.627645,112.3098 C 81.755648,112.41888 82.200145,112.67461 83.582036,113.00074 C 84.83284,113.30397 85.661196,113.5764 86.128669,113.81014 C 86.836206,114.17021 87.330523,114.6369 87.589533,115.21177 C 87.848527,115.78033 87.90539,116.446 87.747461,117.16616 C 87.589533,117.86737 87.231817,118.5141 86.701169,119.12056 C 86.176844,119.72701 85.509584,120.20712 84.707293,120.54193 C 83.911316,120.87042 83.03797,121.0552 82.140922,121.0552 C 81.003822,121.0552 80.090988,120.88306 79.377139,120.54193 C 78.631703,120.18817 78.093949,119.62988 77.778092,118.9034 C 77.474864,118.19587 77.410111,117.39279 77.580676,116.5147 C 77.580676,116.51469 77.639902,116.23832 77.639902,116.23832 C 77.639902,116.23832 79.910154,116.23832 79.910154,116.23832 C 79.910154,116.23832 79.890412,116.5147 79.890412,116.5147 C 79.833553,117.03903 79.889623,117.46228 80.028602,117.77814 C 80.161262,118.08138 80.413955,118.33248 80.818253,118.52832 C 81.24782,118.73678 81.784785,118.84417 82.397557,118.84417 C 82.947158,118.84417 83.449381,118.75178 83.897901,118.58754 C 84.340105,118.42961 84.691501,118.22114 84.94419,117.95582 C 85.190556,117.69048 85.33507,117.41017 85.398241,117.10694 C 85.461413,116.8353 85.446409,116.60551 85.339015,116.41599 C 85.218989,116.21385 84.981303,116.03459 84.608591,115.88298 C 84.608591,115.88297 82.673934,115.31048 82.673934,115.31048 C 81.593692,115.03884 80.866424,114.77983 80.44317,114.52083 C 79.868295,114.1797 79.453732,113.74223 79.238945,113.2179 C 79.024161,112.69988 79.001263,112.12581 79.140242,111.5004 C 79.285538,110.83078 79.608504,110.19353 80.107563,109.62498 C 80.612949,109.0501 81.265195,108.59922 82.042216,108.30231 C 82.729215,108.04469 83.452185,107.89361 84.213758,107.868 z M 104.94215,107.90748 C 105.06709,107.89775 105.18457,107.90748 105.31724,107.90748 C 105.31724,107.90748 106.73861,108.06541 106.73861,108.06541 C 106.73861,108.06541 107.2124,108.1049 107.2124,108.1049 C 107.21241,108.1049 106.52146,109.86187 106.52146,109.86187 C 106.52145,109.86188 106.38327,110.13825 106.38327,110.13825 C 106.38327,110.13824 105.2975,110.03954 105.2975,110.03954 C 104.9769,110.03954 104.74139,110.08901 104.58681,110.19747 C 104.57654,110.20523 104.5568,110.22867 104.54733,110.23696 C 104.52662,110.25512 104.49179,110.28681 104.46836,110.31593 C 104.3733,110.44059 104.25752,110.66337 104.17224,111.0661 C 104.17223,111.0661 104.13118,111.23666 104.09328,111.38196 C 104.59234,111.38196 105.79103,111.38196 105.79103,111.38196 C 105.79103,111.38196 105.35672,113.33634 105.35672,113.33634 C 105.35672,113.33634 104.11539,113.33634 103.69845,113.33634 C 103.5721,113.90489 102.02044,120.85779 102.02044,120.85779 C 102.02043,120.85778 99.730444,120.85779 99.730444,120.85779 C 99.730437,120.85778 101.21894,114.17654 101.40846,113.33634 C 101.0231,113.33634 100.08579,113.33634 100.08579,113.33634 C 100.08579,113.33634 100.5201,111.38196 100.5201,111.38196 C 100.5201,111.38196 101.46294,111.38196 101.82302,111.38196 C 101.88619,111.11032 101.98095,110.76997 101.98095,110.76997 C 102.11993,110.13825 102.26523,109.6842 102.45474,109.36834 C 102.71376,108.93246 103.07936,108.56763 103.54052,108.30231 C 103.92035,108.0816 104.40073,107.94965 104.94215,107.90748 z M 110.4105,108.00619 C 110.41049,108.00619 109.81194,110.6997 109.66033,111.38196 C 110.10253,111.38196 111.14093,111.38196 111.14093,111.38196 C 111.14093,111.38196 110.70662,113.33634 110.70662,113.33634 C 110.70661,113.33634 109.61769,113.33634 109.22602,113.33634 C 109.10599,113.87962 108.15999,118.09401 108.15999,118.09401 C 108.16,118.094 108.08102,118.60017 108.08102,118.74547 C 108.08112,118.7503 108.08063,118.76165 108.08102,118.76521 C 108.08133,118.7667 108.08058,118.78372 108.08102,118.78495 C 108.08163,118.78595 108.09997,118.78416 108.10076,118.78495 C 108.10076,118.78494 108.33766,118.80469 108.33766,118.80469 C 108.33766,118.80469 109.42343,118.72573 109.42343,118.72573 C 109.42343,118.72573 109.30498,120.4827 109.30498,120.4827 C 109.30499,120.4827 109.32473,120.79856 109.32473,120.79856 C 109.32472,120.79856 107.76516,120.97624 107.76516,120.97624 C 107.14608,120.97623 106.69202,120.87517 106.36353,120.66038 C 106.01609,120.43295 105.81393,120.13131 105.7318,119.75228 C 105.71917,119.68278 105.69232,119.58171 105.69232,119.43642 C 105.69232,119.15214 105.74602,118.67124 105.92922,117.83737 C 105.92922,117.83738 106.75914,114.11968 106.93603,113.33634 C 106.63913,113.33634 105.85025,113.33634 105.85025,113.33634 C 105.85026,113.33634 106.28456,111.38196 106.28456,111.38196 C 106.28455,111.38196 107.05447,111.38196 107.37033,111.38196 C 107.4714,110.92712 107.82438,109.36834 107.82438,109.36834 C 107.82438,109.36835 109.66033,108.40101 109.66033,108.40101 C 109.66033,108.40102 110.4105,108.00619 110.4105,108.00619 z M 37.66372,108.08515 C 37.663727,108.08515 46.547316,108.08515 46.547316,108.08515 C 46.547316,108.08515 46.053785,110.29618 46.053785,110.29618 C 46.053785,110.29619 40.127439,110.29618 39.558889,110.29618 C 39.457819,110.74471 39.052721,112.56091 38.907425,113.2179 C 39.728669,113.2179 44.533703,113.2179 44.533703,113.2179 C 44.533703,113.2179 44.040167,115.42892 44.040167,115.42892 C 44.040164,115.42892 38.982444,115.42892 38.41389,115.42892 C 38.293864,115.97852 37.209669,120.85779 37.209669,120.85779 C 37.209676,120.85778 34.820972,120.85779 34.820972,120.85779 C 34.820976,120.85778 37.66372,108.08515 37.66372,108.08515 z M 49.567734,111.20429 C 49.656893,111.19333 49.754292,111.20429 49.844115,111.20429 C 50.412665,111.20429 50.937786,111.37722 51.443165,111.7373 C 51.443165,111.7373 51.759022,111.95445 51.759022,111.95445 C 51.759022,111.95445 50.535062,113.96807 50.535062,113.96807 C 50.535062,113.96806 50.199463,113.73117 50.199463,113.73117 C 49.95309,113.57325 49.687768,113.49428 49.409809,113.49428 C 49.169752,113.49428 48.946281,113.57956 48.718861,113.73117 C 48.478812,113.8891 48.278232,114.09836 48.126624,114.38264 C 47.861298,114.86907 47.667042,115.41392 47.534383,116.00143 C 47.534383,116.00143 46.468352,120.85779 46.468352,120.85779 C 46.468352,120.85778 44.178358,120.85779 44.178358,120.85779 C 44.178358,120.85778 46.290681,111.38196 46.290681,111.38196 C 46.290689,111.38196 48.422742,111.38196 48.422742,111.38196 C 48.422742,111.38196 48.349302,111.66939 48.324032,111.77678 C 48.42511,111.70098 48.531711,111.59674 48.620155,111.53988 C 48.926147,111.35728 49.249339,111.24338 49.567734,111.20429 z M 56.358752,111.20429 C 56.496635,111.19386 56.632373,111.20429 56.773323,111.20429 C 58.06204,111.20429 59.037255,111.65596 59.675293,112.54669 C 60.073275,113.12156 60.28728,113.83225 60.28728,114.67876 C 60.28728,115.14622 60.229633,115.64924 60.10961,116.19884 C 60.10961,116.19884 59.931932,116.88979 59.931932,116.88979 C 59.931932,116.88978 54.140621,116.88979 53.496262,116.88979 C 53.483626,117.02244 53.47652,117.16458 53.47652,117.28461 C 53.47652,117.77736 53.577594,118.16507 53.792381,118.44935 C 53.894444,118.58832 54.01277,118.71349 54.147726,118.80469 C 54.402153,118.97062 54.730591,119.06133 55.115051,119.06133 C 55.582531,119.06132 55.993142,118.93261 56.378494,118.68624 C 56.744901,118.45251 57.095504,118.079 57.405045,117.56099 C 57.405045,117.56098 59.852968,117.56099 59.852968,117.56099 C 59.852968,117.56098 59.635817,118.03478 59.635817,118.03478 C 59.16834,118.98237 58.516087,119.72148 57.701164,120.24581 C 56.886244,120.77014 55.912599,121.0552 54.83867,121.0552 C 53.442564,121.0552 52.40338,120.60352 51.759022,119.7128 C 51.120987,118.84101 50.983586,117.636 51.324716,116.11987 C 51.66585,114.57847 52.346529,113.34661 53.33833,112.48747 C 54.227287,111.71667 55.236011,111.28914 56.358752,111.20429 z M 66.643986,111.20429 C 66.781865,111.19386 66.917599,111.20429 67.058549,111.20429 C 68.34727,111.20429 69.322489,111.65596 69.960527,112.54669 C 70.358512,113.12156 70.572507,113.83225 70.572507,114.67876 C 70.572507,115.13991 70.514863,115.63581 70.394832,116.1791 C 70.394832,116.1791 70.217166,116.88979 70.217166,116.88979 C 70.217166,116.88978 64.425847,116.88979 63.781492,116.88979 C 63.775168,116.97822 63.768067,117.05798 63.76175,117.14642 C 63.757012,117.17959 63.763825,117.22993 63.76175,117.26487 C 63.761565,117.27057 63.76175,117.27908 63.76175,117.28461 C 63.76175,117.37938 63.775176,117.47255 63.781492,117.56099 C 63.813067,117.92107 63.90705,118.22193 64.077611,118.44935 C 64.11009,118.49357 64.14062,118.54815 64.176317,118.58754 C 64.465653,118.89708 64.87516,119.06133 65.400281,119.06133 C 65.867761,119.06132 66.284692,118.93261 66.663728,118.68624 C 67.030131,118.45251 67.38073,118.079 67.690275,117.56099 C 67.690275,117.56098 70.15794,117.56099 70.15794,117.56099 C 70.157936,117.56098 69.921043,118.03478 69.921043,118.03478 C 69.45357,118.98237 68.801317,119.72148 67.986394,120.24581 C 67.17147,120.77014 66.197829,121.0552 65.123904,121.0552 C 63.727801,121.0552 62.688614,120.60352 62.044256,119.7128 C 61.627317,119.14424 61.432272,118.42013 61.432272,117.56099 C 61.432272,117.42832 61.439378,117.2854 61.452014,117.14642 C 61.477291,116.81793 61.527822,116.48627 61.609946,116.11987 C 61.951084,114.58479 62.612017,113.34661 63.603818,112.48747 C 64.492771,111.71667 65.521244,111.28914 66.643986,111.20429 z M 94.656921,111.20429 C 94.798008,111.19343 94.927774,111.20429 95.071488,111.20429 C 96.385474,111.20429 97.395442,111.64886 98.05243,112.52695 C 98.703112,113.40504 98.861037,114.58952 98.526219,116.08039 C 98.267217,117.24276 97.892923,118.18165 97.381228,118.86392 C 96.869521,119.54618 96.217276,120.10367 95.446571,120.4827 C 94.682201,120.86174 93.872794,121.0552 93.057874,121.0552 C 91.718623,121.0552 90.72129,120.5972 90.076932,119.7128 C 89.65999,119.15056 89.44521,118.42645 89.44521,117.56099 C 89.445218,117.09351 89.496542,116.59682 89.622885,116.04091 C 90.001924,114.34789 90.775774,113.05839 91.912879,112.23083 C 92.747537,111.62833 93.669298,111.2802 94.656921,111.20429 z M 129.34243,111.20429 C 129.50899,111.19401 129.66322,111.20429 129.83596,111.20429 C 130.63193,111.20429 131.25734,111.28482 131.73113,111.48066 C 132.23651,111.68282 132.59501,111.96867 132.79716,112.3098 C 132.993,112.63196 133.09328,113.02759 133.09328,113.51401 C 133.09329,113.51402 132.85638,114.95513 132.85638,114.95513 C 132.85639,114.95513 132.42208,116.90953 132.42208,116.90953 C 132.04935,118.57727 131.96724,119.20268 131.94828,119.43642 C 131.92933,119.75228 131.95855,120.06024 132.04699,120.34452 C 132.047,120.34451 132.20492,120.85779 132.20492,120.85779 C 132.20493,120.85778 129.87544,120.85779 129.87544,120.85779 C 129.87544,120.85778 129.77673,120.56167 129.77673,120.56167 C 129.73883,120.4227 129.74989,120.24581 129.73725,120.08788 C 129.29505,120.35952 128.85205,120.60036 128.45407,120.73934 C 127.86657,120.9415 127.25696,121.0552 126.63787,121.0552 C 125.56395,121.0552 124.76876,120.77567 124.28865,120.22606 C 123.92225,119.82177 123.75564,119.32744 123.75564,118.76521 C 123.75563,118.55043 123.78406,118.32774 123.8346,118.09401 C 123.94199,117.6139 124.13704,117.16932 124.44658,116.77133 C 124.74981,116.37966 125.10831,116.05749 125.51261,115.82375 C 125.90429,115.59002 126.34096,115.42419 126.7958,115.31048 C 126.79579,115.31048 128.19743,115.07358 128.19743,115.07358 C 129.27768,114.94723 130.08391,114.7901 130.6651,114.61953 C 130.67774,114.55636 130.70458,114.48134 130.70458,114.48134 C 130.79618,114.07488 130.78472,113.76936 130.68484,113.61272 C 130.67749,113.60262 130.65365,113.58192 130.64536,113.57324 C 130.62403,113.55051 130.59126,113.51479 130.56639,113.49428 C 130.32879,113.30625 129.92361,113.2179 129.38191,113.2179 C 128.76914,113.2179 128.31588,113.31819 128.00002,113.51401 C 127.69048,113.70985 127.40383,114.06835 127.15114,114.58005 C 127.15114,114.58004 124.76244,114.58005 124.76244,114.58005 C 124.76245,114.58004 124.9796,114.10626 124.9796,114.10626 C 125.26386,113.44926 125.60263,112.90441 126.02589,112.48747 C 126.44914,112.07052 127.02085,111.74756 127.68416,111.52015 C 128.19249,111.35234 128.74757,111.24099 129.34243,111.20429 z M 139.35128,111.20429 C 139.44036,111.19333 139.53783,111.20429 139.62766,111.20429 C 140.20252,111.20429 140.74107,111.37722 141.24645,111.7373 C 141.24645,111.7373 141.54257,111.95445 141.54257,111.95445 C 141.54257,111.95445 140.31861,113.96807 140.31861,113.96807 C 140.31861,113.96806 139.983,113.73117 139.983,113.73117 C 139.73663,113.57325 139.48473,113.49428 139.21309,113.49428 C 138.97303,113.49428 138.73614,113.57956 138.5024,113.73117 C 138.26235,113.8891 138.08783,114.09836 137.92991,114.38264 C 137.67089,114.86907 137.47032,115.41392 137.33766,116.00143 C 137.33766,116.00143 136.25189,120.85779 136.25189,120.85779 C 136.2519,120.85778 133.9619,120.85779 133.9619,120.85779 C 133.9619,120.85778 136.07422,111.38196 136.07422,111.38196 C 136.07421,111.38196 138.20628,111.38196 138.20628,111.38196 C 138.20628,111.38196 138.15258,111.66939 138.12732,111.77678 C 138.22839,111.70098 138.32868,111.59674 138.42344,111.53988 C 138.72449,111.35728 139.03311,111.24338 139.35128,111.20429 z M 146.12255,111.20429 C 146.26031,111.19386 146.39617,111.20429 146.53712,111.20429 C 147.82584,111.20429 148.80737,111.65596 149.4391,112.54669 C 149.8434,113.12156 150.05108,113.83225 150.05108,114.67876 C 150.05107,115.14622 149.97369,115.64924 149.85366,116.19884 C 149.85366,116.19884 149.69573,116.88979 149.69573,116.88979 C 149.69573,116.88978 143.8981,116.88979 143.26006,116.88979 C 143.24743,117.02244 143.22058,117.16458 143.22058,117.28461 C 143.22058,117.77736 143.32797,118.16507 143.53644,118.44935 C 143.56892,118.49357 143.61905,118.54815 143.65489,118.58754 C 143.67564,118.60965 143.71198,118.64598 143.73385,118.6665 C 144.01628,118.92324 144.40062,119.06133 144.87885,119.06133 C 145.34633,119.06132 145.75694,118.93261 146.14229,118.68624 C 146.5087,118.45251 146.85299,118.079 147.16884,117.56099 C 147.16884,117.56098 149.63651,117.56099 149.63651,117.56099 C 149.63651,117.56098 149.39961,118.03478 149.39961,118.03478 C 148.93213,118.98237 148.27357,119.72148 147.46496,120.24581 C 146.64373,120.77014 145.68272,121.0552 144.60247,121.0552 C 143.20637,121.0552 142.18692,120.60352 141.54257,119.7128 C 140.90452,118.84101 140.7537,117.636 141.08851,116.11987 C 141.42964,114.57847 142.09059,113.34661 143.08239,112.48747 C 143.97697,111.71667 145.00084,111.28914 146.12255,111.20429 z M 111.55549,111.38196 C 111.5555,111.38196 113.90471,111.38196 113.90471,111.38196 C 113.90472,111.38196 114.19451,117.00508 114.20083,117.08719 C 114.29559,116.88583 114.36911,116.71641 114.37851,116.69237 C 114.37851,116.69238 116.96462,111.38196 116.96462,111.38196 C 116.96462,111.38196 119.11642,111.38196 119.11642,111.38196 C 119.11642,111.38196 119.31383,116.93716 119.31383,116.96875 C 119.37702,116.85505 122.25529,111.38196 122.25529,111.38196 C 122.25528,111.38196 124.58477,111.38196 124.58477,111.38196 C 124.58477,111.38196 119.45202,120.85779 119.45202,120.85779 C 119.45203,120.85778 117.3397,120.85779 117.3397,120.85779 C 117.3397,120.85778 117.13519,115.71952 117.12255,115.42892 C 116.25076,117.2167 114.47721,120.85779 114.47721,120.85779 C 114.47721,120.85778 112.30567,120.85779 112.30567,120.85779 C 112.30567,120.85778 111.55549,111.38196 111.55549,111.38196 z M 56.398236,113.17842 C 55.854051,113.20139 55.359846,113.39754 54.8979,113.77065 C 54.531504,114.06125 54.284334,114.46003 54.0885,114.89591 C 54.0885,114.89592 57.977541,114.89591 57.977541,114.89591 C 57.983864,114.82643 57.997283,114.74193 57.997283,114.67876 C 57.997275,114.31868 57.933318,114.03914 57.819612,113.84962 C 57.541661,113.39478 57.129457,113.17842 56.516684,113.17842 C 56.479972,113.17842 56.434516,113.17689 56.398236,113.17842 z M 66.683462,113.17842 C 66.139281,113.20139 65.645072,113.39754 65.183122,113.77065 C 64.816719,114.06125 64.575885,114.46003 64.373734,114.89591 C 64.373734,114.89592 68.262771,114.89591 68.262771,114.89591 C 68.269083,114.82643 68.282513,114.74193 68.282513,114.67876 C 68.282509,114.31868 68.224868,114.03914 68.104838,113.84962 C 68.049661,113.75723 67.975017,113.66536 67.907426,113.59299 C 67.643659,113.32043 67.280639,113.17842 66.801914,113.17842 C 66.765198,113.17842 66.719746,113.17689 66.683462,113.17842 z M 146.241,113.17842 C 145.6814,113.19565 145.15879,113.38511 144.68144,113.77065 C 144.32135,114.06125 144.07419,114.46003 143.87204,114.89591 C 143.87205,114.89592 147.74134,114.89591 147.74134,114.89591 C 147.74765,114.82643 147.76108,114.74193 147.76108,114.67876 C 147.76108,114.31868 147.70344,114.03914 147.58341,113.84962 C 147.31177,113.40109 146.89325,113.18474 146.28048,113.17842 C 146.26232,113.17861 146.25906,113.17786 146.241,113.17842 z M 94.518734,113.2179 C 93.996517,113.27991 93.51094,113.51816 93.057874,113.92859 C 92.514597,114.42134 92.120557,115.19519 91.893141,116.21858 C 91.79838,116.64815 91.754947,117.01534 91.754947,117.34383 C 91.754954,117.79235 91.841016,118.14454 92.011585,118.40986 C 92.056993,118.47797 92.117227,118.54994 92.169517,118.60728 C 92.450344,118.90546 92.842498,119.06133 93.334255,119.06133 C 93.972289,119.06132 94.534527,118.82365 95.071488,118.3309 C 95.61478,117.83183 96.002488,117.05008 96.236225,116.00143 C 96.45102,115.0412 96.421005,114.3242 96.11778,113.86936 C 95.827189,113.42716 95.402356,113.2179 94.814856,113.2179 C 94.715161,113.2179 94.615436,113.20641 94.518734,113.2179 z M 130.19131,116.67263 C 129.65435,116.81792 129.05262,116.94032 128.25666,117.04772 C 127.66284,117.13616 127.23958,117.22933 126.99321,117.32409 C 126.77843,117.41253 126.60549,117.53493 126.46019,117.69918 C 126.32121,117.8571 126.22804,118.02294 126.18382,118.21245 C 126.17119,118.28827 126.16407,118.36643 126.16407,118.42961 C 126.16407,118.43474 126.16396,118.44427 126.16407,118.44935 C 126.16474,118.46438 126.16243,118.49407 126.16407,118.50857 C 126.16803,118.53723 126.17599,118.58059 126.18382,118.60728 C 126.18664,118.61607 126.20031,118.63817 126.20355,118.64676 C 126.21047,118.66374 126.21472,118.68977 126.2233,118.70599 C 126.23229,118.72201 126.25216,118.74988 126.26278,118.76521 C 126.27932,118.78794 126.30186,118.82285 126.32201,118.84417 C 126.47994,119.02105 126.79501,119.10081 127.24985,119.10081 C 127.74892,119.10082 128.22902,119.00605 128.67122,118.78495 C 129.10712,118.57017 129.45851,118.24956 129.71751,117.87685 C 129.90704,117.61152 130.05865,117.20327 130.19131,116.67263 z " />
    <g
       style="fill:#000000;fill-opacity:0.94117647;fill-rule:evenodd;stroke:none;stroke-width:1pt;stroke-linecap:butt;stroke-linejoin:miter"
       transform="matrix(0.6317225,0,0,0.6317225,146.28664,113.18531)"
       id="g80">
      <path
         style="fill:#000000;fill-opacity:0.94117647"
         d="M 0.03,0 C 0.02,0 0.01,0 0,0 C 0.97,0.01 1.61,0.34 2.04,1.05 C 2.23,1.35 2.33,1.8 2.33,2.37 C 2.33,2.47 2.31,2.6 2.3,2.71 C 2.3,2.71 2.34,2.71 2.34,2.71 C 2.34,2.6 2.36,2.47 2.36,2.37 C 2.36,1.8 2.27,1.35 2.08,1.05 C 1.65,0.33 1,0 0.03,0 z "
         id="path82" />
    </g>
    <g
       style="fill:#bd0000;fill-opacity:1"
       transform="matrix(0.6317225,0,0,0.6317225,-61.305397,-143.76928)"
       id="g4966">
      <g
         style="fill:#bd0000;fill-opacity:1;fill-rule:evenodd;stroke:none;stroke-width:1pt;stroke-linecap:butt;stroke-linejoin:miter"
         id="g84"
         transform="translate(125.1273,453.3934)">
        <path
           style="fill:#bd0000;fill-opacity:1"
           id="path86"
           d="M 0,36 C 0,36 7.46,36 7.46,36 C 7.46,36 10.81,22 10.81,22 C 10.81,22 22.93,22 22.93,22 C 22.93,22 24.49,16 24.49,16 C 24.49,16 12.32,16 12.32,16 C 12.32,16 14.34,7 14.34,7 C 14.34,7 27.29,7 27.29,7 C 27.29,7 28.85,0 28.85,0 C 28.85,0 8.4,0 8.4,0 C 8.4,0 0,36 0,36 z " />
      </g>
      <g
         style="fill:#bd0000;fill-opacity:1;fill-rule:evenodd;stroke:none;stroke-width:1pt;stroke-linecap:butt;stroke-linejoin:miter"
         id="g88"
         transform="translate(151.0773,463.3934)">
        <path
           style="fill:#bd0000;fill-opacity:1"
           id="path90"
           d="M 7.51,26 C 7.51,26 9.75,16.6 9.75,16.6 C 10.93,11.51 13.42,7 18.13,7 C 18.55,7 18.96,7.21 19.27,7.26 C 19.27,7.26 21.09,0.05 21.09,0.05 C 20.67,0.05 20.21,0 19.69,0 C 16.22,0 13.31,2.44 11.37,5.94 C 11.37,5.94 11.17,5.94 11.17,5.94 C 11.46,4.23 11.71,2.61 11.9,1 C 11.9,1 5.47,1 5.47,1 C 5.1,3.08 4.53,7.15 3.66,10.82 C 3.66,10.82 0,26 0,26 C 0,26 7.51,26 7.51,26 z " />
      </g>
      <g
         style="fill:#bd0000;fill-opacity:1;fill-rule:evenodd;stroke:none;stroke-width:1pt;stroke-linecap:butt;stroke-linejoin:miter"
         id="g92"
         transform="translate(171.7073,463.3934)">
        <path
           style="fill:#bd0000;fill-opacity:1"
           id="path94"
           d="M 20.06,19.25 C 17.99,20.26 15.63,20 12.88,20 C 10.71,20 9.03,19.62 8.11,18.88 C 7.63,18.07 7.43,16.81 7.47,16 C 17.6,16.27 23.99,13.93 24.31,7.53 C 24.55,2.7 21.02,0 15.89,0 C 6.73,0 0.73,8.08 0.34,15.86 C 0,22.65 3.52,26 10.78,26 C 13.57,26 17.27,25.68 20.3,24.77 C 20.3,24.77 20.06,19.25 20.06,19.25 z M 17.32,7.53 C 17.2,9.91 14.26,10.05 8.47,10 C 9.1,7.91 11.22,6 14.69,6 C 16.4,6 17.38,6.65 17.32,7.53 z " />
      </g>
      <g
         style="fill:#bd0000;fill-opacity:1;fill-rule:evenodd;stroke:none;stroke-width:1pt;stroke-linecap:butt;stroke-linejoin:miter"
         id="g96"
         transform="translate(198.2273,463.3934)">
        <path
           style="fill:#bd0000;fill-opacity:1"
           id="path98"
           d="M 20.05,19.25 C 17.98,20.26 15.62,20 12.88,20 C 10.7,20 9.03,19.62 8.11,18.88 C 7.63,18.07 7.42,16.81 7.46,16 C 17.6,16.27 23.98,13.93 24.31,7.53 C 24.55,2.7 21.02,0 15.89,0 C 6.72,0 0.72,8.08 0.33,15.86 C 0,22.65 3.52,26 10.77,26 C 13.57,26 17.27,25.68 20.3,24.77 C 20.3,24.77 20.05,19.25 20.05,19.25 z M 17.32,7.53 C 17.2,9.91 14.26,10.05 8.46,10 C 9.1,7.91 11.21,6 14.68,6 C 16.39,6 17.38,6.65 17.32,7.53 z " />
      </g>
      <g
         style="fill:#bd0000;fill-opacity:1;fill-rule:evenodd;stroke:none;stroke-width:1pt;stroke-linecap:butt;stroke-linejoin:miter"
         id="g100"
         transform="translate(234.1373,463.3934)">
        <path
           style="fill:#bd0000;fill-opacity:1"
           id="path102"
           d="M 22.74,26 C 22.8,22.83 23.56,17.85 24.35,14.58 C 24.35,14.58 27.56,1 27.56,1 C 25.52,0.31 22.34,0 19.28,0 C 6.86,0 0.7,9.2 0.27,17.82 C 0,23.23 2.93,26 7.49,26 C 10.44,26 13.77,24.57 16.36,20.27 C 16.36,20.27 16.47,20.27 16.47,20.27 C 16.27,22.34 16.03,24.35 15.9,26 C 15.9,26 22.74,26 22.74,26 z M 17.61,11.72 C 16.15,18.08 13.17,20 10.95,20 C 8.88,20 7.98,18.53 8.1,16.39 C 8.34,11.56 12.16,6 16.98,6 C 17.76,6 18.37,5.86 18.94,5.72 C 18.94,5.72 17.61,11.72 17.61,11.72 z " />
      </g>
      <g
         style="fill:#bd0000;fill-opacity:1;fill-rule:evenodd;stroke:none;stroke-width:1pt;stroke-linecap:butt;stroke-linejoin:miter"
         id="g104"
         transform="translate(261.7673,463.3934)">
        <path
           style="fill:#bd0000;fill-opacity:1"
           id="path106"
           d="M 0,24.82 C 1.44,25.94 4.46,25.95 7.61,26 C 14.34,26.05 19.42,23.11 19.72,17.71 C 19.89,14.11 17.1,11.98 14.37,10.55 C 12.4,9.6 11.41,8.69 11.46,7.63 C 11.53,6.2 12.87,6 14.84,6 C 17.06,6 18.84,6.27 19.86,6.47 C 19.86,6.47 21.88,1.05 21.88,1.05 C 20.73,0.36 18.43,0 15.48,0 C 8.95,0 4.17,3.45 3.9,8.69 C 3.74,11.93 6.07,14.11 8.89,15.59 C 11.17,16.76 11.95,17.66 11.89,18.93 C 11.82,20.21 10.68,20 8.61,20 C 6.18,20 3.49,19.68 2.07,19.46 C 2.07,19.46 0,24.82 0,24.82 z " />
      </g>
      <g
         style="fill:#bd0000;fill-opacity:1;fill-rule:evenodd;stroke:none;stroke-width:1pt;stroke-linecap:butt;stroke-linejoin:miter"
         id="g108"
         transform="translate(294.2173,452.3934)">
        <path
           style="fill:#bd0000;fill-opacity:1"
           id="path110"
           d="M 7.45,37 C 7.45,37 13.5,12 13.5,12 C 13.5,12 6.09,12 6.09,12 C 6.09,12 0,37 0,37 C 0,37 7.45,37 7.45,37 z M 10.92,9 C 13.46,9 15.72,6.9 15.86,3.3 C 15.98,0.86 14.4,0 12.07,0 C 9.64,0 7.42,1.58 7.29,3.94 C 7.17,6.32 8.75,9 10.92,9 z " />
      </g>
      <g
         style="fill:#bd0000;fill-opacity:1;fill-rule:evenodd;stroke:none;stroke-width:1pt;stroke-linecap:butt;stroke-linejoin:miter"
         id="g112"
         transform="translate(308.5073,464.0834)">
        <path
           style="fill:#bd0000;fill-opacity:1"
           id="path114"
           d="M 7.46,25.31 C 7.46,25.31 10.1,14.05 10.1,14.05 C 11.47,8.32 14.42,6.31 16.85,6.31 C 18.77,6.31 19.33,7.13 19.24,8.32 C 19.19,9.28 19.04,10.29 18.84,11.19 C 18.84,11.19 15.48,25.31 15.48,25.31 C 15.48,25.31 22.94,25.31 22.94,25.31 C 22.94,25.31 26.48,10.5 26.48,10.5 C 26.75,9.22 27.05,7.31 27.11,6.15 C 27.33,1.64 25.08,0 20.94,0 C 17.62,0 14.39,1.54 11.84,4.88 C 11.84,4.88 11.74,4.88 11.74,4.88 C 11.74,4.88 12.42,0.31 12.42,0.31 C 12.42,0.31 5.84,0.31 5.84,0.31 C 5.41,2.45 4.86,5.04 4.08,8.06 C 4.08,8.06 0,25.31 0,25.31 C 0,25.31 7.46,25.31 7.46,25.31 z " />
      </g>
      <g
         style="fill:#bd0000;fill-opacity:1;fill-rule:evenodd;stroke:none;stroke-width:1pt;stroke-linecap:butt;stroke-linejoin:miter"
         id="g116"
         transform="translate(348.0673,453.3934)">
        <path
           style="fill:#bd0000;fill-opacity:1"
           id="path118"
           d="M 0,36 C 0,36 7.46,36 7.46,36 C 7.46,36 10.82,22 10.82,22 C 10.82,22 22.93,22 22.93,22 C 22.93,22 24.49,16 24.49,16 C 24.49,16 12.32,16 12.32,16 C 12.32,16 14.34,7 14.34,7 C 14.34,7 27.29,7 27.29,7 C 27.29,7 28.85,0 28.85,0 C 28.85,0 8.4,0 8.4,0 C 8.4,0 0,36 0,36 z " />
      </g>
      <g
         style="fill:#bd0000;fill-opacity:1;fill-rule:evenodd;stroke:none;stroke-width:1pt;stroke-linecap:butt;stroke-linejoin:miter"
         id="g120"
         transform="translate(374.0173,463.3934)">
        <path
           style="fill:#bd0000;fill-opacity:1"
           id="path122"
           d="M 7.51,26 C 7.51,26 9.75,16.6 9.75,16.6 C 10.93,11.51 13.42,7 18.13,7 C 18.55,7 18.96,7.21 19.27,7.26 C 19.27,7.26 21.09,0.05 21.09,0.05 C 20.67,0.05 20.21,0 19.69,0 C 16.22,0 13.31,2.44 11.37,5.94 C 11.37,5.94 11.17,5.94 11.17,5.94 C 11.46,4.23 11.71,2.61 11.9,1 C 11.9,1 5.47,1 5.47,1 C 5.11,3.08 4.53,7.15 3.66,10.82 C 3.66,10.82 0,26 0,26 C 0,26 7.51,26 7.51,26 z " />
      </g>
      <g
         style="fill:#bd0000;fill-opacity:1;fill-rule:evenodd;stroke:none;stroke-width:1pt;stroke-linecap:butt;stroke-linejoin:miter"
         id="g124"
         transform="translate(394.6473,463.3934)">
        <path
           style="fill:#bd0000;fill-opacity:1"
           id="path126"
           d="M 20.06,19.25 C 17.99,20.26 15.63,20 12.88,20 C 10.71,20 9.03,19.62 8.11,18.88 C 7.63,18.07 7.43,16.81 7.47,16 C 17.6,16.27 23.99,13.93 24.31,7.53 C 24.55,2.7 21.02,0 15.89,0 C 6.73,0 0.73,8.08 0.34,15.86 C 0,22.65 3.53,26 10.78,26 C 13.57,26 17.28,25.68 20.3,24.77 C 20.3,24.77 20.06,19.25 20.06,19.25 z M 17.32,7.53 C 17.2,9.91 14.26,10.05 8.47,10 C 9.1,7.91 11.22,6 14.69,6 C 16.4,6 17.38,6.65 17.32,7.53 z " />
      </g>
      <g
         style="fill:#bd0000;fill-opacity:1;fill-rule:evenodd;stroke:none;stroke-width:1pt;stroke-linecap:butt;stroke-linejoin:miter"
         id="g128"
         transform="translate(421.1673,463.3934)">
        <path
           style="fill:#bd0000;fill-opacity:1"
           id="path130"
           d="M 20.05,19.25 C 17.98,20.26 15.62,20 12.88,20 C 10.7,20 9.03,19.62 8.11,18.88 C 7.63,18.07 7.42,16.81 7.46,16 C 17.6,16.27 23.98,13.93 24.31,7.53 C 24.55,2.7 21.02,0 15.89,0 C 6.72,0 0.72,8.08 0.33,15.86 C 0,22.65 3.52,26 10.77,26 C 13.57,26 17.27,25.68 20.3,24.77 C 20.3,24.77 20.05,19.25 20.05,19.25 z M 17.32,7.53 C 17.2,9.91 14.26,10.05 8.46,10 C 9.1,7.91 11.21,6 14.68,6 C 16.39,6 17.38,6.65 17.32,7.53 z " />
      </g>
      <g
         style="fill:#bd0000;fill-opacity:1;fill-rule:evenodd;stroke:none;stroke-width:1pt;stroke-linecap:butt;stroke-linejoin:miter"
         id="g132"
         transform="translate(447.5473,452.3934)">
        <path
           style="fill:#bd0000;fill-opacity:1"
           id="path134"
           d="M 23.31,0 C 23.31,0 20.5,11.36 20.5,11.36 C 19.48,10.94 18.15,11 17.11,11 C 7.53,11 0.75,19.2 0.3,28.08 C 0,34.34 3.34,37 7.64,37 C 10.65,37 13.82,35.67 16.22,32.23 C 16.22,32.23 16.32,32.23 16.32,32.23 C 16.32,32.23 15.75,37 15.75,37 C 15.75,37 22.53,37 22.53,37 C 22.84,34 23.49,30.43 24.22,27.17 C 24.22,27.17 30.71,0 30.71,0 C 30.71,0 23.31,0 23.31,0 z M 17.47,24.42 C 16.3,29.35 13.54,31 11.36,31 C 9.19,31 7.98,29.49 8.13,26.8 C 8.38,21.82 11.8,17 16.25,17 C 17.5,17 18.57,17.19 19.16,17.47 C 19.16,17.47 17.47,24.42 17.47,24.42 z " />
      </g>
      <g
         style="fill:#bd0000;fill-opacity:1;fill-rule:evenodd;stroke:none;stroke-width:1pt;stroke-linecap:butt;stroke-linejoin:miter"
         id="g136"
         transform="translate(477.2573,463.3934)">
        <path
           style="fill:#bd0000;fill-opacity:1"
           id="path138"
           d="M 10.61,26 C 19.31,26 26.02,19.41 26.49,10.44 C 26.78,4.5 23.08,0 16.25,0 C 7.23,0 0.76,7.3 0.31,16.12 C 0,22.54 4.14,26 10.61,26 z M 11.78,20 C 9.24,20 7.84,18.38 7.99,15.96 C 8.19,11.93 10.68,6 14.97,6 C 17.93,6 18.84,8.27 18.72,10.5 C 18.5,14.9 15.82,20 11.78,20 z " />
      </g>
      <g
         style="fill:#bd0000;fill-opacity:1;fill-rule:evenodd;stroke:none;stroke-width:1pt;stroke-linecap:butt;stroke-linejoin:miter"
         id="g140"
         transform="translate(505.8173,463.3934)">
        <path
           style="fill:#bd0000;fill-opacity:1"
           id="path142"
           d="M 7.2,26 C 7.2,26 9.9,14.58 9.9,14.58 C 11.03,9.49 13.85,6 16.38,6 C 18.2,6 18.7,7.33 18.61,9.07 C 18.56,9.97 18.36,10.98 18.15,11.98 C 18.15,11.98 14.81,26 14.81,26 C 14.81,26 22.01,26 22.01,26 C 22.01,26 24.71,14.53 24.71,14.53 C 25.95,9.28 28.61,6 31.09,6 C 32.8,6 33.51,7.22 33.43,8.96 C 33.38,9.97 33.17,11.08 32.91,12.09 C 32.91,12.09 29.67,26 29.67,26 C 29.67,26 36.92,26 36.92,26 C 36.92,26 40.41,11.19 40.41,11.19 C 40.68,9.86 40.99,7.79 41.04,6.73 C 41.26,2.33 39.11,0 35.23,0 C 31.91,0 28.68,1.5 26.23,4.66 C 26.14,2.38 24.51,0 20.47,0 C 17.2,0 14.08,1.48 11.58,4.83 C 11.58,4.83 11.48,4.83 11.48,4.83 C 11.48,4.83 12.15,1 12.15,1 C 12.15,1 5.73,1 5.73,1 C 5.31,3.14 4.8,5.73 4.02,8.75 C 4.02,8.75 0,26 0,26 C 0,26 7.2,26 7.2,26 z " />
      </g>
    </g>
    <path
       style="fill:none;fill-opacity:0.94117647;fill-rule:evenodd;stroke:#bd0000;stroke-width:3.15861177;stroke-linecap:butt;stroke-linejoin:miter;stroke-miterlimit:4;stroke-opacity:1"
       d="M 162.41188,123.00573 C 162.66831,123.66501 162.92476,124.32322 163.19189,124.967 C 163.60327,125.84158 164.07876,126.67876 164.65042,127.46039 C 167.73844,131.65806 172.91007,133.95645 179.47611,134.52863 C 179.47611,134.52863 186.53902,134.52863 186.53902,134.52863 C 188.77221,134.35446 191.11227,134.02963 193.53781,133.55521 C 197.72106,132.73726 202.15541,131.48069 206.76072,129.80151 C 210.24943,128.52943 213.83431,127.02443 217.47261,125.27527 C 225.39567,121.47722 233.58052,116.5786 241.61044,110.66702 C 244.25502,108.72178 246.79275,106.7258 249.22897,104.69615 C 251.46218,102.83799 253.60456,100.95098 255.65076,99.043147 C 261.36199,93.539212 265.67346,87.949258 268.11503,83.041013 C 270.65808,77.929766 271.16565,73.559526 269.08204,70.806482 C 267.80515,69.116628 265.66812,68.211056 262.91669,67.997887 C 275.31148,58.697509 282.53468,47.415553 279.94354,40.302427 C 279.12076,38.03236 277.30962,36.338764 274.71312,35.402203 C 273.55914,34.987091 272.26087,34.724232 270.84508,34.604558 C 270.84508,34.604558 267.03048,34.604558 267.03048,34.604558 C 261.70392,34.988684 253.95807,36.895993 247.38669,40.116507"
       sodipodi:nodetypes="cccccssccccscccsccc"
       id="path2592" />
  </g>
</svg>
