<?xml version="1.0" encoding="UTF-8" standalone="no"?>
<!-- Generator: Adobe Illustrator 14.0.0, SVG Export Plug-In . SVG Version: 6.00 Build 43363)  -->

<svg
   xmlns:dc="http://purl.org/dc/elements/1.1/"
   xmlns:cc="http://creativecommons.org/ns#"
   xmlns:rdf="http://www.w3.org/1999/02/22-rdf-syntax-ns#"
   xmlns:svg="http://www.w3.org/2000/svg"
   xmlns="http://www.w3.org/2000/svg"
   xmlns:xlink="http://www.w3.org/1999/xlink"
   xmlns:sodipodi="http://sodipodi.sourceforge.net/DTD/sodipodi-0.dtd"
   xmlns:inkscape="http://www.inkscape.org/namespaces/inkscape"
   version="1.1"
   id="Capa_1"
   x="0px"
   y="0px"
   width="841.89px"
   height="595.28px"
   viewBox="0 0 841.89 595.28"
   enable-background="new 0 0 841.89 595.28"
   xml:space="preserve"
   inkscape:version="0.48.2 r9819"
   sodipodi:docname="Licencias.svg"
   sodipodi:version="0.32"
   inkscape:output_extension="org.inkscape.output.svg.inkscape"><metadata
   id="metadata507"><rdf:RDF><cc:Work
       rdf:about=""><dc:format>image/svg+xml</dc:format><dc:type
         rdf:resource="http://purl.org/dc/dcmitype/StillImage" /><dc:title></dc:title><cc:license
         rdf:resource="http://creativecommons.org/licenses/by/3.0/" /></cc:Work><cc:License
       rdf:about="http://creativecommons.org/licenses/by/3.0/"><cc:permits
         rdf:resource="http://creativecommons.org/ns#Reproduction" /><cc:permits
         rdf:resource="http://creativecommons.org/ns#Distribution" /><cc:requires
         rdf:resource="http://creativecommons.org/ns#Notice" /><cc:requires
         rdf:resource="http://creativecommons.org/ns#Attribution" /><cc:permits
         rdf:resource="http://creativecommons.org/ns#DerivativeWorks" /></cc:License></rdf:RDF></metadata><defs
   id="defs505"><linearGradient
   id="linearGradient4471"><stop
     style="stop-color:#696a6b;stop-opacity:1;"
     offset="0"
     id="stop4473" /><stop
     style="stop-color:#9b9c9e;stop-opacity:1;"
     offset="1"
     id="stop4475" /></linearGradient><linearGradient
   id="linearGradient4455"><stop
     style="stop-color:#696a6b;stop-opacity:1;"
     offset="0"
     id="stop4457" /><stop
     style="stop-color:#9b9c9e;stop-opacity:1;"
     offset="1"
     id="stop4459" /></linearGradient><linearGradient
   id="linearGradient4260"><stop
     style="stop-color:#911d21;stop-opacity:1;"
     offset="0"
     id="stop4262" /><stop
     style="stop-color:#c4282d;stop-opacity:1;"
     offset="1"
     id="stop4264" /></linearGradient><linearGradient
   id="linearGradient4235"><stop
     style="stop-color:#592350;stop-opacity:1;"
     offset="0"
     id="stop4237" /><stop
     style="stop-color:#742e68;stop-opacity:1;"
     offset="1"
     id="stop4239" /></linearGradient><linearGradient
   id="linearGradient4197"><stop
     style="stop-color:#16813d;stop-opacity:1;"
     offset="0"
     id="stop4199" /><stop
     style="stop-color:#0d4f25;stop-opacity:1;"
     offset="1"
     id="stop4201" /></linearGradient><linearGradient
   id="linearGradient3598"><stop
     style="stop-color:#742e68;stop-opacity:1;"
     offset="0"
     id="stop3600" /><stop
     style="stop-color:#481c40;stop-opacity:1;"
     offset="1"
     id="stop3602" /></linearGradient><linearGradient
   inkscape:collect="always"
   id="linearGradient3632"><stop
     style="stop-color:#ffffff;stop-opacity:1;"
     offset="0"
     id="stop3634" /><stop
     style="stop-color:#ffffff;stop-opacity:0;"
     offset="1"
     id="stop3636" /></linearGradient><linearGradient
   inkscape:collect="always"
   id="linearGradient3584"><stop
     style="stop-color:#ffffff;stop-opacity:1;"
     offset="0"
     id="stop3586" /><stop
     style="stop-color:#ffffff;stop-opacity:0;"
     offset="1"
     id="stop3588" /></linearGradient><linearGradient
   inkscape:collect="always"
   id="linearGradient3542"><stop
     style="stop-color:#ffffff;stop-opacity:1;"
     offset="0"
     id="stop3544" /><stop
     style="stop-color:#ffffff;stop-opacity:0;"
     offset="1"
     id="stop3546" /></linearGradient><linearGradient
   id="linearGradient3536"><stop
     style="stop-color:#ffffff;stop-opacity:1"
     offset="0"
     id="stop3538" /><stop
     style="stop-color:#ffffff;stop-opacity:0"
     offset="1"
     id="stop3540" /></linearGradient><linearGradient
   id="linearGradient3530"><stop
     style="stop-color:#ffffff;stop-opacity:1"
     offset="0"
     id="stop3532" /><stop
     style="stop-color:#7f1a1d;stop-opacity:1;"
     offset="1"
     id="stop3534" /></linearGradient><linearGradient
   id="linearGradient3483"><stop
     id="stop3485"
     offset="0"
     style="stop-color:#c4282d;stop-opacity:1;" /><stop
     id="stop3487"
     offset="1"
     style="stop-color:#7f1a1d;stop-opacity:1;" /></linearGradient><linearGradient
   id="linearGradient3467"><stop
     style="stop-color:#000000;stop-opacity:1;"
     offset="0"
     id="stop3469" /><stop
     style="stop-color:#000000;stop-opacity:0;"
     offset="1"
     id="stop3471" /></linearGradient><inkscape:perspective
   sodipodi:type="inkscape:persp3d"
   inkscape:vp_x="0 : 297.64001 : 1"
   inkscape:vp_y="0 : 1000 : 0"
   inkscape:vp_z="841.89001 : 297.64001 : 1"
   inkscape:persp3d-origin="420.94501 : 198.42668 : 1"
   id="perspective509" />
	
	
	
	
<linearGradient
   inkscape:collect="always"
   xlink:href="#linearGradient3483"
   id="linearGradient3481"
   x1="193.67853"
   y1="227.42769"
   x2="192.737"
   y2="164.42589"
   gradientUnits="userSpaceOnUse" /><linearGradient
   inkscape:collect="always"
   xlink:href="#linearGradient3542"
   id="linearGradient3548"
   x1="223.70312"
   y1="167.78789"
   x2="223.70312"
   y2="224.78125"
   gradientUnits="userSpaceOnUse" />
		
		
	<linearGradient
   inkscape:collect="always"
   xlink:href="#linearGradient3584"
   id="linearGradient3590"
   x1="234.03793"
   y1="165.15395"
   x2="234.35178"
   y2="210.66147"
   gradientUnits="userSpaceOnUse" />
		
	<filter
   inkscape:collect="always"
   id="filter3676"
   x="-0.041724954"
   width="1.0834499"
   y="-0.58146253"
   height="2.1629251"><feGaussianBlur
     inkscape:collect="always"
     stdDeviation="1.9987774"
     id="feGaussianBlur3678" /></filter>
		
	<filter
   inkscape:collect="always"
   id="filter3797"
   x="-0.16028311"
   width="1.3205662"
   y="-0.47746988"
   height="1.9549398"><feGaussianBlur
     inkscape:collect="always"
     stdDeviation="2.0640625"
     id="feGaussianBlur3799" /></filter><linearGradient
   inkscape:collect="always"
   xlink:href="#linearGradient3483"
   id="linearGradient3947"
   gradientUnits="userSpaceOnUse"
   x1="193.67853"
   y1="227.42769"
   x2="192.737"
   y2="164.42589" /><filter
   inkscape:collect="always"
   id="filter3999"
   x="-0.081487084"
   width="1.1629742"
   y="-0.10296158"
   height="1.2059232"><feGaussianBlur
     inkscape:collect="always"
     stdDeviation="0.99465172"
     id="feGaussianBlur4001" /></filter><filter
   inkscape:collect="always"
   id="filter4003"
   x="-0.024206416"
   width="1.0484128"
   y="-0.10283295"
   height="1.2056659"><feGaussianBlur
     inkscape:collect="always"
     stdDeviation="0.99465172"
     id="feGaussianBlur4005" /></filter>
	
	
	
	

		
	
		
		
		
	
		
		
		
		
		
		
		
		
		
		
		
		
	
		
	
	
	
	
	

		
	
		
		
	
		
	
		
		
		
		
	<linearGradient
   inkscape:collect="always"
   xlink:href="#linearGradient3598"
   id="linearGradient3620"
   x1="473.95499"
   y1="225.58197"
   x2="473.95499"
   y2="164.577"
   gradientUnits="userSpaceOnUse" /><linearGradient
   inkscape:collect="always"
   xlink:href="#linearGradient3483"
   id="linearGradient3879"
   gradientUnits="userSpaceOnUse"
   x1="193.67853"
   y1="227.42769"
   x2="192.737"
   y2="164.42589" /><linearGradient
   inkscape:collect="always"
   xlink:href="#linearGradient3483"
   id="linearGradient3881"
   gradientUnits="userSpaceOnUse"
   x1="193.67853"
   y1="227.42769"
   x2="192.737"
   y2="164.42589" /><linearGradient
   inkscape:collect="always"
   xlink:href="#linearGradient3483"
   id="linearGradient3883"
   gradientUnits="userSpaceOnUse"
   gradientTransform="translate(2.7507074,-101.77618)"
   x1="138.40564"
   y1="330.10239"
   x2="138.40564"
   y2="319.71936" /><linearGradient
   inkscape:collect="always"
   xlink:href="#linearGradient3632"
   id="linearGradient3885"
   gradientUnits="userSpaceOnUse"
   x1="137.46411"
   y1="317.84103"
   x2="137.46411"
   y2="324.8385" /><linearGradient
   inkscape:collect="always"
   xlink:href="#linearGradient3584"
   id="linearGradient3887"
   gradientUnits="userSpaceOnUse"
   gradientTransform="translate(3.7826799,-9.9750279)"
   x1="234.03793"
   y1="165.15395"
   x2="233.72409"
   y2="209.09224" /><linearGradient
   inkscape:collect="always"
   xlink:href="#linearGradient3598"
   id="linearGradient3891"
   gradientUnits="userSpaceOnUse"
   x1="473.95499"
   y1="225.58197"
   x2="473.95499"
   y2="164.577" /><linearGradient
   inkscape:collect="always"
   xlink:href="#linearGradient3598"
   id="linearGradient4005"
   gradientUnits="userSpaceOnUse"
   x1="473.95499"
   y1="225.58197"
   x2="473.95499"
   y2="164.577" /><linearGradient
   inkscape:collect="always"
   xlink:href="#linearGradient3598"
   id="linearGradient2938"
   gradientUnits="userSpaceOnUse"
   gradientTransform="translate(16.564834,16.038773)"
   x1="365.68323"
   y1="228.72025"
   x2="365.68323"
   y2="216.25424" />
	
	
	
	
	
<linearGradient
   inkscape:collect="always"
   xlink:href="#linearGradient3483"
   id="linearGradient4400"
   gradientUnits="userSpaceOnUse"
   gradientTransform="translate(2.7507074,-86.640049)"
   x1="138.40564"
   y1="330.10239"
   x2="138.40564"
   y2="319.71936" />
	
	
	
	
	
	
<linearGradient
   inkscape:collect="always"
   xlink:href="#linearGradient4471"
   id="linearGradient4477"
   x1="664.09625"
   y1="501.10046"
   x2="664.09625"
   y2="510.29501"
   gradientUnits="userSpaceOnUse" /><linearGradient
   inkscape:collect="always"
   xlink:href="#linearGradient4471"
   id="linearGradient4513"
   gradientUnits="userSpaceOnUse"
   x1="664.09625"
   y1="501.10046"
   x2="664.09625"
   y2="510.29501" />
		
		
	</defs><sodipodi:namedview
   pagecolor="#ffffff"
   bordercolor="#666666"
   borderopacity="1"
   objecttolerance="10"
   gridtolerance="10"
   guidetolerance="10"
   inkscape:pageopacity="0"
   inkscape:pageshadow="2"
   inkscape:window-width="1280"
   inkscape:window-height="746"
   id="namedview503"
   showgrid="false"
   inkscape:zoom="0.90545621"
   inkscape:cx="420.94501"
   inkscape:cy="443.33958"
   inkscape:window-x="0"
   inkscape:window-y="0"
   inkscape:window-maximized="1"
   inkscape:current-layer="Capa_1"
   showguides="true"
   inkscape:guide-bbox="true" />

















<g
   id="g4885"><g
     style="fill:#999999;filter:url(#filter4003)"
     transform="translate(5.7826799,7.1611126)"
     id="g3833">
		<path
   style="fill:#999999"
   d="M 112.576,215.739 C 111.289,216.748 109.734,217.253 107.91,217.253 L 91.716,217.253 C 89.874,217.253 88.337,216.757 87.104,215.766 C 85.781,214.739 85.12,213.473 85.12,211.968 L 85.12,199.325 C 85.12,197.856 85.781,196.599 87.104,195.554 C 88.391,194.545 89.947,194.04 91.77,194.04 L 107.992,194.04 C 109.69,194.04 111.129,194.509 112.309,195.448 C 113.542,196.386 114.337,197.865 114.695,199.884 L 111.397,199.884 C 111.165,198.91 110.727,198.228 110.083,197.839 C 109.529,197.503 108.823,197.335 107.965,197.335 L 91.77,197.335 C 90.804,197.335 89.982,197.557 89.303,197.999 C 88.714,198.371 88.418,198.813 88.418,199.327 L 88.418,211.97 C 88.418,212.501 88.713,212.962 89.303,213.351 L 89.277,213.325 C 89.938,213.768 90.752,213.989 91.717,213.989 L 107.912,213.989 C 108.752,213.989 109.502,213.812 110.164,213.458 C 110.951,213.086 111.344,212.582 111.344,211.944 L 111.344,207.296 L 98.231,207.296 L 98.231,204.029 L 114.614,204.029 L 114.614,211.97 C 114.614,213.438 113.934,214.694 112.576,215.739 z"
   id="path3835" />
		<path
   style="fill:#999999"
   d="M 147.191,205.779 C 145.958,206.771 144.411,207.266 142.552,207.266 L 123.005,207.266 L 123.005,217.252 L 119.707,217.252 L 119.707,199.324 C 119.707,197.855 120.368,196.598 121.691,195.553 C 122.978,194.544 124.533,194.039 126.357,194.039 L 142.552,194.039 C 144.357,194.039 145.895,194.544 147.164,195.553 C 148.505,196.598 149.175,197.855 149.175,199.324 L 149.175,201.98 C 149.175,203.486 148.514,204.752 147.191,205.779 z M 145.904,199.325 C 145.904,198.83 145.6,198.387 144.992,197.997 C 144.312,197.555 143.499,197.333 142.552,197.333 L 126.33,197.333 C 125.508,197.333 124.766,197.501 124.104,197.837 C 123.371,198.174 123.005,198.67 123.005,199.324 L 123.005,204 L 142.552,204 C 143.499,204 144.312,203.788 144.992,203.362 C 145.599,202.973 145.904,202.512 145.904,201.981 L 145.904,199.325 z"
   id="path3837" />
		<path
   style="fill:#999999"
   d="M 183.737,212.074 C 183.469,213.65 182.718,214.916 181.485,215.872 C 180.287,216.792 178.839,217.253 177.142,217.253 L 160.92,217.253 C 159.097,217.253 157.55,216.757 156.281,215.766 C 154.941,214.739 154.27,213.473 154.27,211.968 L 154.27,194.067 L 157.622,194.067 L 157.622,211.968 C 157.622,212.499 157.917,212.96 158.507,213.349 L 158.481,213.323 C 159.142,213.766 159.955,213.987 160.921,213.987 L 177.143,213.987 C 177.965,213.987 178.68,213.81 179.288,213.456 L 179.261,213.456 C 179.905,213.067 180.342,212.403 180.575,211.464 L 183.202,211.464 L 183.737,212.074 z"
   id="path3839" />
	</g><g
     style="fill:#999999;fill-opacity:1;filter:url(#filter3999)"
     transform="translate(5.7826799,7.1611126)"
     id="g3841">
		<path
   style="fill:#999999;fill-opacity:1"
   d="M 270.385,211.954 C 270.385,213.459 269.721,214.725 268.393,215.752 C 267.171,216.744 265.648,217.239 263.825,217.239 L 247.757,217.239 C 246.075,217.239 244.65,216.787 243.481,215.885 C 242.224,214.911 241.427,213.424 241.09,211.423 L 244.357,211.423 C 244.587,212.361 245.012,213.034 245.632,213.442 L 245.605,213.442 C 246.207,213.796 246.924,213.973 247.756,213.973 L 263.824,213.973 C 264.744,213.973 265.541,213.76 266.215,213.335 C 266.817,212.946 267.118,212.485 267.118,211.954 L 267.118,209.298 C 267.118,208.803 266.817,208.36 266.215,207.97 C 265.507,207.51 264.701,207.279 263.798,207.279 L 255.246,207.279 L 255.246,204.012 L 263.825,204.012 C 264.763,204.012 265.56,203.791 266.216,203.348 C 266.818,202.959 267.119,202.507 267.119,201.994 L 267.119,199.338 C 267.119,198.842 266.818,198.4 266.216,198.01 C 265.508,197.55 264.702,197.32 263.799,197.32 L 247.757,197.32 C 246.943,197.32 246.234,197.497 245.632,197.851 L 245.658,197.851 C 245.021,198.223 244.587,198.896 244.357,199.87 L 241.09,199.87 C 241.409,197.851 242.188,196.382 243.427,195.461 C 244.595,194.523 246.038,194.054 247.756,194.054 L 263.824,194.054 C 265.612,194.054 267.135,194.55 268.392,195.541 C 269.72,196.586 270.384,197.852 270.384,199.339 C 270.384,200.631 270.331,201.809 270.225,202.871 C 270.189,203.402 270.013,203.89 269.694,204.332 C 269.552,204.527 269.389,204.73 269.203,204.943 C 269.017,205.156 268.791,205.386 268.526,205.633 C 269.039,206.111 269.429,206.554 269.694,206.961 C 269.995,207.457 270.172,207.935 270.225,208.395 C 270.332,209.44 270.385,210.626 270.385,211.954 z"
   id="path3843" />
	</g><g
     style="fill:url(#linearGradient3881);fill-opacity:1;fill-rule:nonzero;stroke-width:1;stroke-linecap:butt;stroke-linejoin:miter;marker:none;marker-start:none;marker-mid:none;marker-end:none;stroke-miterlimit:4;stroke-dasharray:none;stroke-dashoffset:0;stroke-opacity:1;visibility:visible;display:inline;overflow:visible;enable-background:accumulate"
     transform="translate(3.7826799,5.1611126)"
     id="g2628">
		<path
   d="M 236.283,164.577 L 255.738,164.577 L 225.77,215.077 C 224.059,217.892 222.389,220.058 220.761,221.576 C 219.133,223.094 217.629,224.198 216.249,224.887 C 214.869,225.578 213.683,225.978 212.689,226.088 C 211.696,226.199 211.004,226.254 210.619,226.254 L 192.737,226.254 L 192.737,182.626 L 209.46,182.626 L 209.543,212.594 L 236.283,164.577 z"
   id="path2630"
   style="fill:url(#linearGradient3879);fill-opacity:1;fill-rule:nonzero;stroke-width:1;stroke-linecap:butt;stroke-linejoin:miter;marker:none;marker-start:none;marker-mid:none;marker-end:none;stroke-miterlimit:4;stroke-dasharray:none;stroke-dashoffset:0;stroke-opacity:1;visibility:visible;display:inline;overflow:visible;enable-background:accumulate" />
	</g><rect
     style="fill:url(#linearGradient4400);fill-opacity:1"
     id="rect2634"
     height="14.173"
     width="116.818"
     y="231.41412"
     x="79.701683" /><g
     transform="translate(3.7826799,5.1611126)"
     id="g2662">
		<path
   d="M 112.576,215.739 C 111.289,216.748 109.734,217.253 107.91,217.253 L 91.716,217.253 C 89.874,217.253 88.337,216.757 87.104,215.766 C 85.781,214.739 85.12,213.473 85.12,211.968 L 85.12,199.325 C 85.12,197.856 85.781,196.599 87.104,195.554 C 88.391,194.545 89.947,194.04 91.77,194.04 L 107.992,194.04 C 109.69,194.04 111.129,194.509 112.309,195.448 C 113.542,196.386 114.337,197.865 114.695,199.884 L 111.397,199.884 C 111.165,198.91 110.727,198.228 110.083,197.839 C 109.529,197.503 108.823,197.335 107.965,197.335 L 91.77,197.335 C 90.804,197.335 89.982,197.557 89.303,197.999 C 88.714,198.371 88.418,198.813 88.418,199.327 L 88.418,211.97 C 88.418,212.501 88.713,212.962 89.303,213.351 L 89.277,213.325 C 89.938,213.768 90.752,213.989 91.717,213.989 L 107.912,213.989 C 108.752,213.989 109.502,213.812 110.164,213.458 C 110.951,213.086 111.344,212.582 111.344,211.944 L 111.344,207.296 L 98.231,207.296 L 98.231,204.029 L 114.614,204.029 L 114.614,211.97 C 114.614,213.438 113.934,214.694 112.576,215.739 z"
   id="path2664" />
		<path
   d="M 147.191,205.779 C 145.958,206.771 144.411,207.266 142.552,207.266 L 123.005,207.266 L 123.005,217.252 L 119.707,217.252 L 119.707,199.324 C 119.707,197.855 120.368,196.598 121.691,195.553 C 122.978,194.544 124.533,194.039 126.357,194.039 L 142.552,194.039 C 144.357,194.039 145.895,194.544 147.164,195.553 C 148.505,196.598 149.175,197.855 149.175,199.324 L 149.175,201.98 C 149.175,203.486 148.514,204.752 147.191,205.779 z M 145.904,199.325 C 145.904,198.83 145.6,198.387 144.992,197.997 C 144.312,197.555 143.499,197.333 142.552,197.333 L 126.33,197.333 C 125.508,197.333 124.766,197.501 124.104,197.837 C 123.371,198.174 123.005,198.67 123.005,199.324 L 123.005,204 L 142.552,204 C 143.499,204 144.312,203.788 144.992,203.362 C 145.599,202.973 145.904,202.512 145.904,201.981 L 145.904,199.325 z"
   id="path2666" />
		<path
   d="M 183.737,212.074 C 183.469,213.65 182.718,214.916 181.485,215.872 C 180.287,216.792 178.839,217.253 177.142,217.253 L 160.92,217.253 C 159.097,217.253 157.55,216.757 156.281,215.766 C 154.941,214.739 154.27,213.473 154.27,211.968 L 154.27,194.067 L 157.622,194.067 L 157.622,211.968 C 157.622,212.499 157.917,212.96 158.507,213.349 L 158.481,213.323 C 159.142,213.766 159.955,213.987 160.921,213.987 L 177.143,213.987 C 177.965,213.987 178.68,213.81 179.288,213.456 L 179.261,213.456 C 179.905,213.067 180.342,212.403 180.575,211.464 L 183.202,211.464 L 183.737,212.074 z"
   id="path2668" />
	</g><g
     transform="translate(3.7826799,5.1611126)"
     id="g2670">
		<path
   d="M 270.385,211.954 C 270.385,213.459 269.721,214.725 268.393,215.752 C 267.171,216.744 265.648,217.239 263.825,217.239 L 247.757,217.239 C 246.075,217.239 244.65,216.787 243.481,215.885 C 242.224,214.911 241.427,213.424 241.09,211.423 L 244.357,211.423 C 244.587,212.361 245.012,213.034 245.632,213.442 L 245.605,213.442 C 246.207,213.796 246.924,213.973 247.756,213.973 L 263.824,213.973 C 264.744,213.973 265.541,213.76 266.215,213.335 C 266.817,212.946 267.118,212.485 267.118,211.954 L 267.118,209.298 C 267.118,208.803 266.817,208.36 266.215,207.97 C 265.507,207.51 264.701,207.279 263.798,207.279 L 255.246,207.279 L 255.246,204.012 L 263.825,204.012 C 264.763,204.012 265.56,203.791 266.216,203.348 C 266.818,202.959 267.119,202.507 267.119,201.994 L 267.119,199.338 C 267.119,198.842 266.818,198.4 266.216,198.01 C 265.508,197.55 264.702,197.32 263.799,197.32 L 247.757,197.32 C 246.943,197.32 246.234,197.497 245.632,197.851 L 245.658,197.851 C 245.021,198.223 244.587,198.896 244.357,199.87 L 241.09,199.87 C 241.409,197.851 242.188,196.382 243.427,195.461 C 244.595,194.523 246.038,194.054 247.756,194.054 L 263.824,194.054 C 265.612,194.054 267.135,194.55 268.392,195.541 C 269.72,196.586 270.384,197.852 270.384,199.339 C 270.384,200.631 270.331,201.809 270.225,202.871 C 270.189,203.402 270.013,203.89 269.694,204.332 C 269.552,204.527 269.389,204.73 269.203,204.943 C 269.017,205.156 268.791,205.386 268.526,205.633 C 269.039,206.111 269.429,206.554 269.694,206.961 C 269.995,207.457 270.172,207.935 270.225,208.395 C 270.332,209.44 270.385,210.626 270.385,211.954 z"
   id="path2672" />
	</g><g
     style="fill:#000000"
     transform="translate(4.2466954,5.5091242)"
     id="g4164">
			<path
   style="fill:#000000"
   id="path4166"
   d="M 101.065,231.774 C 101.101,231.525 101.058,231.353 100.934,231.258 L 100.941,231.258 C 100.827,231.172 100.663,231.129 100.444,231.129 L 96.346,231.129 C 96.101,231.129 95.874,231.185 95.666,231.298 C 95.481,231.394 95.366,231.506 95.318,231.638 L 94.883,232.834 L 97.907,232.834 L 97.602,233.67 L 94.578,233.67 L 93.648,236.225 L 92.805,236.225 L 94.475,231.638 C 94.611,231.263 94.897,230.94 95.329,230.673 C 95.749,230.416 96.191,230.286 96.652,230.286 L 100.75,230.286 C 101.185,230.286 101.508,230.407 101.721,230.646 C 101.955,230.886 102.02,231.262 101.915,231.774 L 101.065,231.774 L 101.065,231.774 z" />
			<path
   style="fill:#000000"
   id="path4168"
   d="M 107.115,233.377 C 107.132,233.142 107.061,232.981 106.903,232.895 C 106.844,232.859 106.778,232.833 106.703,232.82 C 106.628,232.807 106.55,232.8 106.469,232.8 L 104.49,232.8 C 104.291,232.8 104.093,232.838 103.898,232.916 C 103.672,233.002 103.536,233.11 103.488,233.242 L 102.402,236.225 L 101.559,236.225 L 103.11,231.964 L 103.953,231.964 L 103.889,232.14 C 104.056,232.077 104.211,232.032 104.356,232.004 C 104.499,231.977 104.644,231.963 104.789,231.963 L 106.773,231.963 C 107.149,231.963 107.456,232.058 107.695,232.248 C 107.982,232.479 108.067,232.855 107.95,233.376 L 107.115,233.376 L 107.115,233.377 z" />
			<path
   style="fill:#000000"
   id="path4170"
   d="M 114.616,233.228 C 114.472,233.623 114.16,233.946 113.678,234.2 C 113.281,234.408 112.877,234.512 112.47,234.512 L 110.491,234.512 C 110.36,234.512 110.238,234.502 110.123,234.479 C 110.009,234.457 109.871,234.414 109.708,234.35 L 109.5,234.92 L 109.495,234.934 C 109.465,235.052 109.536,235.159 109.705,235.254 C 109.777,235.304 109.853,235.338 109.932,235.36 C 110.011,235.38 110.092,235.39 110.172,235.39 L 112.151,235.39 C 112.232,235.39 112.315,235.383 112.399,235.37 C 112.484,235.356 112.568,235.33 112.654,235.295 C 112.875,235.208 113.063,235.047 113.217,234.812 L 114.052,234.812 C 113.792,235.328 113.435,235.702 112.979,235.934 C 112.605,236.128 112.228,236.226 111.847,236.226 L 109.869,236.226 C 109.488,236.226 109.169,236.127 108.911,235.927 C 108.589,235.677 108.502,235.349 108.65,234.942 L 109.271,233.236 C 109.418,232.832 109.724,232.511 110.187,232.27 C 110.577,232.066 110.988,231.965 111.419,231.965 L 113.397,231.965 C 113.814,231.965 114.145,232.062 114.392,232.257 C 114.69,232.497 114.765,232.82 114.616,233.228 z M 113.768,233.242 C 113.808,233.134 113.768,233.038 113.648,232.957 C 113.519,232.853 113.331,232.801 113.087,232.801 L 111.116,232.801 C 110.944,232.801 110.748,232.839 110.531,232.917 C 110.302,232.999 110.164,233.105 110.116,233.236 C 110.07,233.362 110.128,233.469 110.291,233.555 C 110.438,233.637 110.607,233.677 110.797,233.677 L 112.776,233.677 C 113.011,233.677 113.233,233.628 113.442,233.528 C 113.619,233.446 113.729,233.351 113.768,233.242 z" />
			<path
   style="fill:#000000"
   id="path4172"
   d="M 121.25,233.228 C 121.106,233.623 120.794,233.946 120.312,234.2 C 119.915,234.408 119.511,234.512 119.104,234.512 L 117.126,234.512 C 116.994,234.512 116.873,234.502 116.757,234.479 C 116.643,234.457 116.505,234.414 116.343,234.35 L 116.135,234.92 L 116.13,234.934 C 116.1,235.052 116.17,235.159 116.339,235.254 C 116.412,235.304 116.487,235.338 116.566,235.36 C 116.645,235.38 116.726,235.39 116.806,235.39 L 118.785,235.39 C 118.866,235.39 118.949,235.383 119.033,235.37 C 119.118,235.356 119.203,235.33 119.288,235.295 C 119.509,235.208 119.697,235.047 119.851,234.812 L 120.686,234.812 C 120.426,235.328 120.069,235.702 119.613,235.934 C 119.239,236.128 118.862,236.226 118.481,236.226 L 116.502,236.226 C 116.122,236.226 115.802,236.127 115.544,235.927 C 115.222,235.677 115.135,235.349 115.284,234.942 L 115.905,233.236 C 116.052,232.832 116.358,232.511 116.822,232.27 C 117.212,232.066 117.623,231.965 118.053,231.965 L 120.032,231.965 C 120.448,231.965 120.78,232.062 121.026,232.257 C 121.324,232.497 121.398,232.82 121.25,233.228 z M 120.402,233.242 C 120.442,233.134 120.401,233.038 120.281,232.957 C 120.152,232.853 119.964,232.801 119.72,232.801 L 117.749,232.801 C 117.577,232.801 117.381,232.839 117.164,232.917 C 116.935,232.999 116.797,233.105 116.749,233.236 C 116.703,233.362 116.762,233.469 116.925,233.555 C 117.072,233.637 117.241,233.677 117.431,233.677 L 119.409,233.677 C 119.644,233.677 119.866,233.628 120.075,233.528 C 120.253,233.446 120.362,233.351 120.402,233.242 z" />
			<path
   style="fill:#000000"
   id="path4174"
   d="M 133.99,235.845 C 133.586,236.098 133.15,236.225 132.684,236.225 L 128.572,236.225 C 128.141,236.225 127.819,236.109 127.604,235.878 C 127.373,235.629 127.308,235.249 127.408,234.737 L 128.244,234.737 C 128.215,234.977 128.261,235.149 128.382,235.253 L 128.375,235.253 C 128.497,235.343 128.664,235.389 128.876,235.389 L 132.988,235.389 C 133.228,235.389 133.452,235.332 133.66,235.22 C 133.85,235.119 133.97,235.005 134.018,234.873 L 134.265,234.193 C 134.313,234.062 134.278,233.946 134.16,233.846 C 134.035,233.733 133.848,233.676 133.604,233.676 L 129.499,233.676 C 129.038,233.676 128.691,233.55 128.462,233.296 C 128.218,233.032 128.166,232.708 128.308,232.317 L 128.556,231.637 C 128.692,231.262 128.978,230.939 129.41,230.672 C 129.83,230.415 130.272,230.285 130.733,230.285 L 134.845,230.285 C 135.276,230.285 135.595,230.406 135.807,230.645 C 136.041,230.885 136.107,231.261 136.001,231.773 L 135.166,231.773 C 135.194,231.533 135.148,231.36 135.026,231.257 L 135.033,231.257 C 134.92,231.171 134.754,231.128 134.537,231.128 L 130.425,231.128 C 130.18,231.128 129.951,231.184 129.738,231.297 C 129.553,231.393 129.438,231.505 129.39,231.637 L 129.142,232.317 C 129.092,232.453 129.124,232.571 129.238,232.671 C 129.363,232.784 129.552,232.84 129.801,232.84 L 133.913,232.84 C 134.379,232.84 134.723,232.967 134.942,233.221 C 135.185,233.488 135.237,233.811 135.098,234.193 L 134.851,234.873 C 134.714,235.258 134.426,235.583 133.99,235.845 z" />
			<path
   style="fill:#000000"
   id="path4176"
   d="M 140.523,235.913 C 140.13,236.121 139.727,236.225 139.315,236.225 L 137.336,236.225 C 136.933,236.225 136.606,236.123 136.354,235.92 C 136.049,235.67 135.972,235.343 136.118,234.941 L 136.739,233.235 C 136.883,232.84 137.195,232.517 137.678,232.263 C 138.075,232.055 138.48,231.951 138.892,231.951 L 140.871,231.951 C 141.26,231.951 141.58,232.048 141.831,232.243 C 142.146,232.497 142.231,232.825 142.084,233.228 L 141.461,234.941 C 141.318,235.334 141.006,235.659 140.523,235.913 z M 141.241,233.228 C 141.287,233.101 141.229,232.996 141.066,232.908 C 140.927,232.831 140.759,232.793 140.565,232.793 L 138.586,232.793 C 138.387,232.793 138.192,232.829 138.003,232.901 C 137.771,232.992 137.631,233.1 137.585,233.227 L 136.96,234.947 C 136.914,235.074 136.972,235.18 137.135,235.266 C 137.282,235.347 137.449,235.388 137.635,235.388 L 139.619,235.388 C 139.709,235.388 139.802,235.379 139.901,235.361 C 139.998,235.342 140.097,235.314 140.197,235.272 C 140.429,235.182 140.569,235.071 140.617,234.94 L 141.241,233.228 z" />
			<path
   style="fill:#000000"
   id="path4178"
   d="M 144.375,232.8 L 143.128,236.225 L 142.285,236.225 L 143.981,231.563 C 144.127,231.164 144.399,230.845 144.8,230.604 C 145.152,230.396 145.592,230.292 146.123,230.292 L 145.824,231.115 C 145.493,231.164 145.253,231.228 145.101,231.304 C 144.951,231.382 144.859,231.469 144.824,231.563 L 144.678,231.964 L 145.52,231.964 L 145.216,232.8 L 144.375,232.8 z" />
			<path
   style="fill:#000000"
   id="path4180"
   d="M 148.193,232.8 L 146.946,236.225 L 146.097,236.225 L 147.344,232.8 L 146.508,232.8 L 146.812,231.964 L 147.648,231.964 L 148.259,230.286 L 149.108,230.286 L 148.497,231.964 L 149.34,231.964 L 149.036,232.8 L 148.193,232.8 z" />
			<path
   style="fill:#000000"
   id="path4182"
   d="M 154.629,235.898 C 154.272,236.111 153.867,236.218 153.419,236.218 C 153.175,236.218 152.946,236.183 152.736,236.115 C 152.525,236.047 152.346,235.941 152.198,235.796 C 151.944,235.937 151.682,236.043 151.413,236.115 C 151.144,236.188 150.887,236.224 150.642,236.224 C 150.211,236.224 149.89,236.12 149.676,235.912 C 149.44,235.676 149.397,235.352 149.547,234.94 L 150.63,231.963 L 151.473,231.963 L 150.387,234.946 C 150.341,235.073 150.38,235.176 150.504,235.258 C 150.641,235.344 150.831,235.387 151.075,235.387 C 151.324,235.387 151.544,235.344 151.734,235.258 C 151.921,235.181 152.038,235.075 152.088,234.94 L 152.756,233.105 L 153.599,233.105 L 152.929,234.947 C 152.881,235.079 152.921,235.18 153.049,235.253 C 153.185,235.339 153.371,235.382 153.607,235.382 C 153.86,235.382 154.082,235.339 154.272,235.253 C 154.46,235.176 154.574,235.074 154.621,234.947 L 155.707,231.964 L 156.557,231.964 L 155.474,234.941 C 155.33,235.339 155.047,235.659 154.629,235.898 z" />
			<path
   style="fill:#000000"
   id="path4184"
   d="M 160.977,235.92 C 160.581,236.124 160.173,236.225 159.751,236.225 L 157.773,236.225 C 157.347,236.225 157.011,236.126 156.768,235.926 C 156.474,235.69 156.4,235.367 156.551,234.954 C 156.696,234.556 157.008,234.234 157.487,233.989 C 157.884,233.781 158.29,233.676 158.701,233.676 L 160.68,233.676 C 160.807,233.676 160.927,233.689 161.041,233.711 C 161.156,233.733 161.293,233.776 161.456,233.84 L 161.666,233.262 C 161.693,233.14 161.626,233.032 161.466,232.936 C 161.322,232.846 161.167,232.8 161,232.8 L 159.022,232.8 C 158.937,232.8 158.851,232.807 158.767,232.82 C 158.683,232.834 158.598,232.86 158.512,232.895 C 158.291,232.981 158.103,233.143 157.95,233.377 L 157.114,233.377 C 157.379,232.861 157.735,232.487 158.182,232.256 C 158.557,232.061 158.935,231.964 159.321,231.964 L 161.305,231.964 C 161.694,231.964 162.015,232.061 162.265,232.256 C 162.583,232.501 162.668,232.829 162.518,233.241 L 161.897,234.947 C 161.747,235.352 161.441,235.675 160.977,235.92 z M 161.049,234.954 C 161.095,234.828 161.037,234.721 160.873,234.635 C 160.726,234.553 160.56,234.512 160.374,234.512 L 158.395,234.512 C 158.164,234.512 157.94,234.563 157.723,234.663 C 157.544,234.744 157.435,234.839 157.395,234.948 C 157.353,235.061 157.391,235.158 157.505,235.24 C 157.642,235.339 157.83,235.389 158.07,235.389 L 160.054,235.389 C 160.249,235.389 160.441,235.353 160.63,235.28 C 160.864,235.19 161.002,235.082 161.049,234.954 z" />
			<path
   style="fill:#000000"
   id="path4186"
   d="M 168.276,233.377 C 168.293,233.142 168.222,232.981 168.064,232.895 C 168.005,232.859 167.939,232.833 167.864,232.82 C 167.789,232.807 167.711,232.8 167.63,232.8 L 165.652,232.8 C 165.453,232.8 165.255,232.838 165.059,232.916 C 164.833,233.002 164.697,233.11 164.649,233.242 L 163.563,236.225 L 162.72,236.225 L 164.271,231.964 L 165.114,231.964 L 165.05,232.14 C 165.217,232.077 165.373,232.032 165.517,232.004 C 165.661,231.977 165.805,231.963 165.95,231.963 L 167.934,231.963 C 168.31,231.963 168.617,232.058 168.856,232.248 C 169.143,232.479 169.228,232.855 169.111,233.376 L 168.276,233.376 L 168.276,233.377 z" />
			<path
   style="fill:#000000"
   id="path4188"
   d="M 175.777,233.228 C 175.633,233.623 175.321,233.946 174.839,234.2 C 174.442,234.408 174.038,234.512 173.631,234.512 L 171.653,234.512 C 171.521,234.512 171.4,234.502 171.284,234.479 C 171.17,234.457 171.032,234.414 170.869,234.35 L 170.661,234.92 L 170.656,234.934 C 170.627,235.052 170.697,235.159 170.866,235.254 C 170.938,235.304 171.014,235.338 171.093,235.36 C 171.172,235.38 171.253,235.39 171.333,235.39 L 173.312,235.39 C 173.393,235.39 173.476,235.383 173.56,235.37 C 173.645,235.356 173.73,235.33 173.815,235.295 C 174.036,235.208 174.224,235.047 174.378,234.812 L 175.213,234.812 C 174.953,235.328 174.596,235.702 174.14,235.934 C 173.766,236.128 173.389,236.226 173.008,236.226 L 171.029,236.226 C 170.648,236.226 170.329,236.127 170.071,235.927 C 169.749,235.677 169.662,235.349 169.81,234.942 L 170.431,233.236 C 170.578,232.832 170.884,232.511 171.347,232.27 C 171.738,232.066 172.148,231.965 172.579,231.965 L 174.558,231.965 C 174.974,231.965 175.306,232.062 175.552,232.257 C 175.852,232.497 175.926,232.82 175.777,233.228 z M 174.929,233.242 C 174.969,233.134 174.929,233.038 174.809,232.957 C 174.68,232.853 174.492,232.801 174.248,232.801 L 172.277,232.801 C 172.105,232.801 171.909,232.839 171.692,232.917 C 171.463,232.999 171.325,233.105 171.277,233.236 C 171.231,233.362 171.29,233.469 171.453,233.555 C 171.6,233.637 171.769,233.677 171.959,233.677 L 173.937,233.677 C 174.172,233.677 174.394,233.628 174.603,233.528 C 174.781,233.446 174.89,233.351 174.929,233.242 z" />
		</g><g
     transform="translate(3.7826799,5.1611126)"
     id="g2636">
			<path
   style="fill:#ffffff"
   id="path2638"
   d="M 101.065,231.774 C 101.101,231.525 101.058,231.353 100.934,231.258 L 100.941,231.258 C 100.827,231.172 100.663,231.129 100.444,231.129 L 96.346,231.129 C 96.101,231.129 95.874,231.185 95.666,231.298 C 95.481,231.394 95.366,231.506 95.318,231.638 L 94.883,232.834 L 97.907,232.834 L 97.602,233.67 L 94.578,233.67 L 93.648,236.225 L 92.805,236.225 L 94.475,231.638 C 94.611,231.263 94.897,230.94 95.329,230.673 C 95.749,230.416 96.191,230.286 96.652,230.286 L 100.75,230.286 C 101.185,230.286 101.508,230.407 101.721,230.646 C 101.955,230.886 102.02,231.262 101.915,231.774 L 101.065,231.774 L 101.065,231.774 z" />
			<path
   style="fill:#ffffff"
   id="path2640"
   d="M 107.115,233.377 C 107.132,233.142 107.061,232.981 106.903,232.895 C 106.844,232.859 106.778,232.833 106.703,232.82 C 106.628,232.807 106.55,232.8 106.469,232.8 L 104.49,232.8 C 104.291,232.8 104.093,232.838 103.898,232.916 C 103.672,233.002 103.536,233.11 103.488,233.242 L 102.402,236.225 L 101.559,236.225 L 103.11,231.964 L 103.953,231.964 L 103.889,232.14 C 104.056,232.077 104.211,232.032 104.356,232.004 C 104.499,231.977 104.644,231.963 104.789,231.963 L 106.773,231.963 C 107.149,231.963 107.456,232.058 107.695,232.248 C 107.982,232.479 108.067,232.855 107.95,233.376 L 107.115,233.376 L 107.115,233.377 z" />
			<path
   style="fill:#ffffff"
   id="path2642"
   d="M 114.616,233.228 C 114.472,233.623 114.16,233.946 113.678,234.2 C 113.281,234.408 112.877,234.512 112.47,234.512 L 110.491,234.512 C 110.36,234.512 110.238,234.502 110.123,234.479 C 110.009,234.457 109.871,234.414 109.708,234.35 L 109.5,234.92 L 109.495,234.934 C 109.465,235.052 109.536,235.159 109.705,235.254 C 109.777,235.304 109.853,235.338 109.932,235.36 C 110.011,235.38 110.092,235.39 110.172,235.39 L 112.151,235.39 C 112.232,235.39 112.315,235.383 112.399,235.37 C 112.484,235.356 112.568,235.33 112.654,235.295 C 112.875,235.208 113.063,235.047 113.217,234.812 L 114.052,234.812 C 113.792,235.328 113.435,235.702 112.979,235.934 C 112.605,236.128 112.228,236.226 111.847,236.226 L 109.869,236.226 C 109.488,236.226 109.169,236.127 108.911,235.927 C 108.589,235.677 108.502,235.349 108.65,234.942 L 109.271,233.236 C 109.418,232.832 109.724,232.511 110.187,232.27 C 110.577,232.066 110.988,231.965 111.419,231.965 L 113.397,231.965 C 113.814,231.965 114.145,232.062 114.392,232.257 C 114.69,232.497 114.765,232.82 114.616,233.228 z M 113.768,233.242 C 113.808,233.134 113.768,233.038 113.648,232.957 C 113.519,232.853 113.331,232.801 113.087,232.801 L 111.116,232.801 C 110.944,232.801 110.748,232.839 110.531,232.917 C 110.302,232.999 110.164,233.105 110.116,233.236 C 110.07,233.362 110.128,233.469 110.291,233.555 C 110.438,233.637 110.607,233.677 110.797,233.677 L 112.776,233.677 C 113.011,233.677 113.233,233.628 113.442,233.528 C 113.619,233.446 113.729,233.351 113.768,233.242 z" />
			<path
   style="fill:#ffffff"
   id="path2644"
   d="M 121.25,233.228 C 121.106,233.623 120.794,233.946 120.312,234.2 C 119.915,234.408 119.511,234.512 119.104,234.512 L 117.126,234.512 C 116.994,234.512 116.873,234.502 116.757,234.479 C 116.643,234.457 116.505,234.414 116.343,234.35 L 116.135,234.92 L 116.13,234.934 C 116.1,235.052 116.17,235.159 116.339,235.254 C 116.412,235.304 116.487,235.338 116.566,235.36 C 116.645,235.38 116.726,235.39 116.806,235.39 L 118.785,235.39 C 118.866,235.39 118.949,235.383 119.033,235.37 C 119.118,235.356 119.203,235.33 119.288,235.295 C 119.509,235.208 119.697,235.047 119.851,234.812 L 120.686,234.812 C 120.426,235.328 120.069,235.702 119.613,235.934 C 119.239,236.128 118.862,236.226 118.481,236.226 L 116.502,236.226 C 116.122,236.226 115.802,236.127 115.544,235.927 C 115.222,235.677 115.135,235.349 115.284,234.942 L 115.905,233.236 C 116.052,232.832 116.358,232.511 116.822,232.27 C 117.212,232.066 117.623,231.965 118.053,231.965 L 120.032,231.965 C 120.448,231.965 120.78,232.062 121.026,232.257 C 121.324,232.497 121.398,232.82 121.25,233.228 z M 120.402,233.242 C 120.442,233.134 120.401,233.038 120.281,232.957 C 120.152,232.853 119.964,232.801 119.72,232.801 L 117.749,232.801 C 117.577,232.801 117.381,232.839 117.164,232.917 C 116.935,232.999 116.797,233.105 116.749,233.236 C 116.703,233.362 116.762,233.469 116.925,233.555 C 117.072,233.637 117.241,233.677 117.431,233.677 L 119.409,233.677 C 119.644,233.677 119.866,233.628 120.075,233.528 C 120.253,233.446 120.362,233.351 120.402,233.242 z" />
			<path
   style="fill:#ffffff"
   id="path2646"
   d="M 133.99,235.845 C 133.586,236.098 133.15,236.225 132.684,236.225 L 128.572,236.225 C 128.141,236.225 127.819,236.109 127.604,235.878 C 127.373,235.629 127.308,235.249 127.408,234.737 L 128.244,234.737 C 128.215,234.977 128.261,235.149 128.382,235.253 L 128.375,235.253 C 128.497,235.343 128.664,235.389 128.876,235.389 L 132.988,235.389 C 133.228,235.389 133.452,235.332 133.66,235.22 C 133.85,235.119 133.97,235.005 134.018,234.873 L 134.265,234.193 C 134.313,234.062 134.278,233.946 134.16,233.846 C 134.035,233.733 133.848,233.676 133.604,233.676 L 129.499,233.676 C 129.038,233.676 128.691,233.55 128.462,233.296 C 128.218,233.032 128.166,232.708 128.308,232.317 L 128.556,231.637 C 128.692,231.262 128.978,230.939 129.41,230.672 C 129.83,230.415 130.272,230.285 130.733,230.285 L 134.845,230.285 C 135.276,230.285 135.595,230.406 135.807,230.645 C 136.041,230.885 136.107,231.261 136.001,231.773 L 135.166,231.773 C 135.194,231.533 135.148,231.36 135.026,231.257 L 135.033,231.257 C 134.92,231.171 134.754,231.128 134.537,231.128 L 130.425,231.128 C 130.18,231.128 129.951,231.184 129.738,231.297 C 129.553,231.393 129.438,231.505 129.39,231.637 L 129.142,232.317 C 129.092,232.453 129.124,232.571 129.238,232.671 C 129.363,232.784 129.552,232.84 129.801,232.84 L 133.913,232.84 C 134.379,232.84 134.723,232.967 134.942,233.221 C 135.185,233.488 135.237,233.811 135.098,234.193 L 134.851,234.873 C 134.714,235.258 134.426,235.583 133.99,235.845 z" />
			<path
   style="fill:#ffffff"
   id="path2648"
   d="M 140.523,235.913 C 140.13,236.121 139.727,236.225 139.315,236.225 L 137.336,236.225 C 136.933,236.225 136.606,236.123 136.354,235.92 C 136.049,235.67 135.972,235.343 136.118,234.941 L 136.739,233.235 C 136.883,232.84 137.195,232.517 137.678,232.263 C 138.075,232.055 138.48,231.951 138.892,231.951 L 140.871,231.951 C 141.26,231.951 141.58,232.048 141.831,232.243 C 142.146,232.497 142.231,232.825 142.084,233.228 L 141.461,234.941 C 141.318,235.334 141.006,235.659 140.523,235.913 z M 141.241,233.228 C 141.287,233.101 141.229,232.996 141.066,232.908 C 140.927,232.831 140.759,232.793 140.565,232.793 L 138.586,232.793 C 138.387,232.793 138.192,232.829 138.003,232.901 C 137.771,232.992 137.631,233.1 137.585,233.227 L 136.96,234.947 C 136.914,235.074 136.972,235.18 137.135,235.266 C 137.282,235.347 137.449,235.388 137.635,235.388 L 139.619,235.388 C 139.709,235.388 139.802,235.379 139.901,235.361 C 139.998,235.342 140.097,235.314 140.197,235.272 C 140.429,235.182 140.569,235.071 140.617,234.94 L 141.241,233.228 z" />
			<path
   style="fill:#ffffff"
   id="path2650"
   d="M 144.375,232.8 L 143.128,236.225 L 142.285,236.225 L 143.981,231.563 C 144.127,231.164 144.399,230.845 144.8,230.604 C 145.152,230.396 145.592,230.292 146.123,230.292 L 145.824,231.115 C 145.493,231.164 145.253,231.228 145.101,231.304 C 144.951,231.382 144.859,231.469 144.824,231.563 L 144.678,231.964 L 145.52,231.964 L 145.216,232.8 L 144.375,232.8 z" />
			<path
   style="fill:#ffffff"
   id="path2652"
   d="M 148.193,232.8 L 146.946,236.225 L 146.097,236.225 L 147.344,232.8 L 146.508,232.8 L 146.812,231.964 L 147.648,231.964 L 148.259,230.286 L 149.108,230.286 L 148.497,231.964 L 149.34,231.964 L 149.036,232.8 L 148.193,232.8 z" />
			<path
   style="fill:#ffffff"
   id="path2654"
   d="M 154.629,235.898 C 154.272,236.111 153.867,236.218 153.419,236.218 C 153.175,236.218 152.946,236.183 152.736,236.115 C 152.525,236.047 152.346,235.941 152.198,235.796 C 151.944,235.937 151.682,236.043 151.413,236.115 C 151.144,236.188 150.887,236.224 150.642,236.224 C 150.211,236.224 149.89,236.12 149.676,235.912 C 149.44,235.676 149.397,235.352 149.547,234.94 L 150.63,231.963 L 151.473,231.963 L 150.387,234.946 C 150.341,235.073 150.38,235.176 150.504,235.258 C 150.641,235.344 150.831,235.387 151.075,235.387 C 151.324,235.387 151.544,235.344 151.734,235.258 C 151.921,235.181 152.038,235.075 152.088,234.94 L 152.756,233.105 L 153.599,233.105 L 152.929,234.947 C 152.881,235.079 152.921,235.18 153.049,235.253 C 153.185,235.339 153.371,235.382 153.607,235.382 C 153.86,235.382 154.082,235.339 154.272,235.253 C 154.46,235.176 154.574,235.074 154.621,234.947 L 155.707,231.964 L 156.557,231.964 L 155.474,234.941 C 155.33,235.339 155.047,235.659 154.629,235.898 z" />
			<path
   style="fill:#ffffff"
   id="path2656"
   d="M 160.977,235.92 C 160.581,236.124 160.173,236.225 159.751,236.225 L 157.773,236.225 C 157.347,236.225 157.011,236.126 156.768,235.926 C 156.474,235.69 156.4,235.367 156.551,234.954 C 156.696,234.556 157.008,234.234 157.487,233.989 C 157.884,233.781 158.29,233.676 158.701,233.676 L 160.68,233.676 C 160.807,233.676 160.927,233.689 161.041,233.711 C 161.156,233.733 161.293,233.776 161.456,233.84 L 161.666,233.262 C 161.693,233.14 161.626,233.032 161.466,232.936 C 161.322,232.846 161.167,232.8 161,232.8 L 159.022,232.8 C 158.937,232.8 158.851,232.807 158.767,232.82 C 158.683,232.834 158.598,232.86 158.512,232.895 C 158.291,232.981 158.103,233.143 157.95,233.377 L 157.114,233.377 C 157.379,232.861 157.735,232.487 158.182,232.256 C 158.557,232.061 158.935,231.964 159.321,231.964 L 161.305,231.964 C 161.694,231.964 162.015,232.061 162.265,232.256 C 162.583,232.501 162.668,232.829 162.518,233.241 L 161.897,234.947 C 161.747,235.352 161.441,235.675 160.977,235.92 z M 161.049,234.954 C 161.095,234.828 161.037,234.721 160.873,234.635 C 160.726,234.553 160.56,234.512 160.374,234.512 L 158.395,234.512 C 158.164,234.512 157.94,234.563 157.723,234.663 C 157.544,234.744 157.435,234.839 157.395,234.948 C 157.353,235.061 157.391,235.158 157.505,235.24 C 157.642,235.339 157.83,235.389 158.07,235.389 L 160.054,235.389 C 160.249,235.389 160.441,235.353 160.63,235.28 C 160.864,235.19 161.002,235.082 161.049,234.954 z" />
			<path
   style="fill:#ffffff"
   id="path2658"
   d="M 168.276,233.377 C 168.293,233.142 168.222,232.981 168.064,232.895 C 168.005,232.859 167.939,232.833 167.864,232.82 C 167.789,232.807 167.711,232.8 167.63,232.8 L 165.652,232.8 C 165.453,232.8 165.255,232.838 165.059,232.916 C 164.833,233.002 164.697,233.11 164.649,233.242 L 163.563,236.225 L 162.72,236.225 L 164.271,231.964 L 165.114,231.964 L 165.05,232.14 C 165.217,232.077 165.373,232.032 165.517,232.004 C 165.661,231.977 165.805,231.963 165.95,231.963 L 167.934,231.963 C 168.31,231.963 168.617,232.058 168.856,232.248 C 169.143,232.479 169.228,232.855 169.111,233.376 L 168.276,233.376 L 168.276,233.377 z" />
			<path
   style="fill:#ffffff"
   id="path2660"
   d="M 175.777,233.228 C 175.633,233.623 175.321,233.946 174.839,234.2 C 174.442,234.408 174.038,234.512 173.631,234.512 L 171.653,234.512 C 171.521,234.512 171.4,234.502 171.284,234.479 C 171.17,234.457 171.032,234.414 170.869,234.35 L 170.661,234.92 L 170.656,234.934 C 170.627,235.052 170.697,235.159 170.866,235.254 C 170.938,235.304 171.014,235.338 171.093,235.36 C 171.172,235.38 171.253,235.39 171.333,235.39 L 173.312,235.39 C 173.393,235.39 173.476,235.383 173.56,235.37 C 173.645,235.356 173.73,235.33 173.815,235.295 C 174.036,235.208 174.224,235.047 174.378,234.812 L 175.213,234.812 C 174.953,235.328 174.596,235.702 174.14,235.934 C 173.766,236.128 173.389,236.226 173.008,236.226 L 171.029,236.226 C 170.648,236.226 170.329,236.127 170.071,235.927 C 169.749,235.677 169.662,235.349 169.81,234.942 L 170.431,233.236 C 170.578,232.832 170.884,232.511 171.347,232.27 C 171.738,232.066 172.148,231.965 172.579,231.965 L 174.558,231.965 C 174.974,231.965 175.306,232.062 175.552,232.257 C 175.852,232.497 175.926,232.82 175.777,233.228 z M 174.929,233.242 C 174.969,233.134 174.929,233.038 174.809,232.957 C 174.68,232.853 174.492,232.801 174.248,232.801 L 172.277,232.801 C 172.105,232.801 171.909,232.839 171.692,232.917 C 171.463,232.999 171.325,233.105 171.277,233.236 C 171.231,233.362 171.29,233.469 171.453,233.555 C 171.6,233.637 171.769,233.677 171.959,233.677 L 173.937,233.677 C 174.172,233.677 174.394,233.628 174.603,233.528 C 174.781,233.446 174.89,233.351 174.929,233.242 z" />
		</g><g
     transform="translate(0,15.136131)"
     id="g3651"><path
       style="fill:url(#linearGradient3887);fill-opacity:1"
       d="M 240.71946,155.66132 L 218.34446,195.81757 C 224.31015,194.5829 230.60959,192.94653 236.81321,190.81757 L 257.68821,155.66132 L 240.71946,155.66132 z M 197.59446,173.72382 L 197.59446,198.91132 C 201.82035,198.4988 206.76846,197.88729 212.25071,196.94257 L 212.18821,173.72382 L 197.59446,173.72382 z"
       id="path3594" /><path
       style="opacity:0.65116278;fill:#ffffff;fill-opacity:1;fill-rule:nonzero;stroke-width:1;stroke-linecap:butt;stroke-linejoin:miter;marker:none;marker-start:none;marker-mid:none;marker-end:none;stroke-miterlimit:4;stroke-dasharray:none;stroke-dashoffset:0;stroke-opacity:1;visibility:visible;display:inline;overflow:visible;filter:url(#filter3797);enable-background:accumulate"
       d="M 228.37571,204.91132 C 223.8493,207.89087 217.4158,209.78632 210.28196,209.78632 C 205.60859,209.78632 201.26498,208.95653 197.53196,207.56757 L 197.53196,215.28632 L 214.40696,215.28632 C 214.65785,215.28634 215.35148,215.20982 216.34446,215.09882 C 217.16845,215.00765 218.25613,214.65954 219.56321,214.00507 C 219.57363,214.00493 219.58404,214.00491 219.59446,214.00507 C 220.84816,213.37915 222.2628,212.3236 223.84446,210.84882 C 225.30204,209.48976 226.84734,207.5048 228.43821,204.94257 C 228.41691,204.93608 228.39706,204.91777 228.37571,204.91132 z"
       id="path3685" /></g><g
     id="g4410"><path
       sodipodi:type="inkscape:offset"
       inkscape:radius="-0.941535"
       inkscape:original="M 76.9375 318.0625 L 76.9375 322.5 C 93.103607 326.0298 115.45019 328.1875 140.125 328.1875 C 160.26114 328.1875 178.83943 326.76607 193.78125 324.3125 L 193.78125 318.0625 L 76.9375 318.0625 z "
       style="opacity:0.34883722;fill:#ffffff;fill-opacity:1;filter:url(#filter3676)"
       id="path3644"
       d="M 77.875,319 L 77.875,321.71875 C 93.887997,325.13909 115.85526,327.25 140.125,327.25 C 159.88372,327.25 178.09556,325.86881 192.84375,323.5 L 192.84375,319 L 77.875,319 z"
       transform="matrix(-1,0,0,-0.4576597,273.46946,390.60337)" /><path
       sodipodi:type="inkscape:offset"
       inkscape:radius="-0.941535"
       inkscape:original="M 76.9375 318.0625 L 76.9375 322.5 C 93.103607 326.0298 115.45019 328.1875 140.125 328.1875 C 160.26114 328.1875 178.83943 326.76607 193.78125 324.3125 L 193.78125 318.0625 L 76.9375 318.0625 z "
       style="opacity:0.70542632;fill:url(#linearGradient3885);fill-opacity:1"
       id="path3640"
       d="M 77.875,319 L 77.875,321.71875 C 93.887997,325.13909 115.85526,327.25 140.125,327.25 C 159.88372,327.25 178.09556,325.86881 192.84375,323.5 L 192.84375,319 L 77.875,319 z"
       transform="translate(2.7507074,-86.640049)" /></g></g></svg>