<?xml version="1.0" encoding="UTF-8" standalone="no"?>
<!-- Generator: Adobe Illustrator 14.0.0, SVG Export Plug-In . SVG Version: 6.00 Build 43363)  -->

<svg
   xmlns:dc="http://purl.org/dc/elements/1.1/"
   xmlns:cc="http://creativecommons.org/ns#"
   xmlns:rdf="http://www.w3.org/1999/02/22-rdf-syntax-ns#"
   xmlns:svg="http://www.w3.org/2000/svg"
   xmlns="http://www.w3.org/2000/svg"
   xmlns:xlink="http://www.w3.org/1999/xlink"
   xmlns:sodipodi="http://sodipodi.sourceforge.net/DTD/sodipodi-0.dtd"
   xmlns:inkscape="http://www.inkscape.org/namespaces/inkscape"
   version="1.1"
   id="Capa_1"
   x="0px"
   y="0px"
   width="841.89px"
   height="595.28px"
   viewBox="0 0 841.89 595.28"
   enable-background="new 0 0 841.89 595.28"
   xml:space="preserve"
   inkscape:version="0.48.2 r9819"
   sodipodi:docname="Licencias.svg"
   sodipodi:version="0.32"
   inkscape:output_extension="org.inkscape.output.svg.inkscape"><metadata
   id="metadata507"><rdf:RDF><cc:Work
       rdf:about=""><dc:format>image/svg+xml</dc:format><dc:type
         rdf:resource="http://purl.org/dc/dcmitype/StillImage" /><dc:title></dc:title><cc:license
         rdf:resource="http://creativecommons.org/licenses/by/3.0/" /></cc:Work><cc:License
       rdf:about="http://creativecommons.org/licenses/by/3.0/"><cc:permits
         rdf:resource="http://creativecommons.org/ns#Reproduction" /><cc:permits
         rdf:resource="http://creativecommons.org/ns#Distribution" /><cc:requires
         rdf:resource="http://creativecommons.org/ns#Notice" /><cc:requires
         rdf:resource="http://creativecommons.org/ns#Attribution" /><cc:permits
         rdf:resource="http://creativecommons.org/ns#DerivativeWorks" /></cc:License></rdf:RDF></metadata><defs
   id="defs505"><linearGradient
   id="linearGradient4471"><stop
     style="stop-color:#696a6b;stop-opacity:1;"
     offset="0"
     id="stop4473" /><stop
     style="stop-color:#9b9c9e;stop-opacity:1;"
     offset="1"
     id="stop4475" /></linearGradient><linearGradient
   id="linearGradient4455"><stop
     style="stop-color:#696a6b;stop-opacity:1;"
     offset="0"
     id="stop4457" /><stop
     style="stop-color:#9b9c9e;stop-opacity:1;"
     offset="1"
     id="stop4459" /></linearGradient><linearGradient
   id="linearGradient4260"><stop
     style="stop-color:#911d21;stop-opacity:1;"
     offset="0"
     id="stop4262" /><stop
     style="stop-color:#c4282d;stop-opacity:1;"
     offset="1"
     id="stop4264" /></linearGradient><linearGradient
   id="linearGradient4235"><stop
     style="stop-color:#592350;stop-opacity:1;"
     offset="0"
     id="stop4237" /><stop
     style="stop-color:#742e68;stop-opacity:1;"
     offset="1"
     id="stop4239" /></linearGradient><linearGradient
   id="linearGradient4197"><stop
     style="stop-color:#16813d;stop-opacity:1;"
     offset="0"
     id="stop4199" /><stop
     style="stop-color:#0d4f25;stop-opacity:1;"
     offset="1"
     id="stop4201" /></linearGradient><linearGradient
   id="linearGradient3598"><stop
     style="stop-color:#742e68;stop-opacity:1;"
     offset="0"
     id="stop3600" /><stop
     style="stop-color:#481c40;stop-opacity:1;"
     offset="1"
     id="stop3602" /></linearGradient><linearGradient
   inkscape:collect="always"
   id="linearGradient3584"><stop
     style="stop-color:#ffffff;stop-opacity:1;"
     offset="0"
     id="stop3586" /><stop
     style="stop-color:#ffffff;stop-opacity:0;"
     offset="1"
     id="stop3588" /></linearGradient><linearGradient
   inkscape:collect="always"
   id="linearGradient3542"><stop
     style="stop-color:#ffffff;stop-opacity:1;"
     offset="0"
     id="stop3544" /><stop
     style="stop-color:#ffffff;stop-opacity:0;"
     offset="1"
     id="stop3546" /></linearGradient><linearGradient
   id="linearGradient3536"><stop
     style="stop-color:#ffffff;stop-opacity:1"
     offset="0"
     id="stop3538" /><stop
     style="stop-color:#ffffff;stop-opacity:0"
     offset="1"
     id="stop3540" /></linearGradient><linearGradient
   id="linearGradient3530"><stop
     style="stop-color:#ffffff;stop-opacity:1"
     offset="0"
     id="stop3532" /><stop
     style="stop-color:#7f1a1d;stop-opacity:1;"
     offset="1"
     id="stop3534" /></linearGradient><linearGradient
   id="linearGradient3483"><stop
     id="stop3485"
     offset="0"
     style="stop-color:#c4282d;stop-opacity:1;" /><stop
     id="stop3487"
     offset="1"
     style="stop-color:#7f1a1d;stop-opacity:1;" /></linearGradient><linearGradient
   id="linearGradient3467"><stop
     style="stop-color:#000000;stop-opacity:1;"
     offset="0"
     id="stop3469" /><stop
     style="stop-color:#000000;stop-opacity:0;"
     offset="1"
     id="stop3471" /></linearGradient><inkscape:perspective
   sodipodi:type="inkscape:persp3d"
   inkscape:vp_x="0 : 297.64001 : 1"
   inkscape:vp_y="0 : 1000 : 0"
   inkscape:vp_z="841.89001 : 297.64001 : 1"
   inkscape:persp3d-origin="420.94501 : 198.42668 : 1"
   id="perspective509" />
	
	
	
	
<linearGradient
   inkscape:collect="always"
   xlink:href="#linearGradient3483"
   id="linearGradient3481"
   x1="193.67853"
   y1="227.42769"
   x2="192.737"
   y2="164.42589"
   gradientUnits="userSpaceOnUse" /><linearGradient
   inkscape:collect="always"
   xlink:href="#linearGradient3542"
   id="linearGradient3548"
   x1="223.70312"
   y1="167.78789"
   x2="223.70312"
   y2="224.78125"
   gradientUnits="userSpaceOnUse" />
		
		
	<linearGradient
   inkscape:collect="always"
   xlink:href="#linearGradient3584"
   id="linearGradient3590"
   x1="234.03793"
   y1="165.15395"
   x2="234.35178"
   y2="210.66147"
   gradientUnits="userSpaceOnUse" />
		
		
	<filter
   inkscape:collect="always"
   id="filter3797"
   x="-0.16028311"
   width="1.3205662"
   y="-0.47746988"
   height="1.9549398"><feGaussianBlur
     inkscape:collect="always"
     stdDeviation="2.0640625"
     id="feGaussianBlur3799" /></filter><linearGradient
   inkscape:collect="always"
   xlink:href="#linearGradient3483"
   id="linearGradient3947"
   gradientUnits="userSpaceOnUse"
   x1="193.67853"
   y1="227.42769"
   x2="192.737"
   y2="164.42589" />
	
	
	
	

		
	
		
		
		
	
		
		
		
		
		
		
		
		
		
		
		
		
	
		
	
	
	
	
	

		
	
		
		
	
		
	
		
		
		
		
	<linearGradient
   inkscape:collect="always"
   xlink:href="#linearGradient3598"
   id="linearGradient3620"
   x1="473.95499"
   y1="225.58197"
   x2="473.95499"
   y2="164.577"
   gradientUnits="userSpaceOnUse" /><linearGradient
   inkscape:collect="always"
   xlink:href="#linearGradient3483"
   id="linearGradient3883"
   gradientUnits="userSpaceOnUse"
   gradientTransform="translate(2.7507074,-101.77618)"
   x1="138.40564"
   y1="330.10239"
   x2="138.40564"
   y2="319.71936" /><linearGradient
   inkscape:collect="always"
   xlink:href="#linearGradient3598"
   id="linearGradient3891"
   gradientUnits="userSpaceOnUse"
   x1="473.95499"
   y1="225.58197"
   x2="473.95499"
   y2="164.577" /><linearGradient
   inkscape:collect="always"
   xlink:href="#linearGradient3598"
   id="linearGradient4005"
   gradientUnits="userSpaceOnUse"
   x1="473.95499"
   y1="225.58197"
   x2="473.95499"
   y2="164.577" /><linearGradient
   inkscape:collect="always"
   xlink:href="#linearGradient3598"
   id="linearGradient2938"
   gradientUnits="userSpaceOnUse"
   gradientTransform="translate(16.564834,16.038773)"
   x1="365.68323"
   y1="228.72025"
   x2="365.68323"
   y2="216.25424" />
	
	
	
	
	
	
	
	
	
	<filter
   inkscape:collect="always"
   id="filter4193"
   x="-0.085987615"
   width="1.1719752"
   y="-0.10865135"
   height="1.2173027"><feGaussianBlur
     inkscape:collect="always"
     stdDeviation="0.64222"
     id="feGaussianBlur4195" /></filter>
	
	
	
	
<linearGradient
   inkscape:collect="always"
   xlink:href="#linearGradient4260"
   id="linearGradient4266"
   x1="436.16766"
   y1="371.68591"
   x2="436.16766"
   y2="433.08426"
   gradientUnits="userSpaceOnUse" /><linearGradient
   inkscape:collect="always"
   xlink:href="#linearGradient3584"
   id="linearGradient4296"
   gradientUnits="userSpaceOnUse"
   gradientTransform="translate(3.7826799,-9.9750279)"
   x1="234.03793"
   y1="165.15395"
   x2="233.72409"
   y2="209.09224" />
	
	
	
	
	
	
<linearGradient
   inkscape:collect="always"
   xlink:href="#linearGradient4471"
   id="linearGradient4477"
   x1="664.09625"
   y1="501.10046"
   x2="664.09625"
   y2="510.29501"
   gradientUnits="userSpaceOnUse" /><linearGradient
   inkscape:collect="always"
   xlink:href="#linearGradient4471"
   id="linearGradient4513"
   gradientUnits="userSpaceOnUse"
   x1="664.09625"
   y1="501.10046"
   x2="664.09625"
   y2="510.29501" />
		
		
	</defs><sodipodi:namedview
   pagecolor="#ffffff"
   bordercolor="#666666"
   borderopacity="1"
   objecttolerance="10"
   gridtolerance="10"
   guidetolerance="10"
   inkscape:pageopacity="0"
   inkscape:pageshadow="2"
   inkscape:window-width="1280"
   inkscape:window-height="746"
   id="namedview503"
   showgrid="false"
   inkscape:zoom="0.90545621"
   inkscape:cx="420.94501"
   inkscape:cy="443.33958"
   inkscape:window-x="0"
   inkscape:window-y="0"
   inkscape:window-maximized="1"
   inkscape:current-layer="Capa_1"
   showguides="true"
   inkscape:guide-bbox="true" />

















<g
   id="g4758"><g
     style="fill:#999999;filter:url(#filter4193)"
     transform="translate(-297.76286,76.992515)"
     id="g4418">
		<path
   style="fill:#999999"
   d="M 764.117,354.047 C 764.117,354.968 763.711,355.742 762.898,356.37 C 762.152,356.976 761.219,357.28 760.103,357.28 L 750.273,357.28 C 749.244,357.28 748.371,357.004 747.656,356.451 C 746.886,355.855 746.4,354.946 746.193,353.722 L 748.193,353.722 C 748.334,354.296 748.593,354.707 748.972,354.957 L 748.956,354.957 C 749.323,355.174 749.763,355.281 750.272,355.281 L 760.102,355.281 C 760.665,355.281 761.153,355.151 761.565,354.891 C 761.933,354.653 762.118,354.371 762.118,354.046 L 762.118,352.421 C 762.118,352.117 761.933,351.847 761.565,351.608 C 761.131,351.327 760.639,351.186 760.086,351.186 L 754.854,351.186 L 754.854,349.187 L 760.102,349.187 C 760.676,349.187 761.165,349.052 761.565,348.781 C 761.933,348.544 762.118,348.266 762.118,347.953 L 762.118,346.328 C 762.118,346.024 761.933,345.753 761.565,345.515 C 761.131,345.233 760.639,345.092 760.086,345.092 L 750.272,345.092 C 749.773,345.092 749.339,345.2 748.971,345.417 L 748.988,345.417 C 748.598,345.645 748.333,346.056 748.192,346.652 L 746.192,346.652 C 746.387,345.417 746.864,344.517 747.623,343.954 C 748.338,343.38 749.221,343.094 750.272,343.094 L 760.102,343.094 C 761.197,343.094 762.128,343.397 762.897,344.003 C 763.71,344.643 764.116,345.417 764.116,346.327 C 764.116,347.118 764.085,347.838 764.019,348.487 C 763.997,348.812 763.889,349.111 763.694,349.382 C 763.607,349.501 763.506,349.625 763.393,349.756 C 763.28,349.886 763.141,350.027 762.979,350.178 C 763.293,350.471 763.532,350.741 763.694,350.991 C 763.878,351.295 763.987,351.587 764.019,351.869 C 764.086,352.509 764.117,353.234 764.117,354.047 z"
   id="path4420" />
	</g><path
     style="fill:url(#linearGradient4266);fill-opacity:1"
     id="path4151"
     d="M 445.26793,371.38432 L 464.72293,371.38432 L 434.75393,421.88432 C 433.04293,424.69832 431.37293,426.86432 429.74593,428.38232 C 428.11693,429.90132 426.61293,431.00432 425.23393,431.69432 C 423.85293,432.38432 422.66793,432.78532 421.67293,432.89432 C 420.68093,433.00532 419.98893,433.06032 419.60393,433.06032 L 401.72293,433.06032 L 401.72293,389.43232 L 418.44593,389.43232 L 418.52893,419.40032 L 445.26793,371.38432 z" /><path
     style="fill:#c4282d"
     id="path4153"
     d="M 407.98993,438.63632 C 408.01693,438.44732 407.98493,438.31632 407.88993,438.24432 L 407.89493,438.24432 C 407.80893,438.17932 407.68393,438.14632 407.51893,438.14632 L 404.40993,438.14632 C 404.22393,438.14632 404.05193,438.18732 403.89393,438.27432 C 403.75393,438.34532 403.66593,438.43232 403.62993,438.53132 L 403.29993,439.43832 L 405.59393,439.43832 L 405.36293,440.07432 L 403.06793,440.07432 L 402.36193,442.01232 L 401.72293,442.01232 L 402.98993,438.53132 C 403.09393,438.24832 403.31093,438.00332 403.63793,437.80032 C 403.95693,437.60532 404.29193,437.50632 404.64193,437.50632 L 407.75093,437.50632 C 408.08093,437.50632 408.32593,437.59932 408.48693,437.77832 C 408.66393,437.96132 408.71393,438.24832 408.63493,438.63532 L 407.98993,438.63532 L 407.98993,438.63632 z" /><path
     style="fill:#c4282d"
     id="path4155"
     d="M 412.57993,439.85332 C 412.59293,439.67332 412.53893,439.55132 412.41893,439.48732 C 412.37393,439.46032 412.32393,439.43932 412.26793,439.42832 C 412.20993,439.41932 412.15093,439.41332 412.08993,439.41332 L 410.58893,439.41332 C 410.43793,439.41332 410.28793,439.44332 410.13893,439.50232 C 409.96793,439.56632 409.86493,439.64932 409.82793,439.74832 L 409.00393,442.01332 L 408.36393,442.01332 L 409.54093,438.77932 L 410.18093,438.77932 L 410.13193,438.91432 C 410.25793,438.86632 410.37693,438.83232 410.48593,438.81132 C 410.59393,438.79032 410.70393,438.77932 410.81393,438.77932 L 412.31993,438.77932 C 412.60493,438.77932 412.83793,438.85232 413.01893,438.99632 C 413.23793,439.17332 413.30193,439.45732 413.21293,439.85332 L 412.57993,439.85332 z" /><path
     style="fill:#c4282d"
     id="path4157"
     d="M 418.27193,439.73932 C 418.16393,440.03932 417.92593,440.28432 417.56093,440.47632 C 417.25893,440.63532 416.95293,440.71232 416.64393,440.71232 L 415.14293,440.71232 C 415.04293,440.71232 414.95193,440.70332 414.86393,440.68732 C 414.77793,440.67032 414.67293,440.63832 414.54993,440.58932 L 414.39193,441.02232 L 414.38793,441.03232 C 414.36593,441.12332 414.41893,441.20332 414.54793,441.27532 C 414.60293,441.31432 414.65993,441.33932 414.71993,441.35632 C 414.77993,441.37232 414.84093,441.37832 414.90193,441.37832 L 416.40293,441.37832 C 416.46493,441.37832 416.52793,441.37232 416.59093,441.36332 C 416.65493,441.35232 416.71993,441.33332 416.78393,441.30632 C 416.95193,441.24032 417.09493,441.11832 417.21193,440.93932 L 417.84493,440.93932 C 417.64793,441.33232 417.37693,441.61532 417.03093,441.79132 C 416.74793,441.93832 416.46093,442.01332 416.17193,442.01332 L 414.67193,442.01332 C 414.38293,442.01332 414.14093,441.93732 413.94493,441.78632 C 413.70093,441.59632 413.63393,441.34732 413.74693,441.03832 L 414.21893,439.74432 C 414.32993,439.43732 414.56293,439.19332 414.91393,439.01132 C 415.20893,438.85732 415.52093,438.77932 415.84893,438.77932 L 417.34993,438.77932 C 417.66593,438.77932 417.91693,438.85332 418.10493,439.00232 C 418.32793,439.18432 418.38493,439.42832 418.27193,439.73932 z M 417.62793,439.74932 C 417.65793,439.66732 417.62793,439.59632 417.53693,439.53332 C 417.43893,439.45432 417.29693,439.41432 417.11093,439.41432 L 415.61493,439.41432 C 415.48393,439.41432 415.33693,439.44432 415.17193,439.50332 C 414.99793,439.56432 414.89293,439.64532 414.85693,439.74532 C 414.82193,439.84232 414.86593,439.92232 414.98993,439.98632 C 415.10193,440.04932 415.23093,440.08032 415.37393,440.08032 L 416.87593,440.08032 C 417.05393,440.08032 417.22193,440.04232 417.37993,439.96632 C 417.51593,439.90432 417.59793,439.83232 417.62793,439.74932 z" /><path
     style="fill:#c4282d"
     id="path4159"
     d="M 423.30493,439.73932 C 423.19593,440.03932 422.95893,440.28432 422.59293,440.47632 C 422.29093,440.63532 421.98693,440.71232 421.67693,440.71232 L 420.17593,440.71232 C 420.07593,440.71232 419.98393,440.70332 419.89693,440.68732 C 419.81093,440.67032 419.70593,440.63832 419.58293,440.58932 L 419.42493,441.02232 L 419.42093,441.03232 C 419.39993,441.12332 419.45193,441.20332 419.58093,441.27532 C 419.63593,441.31432 419.69293,441.33932 419.75293,441.35632 C 419.81293,441.37232 419.87393,441.37832 419.93493,441.37832 L 421.43693,441.37832 C 421.49793,441.37832 421.55993,441.37232 421.62493,441.36332 C 421.68893,441.35232 421.75393,441.33332 421.81793,441.30632 C 421.98593,441.24032 422.12893,441.11832 422.24593,440.93932 L 422.87893,440.93932 C 422.68193,441.33232 422.41093,441.61532 422.06493,441.79132 C 421.78193,441.93832 421.49593,442.01332 421.20693,442.01332 L 419.70593,442.01332 C 419.41693,442.01332 419.17493,441.93732 418.97893,441.78632 C 418.73493,441.59632 418.66793,441.34732 418.78193,441.03832 L 419.25293,439.74432 C 419.36393,439.43732 419.59693,439.19332 419.94793,439.01132 C 420.24393,438.85732 420.55493,438.77932 420.88193,438.77932 L 422.38393,438.77932 C 422.69893,438.77932 422.95093,438.85332 423.13793,439.00232 C 423.36193,439.18432 423.41793,439.42832 423.30493,439.73932 z M 422.66193,439.74932 C 422.69093,439.66732 422.65993,439.59632 422.56993,439.53332 C 422.47193,439.45432 422.32993,439.41432 422.14393,439.41432 L 420.64793,439.41432 C 420.51693,439.41432 420.36893,439.44432 420.20493,439.50332 C 420.03093,439.56432 419.92593,439.64532 419.88993,439.74532 C 419.85593,439.84232 419.89893,439.92232 420.02393,439.98632 C 420.13493,440.04932 420.26293,440.08032 420.40693,440.08032 L 421.90893,440.08032 C 422.08693,440.08032 422.25493,440.04232 422.41293,439.96632 C 422.54893,439.90432 422.63093,439.83232 422.66193,439.74932 z" /><path
     style="fill:#c4282d"
     id="path4161"
     d="M 432.97093,441.72332 C 432.66593,441.91632 432.33393,442.01332 431.98093,442.01332 L 428.86093,442.01332 C 428.53393,442.01332 428.28993,441.92532 428.12793,441.75032 C 427.95193,441.56132 427.90193,441.27132 427.97893,440.88332 L 428.61293,440.88332 C 428.59193,441.06632 428.62693,441.19632 428.71793,441.27532 L 428.71193,441.27532 C 428.80393,441.34332 428.93093,441.37932 429.09293,441.37932 L 432.21193,441.37932 C 432.39393,441.37932 432.56593,441.33632 432.72193,441.25132 C 432.86793,441.17632 432.95793,441.08732 432.99393,440.98732 L 433.18193,440.47132 C 433.21793,440.37032 433.19093,440.28332 433.10293,440.20832 C 433.00693,440.12232 432.86693,440.07932 432.67993,440.07932 L 429.56593,440.07932 C 429.21493,440.07932 428.95293,439.98232 428.77893,439.78932 C 428.59393,439.59032 428.55393,439.34332 428.66193,439.04832 L 428.84993,438.53132 C 428.95393,438.24832 429.17093,438.00332 429.49793,437.80032 C 429.81593,437.60532 430.15093,437.50632 430.50093,437.50632 L 433.62193,437.50632 C 433.94793,437.50632 434.19093,437.59932 434.35193,437.77832 C 434.52993,437.96132 434.57893,438.24832 434.49893,438.63532 L 433.86493,438.63532 C 433.88593,438.45232 433.85093,438.32132 433.75893,438.24332 L 433.76393,438.24332 C 433.67893,438.17832 433.55293,438.14532 433.38893,438.14532 L 430.26793,438.14532 C 430.08193,438.14532 429.90893,438.18632 429.74693,438.27332 C 429.60693,438.34432 429.51893,438.43132 429.48293,438.53032 L 429.29493,439.04732 C 429.25793,439.15132 429.28093,439.23932 429.36693,439.31532 C 429.46293,439.40132 429.60693,439.44432 429.79493,439.44432 L 432.91593,439.44432 C 433.26993,439.44432 433.52993,439.54132 433.69593,439.73332 C 433.88093,439.93732 433.91993,440.18132 433.81393,440.47032 L 433.62593,440.98632 C 433.52193,441.27832 433.30293,441.52632 432.97093,441.72332 z" /><path
     style="fill:#c4282d"
     id="path4163"
     d="M 437.92893,441.77732 C 437.63093,441.93432 437.32593,442.01332 437.01293,442.01332 L 435.51193,442.01332 C 435.20493,442.01332 434.95693,441.93532 434.76693,441.78232 C 434.53593,441.59232 434.47693,441.34432 434.58793,441.03932 L 435.05893,439.74532 C 435.16793,439.44532 435.40493,439.20032 435.77193,439.00732 C 436.07293,438.84932 436.37993,438.77032 436.69193,438.77032 L 438.19393,438.77032 C 438.48893,438.77032 438.73193,438.84432 438.92293,438.99332 C 439.16193,439.18532 439.22693,439.43332 439.11393,439.74032 L 438.64093,441.04032 C 438.53293,441.33832 438.29493,441.58432 437.92893,441.77732 z M 438.47493,439.73932 C 438.50893,439.64232 438.46493,439.56232 438.34193,439.49732 C 438.23593,439.43832 438.10893,439.41032 437.96093,439.41032 L 436.45893,439.41032 C 436.30893,439.41032 436.15993,439.43632 436.01793,439.49232 C 435.84093,439.56032 435.73593,439.64232 435.70093,439.73932 L 435.22593,441.04432 C 435.19093,441.14132 435.23493,441.22132 435.35993,441.28632 C 435.47093,441.34832 435.59693,441.37932 435.73893,441.37932 L 437.24493,441.37932 C 437.31293,441.37932 437.38393,441.37232 437.45793,441.35832 C 437.53193,441.34332 437.60693,441.32332 437.68293,441.29232 C 437.86093,441.22332 437.96593,441.13932 438.00193,441.03932 L 438.47493,439.73932 z" /><path
     style="fill:#c4282d"
     id="path4165"
     d="M 440.85193,439.41432 L 439.90593,442.01432 L 439.26593,442.01432 L 440.55293,438.47732 C 440.66293,438.17532 440.87093,437.93132 441.17393,437.74932 C 441.44193,437.59132 441.77593,437.51232 442.17793,437.51232 L 441.95093,438.13732 C 441.69893,438.17532 441.51693,438.22232 441.40193,438.28032 C 441.28793,438.34032 441.21793,438.40532 441.19193,438.47732 L 441.08193,438.78032 L 441.72093,438.78032 L 441.49093,439.41532 L 440.85193,439.41532 L 440.85193,439.41432 z" /><path
     style="fill:#c4282d"
     id="path4167"
     d="M 443.74893,439.41432 L 442.80293,442.01432 L 442.15793,442.01432 L 443.10393,439.41432 L 442.46993,439.41432 L 442.69993,438.77932 L 443.33493,438.77932 L 443.79793,437.50732 L 444.44293,437.50732 L 443.97893,438.77932 L 444.61893,438.77932 L 444.38893,439.41432 L 443.74893,439.41432 z" /><path
     style="fill:#c4282d"
     id="path4169"
     d="M 448.63193,441.76532 C 448.36093,441.92632 448.05393,442.00832 447.71393,442.00832 C 447.52893,442.00832 447.35593,441.98232 447.19493,441.93032 C 447.03393,441.87832 446.89993,441.79732 446.78793,441.68832 C 446.59593,441.79432 446.39593,441.87632 446.19193,441.93032 C 445.98793,441.98632 445.79393,442.01332 445.60793,442.01332 C 445.28093,442.01332 445.03693,441.93432 444.87493,441.77732 C 444.69493,441.59632 444.66193,441.35132 444.77593,441.03932 L 445.59793,438.77932 L 446.23793,438.77932 L 445.41393,441.04432 C 445.37993,441.14132 445.40793,441.21932 445.50393,441.28132 C 445.60793,441.34632 445.75193,441.37932 445.93793,441.37932 C 446.12593,441.37932 446.29293,441.34732 446.43693,441.28132 C 446.57893,441.22232 446.66693,441.14132 446.70593,441.03932 L 447.21293,439.64632 L 447.85293,439.64632 L 447.34393,441.04332 C 447.30793,441.14332 447.33793,441.22032 447.43493,441.27432 C 447.53893,441.33932 447.67893,441.37232 447.85893,441.37232 C 448.04993,441.37232 448.21893,441.34032 448.36293,441.27432 C 448.50593,441.21632 448.59293,441.13932 448.62893,441.04332 L 449.45193,438.77832 L 450.09793,438.77832 L 449.27593,441.03832 C 449.16393,441.34132 448.94993,441.58432 448.63193,441.76532 z" /><path
     style="fill:#c4282d"
     id="path4171"
     d="M 453.44893,441.78232 C 453.14793,441.93532 452.83893,442.01332 452.51893,442.01332 L 451.01793,442.01332 C 450.69493,442.01332 450.43993,441.93732 450.25493,441.78632 C 450.03093,441.60532 449.97493,441.36132 450.08993,441.04832 C 450.19893,440.74532 450.43593,440.50132 450.79993,440.31632 C 451.10193,440.15832 451.40793,440.08032 451.72093,440.08032 L 453.22293,440.08032 C 453.31893,440.08032 453.40993,440.08932 453.49593,440.10532 C 453.58293,440.12332 453.68693,440.15632 453.80993,440.20432 L 453.96993,439.76532 C 453.98993,439.67232 453.93893,439.59032 453.81793,439.51932 C 453.70893,439.45032 453.59093,439.41532 453.46393,439.41532 L 451.96193,439.41532 C 451.89793,439.41532 451.83293,439.42132 451.76893,439.43032 C 451.70593,439.44132 451.63993,439.46132 451.57593,439.48932 C 451.40793,439.55332 451.26493,439.67632 451.14993,439.85532 L 450.51493,439.85532 C 450.71493,439.46232 450.98593,439.17932 451.32493,439.00332 C 451.60893,438.85532 451.89593,438.78032 452.18893,438.78032 L 453.69493,438.78032 C 453.98993,438.78032 454.23393,438.85432 454.42393,439.00332 C 454.66593,439.18932 454.73093,439.43832 454.61493,439.75032 L 454.14393,441.04532 C 454.03393,441.35032 453.80093,441.59532 453.44893,441.78232 z M 453.50293,441.04932 C 453.53693,440.95332 453.49393,440.87232 453.36893,440.80732 C 453.25793,440.74532 453.13193,440.71332 452.99193,440.71332 L 451.48993,440.71332 C 451.31493,440.71332 451.14493,440.75232 450.97993,440.82732 C 450.84293,440.88932 450.76093,440.96232 450.72993,441.04432 C 450.69893,441.12932 450.72793,441.20332 450.81393,441.26632 C 450.91793,441.34132 451.05993,441.37932 451.24393,441.37932 L 452.74893,441.37932 C 452.89593,441.37932 453.04293,441.35232 453.18593,441.29732 C 453.36393,441.22832 453.46793,441.14532 453.50293,441.04932 z" /><path
     style="fill:#c4282d"
     id="path4173"
     d="M 458.98693,439.85332 C 459.00093,439.67332 458.94593,439.55132 458.82693,439.48732 C 458.78193,439.46032 458.73093,439.43932 458.67493,439.42832 C 458.61793,439.41932 458.55893,439.41332 458.49693,439.41332 L 456.99693,439.41332 C 456.84593,439.41332 456.69393,439.44332 456.54693,439.50232 C 456.37593,439.56632 456.27293,439.64932 456.23493,439.74832 L 455.41193,442.01332 L 454.77193,442.01332 L 455.94793,438.77932 L 456.58793,438.77932 L 456.53993,438.91432 C 456.66693,438.86632 456.78493,438.83232 456.89393,438.81132 C 457.00293,438.79032 457.11293,438.77932 457.22393,438.77932 L 458.72793,438.77932 C 459.01393,438.77932 459.24793,438.85232 459.42893,438.99632 C 459.64693,439.17332 459.70993,439.45732 459.62193,439.85332 L 458.98693,439.85332 z" /><path
     style="fill:#c4282d"
     id="path4175"
     d="M 464.67893,439.73932 C 464.56993,440.03932 464.33293,440.28432 463.96693,440.47632 C 463.66593,440.63532 463.35993,440.71232 463.05093,440.71232 L 461.54993,440.71232 C 461.44893,440.71232 461.35793,440.70332 461.27093,440.68732 C 461.18393,440.67132 461.07893,440.63832 460.95593,440.58932 L 460.79993,441.02232 L 460.79493,441.03232 C 460.77293,441.12332 460.82593,441.20332 460.95393,441.27532 C 461.00893,441.31432 461.06693,441.33932 461.12593,441.35632 C 461.18693,441.37232 461.24693,441.37832 461.30893,441.37832 L 462.80993,441.37832 C 462.87193,441.37832 462.93393,441.37232 462.99793,441.36332 C 463.06193,441.35232 463.12693,441.33332 463.19193,441.30632 C 463.35993,441.24032 463.50293,441.11832 463.61893,440.93932 L 464.25293,440.93932 C 464.05493,441.33232 463.78493,441.61532 463.43993,441.79132 C 463.15493,441.93832 462.86993,442.01332 462.58093,442.01332 L 461.07893,442.01332 C 460.79093,442.01332 460.54893,441.93732 460.35193,441.78632 C 460.10793,441.59632 460.04193,441.34732 460.15493,441.03832 L 460.62593,439.74432 C 460.73693,439.43732 460.96993,439.19332 461.32093,439.01132 C 461.61793,438.85732 461.92893,438.77932 462.25693,438.77932 L 463.75793,438.77932 C 464.07293,438.77932 464.32493,438.85332 464.51193,439.00232 C 464.73493,439.18432 464.79093,439.42832 464.67893,439.73932 z M 464.03593,439.74932 C 464.06593,439.66732 464.03593,439.59632 463.94393,439.53332 C 463.84593,439.45432 463.70393,439.41432 463.51793,439.41432 L 462.02293,439.41432 C 461.89293,439.41432 461.74493,439.44432 461.57893,439.50332 C 461.40493,439.56432 461.30093,439.64532 461.26493,439.74532 C 461.22993,439.84232 461.27493,439.92232 461.39793,439.98632 C 461.50893,440.04932 461.63793,440.08032 461.78293,440.08032 L 463.28293,440.08032 C 463.46093,440.08032 463.62993,440.04232 463.78793,439.96632 C 463.92293,439.90432 464.00593,439.83232 464.03593,439.74932 z" /><g
     transform="translate(0.8398812,0.699901)"
     style="fill:#000000"
     id="g4303"><path
       d="M 413.56093,419.14432 C 413.92393,419.60932 414.10693,420.16932 414.10693,420.82932 L 414.10693,426.67932 C 414.10693,427.34332 413.92793,427.89932 413.56993,428.34432 C 413.19993,428.82232 412.74193,429.06132 412.19793,429.06132 L 407.63193,429.06132 C 407.10193,429.06132 406.64793,428.82232 406.26993,428.34432 C 405.90593,427.87932 405.72393,427.31832 405.72393,426.65932 L 405.72393,420.80032 C 405.72393,420.18732 405.89293,419.66732 406.23293,419.24132 C 406.57093,418.79532 407.10593,418.50932 407.83493,418.37932 L 407.83493,419.57032 C 407.48293,419.65432 407.23693,419.81232 407.09593,420.04532 C 406.97493,420.24532 406.91393,420.50032 406.91393,420.81032 L 406.91393,426.66032 C 406.91393,427.00932 406.99493,427.30632 407.15393,427.55132 C 407.28793,427.76432 407.44793,427.87032 407.63293,427.87032 L 412.19893,427.87032 C 412.39093,427.87032 412.55793,427.76432 412.69793,427.55132 L 412.68793,427.56132 C 412.84793,427.32232 412.92793,427.02832 412.92793,426.68032 L 412.92793,420.83032 C 412.92793,420.52632 412.86493,420.25632 412.73593,420.01732 C 412.60193,419.73332 412.41993,419.59132 412.18893,419.59132 L 410.51093,419.59132 L 410.51093,424.32632 L 409.33093,424.32632 L 409.33093,418.40932 L 412.19893,418.40932 C 412.72893,418.40832 413.18193,418.65332 413.56093,419.14432 z"
       id="path4305"
       style="fill:#000000" /><path
       d="M 409.96293,406.64132 C 410.32093,407.08732 410.50093,407.64632 410.50093,408.31732 L 410.50093,415.37732 L 414.10693,415.37732 L 414.10693,416.56832 L 407.63193,416.56832 C 407.10193,416.56832 406.64793,416.32932 406.26993,415.85132 C 405.90593,415.38632 405.72393,414.82532 405.72393,414.16532 L 405.72393,408.31632 C 405.72393,407.66532 405.90593,407.10932 406.26993,406.65032 C 406.64793,406.16732 407.10193,405.92432 407.63193,405.92432 L 408.59093,405.92432 C 409.13493,405.92632 409.59193,406.16532 409.96293,406.64132 z M 407.63193,407.10732 C 407.45293,407.10732 407.29393,407.21632 407.15293,407.43632 C 406.99393,407.68132 406.91293,407.97532 406.91293,408.31732 L 406.91293,414.17532 C 406.91293,414.47332 406.97393,414.74032 407.09493,414.97932 C 407.21693,415.24532 407.39593,415.37632 407.63193,415.37632 L 409.31993,415.37632 L 409.31993,408.31632 C 409.31993,407.97432 409.24293,407.68032 409.08993,407.43532 C 408.94993,407.21532 408.78293,407.10632 408.59093,407.10632 L 407.63193,407.10632 L 407.63193,407.10732 z"
       id="path4307"
       style="fill:#000000" /><path
       d="M 412.23693,393.44332 C 412.80493,393.54032 413.26193,393.81132 413.60793,394.25632 C 413.93993,394.68932 414.10693,395.21132 414.10693,395.82432 L 414.10693,401.68232 C 414.10693,402.34132 413.92793,402.89932 413.56993,403.35832 C 413.19993,403.84232 412.74193,404.08432 412.19793,404.08432 L 405.73293,404.08432 L 405.73293,402.87432 L 412.19793,402.87432 C 412.38993,402.87432 412.55693,402.76832 412.69693,402.55532 L 412.68693,402.56432 C 412.84693,402.32732 412.92693,402.03332 412.92693,401.68332 L 412.92693,395.82532 C 412.92693,395.52832 412.86393,395.26932 412.73493,395.05032 L 412.73493,395.06132 C 412.59393,394.82832 412.35393,394.67032 412.01593,394.58632 L 412.01593,393.63732 L 412.23693,393.44332 z"
       id="path4309"
       style="fill:#000000" /></g><g
     id="g4298"><path
       d="M 413.56093,419.14432 C 413.92393,419.60932 414.10693,420.16932 414.10693,420.82932 L 414.10693,426.67932 C 414.10693,427.34332 413.92793,427.89932 413.56993,428.34432 C 413.19993,428.82232 412.74193,429.06132 412.19793,429.06132 L 407.63193,429.06132 C 407.10193,429.06132 406.64793,428.82232 406.26993,428.34432 C 405.90593,427.87932 405.72393,427.31832 405.72393,426.65932 L 405.72393,420.80032 C 405.72393,420.18732 405.89293,419.66732 406.23293,419.24132 C 406.57093,418.79532 407.10593,418.50932 407.83493,418.37932 L 407.83493,419.57032 C 407.48293,419.65432 407.23693,419.81232 407.09593,420.04532 C 406.97493,420.24532 406.91393,420.50032 406.91393,420.81032 L 406.91393,426.66032 C 406.91393,427.00932 406.99493,427.30632 407.15393,427.55132 C 407.28793,427.76432 407.44793,427.87032 407.63293,427.87032 L 412.19893,427.87032 C 412.39093,427.87032 412.55793,427.76432 412.69793,427.55132 L 412.68793,427.56132 C 412.84793,427.32232 412.92793,427.02832 412.92793,426.68032 L 412.92793,420.83032 C 412.92793,420.52632 412.86493,420.25632 412.73593,420.01732 C 412.60193,419.73332 412.41993,419.59132 412.18893,419.59132 L 410.51093,419.59132 L 410.51093,424.32632 L 409.33093,424.32632 L 409.33093,418.40932 L 412.19893,418.40932 C 412.72893,418.40832 413.18193,418.65332 413.56093,419.14432 z"
       id="path4177"
       style="fill:#ffffff" /><path
       d="M 409.96293,406.64132 C 410.32093,407.08732 410.50093,407.64632 410.50093,408.31732 L 410.50093,415.37732 L 414.10693,415.37732 L 414.10693,416.56832 L 407.63193,416.56832 C 407.10193,416.56832 406.64793,416.32932 406.26993,415.85132 C 405.90593,415.38632 405.72393,414.82532 405.72393,414.16532 L 405.72393,408.31632 C 405.72393,407.66532 405.90593,407.10932 406.26993,406.65032 C 406.64793,406.16732 407.10193,405.92432 407.63193,405.92432 L 408.59093,405.92432 C 409.13493,405.92632 409.59193,406.16532 409.96293,406.64132 z M 407.63193,407.10732 C 407.45293,407.10732 407.29393,407.21632 407.15293,407.43632 C 406.99393,407.68132 406.91293,407.97532 406.91293,408.31732 L 406.91293,414.17532 C 406.91293,414.47332 406.97393,414.74032 407.09493,414.97932 C 407.21693,415.24532 407.39593,415.37632 407.63193,415.37632 L 409.31993,415.37632 L 409.31993,408.31632 C 409.31993,407.97432 409.24293,407.68032 409.08993,407.43532 C 408.94993,407.21532 408.78293,407.10632 408.59093,407.10632 L 407.63193,407.10632 L 407.63193,407.10732 z"
       id="path4179"
       style="fill:#ffffff" /><path
       d="M 412.23693,393.44332 C 412.80493,393.54032 413.26193,393.81132 413.60793,394.25632 C 413.93993,394.68932 414.10693,395.21132 414.10693,395.82432 L 414.10693,401.68232 C 414.10693,402.34132 413.92793,402.89932 413.56993,403.35832 C 413.19993,403.84232 412.74193,404.08432 412.19793,404.08432 L 405.73293,404.08432 L 405.73293,402.87432 L 412.19793,402.87432 C 412.38993,402.87432 412.55693,402.76832 412.69693,402.55532 L 412.68693,402.56432 C 412.84693,402.32732 412.92693,402.03332 412.92693,401.68332 L 412.92693,395.82532 C 412.92693,395.52832 412.86393,395.26932 412.73493,395.05032 L 412.73493,395.06132 C 412.59393,394.82832 412.35393,394.67032 412.01593,394.58632 L 412.01593,393.63732 L 412.23693,393.44332 z"
       id="path4181"
       style="fill:#ffffff" /></g><path
     id="path4183"
     d="M 464.72293,429.82732 C 464.72293,430.74832 464.31693,431.52232 463.50393,432.15032 C 462.75693,432.75632 461.82393,433.06032 460.70893,433.06032 L 450.87793,433.06032 C 449.84893,433.06032 448.97693,432.78432 448.26193,432.23132 C 447.49193,431.63532 447.00493,430.72632 446.79893,429.50232 L 448.79793,429.50232 C 448.93893,430.07632 449.19893,430.48732 449.57793,430.73732 L 449.56093,430.73732 C 449.92893,430.95432 450.36893,431.06132 450.87693,431.06132 L 460.70793,431.06132 C 461.27093,431.06132 461.75893,430.93132 462.17093,430.67132 C 462.53793,430.43332 462.72393,430.15132 462.72393,429.82632 L 462.72393,428.20132 C 462.72393,427.89732 462.53793,427.62732 462.17093,427.38832 C 461.73693,427.10732 461.24393,426.96632 460.69193,426.96632 L 455.45993,426.96632 L 455.45993,424.96732 L 460.70793,424.96732 C 461.28193,424.96732 461.76993,424.83232 462.17093,424.56132 C 462.53793,424.32432 462.72393,424.04632 462.72393,423.73332 L 462.72393,422.10832 C 462.72393,421.80432 462.53793,421.53332 462.17093,421.29532 C 461.73693,421.01332 461.24393,420.87232 460.69193,420.87232 L 450.87693,420.87232 C 450.37793,420.87232 449.94393,420.98032 449.57693,421.19732 L 449.59293,421.19732 C 449.20293,421.42532 448.93793,421.83632 448.79693,422.43232 L 446.79793,422.43232 C 446.99293,421.19732 447.46993,420.29732 448.22793,419.73432 C 448.94293,419.16032 449.82593,418.87432 450.87693,418.87432 L 460.70793,418.87432 C 461.80193,418.87432 462.73293,419.17732 463.50293,419.78332 C 464.31593,420.42332 464.72193,421.19732 464.72193,422.10732 C 464.72193,422.89832 464.68993,423.61832 464.62393,424.26732 C 464.60293,424.59232 464.49393,424.89132 464.29993,425.16232 C 464.21193,425.28132 464.11193,425.40532 463.99893,425.53632 C 463.88493,425.66632 463.74693,425.80732 463.58493,425.95832 C 463.89793,426.25132 464.13693,426.52132 464.29993,426.77132 C 464.48393,427.07532 464.59193,427.36732 464.62393,427.64932 C 464.69093,428.28932 464.72293,429.01432 464.72293,429.82732 z" /><g
     transform="translate(205.25071,216.6299)"
     id="g4290"><path
       style="fill:url(#linearGradient4296);fill-opacity:1"
       d="M 240.71946,155.66132 L 218.34446,195.81757 C 224.31015,194.5829 230.60959,192.94653 236.81321,190.81757 L 257.68821,155.66132 L 240.71946,155.66132 z M 197.59446,173.72382 L 197.59446,198.91132 C 201.82035,198.4988 206.76846,197.88729 212.25071,196.94257 L 212.18821,173.72382 L 197.59446,173.72382 z"
       id="path4292" /><path
       style="opacity:0.65116278;fill:#ffffff;fill-opacity:1;fill-rule:nonzero;stroke-width:1;stroke-linecap:butt;stroke-linejoin:miter;marker:none;marker-start:none;marker-mid:none;marker-end:none;stroke-miterlimit:4;stroke-dasharray:none;stroke-dashoffset:0;stroke-opacity:1;visibility:visible;display:inline;overflow:visible;filter:url(#filter3797);enable-background:accumulate"
       d="M 228.37571,204.91132 C 223.8493,207.89087 217.4158,209.78632 210.28196,209.78632 C 205.60859,209.78632 201.26498,208.95653 197.53196,207.56757 L 197.53196,215.28632 L 214.40696,215.28632 C 214.65785,215.28634 215.35148,215.20982 216.34446,215.09882 C 217.16845,215.00765 218.25613,214.65954 219.56321,214.00507 C 219.57363,214.00493 219.58404,214.00491 219.59446,214.00507 C 220.84816,213.37915 222.2628,212.3236 223.84446,210.84882 C 225.30204,209.48976 226.84734,207.5048 228.43821,204.94257 C 228.41691,204.93608 228.39706,204.91777 228.37571,204.91132 z"
       id="path4294" /></g></g></svg>