<?xml version="1.0" encoding="UTF-8" standalone="no"?>
<!-- Generator: Adobe Illustrator 14.0.0, SVG Export Plug-In . SVG Version: 6.00 Build 43363)  -->

<svg
   xmlns:dc="http://purl.org/dc/elements/1.1/"
   xmlns:cc="http://creativecommons.org/ns#"
   xmlns:rdf="http://www.w3.org/1999/02/22-rdf-syntax-ns#"
   xmlns:svg="http://www.w3.org/2000/svg"
   xmlns="http://www.w3.org/2000/svg"
   xmlns:xlink="http://www.w3.org/1999/xlink"
   xmlns:sodipodi="http://sodipodi.sourceforge.net/DTD/sodipodi-0.dtd"
   xmlns:inkscape="http://www.inkscape.org/namespaces/inkscape"
   version="1.1"
   id="Capa_1"
   x="0px"
   y="0px"
   width="841.89px"
   height="595.28px"
   viewBox="0 0 841.89 595.28"
   enable-background="new 0 0 841.89 595.28"
   xml:space="preserve"
   inkscape:version="0.48.2 r9819"
   sodipodi:docname="Licencias.svg"
   sodipodi:version="0.32"
   inkscape:output_extension="org.inkscape.output.svg.inkscape"><metadata
   id="metadata507"><rdf:RDF><cc:Work
       rdf:about=""><dc:format>image/svg+xml</dc:format><dc:type
         rdf:resource="http://purl.org/dc/dcmitype/StillImage" /><dc:title></dc:title><cc:license
         rdf:resource="http://creativecommons.org/licenses/by/3.0/" /></cc:Work><cc:License
       rdf:about="http://creativecommons.org/licenses/by/3.0/"><cc:permits
         rdf:resource="http://creativecommons.org/ns#Reproduction" /><cc:permits
         rdf:resource="http://creativecommons.org/ns#Distribution" /><cc:requires
         rdf:resource="http://creativecommons.org/ns#Notice" /><cc:requires
         rdf:resource="http://creativecommons.org/ns#Attribution" /><cc:permits
         rdf:resource="http://creativecommons.org/ns#DerivativeWorks" /></cc:License></rdf:RDF></metadata><defs
   id="defs505"><linearGradient
   id="linearGradient4471"><stop
     style="stop-color:#696a6b;stop-opacity:1;"
     offset="0"
     id="stop4473" /><stop
     style="stop-color:#9b9c9e;stop-opacity:1;"
     offset="1"
     id="stop4475" /></linearGradient><linearGradient
   id="linearGradient4455"><stop
     style="stop-color:#696a6b;stop-opacity:1;"
     offset="0"
     id="stop4457" /><stop
     style="stop-color:#9b9c9e;stop-opacity:1;"
     offset="1"
     id="stop4459" /></linearGradient><linearGradient
   id="linearGradient4260"><stop
     style="stop-color:#911d21;stop-opacity:1;"
     offset="0"
     id="stop4262" /><stop
     style="stop-color:#c4282d;stop-opacity:1;"
     offset="1"
     id="stop4264" /></linearGradient><linearGradient
   id="linearGradient4235"><stop
     style="stop-color:#592350;stop-opacity:1;"
     offset="0"
     id="stop4237" /><stop
     style="stop-color:#742e68;stop-opacity:1;"
     offset="1"
     id="stop4239" /></linearGradient><linearGradient
   id="linearGradient4197"><stop
     style="stop-color:#16813d;stop-opacity:1;"
     offset="0"
     id="stop4199" /><stop
     style="stop-color:#0d4f25;stop-opacity:1;"
     offset="1"
     id="stop4201" /></linearGradient><linearGradient
   id="linearGradient3598"><stop
     style="stop-color:#742e68;stop-opacity:1;"
     offset="0"
     id="stop3600" /><stop
     style="stop-color:#481c40;stop-opacity:1;"
     offset="1"
     id="stop3602" /></linearGradient><linearGradient
   inkscape:collect="always"
   id="linearGradient3584"><stop
     style="stop-color:#ffffff;stop-opacity:1;"
     offset="0"
     id="stop3586" /><stop
     style="stop-color:#ffffff;stop-opacity:0;"
     offset="1"
     id="stop3588" /></linearGradient><linearGradient
   inkscape:collect="always"
   id="linearGradient3542"><stop
     style="stop-color:#ffffff;stop-opacity:1;"
     offset="0"
     id="stop3544" /><stop
     style="stop-color:#ffffff;stop-opacity:0;"
     offset="1"
     id="stop3546" /></linearGradient><linearGradient
   id="linearGradient3536"><stop
     style="stop-color:#ffffff;stop-opacity:1"
     offset="0"
     id="stop3538" /><stop
     style="stop-color:#ffffff;stop-opacity:0"
     offset="1"
     id="stop3540" /></linearGradient><linearGradient
   id="linearGradient3530"><stop
     style="stop-color:#ffffff;stop-opacity:1"
     offset="0"
     id="stop3532" /><stop
     style="stop-color:#7f1a1d;stop-opacity:1;"
     offset="1"
     id="stop3534" /></linearGradient><linearGradient
   id="linearGradient3483"><stop
     id="stop3485"
     offset="0"
     style="stop-color:#c4282d;stop-opacity:1;" /><stop
     id="stop3487"
     offset="1"
     style="stop-color:#7f1a1d;stop-opacity:1;" /></linearGradient><linearGradient
   id="linearGradient3467"><stop
     style="stop-color:#000000;stop-opacity:1;"
     offset="0"
     id="stop3469" /><stop
     style="stop-color:#000000;stop-opacity:0;"
     offset="1"
     id="stop3471" /></linearGradient><inkscape:perspective
   sodipodi:type="inkscape:persp3d"
   inkscape:vp_x="0 : 297.64001 : 1"
   inkscape:vp_y="0 : 1000 : 0"
   inkscape:vp_z="841.89001 : 297.64001 : 1"
   inkscape:persp3d-origin="420.94501 : 198.42668 : 1"
   id="perspective509" />
	
	
	
	
<linearGradient
   inkscape:collect="always"
   xlink:href="#linearGradient3483"
   id="linearGradient3481"
   x1="193.67853"
   y1="227.42769"
   x2="192.737"
   y2="164.42589"
   gradientUnits="userSpaceOnUse" /><linearGradient
   inkscape:collect="always"
   xlink:href="#linearGradient3542"
   id="linearGradient3548"
   x1="223.70312"
   y1="167.78789"
   x2="223.70312"
   y2="224.78125"
   gradientUnits="userSpaceOnUse" />
		
		
	<linearGradient
   inkscape:collect="always"
   xlink:href="#linearGradient3584"
   id="linearGradient3590"
   x1="234.03793"
   y1="165.15395"
   x2="234.35178"
   y2="210.66147"
   gradientUnits="userSpaceOnUse" />
		
	<linearGradient
   inkscape:collect="always"
   xlink:href="#linearGradient3483"
   id="linearGradient3947"
   gradientUnits="userSpaceOnUse"
   x1="193.67853"
   y1="227.42769"
   x2="192.737"
   y2="164.42589" />
	
	
	
	

		
	
		
		
		
	
		
		
		
		
		
		
		
		
		
		
		
		
	
		
	
	
	
	
	

		
	
		
		
	
		
	
		
		
		
		
	<linearGradient
   inkscape:collect="always"
   xlink:href="#linearGradient3598"
   id="linearGradient3620"
   x1="473.95499"
   y1="225.58197"
   x2="473.95499"
   y2="164.577"
   gradientUnits="userSpaceOnUse" /><linearGradient
   inkscape:collect="always"
   xlink:href="#linearGradient3483"
   id="linearGradient3883"
   gradientUnits="userSpaceOnUse"
   gradientTransform="translate(2.7507074,-101.77618)"
   x1="138.40564"
   y1="330.10239"
   x2="138.40564"
   y2="319.71936" /><linearGradient
   inkscape:collect="always"
   xlink:href="#linearGradient3598"
   id="linearGradient3891"
   gradientUnits="userSpaceOnUse"
   x1="473.95499"
   y1="225.58197"
   x2="473.95499"
   y2="164.577" /><linearGradient
   inkscape:collect="always"
   xlink:href="#linearGradient3598"
   id="linearGradient4005"
   gradientUnits="userSpaceOnUse"
   x1="473.95499"
   y1="225.58197"
   x2="473.95499"
   y2="164.577" /><linearGradient
   inkscape:collect="always"
   xlink:href="#linearGradient3598"
   id="linearGradient2938"
   gradientUnits="userSpaceOnUse"
   gradientTransform="translate(16.564834,16.038773)"
   x1="365.68323"
   y1="228.72025"
   x2="365.68323"
   y2="216.25424" />
	
	
	
	
	
	
	
	
	
	
	
	
	
	
	
	
	
	
	
<linearGradient
   inkscape:collect="always"
   xlink:href="#linearGradient4471"
   id="linearGradient4477"
   x1="664.09625"
   y1="501.10046"
   x2="664.09625"
   y2="510.29501"
   gradientUnits="userSpaceOnUse" /><linearGradient
   inkscape:collect="always"
   xlink:href="#linearGradient4471"
   id="linearGradient4513"
   gradientUnits="userSpaceOnUse"
   x1="664.09625"
   y1="501.10046"
   x2="664.09625"
   y2="510.29501" />
		
		
	</defs><sodipodi:namedview
   pagecolor="#ffffff"
   bordercolor="#666666"
   borderopacity="1"
   objecttolerance="10"
   gridtolerance="10"
   guidetolerance="10"
   inkscape:pageopacity="0"
   inkscape:pageshadow="2"
   inkscape:window-width="1280"
   inkscape:window-height="746"
   id="namedview503"
   showgrid="false"
   inkscape:zoom="0.90545621"
   inkscape:cx="420.94501"
   inkscape:cy="443.33958"
   inkscape:window-x="0"
   inkscape:window-y="0"
   inkscape:window-maximized="1"
   inkscape:current-layer="Capa_1"
   showguides="true"
   inkscape:guide-bbox="true" />










<g
   id="g4045"
   transform="translate(-11.277066,-17.568071)"><path
     style="fill:#c4282d"
     id="path187"
     d="M 456.545,295.604 L 476,295.604 L 446.031,346.104 C 444.32,348.918 442.65,351.084 441.023,352.602 C 439.394,354.121 437.89,355.224 436.511,355.914 C 435.13,356.604 433.945,357.005 432.95,357.114 C 431.958,357.225 431.266,357.28 430.881,357.28 L 413,357.28 L 413,313.652 L 429.723,313.652 L 429.806,343.62 L 456.545,295.604 z" /><path
     style="fill:#c4282d"
     id="path191"
     d="M 419.267,362.856 C 419.294,362.667 419.262,362.536 419.167,362.464 L 419.172,362.464 C 419.086,362.399 418.961,362.366 418.796,362.366 L 415.687,362.366 C 415.501,362.366 415.329,362.407 415.171,362.494 C 415.031,362.565 414.943,362.652 414.907,362.751 L 414.577,363.658 L 416.871,363.658 L 416.64,364.294 L 414.345,364.294 L 413.639,366.232 L 413,366.232 L 414.267,362.751 C 414.371,362.468 414.588,362.223 414.915,362.02 C 415.234,361.825 415.569,361.726 415.919,361.726 L 419.028,361.726 C 419.358,361.726 419.603,361.819 419.764,361.998 C 419.941,362.181 419.991,362.468 419.912,362.855 L 419.267,362.855 L 419.267,362.856 z" /><path
     style="fill:#c4282d"
     id="path193"
     d="M 423.857,364.073 C 423.87,363.893 423.816,363.771 423.696,363.707 C 423.651,363.68 423.601,363.659 423.545,363.648 C 423.487,363.639 423.428,363.633 423.367,363.633 L 421.866,363.633 C 421.715,363.633 421.565,363.663 421.416,363.722 C 421.245,363.786 421.142,363.869 421.105,363.968 L 420.281,366.233 L 419.641,366.233 L 420.818,362.999 L 421.458,362.999 L 421.409,363.134 C 421.535,363.086 421.654,363.052 421.763,363.031 C 421.871,363.01 421.981,362.999 422.091,362.999 L 423.597,362.999 C 423.882,362.999 424.115,363.072 424.296,363.216 C 424.515,363.393 424.579,363.677 424.49,364.073 L 423.857,364.073 z" /><path
     style="fill:#c4282d"
     id="path195"
     d="M 429.549,363.959 C 429.441,364.259 429.203,364.504 428.838,364.696 C 428.536,364.855 428.23,364.932 427.921,364.932 L 426.42,364.932 C 426.32,364.932 426.229,364.923 426.141,364.907 C 426.055,364.89 425.95,364.858 425.827,364.809 L 425.669,365.242 L 425.665,365.252 C 425.643,365.343 425.696,365.423 425.825,365.495 C 425.88,365.534 425.937,365.559 425.997,365.576 C 426.057,365.592 426.118,365.598 426.179,365.598 L 427.68,365.598 C 427.742,365.598 427.805,365.592 427.868,365.583 C 427.932,365.572 427.997,365.553 428.061,365.526 C 428.229,365.46 428.372,365.338 428.489,365.159 L 429.122,365.159 C 428.925,365.552 428.654,365.835 428.308,366.011 C 428.025,366.158 427.738,366.233 427.449,366.233 L 425.949,366.233 C 425.66,366.233 425.418,366.157 425.222,366.006 C 424.978,365.816 424.911,365.567 425.024,365.258 L 425.496,363.964 C 425.607,363.657 425.84,363.413 426.191,363.231 C 426.486,363.077 426.798,362.999 427.126,362.999 L 428.627,362.999 C 428.943,362.999 429.194,363.073 429.382,363.222 C 429.605,363.404 429.662,363.648 429.549,363.959 z M 428.905,363.969 C 428.935,363.887 428.905,363.816 428.814,363.753 C 428.716,363.674 428.574,363.634 428.388,363.634 L 426.892,363.634 C 426.761,363.634 426.614,363.664 426.449,363.723 C 426.275,363.784 426.17,363.865 426.134,363.965 C 426.099,364.062 426.143,364.142 426.267,364.206 C 426.379,364.269 426.508,364.3 426.651,364.3 L 428.153,364.3 C 428.331,364.3 428.499,364.262 428.657,364.186 C 428.793,364.124 428.875,364.052 428.905,363.969 z" /><path
     style="fill:#c4282d"
     id="path197"
     d="M 434.582,363.959 C 434.473,364.259 434.236,364.504 433.87,364.696 C 433.568,364.855 433.264,364.932 432.954,364.932 L 431.453,364.932 C 431.353,364.932 431.261,364.923 431.174,364.907 C 431.088,364.89 430.983,364.858 430.86,364.809 L 430.702,365.242 L 430.698,365.252 C 430.677,365.343 430.729,365.423 430.858,365.495 C 430.913,365.534 430.97,365.559 431.03,365.576 C 431.09,365.592 431.151,365.598 431.212,365.598 L 432.714,365.598 C 432.775,365.598 432.837,365.592 432.902,365.583 C 432.966,365.572 433.031,365.553 433.095,365.526 C 433.263,365.46 433.406,365.338 433.523,365.159 L 434.156,365.159 C 433.959,365.552 433.688,365.835 433.342,366.011 C 433.059,366.158 432.773,366.233 432.484,366.233 L 430.983,366.233 C 430.694,366.233 430.452,366.157 430.256,366.006 C 430.012,365.816 429.945,365.567 430.059,365.258 L 430.53,363.964 C 430.641,363.657 430.874,363.413 431.225,363.231 C 431.521,363.077 431.832,362.999 432.159,362.999 L 433.661,362.999 C 433.976,362.999 434.228,363.073 434.415,363.222 C 434.639,363.404 434.695,363.648 434.582,363.959 z M 433.939,363.969 C 433.968,363.887 433.937,363.816 433.847,363.753 C 433.749,363.674 433.607,363.634 433.421,363.634 L 431.925,363.634 C 431.794,363.634 431.646,363.664 431.482,363.723 C 431.308,363.784 431.203,363.865 431.167,363.965 C 431.133,364.062 431.176,364.142 431.301,364.206 C 431.412,364.269 431.54,364.3 431.684,364.3 L 433.186,364.3 C 433.364,364.3 433.532,364.262 433.69,364.186 C 433.826,364.124 433.908,364.052 433.939,363.969 z" /><path
     style="fill:#c4282d"
     id="path199"
     d="M 444.248,365.943 C 443.943,366.136 443.611,366.233 443.258,366.233 L 440.138,366.233 C 439.811,366.233 439.567,366.145 439.405,365.97 C 439.229,365.781 439.179,365.491 439.256,365.103 L 439.89,365.103 C 439.869,365.286 439.904,365.416 439.995,365.495 L 439.989,365.495 C 440.081,365.563 440.208,365.599 440.37,365.599 L 443.489,365.599 C 443.671,365.599 443.843,365.556 443.999,365.471 C 444.145,365.396 444.235,365.307 444.271,365.207 L 444.459,364.691 C 444.495,364.59 444.468,364.503 444.38,364.428 C 444.284,364.342 444.144,364.299 443.957,364.299 L 440.843,364.299 C 440.492,364.299 440.23,364.202 440.056,364.009 C 439.871,363.81 439.831,363.563 439.939,363.268 L 440.127,362.751 C 440.231,362.468 440.448,362.223 440.775,362.02 C 441.093,361.825 441.428,361.726 441.778,361.726 L 444.899,361.726 C 445.225,361.726 445.468,361.819 445.629,361.998 C 445.807,362.181 445.856,362.468 445.776,362.855 L 445.142,362.855 C 445.163,362.672 445.128,362.541 445.036,362.463 L 445.041,362.463 C 444.956,362.398 444.83,362.365 444.666,362.365 L 441.545,362.365 C 441.359,362.365 441.186,362.406 441.024,362.493 C 440.884,362.564 440.796,362.651 440.76,362.75 L 440.572,363.267 C 440.535,363.371 440.558,363.459 440.644,363.535 C 440.74,363.621 440.884,363.664 441.072,363.664 L 444.193,363.664 C 444.547,363.664 444.807,363.761 444.973,363.953 C 445.158,364.157 445.197,364.401 445.091,364.69 L 444.903,365.206 C 444.799,365.498 444.58,365.746 444.248,365.943 z" /><path
     style="fill:#c4282d"
     id="path201"
     d="M 449.206,365.997 C 448.908,366.154 448.603,366.233 448.29,366.233 L 446.789,366.233 C 446.482,366.233 446.234,366.155 446.044,366.002 C 445.813,365.812 445.754,365.564 445.865,365.259 L 446.336,363.965 C 446.445,363.665 446.682,363.42 447.049,363.227 C 447.35,363.069 447.657,362.99 447.969,362.99 L 449.471,362.99 C 449.766,362.99 450.009,363.064 450.2,363.213 C 450.439,363.405 450.504,363.653 450.391,363.96 L 449.918,365.26 C 449.81,365.558 449.572,365.804 449.206,365.997 z M 449.752,363.959 C 449.786,363.862 449.742,363.782 449.619,363.717 C 449.513,363.658 449.386,363.63 449.238,363.63 L 447.736,363.63 C 447.586,363.63 447.437,363.656 447.295,363.712 C 447.118,363.78 447.013,363.862 446.978,363.959 L 446.503,365.264 C 446.468,365.361 446.512,365.441 446.637,365.506 C 446.748,365.568 446.874,365.599 447.016,365.599 L 448.522,365.599 C 448.59,365.599 448.661,365.592 448.735,365.578 C 448.809,365.563 448.884,365.543 448.96,365.512 C 449.138,365.443 449.243,365.359 449.279,365.259 L 449.752,363.959 z" /><path
     style="fill:#c4282d"
     id="path203"
     d="M 452.129,363.634 L 451.183,366.234 L 450.543,366.234 L 451.83,362.697 C 451.94,362.395 452.148,362.151 452.451,361.969 C 452.719,361.811 453.053,361.732 453.455,361.732 L 453.228,362.357 C 452.976,362.395 452.794,362.442 452.679,362.5 C 452.565,362.56 452.495,362.625 452.469,362.697 L 452.359,363 L 452.998,363 L 452.768,363.635 L 452.129,363.635 L 452.129,363.634 z" /><path
     style="fill:#c4282d"
     id="path205"
     d="M 455.026,363.634 L 454.08,366.234 L 453.435,366.234 L 454.381,363.634 L 453.747,363.634 L 453.977,362.999 L 454.612,362.999 L 455.075,361.727 L 455.72,361.727 L 455.256,362.999 L 455.896,362.999 L 455.666,363.634 L 455.026,363.634 z" /><path
     style="fill:#c4282d"
     id="path207"
     d="M 459.909,365.985 C 459.638,366.146 459.331,366.228 458.991,366.228 C 458.806,366.228 458.633,366.202 458.472,366.15 C 458.311,366.098 458.177,366.017 458.065,365.908 C 457.873,366.014 457.673,366.096 457.469,366.15 C 457.265,366.206 457.071,366.233 456.885,366.233 C 456.558,366.233 456.314,366.154 456.152,365.997 C 455.972,365.816 455.939,365.571 456.053,365.259 L 456.875,362.999 L 457.515,362.999 L 456.691,365.264 C 456.657,365.361 456.685,365.439 456.781,365.501 C 456.885,365.566 457.029,365.599 457.215,365.599 C 457.403,365.599 457.57,365.567 457.714,365.501 C 457.856,365.442 457.944,365.361 457.983,365.259 L 458.49,363.866 L 459.13,363.866 L 458.621,365.263 C 458.585,365.363 458.615,365.44 458.712,365.494 C 458.816,365.559 458.956,365.592 459.136,365.592 C 459.327,365.592 459.496,365.56 459.64,365.494 C 459.783,365.436 459.87,365.359 459.906,365.263 L 460.729,362.998 L 461.375,362.998 L 460.553,365.258 C 460.441,365.561 460.227,365.804 459.909,365.985 z" /><path
     style="fill:#c4282d"
     id="path209"
     d="M 464.726,366.002 C 464.425,366.155 464.116,366.233 463.796,366.233 L 462.295,366.233 C 461.972,366.233 461.717,366.157 461.532,366.006 C 461.308,365.825 461.252,365.581 461.367,365.268 C 461.476,364.965 461.713,364.721 462.077,364.536 C 462.379,364.378 462.685,364.3 462.998,364.3 L 464.5,364.3 C 464.596,364.3 464.687,364.309 464.773,364.325 C 464.86,364.343 464.964,364.376 465.087,364.424 L 465.247,363.985 C 465.267,363.892 465.216,363.81 465.095,363.739 C 464.986,363.67 464.868,363.635 464.741,363.635 L 463.239,363.635 C 463.175,363.635 463.11,363.641 463.046,363.65 C 462.983,363.661 462.917,363.681 462.853,363.709 C 462.685,363.773 462.542,363.896 462.427,364.075 L 461.792,364.075 C 461.992,363.682 462.263,363.399 462.602,363.223 C 462.886,363.075 463.173,363 463.466,363 L 464.972,363 C 465.267,363 465.511,363.074 465.701,363.223 C 465.943,363.409 466.008,363.658 465.892,363.97 L 465.421,365.265 C 465.311,365.57 465.078,365.815 464.726,366.002 z M 464.78,365.269 C 464.814,365.173 464.771,365.092 464.646,365.027 C 464.535,364.965 464.409,364.933 464.269,364.933 L 462.767,364.933 C 462.592,364.933 462.422,364.972 462.257,365.047 C 462.12,365.109 462.038,365.182 462.007,365.264 C 461.976,365.349 462.005,365.423 462.091,365.486 C 462.195,365.561 462.337,365.599 462.521,365.599 L 464.026,365.599 C 464.173,365.599 464.32,365.572 464.463,365.517 C 464.641,365.448 464.745,365.365 464.78,365.269 z" /><path
     style="fill:#c4282d"
     id="path211"
     d="M 470.264,364.073 C 470.278,363.893 470.223,363.771 470.104,363.707 C 470.059,363.68 470.008,363.659 469.952,363.648 C 469.895,363.639 469.836,363.633 469.774,363.633 L 468.274,363.633 C 468.123,363.633 467.971,363.663 467.824,363.722 C 467.653,363.786 467.55,363.869 467.512,363.968 L 466.689,366.233 L 466.049,366.233 L 467.225,362.999 L 467.865,362.999 L 467.817,363.134 C 467.944,363.086 468.062,363.052 468.171,363.031 C 468.28,363.01 468.39,362.999 468.501,362.999 L 470.005,362.999 C 470.291,362.999 470.525,363.072 470.706,363.216 C 470.924,363.393 470.987,363.677 470.899,364.073 L 470.264,364.073 z" /><path
     style="fill:#c4282d"
     id="path213"
     d="M 475.956,363.959 C 475.847,364.259 475.61,364.504 475.244,364.696 C 474.943,364.855 474.637,364.932 474.328,364.932 L 472.827,364.932 C 472.726,364.932 472.635,364.923 472.548,364.907 C 472.461,364.891 472.356,364.858 472.233,364.809 L 472.077,365.242 L 472.072,365.252 C 472.05,365.343 472.103,365.423 472.231,365.495 C 472.286,365.534 472.344,365.559 472.403,365.576 C 472.464,365.592 472.524,365.598 472.586,365.598 L 474.087,365.598 C 474.149,365.598 474.211,365.592 474.275,365.583 C 474.339,365.572 474.404,365.553 474.469,365.526 C 474.637,365.46 474.78,365.338 474.896,365.159 L 475.53,365.159 C 475.332,365.552 475.062,365.835 474.717,366.011 C 474.432,366.158 474.147,366.233 473.858,366.233 L 472.356,366.233 C 472.068,366.233 471.826,366.157 471.629,366.006 C 471.385,365.816 471.319,365.567 471.432,365.258 L 471.903,363.964 C 472.014,363.657 472.247,363.413 472.598,363.231 C 472.895,363.077 473.206,362.999 473.534,362.999 L 475.035,362.999 C 475.35,362.999 475.602,363.073 475.789,363.222 C 476.012,363.404 476.068,363.648 475.956,363.959 z M 475.313,363.969 C 475.343,363.887 475.313,363.816 475.221,363.753 C 475.123,363.674 474.981,363.634 474.795,363.634 L 473.3,363.634 C 473.17,363.634 473.022,363.664 472.856,363.723 C 472.682,363.784 472.578,363.865 472.542,363.965 C 472.507,364.062 472.552,364.142 472.675,364.206 C 472.786,364.269 472.915,364.3 473.06,364.3 L 474.56,364.3 C 474.738,364.3 474.907,364.262 475.065,364.186 C 475.2,364.124 475.283,364.052 475.313,363.969 z" /><path
     style="fill:#ffffff"
     id="path217"
     d="M 424.838,343.364 C 425.201,343.829 425.384,344.389 425.384,345.049 L 425.384,350.899 C 425.384,351.563 425.205,352.119 424.847,352.564 C 424.477,353.042 424.019,353.281 423.475,353.281 L 418.909,353.281 C 418.379,353.281 417.925,353.042 417.547,352.564 C 417.183,352.099 417.001,351.538 417.001,350.879 L 417.001,345.02 C 417.001,344.407 417.17,343.887 417.51,343.461 C 417.848,343.015 418.383,342.729 419.112,342.599 L 419.112,343.79 C 418.76,343.874 418.514,344.032 418.373,344.265 C 418.252,344.465 418.191,344.72 418.191,345.03 L 418.191,350.88 C 418.191,351.229 418.272,351.526 418.431,351.771 C 418.565,351.984 418.725,352.09 418.91,352.09 L 423.476,352.09 C 423.668,352.09 423.835,351.984 423.975,351.771 L 423.965,351.781 C 424.125,351.542 424.205,351.248 424.205,350.9 L 424.205,345.05 C 424.205,344.746 424.142,344.476 424.013,344.237 C 423.879,343.953 423.697,343.811 423.466,343.811 L 421.788,343.811 L 421.788,348.546 L 420.608,348.546 L 420.608,342.629 L 423.476,342.629 C 424.006,342.628 424.459,342.873 424.838,343.364 z" /><path
     style="fill:#ffffff"
     id="path219"
     d="M 421.24,330.861 C 421.598,331.307 421.778,331.866 421.778,332.537 L 421.778,339.597 L 425.384,339.597 L 425.384,340.788 L 418.909,340.788 C 418.379,340.788 417.925,340.549 417.547,340.071 C 417.183,339.606 417.001,339.045 417.001,338.385 L 417.001,332.536 C 417.001,331.885 417.183,331.329 417.547,330.87 C 417.925,330.387 418.379,330.144 418.909,330.144 L 419.868,330.144 C 420.412,330.146 420.869,330.385 421.24,330.861 z M 418.909,331.327 C 418.73,331.327 418.571,331.436 418.43,331.656 C 418.271,331.901 418.19,332.195 418.19,332.537 L 418.19,338.395 C 418.19,338.693 418.251,338.96 418.372,339.199 C 418.494,339.465 418.673,339.596 418.909,339.596 L 420.597,339.596 L 420.597,332.536 C 420.597,332.194 420.52,331.9 420.367,331.655 C 420.227,331.435 420.06,331.326 419.868,331.326 L 418.909,331.326 L 418.909,331.327 z" /><path
     style="fill:#ffffff"
     id="path221"
     d="M 423.514,317.663 C 424.082,317.76 424.539,318.031 424.885,318.476 C 425.217,318.909 425.384,319.431 425.384,320.044 L 425.384,325.902 C 425.384,326.561 425.205,327.119 424.847,327.578 C 424.477,328.062 424.019,328.304 423.475,328.304 L 417.01,328.304 L 417.01,327.094 L 423.475,327.094 C 423.667,327.094 423.834,326.988 423.974,326.775 L 423.964,326.784 C 424.124,326.547 424.204,326.253 424.204,325.903 L 424.204,320.045 C 424.204,319.748 424.141,319.489 424.012,319.27 L 424.012,319.281 C 423.871,319.048 423.631,318.89 423.293,318.806 L 423.293,317.857 L 423.514,317.663 z" /><path
     id="path225"
     d="M 476,354.047 C 476,354.968 475.594,355.742 474.781,356.37 C 474.034,356.976 473.101,357.28 471.986,357.28 L 462.155,357.28 C 461.126,357.28 460.254,357.004 459.539,356.451 C 458.769,355.855 458.282,354.946 458.076,353.722 L 460.075,353.722 C 460.216,354.296 460.476,354.707 460.855,354.957 L 460.838,354.957 C 461.206,355.174 461.646,355.281 462.154,355.281 L 471.985,355.281 C 472.548,355.281 473.036,355.151 473.448,354.891 C 473.815,354.653 474.001,354.371 474.001,354.046 L 474.001,352.421 C 474.001,352.117 473.815,351.847 473.448,351.608 C 473.014,351.327 472.521,351.186 471.969,351.186 L 466.737,351.186 L 466.737,349.187 L 471.985,349.187 C 472.559,349.187 473.047,349.052 473.448,348.781 C 473.815,348.544 474.001,348.266 474.001,347.953 L 474.001,346.328 C 474.001,346.024 473.815,345.753 473.448,345.515 C 473.014,345.233 472.521,345.092 471.969,345.092 L 462.154,345.092 C 461.655,345.092 461.221,345.2 460.854,345.417 L 460.87,345.417 C 460.48,345.645 460.215,346.056 460.074,346.652 L 458.075,346.652 C 458.27,345.417 458.747,344.517 459.505,343.954 C 460.22,343.38 461.103,343.094 462.154,343.094 L 471.985,343.094 C 473.079,343.094 474.01,343.397 474.78,344.003 C 475.593,344.643 475.999,345.417 475.999,346.327 C 475.999,347.118 475.967,347.838 475.901,348.487 C 475.88,348.812 475.771,349.111 475.577,349.382 C 475.489,349.501 475.389,349.625 475.276,349.756 C 475.162,349.886 475.024,350.027 474.862,350.178 C 475.175,350.471 475.414,350.741 475.577,350.991 C 475.761,351.295 475.869,351.587 475.901,351.869 C 475.968,352.509 476,353.234 476,354.047 z" /></g>







</svg>