<?xml version="1.0" encoding="UTF-8" standalone="no"?>
<!-- Generator: Adobe Illustrator 14.0.0, SVG Export Plug-In . SVG Version: 6.00 Build 43363)  -->

<svg
   xmlns:dc="http://purl.org/dc/elements/1.1/"
   xmlns:cc="http://creativecommons.org/ns#"
   xmlns:rdf="http://www.w3.org/1999/02/22-rdf-syntax-ns#"
   xmlns:svg="http://www.w3.org/2000/svg"
   xmlns="http://www.w3.org/2000/svg"
   xmlns:xlink="http://www.w3.org/1999/xlink"
   xmlns:sodipodi="http://sodipodi.sourceforge.net/DTD/sodipodi-0.dtd"
   xmlns:inkscape="http://www.inkscape.org/namespaces/inkscape"
   version="1.1"
   id="Capa_1"
   x="0px"
   y="0px"
   width="841.89px"
   height="595.28px"
   viewBox="0 0 841.89 595.28"
   enable-background="new 0 0 841.89 595.28"
   xml:space="preserve"
   inkscape:version="0.48.2 r9819"
   sodipodi:docname="Licencias.svg"
   sodipodi:version="0.32"
   inkscape:output_extension="org.inkscape.output.svg.inkscape"><metadata
   id="metadata507"><rdf:RDF><cc:Work
       rdf:about=""><dc:format>image/svg+xml</dc:format><dc:type
         rdf:resource="http://purl.org/dc/dcmitype/StillImage" /><dc:title></dc:title><cc:license
         rdf:resource="http://creativecommons.org/licenses/by/3.0/" /></cc:Work><cc:License
       rdf:about="http://creativecommons.org/licenses/by/3.0/"><cc:permits
         rdf:resource="http://creativecommons.org/ns#Reproduction" /><cc:permits
         rdf:resource="http://creativecommons.org/ns#Distribution" /><cc:requires
         rdf:resource="http://creativecommons.org/ns#Notice" /><cc:requires
         rdf:resource="http://creativecommons.org/ns#Attribution" /><cc:permits
         rdf:resource="http://creativecommons.org/ns#DerivativeWorks" /></cc:License></rdf:RDF></metadata><defs
   id="defs505"><linearGradient
   id="linearGradient4471"><stop
     style="stop-color:#696a6b;stop-opacity:1;"
     offset="0"
     id="stop4473" /><stop
     style="stop-color:#9b9c9e;stop-opacity:1;"
     offset="1"
     id="stop4475" /></linearGradient><linearGradient
   id="linearGradient4455"><stop
     style="stop-color:#696a6b;stop-opacity:1;"
     offset="0"
     id="stop4457" /><stop
     style="stop-color:#9b9c9e;stop-opacity:1;"
     offset="1"
     id="stop4459" /></linearGradient><linearGradient
   id="linearGradient4260"><stop
     style="stop-color:#911d21;stop-opacity:1;"
     offset="0"
     id="stop4262" /><stop
     style="stop-color:#c4282d;stop-opacity:1;"
     offset="1"
     id="stop4264" /></linearGradient><linearGradient
   id="linearGradient4235"><stop
     style="stop-color:#592350;stop-opacity:1;"
     offset="0"
     id="stop4237" /><stop
     style="stop-color:#742e68;stop-opacity:1;"
     offset="1"
     id="stop4239" /></linearGradient><linearGradient
   id="linearGradient4197"><stop
     style="stop-color:#16813d;stop-opacity:1;"
     offset="0"
     id="stop4199" /><stop
     style="stop-color:#0d4f25;stop-opacity:1;"
     offset="1"
     id="stop4201" /></linearGradient><linearGradient
   id="linearGradient3598"><stop
     style="stop-color:#742e68;stop-opacity:1;"
     offset="0"
     id="stop3600" /><stop
     style="stop-color:#481c40;stop-opacity:1;"
     offset="1"
     id="stop3602" /></linearGradient><linearGradient
   inkscape:collect="always"
   id="linearGradient3632"><stop
     style="stop-color:#ffffff;stop-opacity:1;"
     offset="0"
     id="stop3634" /><stop
     style="stop-color:#ffffff;stop-opacity:0;"
     offset="1"
     id="stop3636" /></linearGradient><linearGradient
   inkscape:collect="always"
   id="linearGradient3584"><stop
     style="stop-color:#ffffff;stop-opacity:1;"
     offset="0"
     id="stop3586" /><stop
     style="stop-color:#ffffff;stop-opacity:0;"
     offset="1"
     id="stop3588" /></linearGradient><linearGradient
   inkscape:collect="always"
   id="linearGradient3542"><stop
     style="stop-color:#ffffff;stop-opacity:1;"
     offset="0"
     id="stop3544" /><stop
     style="stop-color:#ffffff;stop-opacity:0;"
     offset="1"
     id="stop3546" /></linearGradient><linearGradient
   id="linearGradient3536"><stop
     style="stop-color:#ffffff;stop-opacity:1"
     offset="0"
     id="stop3538" /><stop
     style="stop-color:#ffffff;stop-opacity:0"
     offset="1"
     id="stop3540" /></linearGradient><linearGradient
   id="linearGradient3530"><stop
     style="stop-color:#ffffff;stop-opacity:1"
     offset="0"
     id="stop3532" /><stop
     style="stop-color:#7f1a1d;stop-opacity:1;"
     offset="1"
     id="stop3534" /></linearGradient><linearGradient
   id="linearGradient3483"><stop
     id="stop3485"
     offset="0"
     style="stop-color:#c4282d;stop-opacity:1;" /><stop
     id="stop3487"
     offset="1"
     style="stop-color:#7f1a1d;stop-opacity:1;" /></linearGradient><linearGradient
   id="linearGradient3467"><stop
     style="stop-color:#000000;stop-opacity:1;"
     offset="0"
     id="stop3469" /><stop
     style="stop-color:#000000;stop-opacity:0;"
     offset="1"
     id="stop3471" /></linearGradient><inkscape:perspective
   sodipodi:type="inkscape:persp3d"
   inkscape:vp_x="0 : 297.64001 : 1"
   inkscape:vp_y="0 : 1000 : 0"
   inkscape:vp_z="841.89001 : 297.64001 : 1"
   inkscape:persp3d-origin="420.94501 : 198.42668 : 1"
   id="perspective509" />
	
	
	
	
<linearGradient
   inkscape:collect="always"
   xlink:href="#linearGradient3483"
   id="linearGradient3481"
   x1="193.67853"
   y1="227.42769"
   x2="192.737"
   y2="164.42589"
   gradientUnits="userSpaceOnUse" /><linearGradient
   inkscape:collect="always"
   xlink:href="#linearGradient3542"
   id="linearGradient3548"
   x1="223.70312"
   y1="167.78789"
   x2="223.70312"
   y2="224.78125"
   gradientUnits="userSpaceOnUse" />
		
		
	<linearGradient
   inkscape:collect="always"
   xlink:href="#linearGradient3584"
   id="linearGradient3590"
   x1="234.03793"
   y1="165.15395"
   x2="234.35178"
   y2="210.66147"
   gradientUnits="userSpaceOnUse" />
		
	<filter
   inkscape:collect="always"
   id="filter3676"
   x="-0.041724954"
   width="1.0834499"
   y="-0.58146253"
   height="2.1629251"><feGaussianBlur
     inkscape:collect="always"
     stdDeviation="1.9987774"
     id="feGaussianBlur3678" /></filter>
		
	<filter
   inkscape:collect="always"
   id="filter3797"
   x="-0.16028311"
   width="1.3205662"
   y="-0.47746988"
   height="1.9549398"><feGaussianBlur
     inkscape:collect="always"
     stdDeviation="2.0640625"
     id="feGaussianBlur3799" /></filter><linearGradient
   inkscape:collect="always"
   xlink:href="#linearGradient3483"
   id="linearGradient3947"
   gradientUnits="userSpaceOnUse"
   x1="193.67853"
   y1="227.42769"
   x2="192.737"
   y2="164.42589" />
	
	
	
	

		
	
		
		
		
	
		
		
		
		
		
		
		
		
		
		
		
		
	
		
	
	
	
	
	

		
	
		
		
	
		
	
		
		
		
		
	<linearGradient
   inkscape:collect="always"
   xlink:href="#linearGradient3598"
   id="linearGradient3620"
   x1="473.95499"
   y1="225.58197"
   x2="473.95499"
   y2="164.577"
   gradientUnits="userSpaceOnUse" /><linearGradient
   inkscape:collect="always"
   xlink:href="#linearGradient3483"
   id="linearGradient3883"
   gradientUnits="userSpaceOnUse"
   gradientTransform="translate(2.7507074,-101.77618)"
   x1="138.40564"
   y1="330.10239"
   x2="138.40564"
   y2="319.71936" /><linearGradient
   inkscape:collect="always"
   xlink:href="#linearGradient3598"
   id="linearGradient3891"
   gradientUnits="userSpaceOnUse"
   x1="473.95499"
   y1="225.58197"
   x2="473.95499"
   y2="164.577" /><linearGradient
   inkscape:collect="always"
   xlink:href="#linearGradient3598"
   id="linearGradient4005"
   gradientUnits="userSpaceOnUse"
   x1="473.95499"
   y1="225.58197"
   x2="473.95499"
   y2="164.577" /><linearGradient
   inkscape:collect="always"
   xlink:href="#linearGradient3598"
   id="linearGradient2938"
   gradientUnits="userSpaceOnUse"
   gradientTransform="translate(16.564834,16.038773)"
   x1="365.68323"
   y1="228.72025"
   x2="365.68323"
   y2="216.25424" />
	
	
	
	
	
	
	
	
	
	<filter
   inkscape:collect="always"
   id="filter4193"
   x="-0.085987615"
   width="1.1719752"
   y="-0.10865135"
   height="1.2173027"><feGaussianBlur
     inkscape:collect="always"
     stdDeviation="0.64222"
     id="feGaussianBlur4195" /></filter>
	
	
	
	
	
	
	
	
	
	
<linearGradient
   inkscape:collect="always"
   xlink:href="#linearGradient4455"
   id="linearGradient4461"
   x1="735.34491"
   y1="439.91519"
   x2="735.34491"
   y2="499.08917"
   gradientUnits="userSpaceOnUse" /><linearGradient
   inkscape:collect="always"
   xlink:href="#linearGradient4471"
   id="linearGradient4477"
   x1="664.09625"
   y1="501.10046"
   x2="664.09625"
   y2="510.29501"
   gradientUnits="userSpaceOnUse" /><linearGradient
   inkscape:collect="always"
   xlink:href="#linearGradient3584"
   id="linearGradient4485"
   gradientUnits="userSpaceOnUse"
   gradientTransform="translate(3.7826799,-9.9750279)"
   x1="234.03793"
   y1="165.15395"
   x2="233.72409"
   y2="209.09224" /><linearGradient
   inkscape:collect="always"
   xlink:href="#linearGradient4471"
   id="linearGradient4513"
   gradientUnits="userSpaceOnUse"
   x1="664.09625"
   y1="501.10046"
   x2="664.09625"
   y2="510.29501" />
		
		
	<linearGradient
   inkscape:collect="always"
   xlink:href="#linearGradient4471"
   id="linearGradient4529"
   gradientUnits="userSpaceOnUse"
   x1="664.09625"
   y1="501.10046"
   x2="664.09625"
   y2="510.29501"
   gradientTransform="translate(13.369724,31.384113)" /><linearGradient
   inkscape:collect="always"
   xlink:href="#linearGradient3632"
   id="linearGradient4543"
   gradientUnits="userSpaceOnUse"
   x1="137.46411"
   y1="317.84103"
   x2="137.46411"
   y2="324.8385" /></defs><sodipodi:namedview
   pagecolor="#ffffff"
   bordercolor="#666666"
   borderopacity="1"
   objecttolerance="10"
   gridtolerance="10"
   guidetolerance="10"
   inkscape:pageopacity="0"
   inkscape:pageshadow="2"
   inkscape:window-width="1280"
   inkscape:window-height="746"
   id="namedview503"
   showgrid="false"
   inkscape:zoom="0.90545621"
   inkscape:cx="420.94501"
   inkscape:cy="443.33958"
   inkscape:window-x="0"
   inkscape:window-y="0"
   inkscape:window-maximized="1"
   inkscape:current-layer="Capa_1"
   showguides="true"
   inkscape:guide-bbox="true" />

















<g
   id="g4633"><g
     style="fill:#999999;filter:url(#filter4193)"
     transform="translate(14.095857,177.22388)"
     id="g4625">
		<path
   style="fill:#999999"
   d="M 764.117,354.047 C 764.117,354.968 763.711,355.742 762.898,356.37 C 762.152,356.976 761.219,357.28 760.103,357.28 L 750.273,357.28 C 749.244,357.28 748.371,357.004 747.656,356.451 C 746.886,355.855 746.4,354.946 746.193,353.722 L 748.193,353.722 C 748.334,354.296 748.593,354.707 748.972,354.957 L 748.956,354.957 C 749.323,355.174 749.763,355.281 750.272,355.281 L 760.102,355.281 C 760.665,355.281 761.153,355.151 761.565,354.891 C 761.933,354.653 762.118,354.371 762.118,354.046 L 762.118,352.421 C 762.118,352.117 761.933,351.847 761.565,351.608 C 761.131,351.327 760.639,351.186 760.086,351.186 L 754.854,351.186 L 754.854,349.187 L 760.102,349.187 C 760.676,349.187 761.165,349.052 761.565,348.781 C 761.933,348.544 762.118,348.266 762.118,347.953 L 762.118,346.328 C 762.118,346.024 761.933,345.753 761.565,345.515 C 761.131,345.233 760.639,345.092 760.086,345.092 L 750.272,345.092 C 749.773,345.092 749.339,345.2 748.971,345.417 L 748.988,345.417 C 748.598,345.645 748.333,346.056 748.192,346.652 L 746.192,346.652 C 746.387,345.417 746.864,344.517 747.623,343.954 C 748.338,343.38 749.221,343.094 750.272,343.094 L 760.102,343.094 C 761.197,343.094 762.128,343.397 762.897,344.003 C 763.71,344.643 764.116,345.417 764.116,346.327 C 764.116,347.118 764.085,347.838 764.019,348.487 C 763.997,348.812 763.889,349.111 763.694,349.382 C 763.607,349.501 763.506,349.625 763.393,349.756 C 763.28,349.886 763.141,350.027 762.979,350.178 C 763.293,350.471 763.532,350.741 763.694,350.991 C 763.878,351.295 763.987,351.587 764.019,351.869 C 764.086,352.509 764.117,353.234 764.117,354.047 z"
   id="path4627" />
	</g><g
     id="g4571"><rect
       x="632.56677"
       y="532.66412"
       width="80.894997"
       height="9.0150003"
       id="rect4097"
       style="fill:url(#linearGradient4529);fill-opacity:1" /><g
       style="fill:#000000;fill-opacity:1"
       id="g4545"
       transform="translate(13.547968,31.502942)">
			<path
   d="M 637.979,504.755 C 638.005,504.591 637.976,504.48 637.895,504.418 L 637.9,504.418 C 637.826,504.361 637.718,504.334 637.578,504.332 L 634.908,504.324 C 634.748,504.324 634.601,504.358 634.465,504.432 C 634.346,504.493 634.27,504.567 634.238,504.653 L 633.953,505.43 L 635.924,505.435 L 635.721,505.982 L 633.752,505.975 L 633.141,507.637 L 632.592,507.636 L 633.688,504.65 C 633.778,504.408 633.967,504.199 634.249,504.025 C 634.522,503.857 634.81,503.773 635.11,503.775 L 637.78,503.783 C 638.063,503.784 638.274,503.864 638.411,504.019 C 638.563,504.176 638.605,504.422 638.536,504.755 L 637.979,504.755 z"
   id="path4547"
   style="fill:#000000;fill-opacity:1" />
			<path
   d="M 641.92,505.812 C 641.93,505.658 641.884,505.552 641.782,505.497 C 641.744,505.475 641.701,505.456 641.651,505.446 C 641.601,505.438 641.552,505.434 641.5,505.434 L 640.211,505.429 C 640.081,505.428 639.953,505.454 639.824,505.504 C 639.676,505.559 639.587,505.629 639.556,505.714 L 638.841,507.656 L 638.292,507.654 L 639.311,504.882 L 639.862,504.883 L 639.819,504.998 C 639.927,504.957 640.03,504.928 640.123,504.91 C 640.217,504.892 640.312,504.884 640.406,504.884 L 641.698,504.889 C 641.944,504.89 642.144,504.953 642.299,505.076 C 642.486,505.229 642.541,505.472 642.463,505.814 L 641.92,505.812 z"
   id="path4549"
   style="fill:#000000;fill-opacity:1" />
			<path
   d="M 646.805,505.728 C 646.711,505.986 646.506,506.195 646.194,506.36 C 645.933,506.497 645.671,506.561 645.405,506.559 L 644.117,506.557 C 644.032,506.555 643.953,506.548 643.878,506.534 C 643.804,506.52 643.712,506.492 643.608,506.45 L 643.471,506.82 L 643.468,506.828 C 643.446,506.907 643.492,506.975 643.603,507.037 C 643.65,507.072 643.7,507.094 643.752,507.107 C 643.803,507.121 643.855,507.127 643.906,507.128 L 645.195,507.131 C 645.248,507.133 645.302,507.127 645.357,507.12 C 645.412,507.11 645.466,507.094 645.522,507.072 C 645.667,507.015 645.789,506.911 645.89,506.758 L 646.436,506.76 C 646.265,507.096 646.03,507.338 645.734,507.488 C 645.49,507.615 645.244,507.678 644.996,507.676 L 643.707,507.672 C 643.459,507.672 643.252,507.606 643.084,507.476 C 642.875,507.312 642.818,507.098 642.916,506.832 L 643.323,505.724 C 643.421,505.46 643.621,505.251 643.924,505.096 C 644.178,504.964 644.445,504.898 644.726,504.899 L 646.016,504.904 C 646.287,504.904 646.501,504.968 646.662,505.096 C 646.854,505.252 646.904,505.462 646.805,505.728 z M 646.252,505.734 C 646.279,505.664 646.252,505.602 646.175,505.548 C 646.092,505.481 645.97,505.446 645.811,505.444 L 644.527,505.44 C 644.415,505.44 644.288,505.465 644.145,505.516 C 643.996,505.567 643.906,505.637 643.874,505.722 C 643.843,505.805 643.884,505.874 643.987,505.93 C 644.083,505.984 644.194,506.011 644.316,506.011 L 645.606,506.015 C 645.758,506.017 645.903,505.984 646.041,505.919 C 646.156,505.868 646.227,505.807 646.252,505.734 z"
   id="path4551"
   style="fill:#000000;fill-opacity:1" />
			<path
   d="M 651.127,505.741 C 651.031,505.999 650.828,506.208 650.514,506.373 C 650.254,506.508 649.992,506.574 649.726,506.573 L 648.438,506.568 C 648.352,506.568 648.272,506.56 648.198,506.547 C 648.124,506.534 648.034,506.504 647.927,506.463 L 647.792,506.833 L 647.789,506.841 C 647.768,506.92 647.814,506.988 647.924,507.051 C 647.971,507.085 648.021,507.106 648.071,507.12 C 648.123,507.134 648.175,507.14 648.228,507.14 L 649.517,507.144 C 649.568,507.144 649.622,507.14 649.678,507.133 C 649.734,507.123 649.788,507.107 649.845,507.085 C 649.988,507.027 650.111,506.924 650.212,506.77 L 650.755,506.773 C 650.585,507.109 650.351,507.351 650.054,507.501 C 649.81,507.627 649.566,507.689 649.316,507.689 L 648.029,507.685 C 647.781,507.684 647.573,507.618 647.405,507.489 C 647.195,507.325 647.14,507.11 647.238,506.846 L 647.644,505.737 C 647.742,505.474 647.941,505.264 648.243,505.109 C 648.5,504.977 648.765,504.911 649.047,504.913 L 650.335,504.917 C 650.606,504.917 650.822,504.981 650.983,505.109 C 651.176,505.266 651.225,505.476 651.127,505.741 z M 650.574,505.748 C 650.599,505.679 650.573,505.616 650.496,505.562 C 650.414,505.495 650.291,505.46 650.131,505.458 L 648.848,505.454 C 648.737,505.454 648.608,505.479 648.467,505.528 C 648.317,505.581 648.226,505.649 648.194,505.736 C 648.166,505.819 648.203,505.887 648.309,505.944 C 648.403,505.998 648.514,506.025 648.637,506.025 L 649.926,506.029 C 650.078,506.031 650.223,505.998 650.36,505.933 C 650.477,505.881 650.549,505.82 650.574,505.748 z"
   id="path4553"
   style="fill:#000000;fill-opacity:1" />
			<path
   d="M 659.42,507.472 C 659.158,507.637 658.873,507.718 658.568,507.718 L 655.89,507.71 C 655.609,507.708 655.399,507.633 655.26,507.481 C 655.11,507.318 655.068,507.069 655.134,506.736 L 655.679,506.738 C 655.659,506.894 655.689,507.008 655.768,507.075 L 655.762,507.075 C 655.842,507.134 655.95,507.164 656.089,507.164 L 658.768,507.173 C 658.925,507.174 659.071,507.137 659.206,507.065 C 659.33,507.002 659.408,506.925 659.441,506.838 L 659.603,506.397 C 659.634,506.312 659.612,506.236 659.535,506.171 C 659.453,506.097 659.332,506.061 659.173,506.06 L 656.499,506.051 C 656.197,506.05 655.973,505.966 655.824,505.801 C 655.666,505.629 655.633,505.417 655.725,505.163 L 655.888,504.721 C 655.978,504.477 656.165,504.268 656.448,504.094 C 656.72,503.928 657.008,503.844 657.309,503.844 L 659.988,503.854 C 660.268,503.854 660.477,503.935 660.615,504.089 C 660.766,504.246 660.809,504.492 660.739,504.825 L 660.195,504.823 C 660.215,504.667 660.184,504.552 660.105,504.486 L 660.11,504.486 C 660.036,504.431 659.928,504.402 659.787,504.402 L 657.109,504.392 C 656.949,504.392 656.798,504.427 656.662,504.501 C 656.542,504.563 656.467,504.637 656.433,504.721 L 656.27,505.164 C 656.238,505.253 656.259,505.329 656.332,505.393 C 656.415,505.467 656.539,505.504 656.7,505.506 L 659.379,505.514 C 659.682,505.514 659.905,505.598 660.047,505.763 C 660.205,505.94 660.238,506.149 660.149,506.397 L 659.985,506.839 C 659.893,507.09 659.705,507.302 659.42,507.472 z"
   id="path4555"
   style="fill:#000000;fill-opacity:1" />
			<path
   d="M 663.676,507.53 C 663.42,507.664 663.158,507.731 662.889,507.731 L 661.601,507.727 C 661.338,507.725 661.125,507.658 660.961,507.526 C 660.763,507.362 660.713,507.149 660.811,506.887 L 661.217,505.778 C 661.312,505.521 661.516,505.31 661.83,505.147 C 662.091,505.01 662.353,504.943 662.621,504.944 L 663.911,504.949 C 664.164,504.949 664.373,505.013 664.535,505.141 C 664.74,505.307 664.797,505.521 664.699,505.784 L 664.289,506.899 C 664.195,507.155 663.991,507.365 663.676,507.53 z M 664.149,505.781 C 664.179,505.7 664.14,505.63 664.035,505.573 C 663.945,505.522 663.837,505.499 663.711,505.498 L 662.421,505.495 C 662.291,505.494 662.165,505.516 662.041,505.564 C 661.889,505.622 661.797,505.692 661.768,505.774 L 661.356,506.893 C 661.327,506.977 661.364,507.045 661.471,507.101 C 661.567,507.155 661.675,507.182 661.796,507.182 L 663.09,507.186 C 663.148,507.186 663.208,507.18 663.274,507.169 C 663.337,507.156 663.401,507.139 663.465,507.112 C 663.617,507.053 663.707,506.98 663.739,506.896 L 664.149,505.781 z"
   id="path4557"
   style="fill:#000000;fill-opacity:1" />
			<path
   d="M 666.191,505.511 L 665.373,507.739 L 664.824,507.738 L 665.937,504.705 C 666.032,504.446 666.212,504.237 666.473,504.081 C 666.702,503.946 666.99,503.879 667.333,503.881 L 667.138,504.417 C 666.921,504.449 666.765,504.489 666.667,504.538 C 666.567,504.588 666.511,504.644 666.485,504.706 L 666.389,504.967 L 666.939,504.968 L 666.738,505.513 L 666.191,505.511 z"
   id="path4559"
   style="fill:#000000;fill-opacity:1" />
			<path
   d="M 668.68,505.518 L 667.86,507.747 L 667.308,507.745 L 668.125,505.516 L 667.582,505.515 L 667.781,504.97 L 668.326,504.971 L 668.726,503.88 L 669.279,503.882 L 668.878,504.974 L 669.429,504.975 L 669.229,505.519 L 668.68,505.518 z"
   id="path4561"
   style="fill:#000000;fill-opacity:1" />
			<path
   d="M 672.865,507.55 C 672.633,507.688 672.368,507.756 672.076,507.755 C 671.918,507.755 671.767,507.732 671.632,507.688 C 671.494,507.642 671.377,507.573 671.281,507.479 C 671.115,507.57 670.945,507.638 670.77,507.685 C 670.595,507.732 670.427,507.755 670.267,507.754 C 669.987,507.754 669.777,507.685 669.638,507.549 C 669.484,507.395 669.458,507.183 669.554,506.915 L 670.267,504.977 L 670.816,504.979 L 670.103,506.92 C 670.074,507.003 670.098,507.07 670.179,507.124 C 670.269,507.18 670.392,507.209 670.552,507.209 C 670.713,507.209 670.858,507.183 670.98,507.126 C 671.101,507.077 671.179,507.007 671.211,506.919 L 671.649,505.726 L 672.199,505.727 L 671.757,506.926 C 671.728,507.011 671.753,507.077 671.837,507.124 C 671.925,507.182 672.045,507.209 672.199,507.209 C 672.364,507.21 672.509,507.183 672.633,507.126 C 672.755,507.077 672.831,507.012 672.862,506.929 L 673.575,504.987 L 674.129,504.99 L 673.416,506.927 C 673.323,507.187 673.137,507.395 672.865,507.55 z"
   id="path4563"
   style="fill:#000000;fill-opacity:1" />
			<path
   d="M 676.999,507.576 C 676.742,507.707 676.475,507.772 676.201,507.772 L 674.912,507.768 C 674.635,507.767 674.416,507.701 674.258,507.572 C 674.067,507.416 674.02,507.206 674.117,506.937 C 674.213,506.678 674.418,506.469 674.729,506.309 C 674.988,506.176 675.251,506.11 675.521,506.11 L 676.808,506.114 C 676.891,506.114 676.97,506.123 677.044,506.136 C 677.118,506.151 677.207,506.181 677.314,506.221 L 677.453,505.845 C 677.471,505.766 677.428,505.696 677.322,505.633 C 677.23,505.572 677.13,505.542 677.021,505.542 L 675.731,505.538 C 675.675,505.538 675.62,505.542 675.566,505.551 C 675.509,505.559 675.455,505.577 675.396,505.601 C 675.253,505.656 675.13,505.76 675.032,505.914 L 674.487,505.911 C 674.66,505.575 674.892,505.333 675.183,505.182 C 675.428,505.056 675.675,504.994 675.926,504.995 L 677.218,504.999 C 677.472,504.999 677.683,505.063 677.843,505.19 C 678.051,505.351 678.107,505.565 678.005,505.833 L 677.599,506.943 C 677.502,507.207 677.302,507.418 676.999,507.576 z M 677.047,506.947 C 677.078,506.864 677.041,506.796 676.934,506.738 C 676.838,506.685 676.731,506.656 676.612,506.656 L 675.322,506.652 C 675.173,506.652 675.026,506.685 674.884,506.75 C 674.767,506.803 674.696,506.864 674.668,506.935 C 674.642,507.008 674.666,507.073 674.74,507.126 C 674.828,507.19 674.951,507.224 675.107,507.224 L 676.4,507.228 C 676.528,507.228 676.652,507.207 676.775,507.16 C 676.928,507.1 677.018,507.029 677.047,506.947 z"
   id="path4565"
   style="fill:#000000;fill-opacity:1" />
			<path
   d="M 681.761,505.936 C 681.772,505.782 681.725,505.676 681.621,505.621 C 681.584,505.598 681.541,505.58 681.492,505.57 C 681.444,505.563 681.392,505.558 681.341,505.558 L 680.051,505.553 C 679.922,505.553 679.793,505.578 679.664,505.627 C 679.518,505.683 679.428,505.754 679.396,505.838 L 678.685,507.779 L 678.135,507.778 L 679.152,505.005 L 679.701,505.007 L 679.66,505.122 C 679.77,505.081 679.871,505.052 679.967,505.035 C 680.059,505.016 680.153,505.008 680.248,505.008 L 681.541,505.012 C 681.784,505.014 681.984,505.077 682.139,505.201 C 682.327,505.353 682.381,505.597 682.305,505.936 L 681.761,505.936 z"
   id="path4567"
   style="fill:#000000;fill-opacity:1" />
			<path
   d="M 686.647,505.852 C 686.552,506.11 686.349,506.32 686.033,506.484 C 685.773,506.62 685.511,506.685 685.246,506.685 L 683.957,506.68 C 683.871,506.68 683.792,506.672 683.718,506.657 C 683.643,506.643 683.554,506.616 683.447,506.574 L 683.311,506.944 L 683.307,506.952 C 683.287,507.03 683.333,507.099 683.443,507.163 C 683.492,507.195 683.541,507.218 683.591,507.233 C 683.642,507.247 683.695,507.252 683.747,507.252 L 685.035,507.257 C 685.089,507.257 685.142,507.252 685.197,507.244 C 685.253,507.234 685.307,507.218 685.364,507.195 C 685.507,507.139 685.63,507.035 685.733,506.882 L 686.276,506.884 C 686.104,507.221 685.87,507.463 685.575,507.613 C 685.331,507.739 685.085,507.802 684.837,507.801 L 683.548,507.797 C 683.3,507.797 683.092,507.731 682.924,507.6 C 682.714,507.438 682.658,507.223 682.755,506.959 L 683.165,505.85 C 683.261,505.585 683.46,505.376 683.763,505.221 C 684.019,505.089 684.285,505.024 684.566,505.024 L 685.856,505.029 C 686.127,505.03 686.343,505.093 686.502,505.221 C 686.695,505.377 686.745,505.586 686.647,505.852 z M 686.094,505.86 C 686.121,505.788 686.094,505.727 686.016,505.672 C 685.931,505.605 685.811,505.57 685.652,505.57 L 684.368,505.565 C 684.257,505.565 684.129,505.59 683.985,505.639 C 683.835,505.692 683.746,505.76 683.715,505.847 C 683.685,505.93 683.723,505.998 683.828,506.055 C 683.924,506.109 684.033,506.136 684.158,506.136 L 685.445,506.14 C 685.599,506.14 685.743,506.108 685.881,506.042 C 685.998,505.992 686.068,505.93 686.094,505.86 z"
   id="path4569"
   style="fill:#000000;fill-opacity:1" />
		</g><g
       style="fill:#ffffff;fill-opacity:1"
       id="g4099"
       transform="translate(13.369724,31.384113)">
			<path
   d="M 637.979,504.755 C 638.005,504.591 637.976,504.48 637.895,504.418 L 637.9,504.418 C 637.826,504.361 637.718,504.334 637.578,504.332 L 634.908,504.324 C 634.748,504.324 634.601,504.358 634.465,504.432 C 634.346,504.493 634.27,504.567 634.238,504.653 L 633.953,505.43 L 635.924,505.435 L 635.721,505.982 L 633.752,505.975 L 633.141,507.637 L 632.592,507.636 L 633.688,504.65 C 633.778,504.408 633.967,504.199 634.249,504.025 C 634.522,503.857 634.81,503.773 635.11,503.775 L 637.78,503.783 C 638.063,503.784 638.274,503.864 638.411,504.019 C 638.563,504.176 638.605,504.422 638.536,504.755 L 637.979,504.755 z"
   id="path4101"
   style="fill:#ffffff;fill-opacity:1" />
			<path
   d="M 641.92,505.812 C 641.93,505.658 641.884,505.552 641.782,505.497 C 641.744,505.475 641.701,505.456 641.651,505.446 C 641.601,505.438 641.552,505.434 641.5,505.434 L 640.211,505.429 C 640.081,505.428 639.953,505.454 639.824,505.504 C 639.676,505.559 639.587,505.629 639.556,505.714 L 638.841,507.656 L 638.292,507.654 L 639.311,504.882 L 639.862,504.883 L 639.819,504.998 C 639.927,504.957 640.03,504.928 640.123,504.91 C 640.217,504.892 640.312,504.884 640.406,504.884 L 641.698,504.889 C 641.944,504.89 642.144,504.953 642.299,505.076 C 642.486,505.229 642.541,505.472 642.463,505.814 L 641.92,505.812 z"
   id="path4103"
   style="fill:#ffffff;fill-opacity:1" />
			<path
   d="M 646.805,505.728 C 646.711,505.986 646.506,506.195 646.194,506.36 C 645.933,506.497 645.671,506.561 645.405,506.559 L 644.117,506.557 C 644.032,506.555 643.953,506.548 643.878,506.534 C 643.804,506.52 643.712,506.492 643.608,506.45 L 643.471,506.82 L 643.468,506.828 C 643.446,506.907 643.492,506.975 643.603,507.037 C 643.65,507.072 643.7,507.094 643.752,507.107 C 643.803,507.121 643.855,507.127 643.906,507.128 L 645.195,507.131 C 645.248,507.133 645.302,507.127 645.357,507.12 C 645.412,507.11 645.466,507.094 645.522,507.072 C 645.667,507.015 645.789,506.911 645.89,506.758 L 646.436,506.76 C 646.265,507.096 646.03,507.338 645.734,507.488 C 645.49,507.615 645.244,507.678 644.996,507.676 L 643.707,507.672 C 643.459,507.672 643.252,507.606 643.084,507.476 C 642.875,507.312 642.818,507.098 642.916,506.832 L 643.323,505.724 C 643.421,505.46 643.621,505.251 643.924,505.096 C 644.178,504.964 644.445,504.898 644.726,504.899 L 646.016,504.904 C 646.287,504.904 646.501,504.968 646.662,505.096 C 646.854,505.252 646.904,505.462 646.805,505.728 z M 646.252,505.734 C 646.279,505.664 646.252,505.602 646.175,505.548 C 646.092,505.481 645.97,505.446 645.811,505.444 L 644.527,505.44 C 644.415,505.44 644.288,505.465 644.145,505.516 C 643.996,505.567 643.906,505.637 643.874,505.722 C 643.843,505.805 643.884,505.874 643.987,505.93 C 644.083,505.984 644.194,506.011 644.316,506.011 L 645.606,506.015 C 645.758,506.017 645.903,505.984 646.041,505.919 C 646.156,505.868 646.227,505.807 646.252,505.734 z"
   id="path4105"
   style="fill:#ffffff;fill-opacity:1" />
			<path
   d="M 651.127,505.741 C 651.031,505.999 650.828,506.208 650.514,506.373 C 650.254,506.508 649.992,506.574 649.726,506.573 L 648.438,506.568 C 648.352,506.568 648.272,506.56 648.198,506.547 C 648.124,506.534 648.034,506.504 647.927,506.463 L 647.792,506.833 L 647.789,506.841 C 647.768,506.92 647.814,506.988 647.924,507.051 C 647.971,507.085 648.021,507.106 648.071,507.12 C 648.123,507.134 648.175,507.14 648.228,507.14 L 649.517,507.144 C 649.568,507.144 649.622,507.14 649.678,507.133 C 649.734,507.123 649.788,507.107 649.845,507.085 C 649.988,507.027 650.111,506.924 650.212,506.77 L 650.755,506.773 C 650.585,507.109 650.351,507.351 650.054,507.501 C 649.81,507.627 649.566,507.689 649.316,507.689 L 648.029,507.685 C 647.781,507.684 647.573,507.618 647.405,507.489 C 647.195,507.325 647.14,507.11 647.238,506.846 L 647.644,505.737 C 647.742,505.474 647.941,505.264 648.243,505.109 C 648.5,504.977 648.765,504.911 649.047,504.913 L 650.335,504.917 C 650.606,504.917 650.822,504.981 650.983,505.109 C 651.176,505.266 651.225,505.476 651.127,505.741 z M 650.574,505.748 C 650.599,505.679 650.573,505.616 650.496,505.562 C 650.414,505.495 650.291,505.46 650.131,505.458 L 648.848,505.454 C 648.737,505.454 648.608,505.479 648.467,505.528 C 648.317,505.581 648.226,505.649 648.194,505.736 C 648.166,505.819 648.203,505.887 648.309,505.944 C 648.403,505.998 648.514,506.025 648.637,506.025 L 649.926,506.029 C 650.078,506.031 650.223,505.998 650.36,505.933 C 650.477,505.881 650.549,505.82 650.574,505.748 z"
   id="path4107"
   style="fill:#ffffff;fill-opacity:1" />
			<path
   d="M 659.42,507.472 C 659.158,507.637 658.873,507.718 658.568,507.718 L 655.89,507.71 C 655.609,507.708 655.399,507.633 655.26,507.481 C 655.11,507.318 655.068,507.069 655.134,506.736 L 655.679,506.738 C 655.659,506.894 655.689,507.008 655.768,507.075 L 655.762,507.075 C 655.842,507.134 655.95,507.164 656.089,507.164 L 658.768,507.173 C 658.925,507.174 659.071,507.137 659.206,507.065 C 659.33,507.002 659.408,506.925 659.441,506.838 L 659.603,506.397 C 659.634,506.312 659.612,506.236 659.535,506.171 C 659.453,506.097 659.332,506.061 659.173,506.06 L 656.499,506.051 C 656.197,506.05 655.973,505.966 655.824,505.801 C 655.666,505.629 655.633,505.417 655.725,505.163 L 655.888,504.721 C 655.978,504.477 656.165,504.268 656.448,504.094 C 656.72,503.928 657.008,503.844 657.309,503.844 L 659.988,503.854 C 660.268,503.854 660.477,503.935 660.615,504.089 C 660.766,504.246 660.809,504.492 660.739,504.825 L 660.195,504.823 C 660.215,504.667 660.184,504.552 660.105,504.486 L 660.11,504.486 C 660.036,504.431 659.928,504.402 659.787,504.402 L 657.109,504.392 C 656.949,504.392 656.798,504.427 656.662,504.501 C 656.542,504.563 656.467,504.637 656.433,504.721 L 656.27,505.164 C 656.238,505.253 656.259,505.329 656.332,505.393 C 656.415,505.467 656.539,505.504 656.7,505.506 L 659.379,505.514 C 659.682,505.514 659.905,505.598 660.047,505.763 C 660.205,505.94 660.238,506.149 660.149,506.397 L 659.985,506.839 C 659.893,507.09 659.705,507.302 659.42,507.472 z"
   id="path4109"
   style="fill:#ffffff;fill-opacity:1" />
			<path
   d="M 663.676,507.53 C 663.42,507.664 663.158,507.731 662.889,507.731 L 661.601,507.727 C 661.338,507.725 661.125,507.658 660.961,507.526 C 660.763,507.362 660.713,507.149 660.811,506.887 L 661.217,505.778 C 661.312,505.521 661.516,505.31 661.83,505.147 C 662.091,505.01 662.353,504.943 662.621,504.944 L 663.911,504.949 C 664.164,504.949 664.373,505.013 664.535,505.141 C 664.74,505.307 664.797,505.521 664.699,505.784 L 664.289,506.899 C 664.195,507.155 663.991,507.365 663.676,507.53 z M 664.149,505.781 C 664.179,505.7 664.14,505.63 664.035,505.573 C 663.945,505.522 663.837,505.499 663.711,505.498 L 662.421,505.495 C 662.291,505.494 662.165,505.516 662.041,505.564 C 661.889,505.622 661.797,505.692 661.768,505.774 L 661.356,506.893 C 661.327,506.977 661.364,507.045 661.471,507.101 C 661.567,507.155 661.675,507.182 661.796,507.182 L 663.09,507.186 C 663.148,507.186 663.208,507.18 663.274,507.169 C 663.337,507.156 663.401,507.139 663.465,507.112 C 663.617,507.053 663.707,506.98 663.739,506.896 L 664.149,505.781 z"
   id="path4111"
   style="fill:#ffffff;fill-opacity:1" />
			<path
   d="M 666.191,505.511 L 665.373,507.739 L 664.824,507.738 L 665.937,504.705 C 666.032,504.446 666.212,504.237 666.473,504.081 C 666.702,503.946 666.99,503.879 667.333,503.881 L 667.138,504.417 C 666.921,504.449 666.765,504.489 666.667,504.538 C 666.567,504.588 666.511,504.644 666.485,504.706 L 666.389,504.967 L 666.939,504.968 L 666.738,505.513 L 666.191,505.511 z"
   id="path4113"
   style="fill:#ffffff;fill-opacity:1" />
			<path
   d="M 668.68,505.518 L 667.86,507.747 L 667.308,507.745 L 668.125,505.516 L 667.582,505.515 L 667.781,504.97 L 668.326,504.971 L 668.726,503.88 L 669.279,503.882 L 668.878,504.974 L 669.429,504.975 L 669.229,505.519 L 668.68,505.518 z"
   id="path4115"
   style="fill:#ffffff;fill-opacity:1" />
			<path
   d="M 672.865,507.55 C 672.633,507.688 672.368,507.756 672.076,507.755 C 671.918,507.755 671.767,507.732 671.632,507.688 C 671.494,507.642 671.377,507.573 671.281,507.479 C 671.115,507.57 670.945,507.638 670.77,507.685 C 670.595,507.732 670.427,507.755 670.267,507.754 C 669.987,507.754 669.777,507.685 669.638,507.549 C 669.484,507.395 669.458,507.183 669.554,506.915 L 670.267,504.977 L 670.816,504.979 L 670.103,506.92 C 670.074,507.003 670.098,507.07 670.179,507.124 C 670.269,507.18 670.392,507.209 670.552,507.209 C 670.713,507.209 670.858,507.183 670.98,507.126 C 671.101,507.077 671.179,507.007 671.211,506.919 L 671.649,505.726 L 672.199,505.727 L 671.757,506.926 C 671.728,507.011 671.753,507.077 671.837,507.124 C 671.925,507.182 672.045,507.209 672.199,507.209 C 672.364,507.21 672.509,507.183 672.633,507.126 C 672.755,507.077 672.831,507.012 672.862,506.929 L 673.575,504.987 L 674.129,504.99 L 673.416,506.927 C 673.323,507.187 673.137,507.395 672.865,507.55 z"
   id="path4117"
   style="fill:#ffffff;fill-opacity:1" />
			<path
   d="M 676.999,507.576 C 676.742,507.707 676.475,507.772 676.201,507.772 L 674.912,507.768 C 674.635,507.767 674.416,507.701 674.258,507.572 C 674.067,507.416 674.02,507.206 674.117,506.937 C 674.213,506.678 674.418,506.469 674.729,506.309 C 674.988,506.176 675.251,506.11 675.521,506.11 L 676.808,506.114 C 676.891,506.114 676.97,506.123 677.044,506.136 C 677.118,506.151 677.207,506.181 677.314,506.221 L 677.453,505.845 C 677.471,505.766 677.428,505.696 677.322,505.633 C 677.23,505.572 677.13,505.542 677.021,505.542 L 675.731,505.538 C 675.675,505.538 675.62,505.542 675.566,505.551 C 675.509,505.559 675.455,505.577 675.396,505.601 C 675.253,505.656 675.13,505.76 675.032,505.914 L 674.487,505.911 C 674.66,505.575 674.892,505.333 675.183,505.182 C 675.428,505.056 675.675,504.994 675.926,504.995 L 677.218,504.999 C 677.472,504.999 677.683,505.063 677.843,505.19 C 678.051,505.351 678.107,505.565 678.005,505.833 L 677.599,506.943 C 677.502,507.207 677.302,507.418 676.999,507.576 z M 677.047,506.947 C 677.078,506.864 677.041,506.796 676.934,506.738 C 676.838,506.685 676.731,506.656 676.612,506.656 L 675.322,506.652 C 675.173,506.652 675.026,506.685 674.884,506.75 C 674.767,506.803 674.696,506.864 674.668,506.935 C 674.642,507.008 674.666,507.073 674.74,507.126 C 674.828,507.19 674.951,507.224 675.107,507.224 L 676.4,507.228 C 676.528,507.228 676.652,507.207 676.775,507.16 C 676.928,507.1 677.018,507.029 677.047,506.947 z"
   id="path4119"
   style="fill:#ffffff;fill-opacity:1" />
			<path
   d="M 681.761,505.936 C 681.772,505.782 681.725,505.676 681.621,505.621 C 681.584,505.598 681.541,505.58 681.492,505.57 C 681.444,505.563 681.392,505.558 681.341,505.558 L 680.051,505.553 C 679.922,505.553 679.793,505.578 679.664,505.627 C 679.518,505.683 679.428,505.754 679.396,505.838 L 678.685,507.779 L 678.135,507.778 L 679.152,505.005 L 679.701,505.007 L 679.66,505.122 C 679.77,505.081 679.871,505.052 679.967,505.035 C 680.059,505.016 680.153,505.008 680.248,505.008 L 681.541,505.012 C 681.784,505.014 681.984,505.077 682.139,505.201 C 682.327,505.353 682.381,505.597 682.305,505.936 L 681.761,505.936 z"
   id="path4121"
   style="fill:#ffffff;fill-opacity:1" />
			<path
   d="M 686.647,505.852 C 686.552,506.11 686.349,506.32 686.033,506.484 C 685.773,506.62 685.511,506.685 685.246,506.685 L 683.957,506.68 C 683.871,506.68 683.792,506.672 683.718,506.657 C 683.643,506.643 683.554,506.616 683.447,506.574 L 683.311,506.944 L 683.307,506.952 C 683.287,507.03 683.333,507.099 683.443,507.163 C 683.492,507.195 683.541,507.218 683.591,507.233 C 683.642,507.247 683.695,507.252 683.747,507.252 L 685.035,507.257 C 685.089,507.257 685.142,507.252 685.197,507.244 C 685.253,507.234 685.307,507.218 685.364,507.195 C 685.507,507.139 685.63,507.035 685.733,506.882 L 686.276,506.884 C 686.104,507.221 685.87,507.463 685.575,507.613 C 685.331,507.739 685.085,507.802 684.837,507.801 L 683.548,507.797 C 683.3,507.797 683.092,507.731 682.924,507.6 C 682.714,507.438 682.658,507.223 682.755,506.959 L 683.165,505.85 C 683.261,505.585 683.46,505.376 683.763,505.221 C 684.019,505.089 684.285,505.024 684.566,505.024 L 685.856,505.029 C 686.127,505.03 686.343,505.093 686.502,505.221 C 686.695,505.377 686.745,505.586 686.647,505.852 z M 686.094,505.86 C 686.121,505.788 686.094,505.727 686.016,505.672 C 685.931,505.605 685.811,505.57 685.652,505.57 L 684.368,505.565 C 684.257,505.565 684.129,505.59 683.985,505.639 C 683.835,505.692 683.746,505.76 683.715,505.847 C 683.685,505.93 683.723,505.998 683.828,506.055 C 683.924,506.109 684.033,506.136 684.158,506.136 L 685.445,506.14 C 685.599,506.14 685.743,506.108 685.881,506.042 C 685.998,505.992 686.068,505.93 686.094,505.86 z"
   id="path4123"
   style="fill:#ffffff;fill-opacity:1" />
		</g><g
       id="g4531"
       transform="matrix(0.978896,0,0,1,298.8046,310.1234)"><g
         id="g4539"
         transform="matrix(0.5619245,0,0,0.6651387,175.49918,79.003973)"><path
           sodipodi:type="inkscape:offset"
           inkscape:radius="-0.941535"
           inkscape:original="M 76.9375 318.0625 L 76.9375 322.5 C 93.103607 326.0298 115.45019 328.1875 140.125 328.1875 C 160.26114 328.1875 178.83943 326.76607 193.78125 324.3125 L 193.78125 318.0625 L 76.9375 318.0625 z "
           style="opacity:0.34883722;fill:#ffffff;fill-opacity:1;filter:url(#filter3676)"
           id="path4533"
           d="M 77.875,319 L 77.875,321.71875 C 93.887997,325.13909 115.85526,327.25 140.125,327.25 C 159.88372,327.25 178.09556,325.86881 192.84375,323.5 L 192.84375,319 L 77.875,319 z"
           transform="matrix(-1.265412,0,0,-0.4576597,539.25901,374.66724)" /><path
           sodipodi:type="inkscape:offset"
           inkscape:radius="-0.941535"
           inkscape:original="M 76.9375 318.0625 L 76.9375 322.5 C 93.103607 326.0298 115.45019 328.1875 140.125 328.1875 C 160.26114 328.1875 178.83943 326.76607 193.78125 324.3125 L 193.78125 318.0625 L 76.9375 318.0625 z "
           style="opacity:0.70542632;fill:url(#linearGradient4543);fill-opacity:1"
           id="path4535"
           d="M 77.875,319 L 77.875,321.71875 C 93.887997,325.13909 115.85526,327.25 140.125,327.25 C 159.88372,327.25 178.09556,325.86881 192.84375,323.5 L 192.84375,319 L 77.875,319 z"
           transform="matrix(1.265412,0,0,1,196.68825,-102.57618)" /></g></g><g
       id="g4083"
       transform="translate(13.369724,31.384113)">
		<path
   id="path4085"
   d="M 657.869,468.791 C 657.271,469.26 656.549,469.493 655.702,469.493 L 648.182,469.493 C 647.327,469.493 646.613,469.264 646.04,468.804 C 645.427,468.326 645.118,467.74 645.118,467.039 L 645.118,461.17 C 645.118,460.487 645.427,459.904 646.04,459.419 C 646.638,458.949 647.36,458.716 648.206,458.716 L 655.738,458.716 C 656.527,458.716 657.195,458.934 657.743,459.369 C 658.315,459.806 658.684,460.492 658.85,461.428 L 657.319,461.428 C 657.212,460.978 657.008,460.66 656.71,460.479 C 656.452,460.324 656.124,460.246 655.726,460.246 L 648.206,460.246 C 647.759,460.246 647.376,460.349 647.061,460.555 C 646.787,460.727 646.649,460.933 646.649,461.171 L 646.649,467.04 C 646.649,467.287 646.787,467.501 647.061,467.682 L 647.047,467.67 C 647.355,467.875 647.733,467.979 648.181,467.979 L 655.701,467.979 C 656.091,467.979 656.44,467.897 656.747,467.732 C 657.112,467.559 657.295,467.325 657.295,467.03 L 657.295,464.871 L 651.206,464.871 L 651.206,463.354 L 658.813,463.354 L 658.813,467.041 C 658.814,467.723 658.499,468.306 657.869,468.791 z" />
		<path
   id="path4087"
   d="M 673.941,464.167 C 673.367,464.627 672.65,464.857 671.787,464.857 L 662.711,464.857 L 662.711,469.493 L 661.18,469.493 L 661.18,461.17 C 661.18,460.487 661.487,459.904 662.102,459.419 C 662.7,458.949 663.421,458.716 664.268,458.716 L 671.788,458.716 C 672.626,458.716 673.34,458.949 673.929,459.419 C 674.552,459.904 674.864,460.487 674.864,461.17 L 674.864,462.403 C 674.862,463.102 674.555,463.689 673.941,464.167 z M 673.344,461.17 C 673.344,460.94 673.202,460.733 672.92,460.554 C 672.605,460.348 672.227,460.245 671.787,460.245 L 664.255,460.245 C 663.873,460.245 663.528,460.323 663.221,460.478 C 662.881,460.635 662.711,460.865 662.711,461.169 L 662.711,463.34 L 671.787,463.34 C 672.226,463.34 672.604,463.24 672.92,463.044 C 673.202,462.862 673.344,462.649 673.344,462.402 L 673.344,461.17 z" />
		<path
   id="path4089"
   d="M 690.91,467.09 C 690.785,467.821 690.436,468.409 689.863,468.853 C 689.307,469.281 688.634,469.494 687.847,469.494 L 680.314,469.494 C 679.468,469.494 678.75,469.265 678.161,468.805 C 677.539,468.327 677.227,467.741 677.227,467.04 L 677.227,458.729 L 678.783,458.729 L 678.783,467.04 C 678.783,467.287 678.92,467.501 679.194,467.682 L 679.181,467.67 C 679.488,467.875 679.867,467.979 680.314,467.979 L 687.847,467.979 C 688.228,467.979 688.56,467.897 688.843,467.732 L 688.829,467.732 C 689.128,467.551 689.331,467.243 689.44,466.807 L 690.659,466.807 L 690.91,467.09 z" />
	</g><g
       id="g4091"
       transform="translate(13.369724,31.384113)"
       style="fill:url(#linearGradient4461);fill-opacity:1">
		<path
   style="fill:url(#linearGradient4461);fill-opacity:1"
   id="path4093"
   d="M 743.638,439.604 L 763.092,439.604 L 733.124,490.104 C 731.412,492.918 729.742,495.084 728.115,496.602 C 726.486,498.121 724.982,499.224 723.603,499.914 C 722.223,500.604 721.037,501.005 720.043,501.114 C 719.05,501.225 718.358,501.28 717.974,501.28 L 700.091,501.28 L 700.091,457.652 L 716.815,457.652 L 716.898,487.62 L 743.638,439.604 z" />
	</g><g
       id="g4125"
       transform="translate(13.369724,31.384113)">
		<path
   id="path4127"
   d="M 763.209,498.047 C 763.209,498.968 762.803,499.742 761.99,500.37 C 761.244,500.976 760.311,501.28 759.195,501.28 L 749.365,501.28 C 748.336,501.28 747.463,501.004 746.748,500.451 C 745.978,499.855 745.492,498.946 745.285,497.722 L 747.285,497.722 C 747.426,498.296 747.685,498.707 748.064,498.957 L 748.048,498.957 C 748.415,499.174 748.855,499.281 749.364,499.281 L 759.194,499.281 C 759.757,499.281 760.245,499.151 760.657,498.891 C 761.025,498.653 761.21,498.371 761.21,498.046 L 761.21,496.421 C 761.21,496.117 761.025,495.847 760.657,495.608 C 760.223,495.327 759.731,495.186 759.178,495.186 L 753.946,495.186 L 753.946,493.187 L 759.194,493.187 C 759.768,493.187 760.257,493.052 760.657,492.781 C 761.025,492.544 761.21,492.266 761.21,491.953 L 761.21,490.328 C 761.21,490.024 761.025,489.753 760.657,489.515 C 760.223,489.233 759.731,489.092 759.178,489.092 L 749.364,489.092 C 748.865,489.092 748.431,489.2 748.063,489.417 L 748.08,489.417 C 747.69,489.645 747.425,490.056 747.284,490.652 L 745.284,490.652 C 745.479,489.417 745.956,488.517 746.715,487.954 C 747.43,487.38 748.313,487.094 749.364,487.094 L 759.194,487.094 C 760.289,487.094 761.22,487.397 761.989,488.003 C 762.802,488.643 763.208,489.417 763.208,490.327 C 763.208,491.118 763.177,491.838 763.111,492.487 C 763.089,492.812 762.981,493.111 762.786,493.382 C 762.699,493.501 762.598,493.625 762.485,493.756 C 762.372,493.886 762.233,494.027 762.071,494.178 C 762.385,494.471 762.624,494.741 762.786,494.991 C 762.97,495.295 763.079,495.587 763.111,495.869 C 763.178,496.509 763.209,497.234 763.209,498.047 z" />
	</g><g
       id="g4129"
       transform="translate(13.369724,31.384113)">
		<path
   id="path4131"
   d="M 642.725,483.365 L 641.347,481.162 L 633.385,481.162 L 631.983,483.365 L 630.235,483.365 C 630.786,482.47 631.345,481.565 631.915,480.645 C 632.486,479.726 633.046,478.825 633.595,477.938 C 634.146,477.052 634.679,476.195 635.195,475.366 C 635.713,474.539 636.201,473.759 636.66,473.028 C 636.792,472.749 637.021,472.61 637.349,472.61 C 637.652,472.61 637.878,472.749 638.026,473.028 L 644.486,483.365 L 642.725,483.365 L 642.725,483.365 z M 634.332,479.636 L 640.374,479.636 L 637.605,475.195 C 637.515,475.048 637.433,474.973 637.359,474.973 C 637.277,474.973 637.195,475.047 637.113,475.195 L 634.332,479.636 z" />
		<path
   id="path4133"
   d="M 658.253,482.664 C 657.662,483.131 656.949,483.365 656.111,483.365 L 648.679,483.365 C 647.833,483.365 647.128,483.136 646.563,482.677 C 645.956,482.2 645.653,481.614 645.653,480.916 L 645.653,475.06 C 645.653,474.378 645.956,473.796 646.563,473.313 C 647.154,472.844 647.868,472.611 648.705,472.611 L 656.148,472.611 C 656.927,472.611 657.587,472.829 658.13,473.264 C 658.695,473.698 659.06,474.383 659.224,475.318 L 657.71,475.318 C 657.604,474.867 657.403,474.551 657.108,474.371 C 656.853,474.215 656.529,474.137 656.135,474.137 L 648.703,474.137 C 648.26,474.137 647.883,474.24 647.57,474.445 C 647.299,474.618 647.164,474.822 647.164,475.061 L 647.164,480.917 C 647.164,481.163 647.299,481.377 647.57,481.558 L 647.558,481.544 C 647.861,481.75 648.235,481.853 648.677,481.853 L 656.109,481.853 C 656.495,481.853 656.839,481.771 657.143,481.607 C 657.503,481.435 657.685,481.2 657.685,480.906 L 657.685,478.753 L 651.667,478.753 L 651.667,477.239 L 659.186,477.239 L 659.186,480.918 C 659.188,481.598 658.876,482.18 658.253,482.664 z" />
		<path
   id="path4135"
   d="M 674.139,478.049 C 673.573,478.509 672.864,478.738 672.01,478.738 L 663.039,478.738 L 663.039,483.365 L 661.525,483.365 L 661.525,475.059 C 661.525,474.377 661.829,473.795 662.436,473.312 C 663.027,472.843 663.741,472.61 664.577,472.61 L 672.01,472.61 C 672.838,472.61 673.543,472.843 674.127,473.312 C 674.741,473.795 675.049,474.377 675.049,475.059 L 675.049,476.288 C 675.049,476.987 674.746,477.573 674.139,478.049 z M 673.549,475.06 C 673.549,474.83 673.408,474.624 673.129,474.444 C 672.818,474.239 672.445,474.136 672.01,474.136 L 664.566,474.136 C 664.188,474.136 663.848,474.214 663.545,474.37 C 663.207,474.526 663.039,474.756 663.039,475.059 L 663.039,477.224 L 672.01,477.224 C 672.446,477.224 672.819,477.125 673.129,476.929 C 673.408,476.747 673.549,476.534 673.549,476.288 L 673.549,475.06 L 673.549,475.06 z" />
		<path
   id="path4137"
   d="M 690.91,480.965 C 690.786,481.696 690.441,482.281 689.876,482.726 C 689.326,483.152 688.662,483.366 687.883,483.366 L 680.438,483.366 C 679.602,483.366 678.892,483.137 678.311,482.678 C 677.695,482.201 677.387,481.615 677.387,480.917 L 677.387,472.623 L 678.924,472.623 L 678.924,480.917 C 678.924,481.163 679.061,481.377 679.331,481.558 L 679.318,481.544 C 679.621,481.75 679.996,481.853 680.437,481.853 L 687.882,481.853 C 688.259,481.853 688.587,481.771 688.866,481.607 L 688.854,481.607 C 689.149,481.426 689.35,481.118 689.456,480.684 L 690.663,480.684 L 690.91,480.965 z" />
	</g><g
       id="g4139"
       transform="translate(13.369724,31.384113)">
		<path
   id="path4141"
   d="M 642.567,494.663 C 642.451,495.349 642.129,495.897 641.597,496.313 C 641.081,496.713 640.458,496.913 639.728,496.913 L 632.746,496.913 C 631.962,496.913 631.297,496.698 630.75,496.267 C 630.174,495.822 629.885,495.271 629.885,494.618 L 629.885,486.841 L 631.327,486.841 L 631.327,494.618 C 631.327,494.849 631.454,495.049 631.708,495.219 L 631.696,495.206 C 631.98,495.398 632.331,495.495 632.746,495.495 L 639.728,495.495 C 640.082,495.495 640.39,495.418 640.652,495.265 L 640.639,495.265 C 640.916,495.096 641.105,494.807 641.205,494.4 L 642.335,494.4 L 642.567,494.663 z" />
		<path
   id="path4143"
   d="M 657.793,496.256 C 657.239,496.694 656.569,496.913 655.785,496.913 L 648.814,496.913 C 648.021,496.913 647.361,496.698 646.83,496.267 C 646.26,495.822 645.976,495.271 645.976,494.618 L 645.976,489.125 C 645.976,488.486 646.259,487.94 646.83,487.486 C 647.384,487.048 648.053,486.829 648.838,486.829 L 655.82,486.829 C 656.55,486.829 657.17,487.032 657.677,487.44 C 658.208,487.848 658.55,488.49 658.703,489.367 L 657.284,489.367 C 657.184,488.944 656.995,488.648 656.719,488.478 C 656.48,488.332 656.177,488.259 655.807,488.259 L 648.837,488.259 C 648.421,488.259 648.067,488.356 647.774,488.547 C 647.521,488.708 647.394,488.901 647.394,489.124 L 647.394,494.617 C 647.394,494.848 647.521,495.048 647.774,495.218 L 647.763,495.205 C 648.047,495.397 648.397,495.494 648.813,495.494 L 655.784,495.494 C 656.145,495.494 656.468,495.417 656.753,495.264 C 657.092,495.103 657.261,494.883 657.261,494.605 L 657.261,492.586 L 651.618,492.586 L 651.618,491.167 L 658.669,491.167 L 658.669,494.617 C 658.67,495.256 658.377,495.802 657.793,496.256 z" />
		<path
   id="path4145"
   d="M 673.941,491.929 C 673.411,492.36 672.744,492.575 671.944,492.575 L 663.532,492.575 L 663.532,496.914 L 662.113,496.914 L 662.113,489.125 C 662.113,488.486 662.396,487.94 662.967,487.486 C 663.522,487.048 664.19,486.829 664.975,486.829 L 671.945,486.829 C 672.722,486.829 673.383,487.048 673.93,487.486 C 674.507,487.94 674.795,488.486 674.795,489.125 L 674.795,490.279 C 674.795,490.932 674.512,491.482 673.941,491.929 z M 673.387,489.124 C 673.387,488.908 673.256,488.716 672.994,488.547 C 672.703,488.356 672.352,488.259 671.944,488.259 L 664.963,488.259 C 664.609,488.259 664.289,488.331 664.006,488.478 C 663.69,488.625 663.532,488.839 663.532,489.124 L 663.532,491.155 L 671.944,491.155 C 672.352,491.155 672.703,491.062 672.994,490.878 C 673.256,490.71 673.387,490.508 673.387,490.278 L 673.387,489.124 z" />
		<path
   id="path4147"
   d="M 690.91,494.663 C 690.794,495.349 690.471,495.897 689.939,496.313 C 689.424,496.713 688.8,496.913 688.07,496.913 L 681.089,496.913 C 680.305,496.913 679.639,496.698 679.093,496.267 C 678.516,495.822 678.228,495.271 678.228,494.618 L 678.228,486.841 L 679.67,486.841 L 679.67,494.618 C 679.67,494.849 679.797,495.049 680.051,495.219 L 680.039,495.206 C 680.323,495.398 680.674,495.495 681.089,495.495 L 688.07,495.495 C 688.424,495.495 688.732,495.418 688.994,495.265 L 688.982,495.265 C 689.259,495.096 689.447,494.807 689.548,494.4 L 690.678,494.4 L 690.91,494.663 z" />
	</g><g
       id="g4479"
       transform="translate(516.94238,316.29646)"><path
         id="path4481"
         d="M 240.71946,155.66132 L 218.34446,195.81757 C 224.31015,194.5829 230.60959,192.94653 236.81321,190.81757 L 257.68821,155.66132 L 240.71946,155.66132 z M 197.59446,173.72382 L 197.59446,198.91132 C 201.82035,198.4988 206.76846,197.88729 212.25071,196.94257 L 212.18821,173.72382 L 197.59446,173.72382 z"
         style="fill:url(#linearGradient4485);fill-opacity:1" /><path
         id="path4483"
         d="M 228.37571,204.91132 C 223.8493,207.89087 217.4158,209.78632 210.28196,209.78632 C 205.60859,209.78632 201.26498,208.95653 197.53196,207.56757 L 197.53196,215.28632 L 214.40696,215.28632 C 214.65785,215.28634 215.35148,215.20982 216.34446,215.09882 C 217.16845,215.00765 218.25613,214.65954 219.56321,214.00507 C 219.57363,214.00493 219.58404,214.00491 219.59446,214.00507 C 220.84816,213.37915 222.2628,212.3236 223.84446,210.84882 C 225.30204,209.48976 226.84734,207.5048 228.43821,204.94257 C 228.41691,204.93608 228.39706,204.91777 228.37571,204.91132 z"
         style="opacity:0.65116278;fill:#ffffff;fill-opacity:1;fill-rule:nonzero;stroke-width:1;stroke-linecap:butt;stroke-linejoin:miter;marker:none;marker-start:none;marker-mid:none;marker-end:none;stroke-miterlimit:4;stroke-dasharray:none;stroke-dashoffset:0;stroke-opacity:1;visibility:visible;display:inline;overflow:visible;filter:url(#filter3797);enable-background:accumulate" /></g></g></g></svg>