<?xml version="1.0" encoding="UTF-8" standalone="no"?>
<!-- Generator: Adobe Illustrator 14.0.0, SVG Export Plug-In . SVG Version: 6.00 Build 43363)  -->

<svg
   xmlns:dc="http://purl.org/dc/elements/1.1/"
   xmlns:cc="http://creativecommons.org/ns#"
   xmlns:rdf="http://www.w3.org/1999/02/22-rdf-syntax-ns#"
   xmlns:svg="http://www.w3.org/2000/svg"
   xmlns="http://www.w3.org/2000/svg"
   xmlns:xlink="http://www.w3.org/1999/xlink"
   xmlns:sodipodi="http://sodipodi.sourceforge.net/DTD/sodipodi-0.dtd"
   xmlns:inkscape="http://www.inkscape.org/namespaces/inkscape"
   version="1.1"
   id="Capa_1"
   x="0px"
   y="0px"
   width="841.89px"
   height="595.28px"
   viewBox="0 0 841.89 595.28"
   enable-background="new 0 0 841.89 595.28"
   xml:space="preserve"
   inkscape:version="0.48.2 r9819"
   sodipodi:docname="Licencias.svg"
   sodipodi:version="0.32"
   inkscape:output_extension="org.inkscape.output.svg.inkscape"><metadata
   id="metadata507"><rdf:RDF><cc:Work
       rdf:about=""><dc:format>image/svg+xml</dc:format><dc:type
         rdf:resource="http://purl.org/dc/dcmitype/StillImage" /><dc:title></dc:title><cc:license
         rdf:resource="http://creativecommons.org/licenses/by/3.0/" /></cc:Work><cc:License
       rdf:about="http://creativecommons.org/licenses/by/3.0/"><cc:permits
         rdf:resource="http://creativecommons.org/ns#Reproduction" /><cc:permits
         rdf:resource="http://creativecommons.org/ns#Distribution" /><cc:requires
         rdf:resource="http://creativecommons.org/ns#Notice" /><cc:requires
         rdf:resource="http://creativecommons.org/ns#Attribution" /><cc:permits
         rdf:resource="http://creativecommons.org/ns#DerivativeWorks" /></cc:License></rdf:RDF></metadata><defs
   id="defs505"><linearGradient
   id="linearGradient4471"><stop
     style="stop-color:#696a6b;stop-opacity:1;"
     offset="0"
     id="stop4473" /><stop
     style="stop-color:#9b9c9e;stop-opacity:1;"
     offset="1"
     id="stop4475" /></linearGradient><linearGradient
   id="linearGradient4455"><stop
     style="stop-color:#696a6b;stop-opacity:1;"
     offset="0"
     id="stop4457" /><stop
     style="stop-color:#9b9c9e;stop-opacity:1;"
     offset="1"
     id="stop4459" /></linearGradient><linearGradient
   id="linearGradient4260"><stop
     style="stop-color:#911d21;stop-opacity:1;"
     offset="0"
     id="stop4262" /><stop
     style="stop-color:#c4282d;stop-opacity:1;"
     offset="1"
     id="stop4264" /></linearGradient><linearGradient
   id="linearGradient4235"><stop
     style="stop-color:#592350;stop-opacity:1;"
     offset="0"
     id="stop4237" /><stop
     style="stop-color:#742e68;stop-opacity:1;"
     offset="1"
     id="stop4239" /></linearGradient><linearGradient
   id="linearGradient4197"><stop
     style="stop-color:#16813d;stop-opacity:1;"
     offset="0"
     id="stop4199" /><stop
     style="stop-color:#0d4f25;stop-opacity:1;"
     offset="1"
     id="stop4201" /></linearGradient><linearGradient
   id="linearGradient3598"><stop
     style="stop-color:#742e68;stop-opacity:1;"
     offset="0"
     id="stop3600" /><stop
     style="stop-color:#481c40;stop-opacity:1;"
     offset="1"
     id="stop3602" /></linearGradient><linearGradient
   inkscape:collect="always"
   id="linearGradient3584"><stop
     style="stop-color:#ffffff;stop-opacity:1;"
     offset="0"
     id="stop3586" /><stop
     style="stop-color:#ffffff;stop-opacity:0;"
     offset="1"
     id="stop3588" /></linearGradient><linearGradient
   inkscape:collect="always"
   id="linearGradient3542"><stop
     style="stop-color:#ffffff;stop-opacity:1;"
     offset="0"
     id="stop3544" /><stop
     style="stop-color:#ffffff;stop-opacity:0;"
     offset="1"
     id="stop3546" /></linearGradient><linearGradient
   id="linearGradient3536"><stop
     style="stop-color:#ffffff;stop-opacity:1"
     offset="0"
     id="stop3538" /><stop
     style="stop-color:#ffffff;stop-opacity:0"
     offset="1"
     id="stop3540" /></linearGradient><linearGradient
   id="linearGradient3530"><stop
     style="stop-color:#ffffff;stop-opacity:1"
     offset="0"
     id="stop3532" /><stop
     style="stop-color:#7f1a1d;stop-opacity:1;"
     offset="1"
     id="stop3534" /></linearGradient><linearGradient
   id="linearGradient3483"><stop
     id="stop3485"
     offset="0"
     style="stop-color:#c4282d;stop-opacity:1;" /><stop
     id="stop3487"
     offset="1"
     style="stop-color:#7f1a1d;stop-opacity:1;" /></linearGradient><linearGradient
   id="linearGradient3467"><stop
     style="stop-color:#000000;stop-opacity:1;"
     offset="0"
     id="stop3469" /><stop
     style="stop-color:#000000;stop-opacity:0;"
     offset="1"
     id="stop3471" /></linearGradient><inkscape:perspective
   sodipodi:type="inkscape:persp3d"
   inkscape:vp_x="0 : 297.64001 : 1"
   inkscape:vp_y="0 : 1000 : 0"
   inkscape:vp_z="841.89001 : 297.64001 : 1"
   inkscape:persp3d-origin="420.94501 : 198.42668 : 1"
   id="perspective509" />
	
	
	
	
<linearGradient
   inkscape:collect="always"
   xlink:href="#linearGradient3483"
   id="linearGradient3481"
   x1="193.67853"
   y1="227.42769"
   x2="192.737"
   y2="164.42589"
   gradientUnits="userSpaceOnUse" /><linearGradient
   inkscape:collect="always"
   xlink:href="#linearGradient3542"
   id="linearGradient3548"
   x1="223.70312"
   y1="167.78789"
   x2="223.70312"
   y2="224.78125"
   gradientUnits="userSpaceOnUse" />
		
		
	<linearGradient
   inkscape:collect="always"
   xlink:href="#linearGradient3584"
   id="linearGradient3590"
   x1="234.03793"
   y1="165.15395"
   x2="234.35178"
   y2="210.66147"
   gradientUnits="userSpaceOnUse" />
		
		
	<filter
   inkscape:collect="always"
   id="filter3797"
   x="-0.16028311"
   width="1.3205662"
   y="-0.47746988"
   height="1.9549398"><feGaussianBlur
     inkscape:collect="always"
     stdDeviation="2.0640625"
     id="feGaussianBlur3799" /></filter><linearGradient
   inkscape:collect="always"
   xlink:href="#linearGradient3483"
   id="linearGradient3947"
   gradientUnits="userSpaceOnUse"
   x1="193.67853"
   y1="227.42769"
   x2="192.737"
   y2="164.42589" />
	
	
	
	

		
	
		
		
		
	
		
		
		
		
		
		
		
		
		
		
		
		
	
		
	
	
	
	
	

		
	
		
		
	
		
	
		
		
		
		
	<linearGradient
   inkscape:collect="always"
   xlink:href="#linearGradient3598"
   id="linearGradient3620"
   x1="473.95499"
   y1="225.58197"
   x2="473.95499"
   y2="164.577"
   gradientUnits="userSpaceOnUse" /><linearGradient
   inkscape:collect="always"
   xlink:href="#linearGradient3483"
   id="linearGradient3883"
   gradientUnits="userSpaceOnUse"
   gradientTransform="translate(2.7507074,-101.77618)"
   x1="138.40564"
   y1="330.10239"
   x2="138.40564"
   y2="319.71936" /><linearGradient
   inkscape:collect="always"
   xlink:href="#linearGradient3598"
   id="linearGradient3891"
   gradientUnits="userSpaceOnUse"
   x1="473.95499"
   y1="225.58197"
   x2="473.95499"
   y2="164.577" /><linearGradient
   inkscape:collect="always"
   xlink:href="#linearGradient3598"
   id="linearGradient4005"
   gradientUnits="userSpaceOnUse"
   x1="473.95499"
   y1="225.58197"
   x2="473.95499"
   y2="164.577" /><linearGradient
   inkscape:collect="always"
   xlink:href="#linearGradient3598"
   id="linearGradient2938"
   gradientUnits="userSpaceOnUse"
   gradientTransform="translate(16.564834,16.038773)"
   x1="365.68323"
   y1="228.72025"
   x2="365.68323"
   y2="216.25424" />
	
	
	
	
	
	
	
	
	
<filter
   inkscape:collect="always"
   id="filter4193"
   x="-0.085987615"
   width="1.1719752"
   y="-0.10865135"
   height="1.2173027"><feGaussianBlur
     inkscape:collect="always"
     stdDeviation="0.64222"
     id="feGaussianBlur4195" /></filter>
	
	
	
	
<linearGradient
   inkscape:collect="always"
   xlink:href="#linearGradient4235"
   id="linearGradient4241"
   x1="591.16644"
   y1="296.15051"
   x2="591.16644"
   y2="355.90622"
   gradientUnits="userSpaceOnUse" /><linearGradient
   inkscape:collect="always"
   xlink:href="#linearGradient3584"
   id="linearGradient4274"
   gradientUnits="userSpaceOnUse"
   gradientTransform="translate(3.7826799,-9.9750279)"
   x1="234.03793"
   y1="165.15395"
   x2="233.72409"
   y2="209.09224" />
	
	
	
	
	
	
<linearGradient
   inkscape:collect="always"
   xlink:href="#linearGradient4471"
   id="linearGradient4477"
   x1="664.09625"
   y1="501.10046"
   x2="664.09625"
   y2="510.29501"
   gradientUnits="userSpaceOnUse" /><linearGradient
   inkscape:collect="always"
   xlink:href="#linearGradient4471"
   id="linearGradient4513"
   gradientUnits="userSpaceOnUse"
   x1="664.09625"
   y1="501.10046"
   x2="664.09625"
   y2="510.29501" />
		
		
	</defs><sodipodi:namedview
   pagecolor="#ffffff"
   bordercolor="#666666"
   borderopacity="1"
   objecttolerance="10"
   gridtolerance="10"
   guidetolerance="10"
   inkscape:pageopacity="0"
   inkscape:pageshadow="2"
   inkscape:window-width="1280"
   inkscape:window-height="746"
   id="namedview503"
   showgrid="false"
   inkscape:zoom="0.90545621"
   inkscape:cx="420.94501"
   inkscape:cy="443.33958"
   inkscape:window-x="0"
   inkscape:window-y="0"
   inkscape:window-maximized="1"
   inkscape:current-layer="Capa_1"
   showguides="true"
   inkscape:guide-bbox="true" />

















<g
   id="g4724"><g
     style="fill:#999999;filter:url(#filter4193)"
     transform="translate(-145.80599,76.992515)"
     id="g4414">
		<path
   style="fill:#999999"
   d="M 764.117,354.047 C 764.117,354.968 763.711,355.742 762.898,356.37 C 762.152,356.976 761.219,357.28 760.103,357.28 L 750.273,357.28 C 749.244,357.28 748.371,357.004 747.656,356.451 C 746.886,355.855 746.4,354.946 746.193,353.722 L 748.193,353.722 C 748.334,354.296 748.593,354.707 748.972,354.957 L 748.956,354.957 C 749.323,355.174 749.763,355.281 750.272,355.281 L 760.102,355.281 C 760.665,355.281 761.153,355.151 761.565,354.891 C 761.933,354.653 762.118,354.371 762.118,354.046 L 762.118,352.421 C 762.118,352.117 761.933,351.847 761.565,351.608 C 761.131,351.327 760.639,351.186 760.086,351.186 L 754.854,351.186 L 754.854,349.187 L 760.102,349.187 C 760.676,349.187 761.165,349.052 761.565,348.781 C 761.933,348.544 762.118,348.266 762.118,347.953 L 762.118,346.328 C 762.118,346.024 761.933,345.753 761.565,345.515 C 761.131,345.233 760.639,345.092 760.086,345.092 L 750.272,345.092 C 749.773,345.092 749.339,345.2 748.971,345.417 L 748.988,345.417 C 748.598,345.645 748.333,346.056 748.192,346.652 L 746.192,346.652 C 746.387,345.417 746.864,344.517 747.623,343.954 C 748.338,343.38 749.221,343.094 750.272,343.094 L 760.102,343.094 C 761.197,343.094 762.128,343.397 762.897,344.003 C 763.71,344.643 764.116,345.417 764.116,346.327 C 764.116,347.118 764.085,347.838 764.019,348.487 C 763.997,348.812 763.889,349.111 763.694,349.382 C 763.607,349.501 763.506,349.625 763.393,349.756 C 763.28,349.886 763.141,350.027 762.979,350.178 C 763.293,350.471 763.532,350.741 763.694,350.991 C 763.878,351.295 763.987,351.587 764.019,351.869 C 764.086,352.509 764.117,353.234 764.117,354.047 z"
   id="path4416" />
	</g><g
     style="fill:url(#linearGradient4241);fill-opacity:1"
     transform="translate(-3.1604977,75.78032)"
     id="g4187">
		<path
   d="M 600.663,295.604 L 620.117,295.604 L 590.149,346.104 C 588.437,348.918 586.767,351.084 585.14,352.602 C 583.511,354.121 582.007,355.224 580.628,355.914 C 579.248,356.604 578.062,357.005 577.068,357.114 C 576.075,357.225 575.383,357.28 574.999,357.28 L 557.116,357.28 L 557.116,313.652 L 573.84,313.652 L 573.923,343.62 L 600.663,295.604 z"
   id="path4189"
   style="fill:url(#linearGradient4241);fill-opacity:1" />
	</g><g
     transform="translate(-3.1604977,75.78032)"
     id="g4191">
		<path
   d="M 563.385,362.856 C 563.412,362.667 563.379,362.536 563.285,362.464 L 563.29,362.464 C 563.203,362.399 563.078,362.366 562.914,362.366 L 559.805,362.366 C 559.619,362.366 559.447,362.407 559.288,362.494 C 559.148,362.565 559.06,362.652 559.024,362.751 L 558.695,363.658 L 560.989,363.658 L 560.758,364.294 L 558.463,364.294 L 557.758,366.232 L 557.117,366.232 L 558.385,362.751 C 558.489,362.468 558.705,362.223 559.033,362.02 C 559.351,361.825 559.687,361.726 560.037,361.726 L 563.146,361.726 C 563.476,361.726 563.72,361.819 563.882,361.998 C 564.059,362.181 564.109,362.468 564.029,362.855 L 563.385,362.855 L 563.385,362.856 z"
   id="path4193"
   style="fill:#742e68" />
		<path
   d="M 567.976,364.073 C 567.989,363.893 567.934,363.771 567.815,363.707 C 567.77,363.68 567.719,363.659 567.663,363.648 C 567.606,363.639 567.547,363.633 567.485,363.633 L 565.984,363.633 C 565.833,363.633 565.683,363.663 565.534,363.722 C 565.363,363.786 565.261,363.869 565.223,363.968 L 564.399,366.233 L 563.759,366.233 L 564.936,362.999 L 565.577,362.999 L 565.528,363.134 C 565.654,363.086 565.772,363.052 565.882,363.031 C 565.991,363.01 566.101,362.999 566.21,362.999 L 567.716,362.999 C 568.002,362.999 568.235,363.072 568.416,363.216 C 568.634,363.393 568.698,363.677 568.61,364.073 L 567.976,364.073 z"
   id="path4195"
   style="fill:#742e68" />
		<path
   d="M 573.667,363.959 C 573.559,364.259 573.32,364.504 572.955,364.696 C 572.654,364.855 572.348,364.932 572.039,364.932 L 570.537,364.932 C 570.437,364.932 570.346,364.923 570.258,364.907 C 570.172,364.89 570.067,364.858 569.944,364.809 L 569.787,365.242 L 569.783,365.252 C 569.761,365.343 569.813,365.423 569.942,365.495 C 569.997,365.534 570.055,365.559 570.114,365.576 C 570.175,365.592 570.235,365.598 570.296,365.598 L 571.798,365.598 C 571.859,365.598 571.923,365.592 571.986,365.583 C 572.05,365.572 572.115,365.553 572.179,365.526 C 572.347,365.46 572.49,365.338 572.607,365.159 L 573.241,365.159 C 573.044,365.552 572.773,365.835 572.427,366.011 C 572.143,366.158 571.857,366.233 571.568,366.233 L 570.067,366.233 C 569.778,366.233 569.536,366.157 569.34,366.006 C 569.096,365.816 569.029,365.567 569.143,365.258 L 569.614,363.964 C 569.726,363.657 569.958,363.413 570.309,363.231 C 570.605,363.077 570.916,362.999 571.245,362.999 L 572.745,362.999 C 573.061,362.999 573.313,363.073 573.501,363.222 C 573.723,363.404 573.779,363.648 573.667,363.959 z M 573.023,363.969 C 573.053,363.887 573.023,363.816 572.931,363.753 C 572.833,363.674 572.691,363.634 572.505,363.634 L 571.009,363.634 C 570.879,363.634 570.732,363.664 570.566,363.723 C 570.392,363.784 570.288,363.865 570.252,363.965 C 570.217,364.062 570.261,364.142 570.385,364.206 C 570.496,364.269 570.625,364.3 570.768,364.3 L 572.27,364.3 C 572.448,364.3 572.617,364.262 572.775,364.186 C 572.91,364.124 572.993,364.052 573.023,363.969 z"
   id="path4197"
   style="fill:#742e68" />
		<path
   d="M 578.699,363.959 C 578.591,364.259 578.353,364.504 577.988,364.696 C 577.686,364.855 577.381,364.932 577.072,364.932 L 575.57,364.932 C 575.47,364.932 575.379,364.923 575.291,364.907 C 575.205,364.89 575.1,364.858 574.977,364.809 L 574.82,365.242 L 574.816,365.252 C 574.794,365.343 574.846,365.423 574.975,365.495 C 575.03,365.534 575.088,365.559 575.147,365.576 C 575.208,365.592 575.268,365.598 575.329,365.598 L 576.831,365.598 C 576.892,365.598 576.955,365.592 577.019,365.583 C 577.083,365.572 577.148,365.553 577.213,365.526 C 577.38,365.46 577.523,365.338 577.64,365.159 L 578.273,365.159 C 578.077,365.552 577.806,365.835 577.46,366.011 C 577.176,366.158 576.891,366.233 576.602,366.233 L 575.1,366.233 C 574.812,366.233 574.57,366.157 574.373,366.006 C 574.129,365.816 574.063,365.567 574.176,365.258 L 574.647,363.964 C 574.758,363.657 574.991,363.413 575.342,363.231 C 575.639,363.077 575.949,362.999 576.277,362.999 L 577.778,362.999 C 578.094,362.999 578.346,363.073 578.533,363.222 C 578.756,363.404 578.813,363.648 578.699,363.959 z M 578.057,363.969 C 578.086,363.887 578.056,363.816 577.965,363.753 C 577.867,363.674 577.725,363.634 577.539,363.634 L 576.044,363.634 C 575.913,363.634 575.765,363.664 575.6,363.723 C 575.426,363.784 575.322,363.865 575.286,363.965 C 575.251,364.062 575.295,364.142 575.419,364.206 C 575.53,364.269 575.659,364.3 575.803,364.3 L 577.304,364.3 C 577.482,364.3 577.65,364.262 577.809,364.186 C 577.943,364.124 578.026,364.052 578.057,363.969 z"
   id="path4199"
   style="fill:#742e68" />
		<path
   d="M 588.366,365.943 C 588.06,366.136 587.729,366.233 587.375,366.233 L 584.256,366.233 C 583.929,366.233 583.684,366.145 583.522,365.97 C 583.346,365.781 583.297,365.491 583.374,365.103 L 584.008,365.103 C 583.986,365.286 584.021,365.416 584.112,365.495 L 584.106,365.495 C 584.199,365.563 584.326,365.599 584.487,365.599 L 587.607,365.599 C 587.789,365.599 587.96,365.556 588.117,365.471 C 588.263,365.396 588.352,365.307 588.389,365.207 L 588.577,364.691 C 588.612,364.59 588.586,364.503 588.497,364.428 C 588.401,364.342 588.261,364.299 588.075,364.299 L 584.96,364.299 C 584.61,364.299 584.347,364.202 584.174,364.009 C 583.989,363.81 583.948,363.563 584.057,363.268 L 584.245,362.751 C 584.349,362.468 584.565,362.223 584.893,362.02 C 585.211,361.825 585.545,361.726 585.896,361.726 L 589.016,361.726 C 589.343,361.726 589.586,361.819 589.746,361.998 C 589.924,362.181 589.974,362.468 589.894,362.855 L 589.259,362.855 C 589.28,362.672 589.245,362.541 589.154,362.463 L 589.159,362.463 C 589.074,362.398 588.947,362.365 588.783,362.365 L 585.663,362.365 C 585.477,362.365 585.303,362.406 585.142,362.493 C 585.001,362.564 584.913,362.651 584.878,362.75 L 584.69,363.267 C 584.652,363.371 584.676,363.459 584.762,363.535 C 584.858,363.621 585.001,363.664 585.19,363.664 L 588.31,363.664 C 588.664,363.664 588.925,363.761 589.091,363.953 C 589.275,364.157 589.315,364.401 589.209,364.69 L 589.021,365.206 C 588.916,365.498 588.697,365.746 588.366,365.943 z"
   id="path4201"
   style="fill:#742e68" />
		<path
   d="M 593.324,365.997 C 593.026,366.154 592.72,366.233 592.408,366.233 L 590.906,366.233 C 590.6,366.233 590.352,366.155 590.162,366.002 C 589.931,365.812 589.871,365.564 589.982,365.259 L 590.453,363.965 C 590.562,363.665 590.8,363.42 591.166,363.227 C 591.467,363.069 591.775,362.99 592.087,362.99 L 593.588,362.99 C 593.883,362.99 594.127,363.064 594.317,363.213 C 594.557,363.405 594.622,363.653 594.509,363.96 L 594.036,365.26 C 593.928,365.558 593.69,365.804 593.324,365.997 z M 593.869,363.959 C 593.904,363.862 593.859,363.782 593.736,363.717 C 593.631,363.658 593.504,363.63 593.355,363.63 L 591.854,363.63 C 591.703,363.63 591.555,363.656 591.412,363.712 C 591.236,363.78 591.131,363.862 591.096,363.959 L 590.621,365.264 C 590.586,365.361 590.63,365.441 590.754,365.506 C 590.865,365.568 590.992,365.599 591.133,365.599 L 592.639,365.599 C 592.707,365.599 592.778,365.592 592.853,365.578 C 592.926,365.563 593.002,365.543 593.078,365.512 C 593.255,365.443 593.36,365.359 593.397,365.259 L 593.869,363.959 z"
   id="path4203"
   style="fill:#742e68" />
		<path
   d="M 596.246,363.634 L 595.301,366.234 L 594.66,366.234 L 595.947,362.697 C 596.058,362.395 596.265,362.151 596.569,361.969 C 596.837,361.811 597.171,361.732 597.572,361.732 L 597.345,362.357 C 597.093,362.395 596.911,362.442 596.796,362.5 C 596.683,362.56 596.613,362.625 596.587,362.697 L 596.476,363 L 597.116,363 L 596.885,363.635 L 596.246,363.635 L 596.246,363.634 z"
   id="path4205"
   style="fill:#742e68" />
		<path
   d="M 599.145,363.634 L 598.198,366.234 L 597.554,366.234 L 598.5,363.634 L 597.865,363.634 L 598.095,362.999 L 598.73,362.999 L 599.193,361.727 L 599.838,361.727 L 599.375,362.999 L 600.015,362.999 L 599.784,363.634 L 599.145,363.634 z"
   id="path4207"
   style="fill:#742e68" />
		<path
   d="M 604.027,365.985 C 603.756,366.146 603.449,366.228 603.109,366.228 C 602.923,366.228 602.75,366.202 602.59,366.15 C 602.429,366.098 602.294,366.017 602.183,365.908 C 601.99,366.014 601.79,366.096 601.587,366.15 C 601.383,366.206 601.189,366.233 601.003,366.233 C 600.675,366.233 600.431,366.154 600.269,365.997 C 600.089,365.816 600.057,365.571 600.171,365.259 L 600.993,362.999 L 601.632,362.999 L 600.809,365.264 C 600.775,365.361 600.803,365.439 600.898,365.501 C 601.002,365.566 601.146,365.599 601.332,365.599 C 601.521,365.599 601.687,365.567 601.832,365.501 C 601.973,365.442 602.062,365.361 602.1,365.259 L 602.608,363.866 L 603.247,363.866 L 602.739,365.263 C 602.702,365.363 602.733,365.44 602.83,365.494 C 602.934,365.559 603.073,365.592 603.253,365.592 C 603.445,365.592 603.614,365.56 603.758,365.494 C 603.901,365.436 603.987,365.359 604.023,365.263 L 604.847,362.998 L 605.492,362.998 L 604.67,365.258 C 604.559,365.561 604.344,365.804 604.027,365.985 z"
   id="path4209"
   style="fill:#742e68" />
		<path
   d="M 608.844,366.002 C 608.543,366.155 608.233,366.233 607.914,366.233 L 606.412,366.233 C 606.09,366.233 605.834,366.157 605.65,366.006 C 605.425,365.825 605.37,365.581 605.484,365.268 C 605.594,364.965 605.831,364.721 606.195,364.536 C 606.496,364.378 606.803,364.3 607.116,364.3 L 608.617,364.3 C 608.713,364.3 608.805,364.309 608.89,364.325 C 608.978,364.343 609.081,364.376 609.204,364.424 L 609.364,363.985 C 609.385,363.892 609.333,363.81 609.212,363.739 C 609.103,363.67 608.985,363.635 608.858,363.635 L 607.357,363.635 C 607.292,363.635 607.227,363.641 607.164,363.65 C 607.101,363.661 607.035,363.681 606.97,363.709 C 606.803,363.773 606.659,363.896 606.544,364.075 L 605.909,364.075 C 606.11,363.682 606.38,363.399 606.72,363.223 C 607.003,363.075 607.291,363 607.583,363 L 609.089,363 C 609.384,363 609.628,363.074 609.818,363.223 C 610.06,363.409 610.125,363.658 610.009,363.97 L 609.539,365.265 C 609.428,365.57 609.195,365.815 608.844,366.002 z M 608.898,365.269 C 608.932,365.173 608.888,365.092 608.764,365.027 C 608.652,364.965 608.527,364.933 608.386,364.933 L 606.884,364.933 C 606.71,364.933 606.54,364.972 606.374,365.047 C 606.238,365.109 606.155,365.182 606.125,365.264 C 606.094,365.349 606.122,365.423 606.209,365.486 C 606.313,365.561 606.455,365.599 606.638,365.599 L 608.144,365.599 C 608.291,365.599 608.437,365.572 608.581,365.517 C 608.758,365.448 608.863,365.365 608.898,365.269 z"
   id="path4211"
   style="fill:#742e68" />
		<path
   d="M 614.382,364.073 C 614.395,363.893 614.341,363.771 614.221,363.707 C 614.176,363.68 614.125,363.659 614.069,363.648 C 614.012,363.639 613.954,363.633 613.892,363.633 L 612.391,363.633 C 612.241,363.633 612.089,363.663 611.942,363.722 C 611.77,363.786 611.667,363.869 611.629,363.968 L 610.807,366.233 L 610.166,366.233 L 611.342,362.999 L 611.983,362.999 L 611.934,363.134 C 612.061,363.086 612.18,363.052 612.288,363.031 C 612.396,363.01 612.506,362.999 612.617,362.999 L 614.122,362.999 C 614.408,362.999 614.641,363.072 614.822,363.216 C 615.041,363.393 615.103,363.677 615.015,364.073 L 614.382,364.073 z"
   id="path4213"
   style="fill:#742e68" />
		<path
   d="M 620.074,363.959 C 619.965,364.259 619.728,364.504 619.361,364.696 C 619.06,364.855 618.754,364.932 618.445,364.932 L 616.945,364.932 C 616.844,364.932 616.752,364.923 616.666,364.907 C 616.579,364.89 616.474,364.858 616.351,364.809 L 616.194,365.242 L 616.19,365.252 C 616.168,365.343 616.221,365.423 616.348,365.495 C 616.404,365.534 616.461,365.559 616.521,365.576 C 616.581,365.592 616.641,365.598 616.704,365.598 L 618.204,365.598 C 618.267,365.598 618.329,365.592 618.392,365.583 C 618.456,365.572 618.521,365.553 618.586,365.526 C 618.754,365.46 618.897,365.338 619.013,365.159 L 619.647,365.159 C 619.449,365.552 619.178,365.835 618.833,366.011 C 618.549,366.158 618.263,366.233 617.974,366.233 L 616.473,366.233 C 616.185,366.233 615.943,366.157 615.746,366.006 C 615.501,365.816 615.436,365.567 615.548,365.258 L 616.02,363.964 C 616.131,363.657 616.363,363.413 616.714,363.231 C 617.011,363.077 617.323,362.999 617.65,362.999 L 619.152,362.999 C 619.466,362.999 619.718,363.073 619.906,363.222 C 620.13,363.404 620.187,363.648 620.074,363.959 z M 619.43,363.969 C 619.461,363.887 619.43,363.816 619.339,363.753 C 619.24,363.674 619.099,363.634 618.913,363.634 L 617.418,363.634 C 617.287,363.634 617.139,363.664 616.973,363.723 C 616.799,363.784 616.696,363.865 616.659,363.965 C 616.624,364.062 616.669,364.142 616.792,364.206 C 616.904,364.269 617.032,364.3 617.177,364.3 L 618.677,364.3 C 618.856,364.3 619.025,364.262 619.183,364.186 C 619.318,364.124 619.4,364.052 619.43,363.969 z"
   id="path4215"
   style="fill:#742e68" />
	</g><g
     transform="translate(-3.1604977,75.78032)"
     id="g4217">
		<path
   d="M 620.117,354.047 C 620.117,354.968 619.711,355.742 618.898,356.37 C 618.152,356.976 617.219,357.28 616.103,357.28 L 606.273,357.28 C 605.244,357.28 604.371,357.004 603.656,356.451 C 602.886,355.855 602.4,354.946 602.193,353.722 L 604.193,353.722 C 604.334,354.296 604.593,354.707 604.972,354.957 L 604.956,354.957 C 605.323,355.174 605.763,355.281 606.272,355.281 L 616.102,355.281 C 616.665,355.281 617.153,355.151 617.565,354.891 C 617.933,354.653 618.118,354.371 618.118,354.046 L 618.118,352.421 C 618.118,352.117 617.933,351.847 617.565,351.608 C 617.131,351.327 616.639,351.186 616.086,351.186 L 610.854,351.186 L 610.854,349.187 L 616.102,349.187 C 616.676,349.187 617.165,349.052 617.565,348.781 C 617.933,348.544 618.118,348.266 618.118,347.953 L 618.118,346.328 C 618.118,346.024 617.933,345.753 617.565,345.515 C 617.131,345.233 616.639,345.092 616.086,345.092 L 606.272,345.092 C 605.773,345.092 605.339,345.2 604.971,345.417 L 604.988,345.417 C 604.598,345.645 604.333,346.056 604.192,346.652 L 602.192,346.652 C 602.387,345.417 602.864,344.517 603.623,343.954 C 604.338,343.38 605.221,343.094 606.272,343.094 L 616.102,343.094 C 617.197,343.094 618.128,343.397 618.897,344.003 C 619.71,344.643 620.116,345.417 620.116,346.327 C 620.116,347.118 620.085,347.838 620.019,348.487 C 619.997,348.812 619.889,349.111 619.694,349.382 C 619.607,349.501 619.506,349.625 619.393,349.756 C 619.28,349.886 619.141,350.027 618.979,350.178 C 619.293,350.471 619.532,350.741 619.694,350.991 C 619.878,351.295 619.987,351.587 620.019,351.869 C 620.086,352.509 620.117,353.234 620.117,354.047 z"
   id="path4219" />
	</g><g
     style="fill:#000000"
     transform="translate(-2.4605967,76.340241)"
     id="g4276">
		<path
   d="M 568.647,345.965 L 567.267,346.828 L 567.267,351.814 L 568.647,352.693 L 568.647,353.788 C 568.087,353.443 567.519,353.093 566.943,352.735 C 566.369,352.379 565.802,352.028 565.248,351.683 C 564.693,351.339 564.156,351.004 563.638,350.681 C 563.12,350.358 562.631,350.052 562.174,349.764 C 561.998,349.682 561.911,349.537 561.911,349.332 C 561.911,349.143 561.998,349.001 562.174,348.908 L 568.648,344.862 L 568.648,345.965 L 568.647,345.965 z M 566.313,351.222 L 566.313,347.437 L 563.53,349.171 C 563.438,349.228 563.391,349.279 563.391,349.325 C 563.391,349.377 563.438,349.428 563.53,349.479 L 566.313,351.222 z"
   id="path4278"
   style="fill:#000000" />
		<path
   d="M 568.208,336.238 C 568.501,336.608 568.647,337.055 568.647,337.58 L 568.647,342.234 C 568.647,342.763 568.503,343.206 568.215,343.56 C 567.917,343.94 567.55,344.13 567.112,344.13 L 563.444,344.13 C 563.017,344.13 562.653,343.94 562.349,343.56 C 562.056,343.19 561.91,342.743 561.91,342.219 L 561.91,337.556 C 561.91,337.068 562.046,336.654 562.319,336.315 C 562.59,335.961 563.02,335.732 563.606,335.629 L 563.606,336.577 C 563.323,336.643 563.126,336.769 563.012,336.954 C 562.914,337.113 562.866,337.316 562.866,337.563 L 562.866,342.218 C 562.866,342.495 562.93,342.732 563.058,342.927 C 563.166,343.096 563.294,343.181 563.444,343.181 L 567.112,343.181 C 567.266,343.181 567.4,343.096 567.512,342.927 L 567.505,342.935 C 567.633,342.745 567.697,342.51 567.697,342.233 L 567.697,337.579 C 567.697,337.337 567.646,337.121 567.543,336.932 C 567.436,336.705 567.289,336.592 567.104,336.592 L 565.755,336.592 L 565.755,340.362 L 564.807,340.362 L 564.807,335.652 L 567.112,335.652 C 567.54,335.652 567.904,335.848 568.208,336.238 z"
   id="path4280"
   style="fill:#000000" />
		<path
   d="M 565.318,326.288 C 565.605,326.642 565.75,327.088 565.75,327.622 L 565.75,333.24 L 568.647,333.24 L 568.647,334.188 L 563.445,334.188 C 563.018,334.188 562.654,333.998 562.35,333.618 C 562.057,333.248 561.911,332.801 561.911,332.277 L 561.911,327.622 C 561.911,327.103 562.057,326.661 562.35,326.296 C 562.654,325.911 563.018,325.718 563.445,325.718 L 564.215,325.718 C 564.652,325.718 565.02,325.908 565.318,326.288 z M 563.445,326.658 C 563.3,326.658 563.173,326.746 563.059,326.921 C 562.931,327.116 562.867,327.35 562.867,327.622 L 562.867,332.284 C 562.867,332.521 562.916,332.734 563.013,332.924 C 563.111,333.135 563.254,333.24 563.445,333.24 L 564.8,333.24 L 564.8,327.622 C 564.8,327.35 564.739,327.116 564.615,326.921 C 564.503,326.746 564.368,326.658 564.214,326.658 L 563.445,326.658 L 563.445,326.658 z"
   id="path4282"
   style="fill:#000000" />
		<path
   d="M 567.145,315.783 C 567.602,315.861 567.969,316.076 568.247,316.431 C 568.515,316.775 568.648,317.191 568.648,317.679 L 568.648,322.342 C 568.648,322.865 568.504,323.311 568.216,323.675 C 567.918,324.061 567.551,324.253 567.113,324.253 L 561.919,324.253 L 561.919,323.29 L 567.113,323.29 C 567.267,323.29 567.401,323.205 567.513,323.035 L 567.506,323.043 C 567.634,322.853 567.698,322.619 567.698,322.342 L 567.698,317.679 C 567.698,317.443 567.647,317.238 567.544,317.063 L 567.544,317.07 C 567.431,316.885 567.238,316.759 566.966,316.693 L 566.966,315.937 L 567.145,315.783 z"
   id="path4284"
   style="fill:#000000" />
	</g><g
     transform="translate(-3.1604977,75.78032)"
     id="g4221">
		<path
   d="M 568.647,345.965 L 567.267,346.828 L 567.267,351.814 L 568.647,352.693 L 568.647,353.788 C 568.087,353.443 567.519,353.093 566.943,352.735 C 566.369,352.379 565.802,352.028 565.248,351.683 C 564.693,351.339 564.156,351.004 563.638,350.681 C 563.12,350.358 562.631,350.052 562.174,349.764 C 561.998,349.682 561.911,349.537 561.911,349.332 C 561.911,349.143 561.998,349.001 562.174,348.908 L 568.648,344.862 L 568.648,345.965 L 568.647,345.965 z M 566.313,351.222 L 566.313,347.437 L 563.53,349.171 C 563.438,349.228 563.391,349.279 563.391,349.325 C 563.391,349.377 563.438,349.428 563.53,349.479 L 566.313,351.222 z"
   id="path4223"
   style="fill:#ffffff" />
		<path
   d="M 568.208,336.238 C 568.501,336.608 568.647,337.055 568.647,337.58 L 568.647,342.234 C 568.647,342.763 568.503,343.206 568.215,343.56 C 567.917,343.94 567.55,344.13 567.112,344.13 L 563.444,344.13 C 563.017,344.13 562.653,343.94 562.349,343.56 C 562.056,343.19 561.91,342.743 561.91,342.219 L 561.91,337.556 C 561.91,337.068 562.046,336.654 562.319,336.315 C 562.59,335.961 563.02,335.732 563.606,335.629 L 563.606,336.577 C 563.323,336.643 563.126,336.769 563.012,336.954 C 562.914,337.113 562.866,337.316 562.866,337.563 L 562.866,342.218 C 562.866,342.495 562.93,342.732 563.058,342.927 C 563.166,343.096 563.294,343.181 563.444,343.181 L 567.112,343.181 C 567.266,343.181 567.4,343.096 567.512,342.927 L 567.505,342.935 C 567.633,342.745 567.697,342.51 567.697,342.233 L 567.697,337.579 C 567.697,337.337 567.646,337.121 567.543,336.932 C 567.436,336.705 567.289,336.592 567.104,336.592 L 565.755,336.592 L 565.755,340.362 L 564.807,340.362 L 564.807,335.652 L 567.112,335.652 C 567.54,335.652 567.904,335.848 568.208,336.238 z"
   id="path4225"
   style="fill:#ffffff" />
		<path
   d="M 565.318,326.288 C 565.605,326.642 565.75,327.088 565.75,327.622 L 565.75,333.24 L 568.647,333.24 L 568.647,334.188 L 563.445,334.188 C 563.018,334.188 562.654,333.998 562.35,333.618 C 562.057,333.248 561.911,332.801 561.911,332.277 L 561.911,327.622 C 561.911,327.103 562.057,326.661 562.35,326.296 C 562.654,325.911 563.018,325.718 563.445,325.718 L 564.215,325.718 C 564.652,325.718 565.02,325.908 565.318,326.288 z M 563.445,326.658 C 563.3,326.658 563.173,326.746 563.059,326.921 C 562.931,327.116 562.867,327.35 562.867,327.622 L 562.867,332.284 C 562.867,332.521 562.916,332.734 563.013,332.924 C 563.111,333.135 563.254,333.24 563.445,333.24 L 564.8,333.24 L 564.8,327.622 C 564.8,327.35 564.739,327.116 564.615,326.921 C 564.503,326.746 564.368,326.658 564.214,326.658 L 563.445,326.658 L 563.445,326.658 z"
   id="path4227"
   style="fill:#ffffff" />
		<path
   d="M 567.145,315.783 C 567.602,315.861 567.969,316.076 568.247,316.431 C 568.515,316.775 568.648,317.191 568.648,317.679 L 568.648,322.342 C 568.648,322.865 568.504,323.311 568.216,323.675 C 567.918,324.061 567.551,324.253 567.113,324.253 L 561.919,324.253 L 561.919,323.29 L 567.113,323.29 C 567.267,323.29 567.401,323.205 567.513,323.035 L 567.506,323.043 C 567.634,322.853 567.698,322.619 567.698,322.342 L 567.698,317.679 C 567.698,317.443 567.647,317.238 567.544,317.063 L 567.544,317.07 C 567.431,316.885 567.238,316.759 566.966,316.693 L 566.966,315.937 L 567.145,315.783 z"
   id="path4229"
   style="fill:#ffffff" />
	</g><g
     transform="translate(357.40918,216.6299)"
     id="g4268"><path
       style="fill:url(#linearGradient4274);fill-opacity:1"
       d="M 240.71946,155.66132 L 218.34446,195.81757 C 224.31015,194.5829 230.60959,192.94653 236.81321,190.81757 L 257.68821,155.66132 L 240.71946,155.66132 z M 197.59446,173.72382 L 197.59446,198.91132 C 201.82035,198.4988 206.76846,197.88729 212.25071,196.94257 L 212.18821,173.72382 L 197.59446,173.72382 z"
       id="path4270" /><path
       style="opacity:0.65116278;fill:#ffffff;fill-opacity:1;fill-rule:nonzero;stroke-width:1;stroke-linecap:butt;stroke-linejoin:miter;marker:none;marker-start:none;marker-mid:none;marker-end:none;stroke-miterlimit:4;stroke-dasharray:none;stroke-dashoffset:0;stroke-opacity:1;visibility:visible;display:inline;overflow:visible;filter:url(#filter3797);enable-background:accumulate"
       d="M 228.37571,204.91132 C 223.8493,207.89087 217.4158,209.78632 210.28196,209.78632 C 205.60859,209.78632 201.26498,208.95653 197.53196,207.56757 L 197.53196,215.28632 L 214.40696,215.28632 C 214.65785,215.28634 215.35148,215.20982 216.34446,215.09882 C 217.16845,215.00765 218.25613,214.65954 219.56321,214.00507 C 219.57363,214.00493 219.58404,214.00491 219.59446,214.00507 C 220.84816,213.37915 222.2628,212.3236 223.84446,210.84882 C 225.30204,209.48976 226.84734,207.5048 228.43821,204.94257 C 228.41691,204.93608 228.39706,204.91777 228.37571,204.91132 z"
       id="path4272" /></g></g></svg>