<?xml version="1.0" encoding="UTF-8" standalone="no"?>
<!-- Generator: Adobe Illustrator 14.0.0, SVG Export Plug-In . SVG Version: 6.00 Build 43363)  -->

<svg
   xmlns:dc="http://purl.org/dc/elements/1.1/"
   xmlns:cc="http://creativecommons.org/ns#"
   xmlns:rdf="http://www.w3.org/1999/02/22-rdf-syntax-ns#"
   xmlns:svg="http://www.w3.org/2000/svg"
   xmlns="http://www.w3.org/2000/svg"
   xmlns:xlink="http://www.w3.org/1999/xlink"
   xmlns:sodipodi="http://sodipodi.sourceforge.net/DTD/sodipodi-0.dtd"
   xmlns:inkscape="http://www.inkscape.org/namespaces/inkscape"
   version="1.1"
   id="Capa_1"
   x="0px"
   y="0px"
   width="841.89px"
   height="595.28px"
   viewBox="0 0 841.89 595.28"
   enable-background="new 0 0 841.89 595.28"
   xml:space="preserve"
   inkscape:version="0.48.2 r9819"
   sodipodi:docname="Licencias.svg"
   sodipodi:version="0.32"
   inkscape:output_extension="org.inkscape.output.svg.inkscape"><metadata
   id="metadata507"><rdf:RDF><cc:Work
       rdf:about=""><dc:format>image/svg+xml</dc:format><dc:type
         rdf:resource="http://purl.org/dc/dcmitype/StillImage" /><dc:title></dc:title><cc:license
         rdf:resource="http://creativecommons.org/licenses/by/3.0/" /></cc:Work><cc:License
       rdf:about="http://creativecommons.org/licenses/by/3.0/"><cc:permits
         rdf:resource="http://creativecommons.org/ns#Reproduction" /><cc:permits
         rdf:resource="http://creativecommons.org/ns#Distribution" /><cc:requires
         rdf:resource="http://creativecommons.org/ns#Notice" /><cc:requires
         rdf:resource="http://creativecommons.org/ns#Attribution" /><cc:permits
         rdf:resource="http://creativecommons.org/ns#DerivativeWorks" /></cc:License></rdf:RDF></metadata><defs
   id="defs505"><linearGradient
   id="linearGradient4471"><stop
     style="stop-color:#696a6b;stop-opacity:1;"
     offset="0"
     id="stop4473" /><stop
     style="stop-color:#9b9c9e;stop-opacity:1;"
     offset="1"
     id="stop4475" /></linearGradient><linearGradient
   id="linearGradient4455"><stop
     style="stop-color:#696a6b;stop-opacity:1;"
     offset="0"
     id="stop4457" /><stop
     style="stop-color:#9b9c9e;stop-opacity:1;"
     offset="1"
     id="stop4459" /></linearGradient><linearGradient
   id="linearGradient4260"><stop
     style="stop-color:#911d21;stop-opacity:1;"
     offset="0"
     id="stop4262" /><stop
     style="stop-color:#c4282d;stop-opacity:1;"
     offset="1"
     id="stop4264" /></linearGradient><linearGradient
   id="linearGradient4235"><stop
     style="stop-color:#592350;stop-opacity:1;"
     offset="0"
     id="stop4237" /><stop
     style="stop-color:#742e68;stop-opacity:1;"
     offset="1"
     id="stop4239" /></linearGradient><linearGradient
   id="linearGradient4197"><stop
     style="stop-color:#16813d;stop-opacity:1;"
     offset="0"
     id="stop4199" /><stop
     style="stop-color:#0d4f25;stop-opacity:1;"
     offset="1"
     id="stop4201" /></linearGradient><linearGradient
   id="linearGradient3598"><stop
     style="stop-color:#742e68;stop-opacity:1;"
     offset="0"
     id="stop3600" /><stop
     style="stop-color:#481c40;stop-opacity:1;"
     offset="1"
     id="stop3602" /></linearGradient><linearGradient
   inkscape:collect="always"
   id="linearGradient3632"><stop
     style="stop-color:#ffffff;stop-opacity:1;"
     offset="0"
     id="stop3634" /><stop
     style="stop-color:#ffffff;stop-opacity:0;"
     offset="1"
     id="stop3636" /></linearGradient><linearGradient
   inkscape:collect="always"
   id="linearGradient3584"><stop
     style="stop-color:#ffffff;stop-opacity:1;"
     offset="0"
     id="stop3586" /><stop
     style="stop-color:#ffffff;stop-opacity:0;"
     offset="1"
     id="stop3588" /></linearGradient><linearGradient
   inkscape:collect="always"
   id="linearGradient3542"><stop
     style="stop-color:#ffffff;stop-opacity:1;"
     offset="0"
     id="stop3544" /><stop
     style="stop-color:#ffffff;stop-opacity:0;"
     offset="1"
     id="stop3546" /></linearGradient><linearGradient
   id="linearGradient3536"><stop
     style="stop-color:#ffffff;stop-opacity:1"
     offset="0"
     id="stop3538" /><stop
     style="stop-color:#ffffff;stop-opacity:0"
     offset="1"
     id="stop3540" /></linearGradient><linearGradient
   id="linearGradient3530"><stop
     style="stop-color:#ffffff;stop-opacity:1"
     offset="0"
     id="stop3532" /><stop
     style="stop-color:#7f1a1d;stop-opacity:1;"
     offset="1"
     id="stop3534" /></linearGradient><linearGradient
   id="linearGradient3483"><stop
     id="stop3485"
     offset="0"
     style="stop-color:#c4282d;stop-opacity:1;" /><stop
     id="stop3487"
     offset="1"
     style="stop-color:#7f1a1d;stop-opacity:1;" /></linearGradient><linearGradient
   id="linearGradient3467"><stop
     style="stop-color:#000000;stop-opacity:1;"
     offset="0"
     id="stop3469" /><stop
     style="stop-color:#000000;stop-opacity:0;"
     offset="1"
     id="stop3471" /></linearGradient><inkscape:perspective
   sodipodi:type="inkscape:persp3d"
   inkscape:vp_x="0 : 297.64001 : 1"
   inkscape:vp_y="0 : 1000 : 0"
   inkscape:vp_z="841.89001 : 297.64001 : 1"
   inkscape:persp3d-origin="420.94501 : 198.42668 : 1"
   id="perspective509" />
	
	
	
	
<linearGradient
   inkscape:collect="always"
   xlink:href="#linearGradient3483"
   id="linearGradient3481"
   x1="193.67853"
   y1="227.42769"
   x2="192.737"
   y2="164.42589"
   gradientUnits="userSpaceOnUse" /><linearGradient
   inkscape:collect="always"
   xlink:href="#linearGradient3542"
   id="linearGradient3548"
   x1="223.70312"
   y1="167.78789"
   x2="223.70312"
   y2="224.78125"
   gradientUnits="userSpaceOnUse" />
		
		
	<linearGradient
   inkscape:collect="always"
   xlink:href="#linearGradient3584"
   id="linearGradient3590"
   x1="234.03793"
   y1="165.15395"
   x2="234.35178"
   y2="210.66147"
   gradientUnits="userSpaceOnUse" />
		
	<filter
   inkscape:collect="always"
   id="filter3676"
   x="-0.041724954"
   width="1.0834499"
   y="-0.58146253"
   height="2.1629251"><feGaussianBlur
     inkscape:collect="always"
     stdDeviation="1.9987774"
     id="feGaussianBlur3678" /></filter>
		
	<filter
   inkscape:collect="always"
   id="filter3797"
   x="-0.16028311"
   width="1.3205662"
   y="-0.47746988"
   height="1.9549398"><feGaussianBlur
     inkscape:collect="always"
     stdDeviation="2.0640625"
     id="feGaussianBlur3799" /></filter><linearGradient
   inkscape:collect="always"
   xlink:href="#linearGradient3483"
   id="linearGradient3947"
   gradientUnits="userSpaceOnUse"
   x1="193.67853"
   y1="227.42769"
   x2="192.737"
   y2="164.42589" /><filter
   inkscape:collect="always"
   id="filter4003"
   x="-0.024206416"
   width="1.0484128"
   y="-0.10283295"
   height="1.2056659"><feGaussianBlur
     inkscape:collect="always"
     stdDeviation="0.99465172"
     id="feGaussianBlur4005" /></filter>
	
	
	
	

		
	
		
		
		
	
		
		
		
		
		
		
		
		
		
		
		
		
	
		
	
	
	
	
	

		
	
		
		
	
		
	
		
		
		
		
	<linearGradient
   inkscape:collect="always"
   xlink:href="#linearGradient3598"
   id="linearGradient3620"
   x1="473.95499"
   y1="225.58197"
   x2="473.95499"
   y2="164.577"
   gradientUnits="userSpaceOnUse" /><linearGradient
   inkscape:collect="always"
   xlink:href="#linearGradient3483"
   id="linearGradient3883"
   gradientUnits="userSpaceOnUse"
   gradientTransform="translate(2.7507074,-101.77618)"
   x1="138.40564"
   y1="330.10239"
   x2="138.40564"
   y2="319.71936" /><linearGradient
   inkscape:collect="always"
   xlink:href="#linearGradient3598"
   id="linearGradient3891"
   gradientUnits="userSpaceOnUse"
   x1="473.95499"
   y1="225.58197"
   x2="473.95499"
   y2="164.577" /><linearGradient
   inkscape:collect="always"
   xlink:href="#linearGradient3598"
   id="linearGradient4003"
   gradientUnits="userSpaceOnUse"
   x1="473.95499"
   y1="225.58197"
   x2="473.95499"
   y2="164.577" /><linearGradient
   inkscape:collect="always"
   xlink:href="#linearGradient3598"
   id="linearGradient4005"
   gradientUnits="userSpaceOnUse"
   x1="473.95499"
   y1="225.58197"
   x2="473.95499"
   y2="164.577" /><linearGradient
   inkscape:collect="always"
   xlink:href="#linearGradient3632"
   id="linearGradient4009"
   gradientUnits="userSpaceOnUse"
   x1="137.46411"
   y1="317.84103"
   x2="137.46411"
   y2="324.8385" /><linearGradient
   inkscape:collect="always"
   xlink:href="#linearGradient3584"
   id="linearGradient4011"
   gradientUnits="userSpaceOnUse"
   gradientTransform="translate(3.7826799,-9.9750279)"
   x1="234.03793"
   y1="165.15395"
   x2="233.72409"
   y2="209.09224" /><linearGradient
   inkscape:collect="always"
   xlink:href="#linearGradient3598"
   id="linearGradient2938"
   gradientUnits="userSpaceOnUse"
   gradientTransform="translate(16.564834,16.038773)"
   x1="365.68323"
   y1="228.72025"
   x2="365.68323"
   y2="216.25424" />
	
	
	
	
	
<linearGradient
   inkscape:collect="always"
   xlink:href="#linearGradient3598"
   id="linearGradient4311"
   gradientUnits="userSpaceOnUse"
   x1="473.95499"
   y1="225.58197"
   x2="473.95499"
   y2="164.577" /><linearGradient
   inkscape:collect="always"
   xlink:href="#linearGradient3598"
   id="linearGradient4352"
   gradientUnits="userSpaceOnUse"
   gradientTransform="translate(16.564834,16.038773)"
   x1="365.68323"
   y1="228.72025"
   x2="365.68323"
   y2="216.25424" />
	
	
	
	
	
	
<linearGradient
   inkscape:collect="always"
   xlink:href="#linearGradient4471"
   id="linearGradient4477"
   x1="664.09625"
   y1="501.10046"
   x2="664.09625"
   y2="510.29501"
   gradientUnits="userSpaceOnUse" /><linearGradient
   inkscape:collect="always"
   xlink:href="#linearGradient4471"
   id="linearGradient4513"
   gradientUnits="userSpaceOnUse"
   x1="664.09625"
   y1="501.10046"
   x2="664.09625"
   y2="510.29501" />
		
		
	</defs><sodipodi:namedview
   pagecolor="#ffffff"
   bordercolor="#666666"
   borderopacity="1"
   objecttolerance="10"
   gridtolerance="10"
   guidetolerance="10"
   inkscape:pageopacity="0"
   inkscape:pageshadow="2"
   inkscape:window-width="1280"
   inkscape:window-height="746"
   id="namedview503"
   showgrid="false"
   inkscape:zoom="0.90545621"
   inkscape:cx="420.94501"
   inkscape:cy="443.33958"
   inkscape:window-x="0"
   inkscape:window-y="0"
   inkscape:window-maximized="1"
   inkscape:current-layer="Capa_1"
   showguides="true"
   inkscape:guide-bbox="true" />

















<g
   id="g4934"><rect
     style="fill:url(#linearGradient4352);fill-opacity:1"
     id="rect4084"
     height="14.173"
     width="147.772"
     y="231.41412"
     x="310.60583" /><g
     id="g4840"><g
       id="g3670"
       transform="translate(18.564834,18.038773)"
       style="fill:#999999;fill-opacity:1;fill-rule:nonzero;stroke-width:1;stroke-linecap:butt;stroke-linejoin:miter;marker:none;marker-start:none;marker-mid:none;marker-end:none;stroke-miterlimit:4;stroke-dasharray:none;stroke-dashoffset:0;stroke-opacity:1;visibility:visible;display:inline;overflow:visible;filter:url(#filter4003);enable-background:accumulate"><path
         id="path3672"
         d="M 329.34401,206.37535 L 326.37601,201.63135 L 309.23001,201.63135 L 306.20901,206.37535 L 302.44501,206.37535 C 303.62901,204.45035 304.83501,202.49735 306.06201,200.51935 C 307.29101,198.54035 308.49601,196.59735 309.67901,194.68935 C 310.86301,192.78135 312.01201,190.93535 313.12401,189.15035 C 314.23701,187.36535 315.28801,185.68735 316.27801,184.11435 C 316.56001,183.51335 317.05501,183.21335 317.76201,183.21335 C 318.41401,183.21335 318.90101,183.51335 319.21901,184.11435 L 333.13101,206.37535 L 329.34401,206.37535 z M 311.27001,198.34535 L 324.28301,198.34535 L 318.32001,188.77835 C 318.12601,188.46035 317.94901,188.30135 317.79001,188.30135 C 317.61301,188.30135 317.43601,188.46035 317.26101,188.77835 L 311.27001,198.34535 z"
         style="fill:#999999;fill-opacity:1;fill-rule:nonzero;stroke-width:1;stroke-linecap:butt;stroke-linejoin:miter;marker:none;marker-start:none;marker-mid:none;marker-end:none;stroke-miterlimit:4;stroke-dasharray:none;stroke-dashoffset:0;stroke-opacity:1;visibility:visible;display:inline;overflow:visible;filter:url(#filter4003);enable-background:accumulate" /><path
         id="path3674"
         d="M 362.78701,204.86535 C 361.51601,205.87235 359.97801,206.37535 358.17601,206.37535 L 342.17001,206.37535 C 340.35001,206.37535 338.83001,205.88035 337.61101,204.89135 C 336.30301,203.86735 335.65001,202.60335 335.65001,201.10135 L 335.65001,188.48635 C 335.65001,187.02035 336.30301,185.76635 337.61101,184.72335 C 338.88301,183.71635 340.42101,183.21335 342.22201,183.21335 L 358.25501,183.21335 C 359.93301,183.21335 361.35601,183.68135 362.52201,184.61835 C 363.74201,185.55535 364.52701,187.03035 364.88001,189.04335 L 361.62001,189.04335 C 361.39101,188.07135 360.95801,187.39135 360.32201,187.00235 C 359.77401,186.66735 359.07601,186.49935 358.22701,186.49935 L 342.22101,186.49935 C 341.26701,186.49935 340.45401,186.72035 339.78301,187.16235 C 339.19901,187.53335 338.90801,187.97535 338.90801,188.48735 L 338.90801,201.10235 C 338.90801,201.63235 339.19901,202.09235 339.78301,202.48035 L 339.75601,202.45435 C 340.41001,202.89535 341.21401,203.11635 342.16801,203.11635 L 358.17401,203.11635 C 359.00401,203.11635 359.74601,202.94035 360.40101,202.58635 C 361.17801,202.21535 361.56701,201.71135 361.56701,201.07535 L 361.56701,196.43735 L 348.60801,196.43735 L 348.60801,193.17735 L 364.80001,193.17735 L 364.80001,201.10135 C 364.80201,202.56835 364.13001,203.82235 362.78701,204.86535 z"
         style="fill:#999999;fill-opacity:1;fill-rule:nonzero;stroke-width:1;stroke-linecap:butt;stroke-linejoin:miter;marker:none;marker-start:none;marker-mid:none;marker-end:none;stroke-miterlimit:4;stroke-dasharray:none;stroke-dashoffset:0;stroke-opacity:1;visibility:visible;display:inline;overflow:visible;filter:url(#filter4003);enable-background:accumulate" /><path
         id="path3676"
         d="M 397.00001,194.92735 C 395.78101,195.91735 394.25201,196.41135 392.41501,196.41135 L 373.09601,196.41135 L 373.09601,206.37535 L 369.83701,206.37535 L 369.83701,188.48735 C 369.83701,187.02135 370.49001,185.76735 371.79801,184.72435 C 373.07001,183.71735 374.60801,183.21435 376.40801,183.21435 L 392.41501,183.21435 C 394.19901,183.21435 395.71901,183.71735 396.97401,184.72435 C 398.29901,185.76735 398.96101,187.02135 398.96101,188.48735 L 398.96101,191.13735 C 398.96101,192.63935 398.30801,193.90235 397.00001,194.92735 z M 395.72901,188.48735 C 395.72901,187.99235 395.42801,187.55135 394.82701,187.16235 C 394.15601,186.72035 393.35201,186.49935 392.41601,186.49935 L 376.38401,186.49935 C 375.57101,186.49935 374.83701,186.66735 374.18501,187.00235 C 373.45901,187.33835 373.09701,187.83335 373.09701,188.48635 L 373.09701,193.15135 L 392.41601,193.15135 C 393.35301,193.15135 394.15601,192.93935 394.82701,192.51535 C 395.42901,192.12735 395.72901,191.66735 395.72901,191.13735 L 395.72901,188.48735 z"
         style="fill:#999999;fill-opacity:1;fill-rule:nonzero;stroke-width:1;stroke-linecap:butt;stroke-linejoin:miter;marker:none;marker-start:none;marker-mid:none;marker-end:none;stroke-miterlimit:4;stroke-dasharray:none;stroke-dashoffset:0;stroke-opacity:1;visibility:visible;display:inline;overflow:visible;filter:url(#filter4003);enable-background:accumulate" /><path
         id="path3678"
         d="M 433.12001,201.20735 C 432.85401,202.78035 432.11301,204.04335 430.89301,204.99735 C 429.70901,205.91635 428.27901,206.37535 426.60001,206.37535 L 410.56701,206.37535 C 408.76501,206.37535 407.23701,205.88035 405.98301,204.89135 C 404.65801,203.86735 403.99601,202.60335 403.99601,201.10135 L 403.99601,183.23935 L 407.30801,183.23935 L 407.30801,201.10135 C 407.30801,201.63135 407.60001,202.09135 408.18301,202.47935 L 408.15601,202.45335 C 408.81001,202.89435 409.61401,203.11535 410.56801,203.11535 L 426.60101,203.11535 C 427.41401,203.11535 428.12101,202.93935 428.72101,202.58535 L 428.69601,202.58535 C 429.33201,202.19635 429.76301,201.53435 429.99401,200.59835 L 432.59101,200.59835 L 433.12001,201.20735 z"
         style="fill:#999999;fill-opacity:1;fill-rule:nonzero;stroke-width:1;stroke-linecap:butt;stroke-linejoin:miter;marker:none;marker-start:none;marker-mid:none;marker-end:none;stroke-miterlimit:4;stroke-dasharray:none;stroke-dashoffset:0;stroke-opacity:1;visibility:visible;display:inline;overflow:visible;filter:url(#filter4003);enable-background:accumulate" /><path
         id="path3680"
         d="M 519.46101,201.07635 C 519.46101,202.58135 518.79701,203.84735 517.46901,204.87435 C 516.24801,205.86635 514.72501,206.36135 512.90101,206.36135 L 496.83301,206.36135 C 495.15101,206.36135 493.72601,205.90935 492.55801,205.00735 C 491.30001,204.03335 490.50301,202.54635 490.16701,200.54535 L 493.43501,200.54535 C 493.66401,201.48335 494.08901,202.15635 494.70901,202.56435 L 494.68301,202.56435 C 495.28501,202.91835 496.00101,203.09535 496.83301,203.09535 L 512.90101,203.09535 C 513.82201,203.09535 514.61901,202.88235 515.29201,202.45735 C 515.89401,202.06835 516.19501,201.60735 516.19501,201.07635 L 516.19501,198.42035 C 516.19501,197.92535 515.89301,197.48235 515.29201,197.09235 C 514.58401,196.63235 513.77801,196.40135 512.87601,196.40135 L 504.32301,196.40135 L 504.32301,193.13435 L 512.90101,193.13435 C 513.84001,193.13435 514.63701,192.91335 515.29201,192.47035 C 515.89401,192.08135 516.19501,191.62935 516.19501,191.11635 L 516.19501,188.46035 C 516.19501,187.96435 515.89301,187.52235 515.29201,187.13235 C 514.58401,186.67235 513.77801,186.44235 512.87601,186.44235 L 496.83301,186.44235 C 496.01901,186.44235 495.31101,186.61935 494.70901,186.97335 L 494.73501,186.97335 C 494.09801,187.34535 493.66401,188.01835 493.43401,188.99235 L 490.16601,188.99235 C 490.48401,186.97335 491.26401,185.50435 492.50401,184.58335 C 493.67201,183.64535 495.11501,183.17635 496.83201,183.17635 L 512.90001,183.17635 C 514.68901,183.17635 516.21201,183.67235 517.46801,184.66335 C 518.79601,185.70835 519.46001,186.97435 519.46001,188.46135 C 519.46001,189.75335 519.40701,190.93135 519.30101,191.99335 C 519.26501,192.52435 519.08901,193.01235 518.77001,193.45435 C 518.62801,193.64935 518.46401,193.85235 518.27901,194.06535 C 518.09401,194.27835 517.86701,194.50835 517.60101,194.75535 C 518.11501,195.23335 518.50401,195.67635 518.77001,196.08335 C 519.07101,196.57935 519.24801,197.05735 519.30101,197.51735 C 519.40801,198.56235 519.46101,199.74835 519.46101,201.07635 z"
         style="fill:#999999;fill-opacity:1;fill-rule:nonzero;stroke-width:1;stroke-linecap:butt;stroke-linejoin:miter;marker:none;marker-start:none;marker-mid:none;marker-end:none;stroke-miterlimit:4;stroke-dasharray:none;stroke-dashoffset:0;stroke-opacity:1;visibility:visible;display:inline;overflow:visible;filter:url(#filter4003);enable-background:accumulate" /></g><g
       id="g4078"
       transform="translate(18.701844,5.1611194)"
       style="fill:url(#linearGradient4311);fill-opacity:1">
			<path
   d="M 483.223,164.577 L 502.677,164.577 L 472.709,215.077 C 470.997,217.892 469.327,220.058 467.699,221.576 C 466.071,223.094 464.567,224.198 463.187,224.887 C 461.808,225.578 460.621,225.978 459.628,226.088 C 458.634,226.199 457.942,226.254 457.558,226.254 L 439.676,226.254 L 439.676,182.626 L 456.4,182.626 L 456.482,212.594 L 483.223,164.577 z"
   id="path4080"
   style="fill:url(#linearGradient4003);fill-opacity:1" />
		</g><g
       id="g3622"
       transform="translate(19.129604,5.4459484)"
       style="fill:#000000;fill-opacity:1">
			<path
   d="M 332.526,231.774 C 332.562,231.525 332.52,231.353 332.395,231.258 L 332.402,231.258 C 332.288,231.172 332.124,231.129 331.905,231.129 L 327.807,231.129 C 327.563,231.129 327.336,231.185 327.127,231.298 C 326.943,231.394 326.827,231.506 326.779,231.638 L 326.344,232.834 L 329.368,232.834 L 329.063,233.67 L 326.038,233.67 L 325.108,236.225 L 324.265,236.225 L 325.935,231.638 C 326.071,231.263 326.358,230.94 326.789,230.673 C 327.209,230.416 327.65,230.286 328.111,230.286 L 332.209,230.286 C 332.645,230.286 332.967,230.407 333.18,230.646 C 333.414,230.886 333.479,231.262 333.375,231.774 L 332.526,231.774 L 332.526,231.774 z"
   id="path3624"
   style="fill:#000000;fill-opacity:1" />
			<path
   d="M 338.577,233.377 C 338.594,233.142 338.522,232.981 338.364,232.895 C 338.305,232.859 338.239,232.833 338.165,232.82 C 338.089,232.807 338.011,232.8 337.931,232.8 L 335.952,232.8 C 335.753,232.8 335.556,232.838 335.36,232.916 C 335.133,233.002 334.997,233.11 334.95,233.242 L 333.864,236.225 L 333.02,236.225 L 334.571,231.964 L 335.415,231.964 L 335.351,232.14 C 335.518,232.077 335.673,232.032 335.818,232.004 C 335.961,231.977 336.105,231.963 336.252,231.963 L 338.236,231.963 C 338.611,231.963 338.919,232.058 339.158,232.248 C 339.445,232.479 339.529,232.855 339.413,233.376 L 338.577,233.376 L 338.577,233.377 z"
   id="path3626"
   style="fill:#000000;fill-opacity:1" />
			<path
   d="M 346.078,233.228 C 345.934,233.623 345.622,233.946 345.14,234.2 C 344.744,234.408 344.339,234.512 343.933,234.512 L 341.954,234.512 C 341.823,234.512 341.701,234.502 341.586,234.479 C 341.472,234.457 341.333,234.414 341.171,234.35 L 340.964,234.92 L 340.958,234.934 C 340.929,235.052 340.999,235.159 341.169,235.254 C 341.241,235.304 341.317,235.338 341.396,235.36 C 341.474,235.38 341.555,235.39 341.636,235.39 L 343.615,235.39 C 343.695,235.39 343.778,235.383 343.862,235.37 C 343.947,235.356 344.031,235.33 344.117,235.295 C 344.338,235.208 344.526,235.047 344.68,234.812 L 345.515,234.812 C 345.255,235.328 344.898,235.702 344.442,235.934 C 344.068,236.128 343.691,236.226 343.31,236.226 L 341.331,236.226 C 340.95,236.226 340.632,236.127 340.374,235.927 C 340.052,235.677 339.965,235.349 340.112,234.942 L 340.733,233.236 C 340.88,232.832 341.186,232.511 341.649,232.27 C 342.04,232.066 342.451,231.965 342.881,231.965 L 344.86,231.965 C 345.276,231.965 345.608,232.062 345.854,232.257 C 346.152,232.497 346.228,232.82 346.078,233.228 z M 345.229,233.242 C 345.27,233.134 345.229,233.038 345.11,232.957 C 344.98,232.853 344.793,232.801 344.548,232.801 L 342.576,232.801 C 342.404,232.801 342.209,232.839 341.991,232.917 C 341.762,232.999 341.624,233.105 341.576,233.236 C 341.529,233.362 341.588,233.469 341.752,233.555 C 341.898,233.637 342.068,233.677 342.258,233.677 L 344.237,233.677 C 344.471,233.677 344.693,233.628 344.902,233.528 C 345.081,233.446 345.19,233.351 345.229,233.242 z"
   id="path3628"
   style="fill:#000000;fill-opacity:1" />
			<path
   d="M 352.712,233.228 C 352.567,233.623 352.255,233.946 351.774,234.2 C 351.377,234.408 350.973,234.512 350.566,234.512 L 348.588,234.512 C 348.456,234.512 348.335,234.502 348.22,234.479 C 348.106,234.457 347.967,234.414 347.806,234.35 L 347.597,234.92 L 347.593,234.934 C 347.563,235.052 347.632,235.159 347.802,235.254 C 347.874,235.304 347.95,235.338 348.029,235.36 C 348.108,235.38 348.189,235.39 348.269,235.39 L 350.248,235.39 C 350.328,235.39 350.412,235.383 350.496,235.37 C 350.58,235.356 350.666,235.33 350.751,235.295 C 350.973,235.208 351.16,235.047 351.314,234.812 L 352.148,234.812 C 351.888,235.328 351.531,235.702 351.076,235.934 C 350.701,236.128 350.324,236.226 349.943,236.226 L 347.964,236.226 C 347.584,236.226 347.265,236.127 347.007,235.927 C 346.685,235.677 346.599,235.349 346.747,234.942 L 347.367,233.236 C 347.514,232.832 347.819,232.511 348.284,232.27 C 348.674,232.066 349.085,231.965 349.514,231.965 L 351.493,231.965 C 351.909,231.965 352.241,232.062 352.487,232.257 C 352.786,232.497 352.86,232.82 352.712,233.228 z M 351.864,233.242 C 351.903,233.134 351.862,233.038 351.743,232.957 C 351.614,232.853 351.427,232.801 351.182,232.801 L 349.21,232.801 C 349.038,232.801 348.842,232.839 348.625,232.917 C 348.396,232.999 348.258,233.105 348.209,233.236 C 348.164,233.362 348.223,233.469 348.385,233.555 C 348.532,233.637 348.701,233.677 348.891,233.677 L 350.87,233.677 C 351.104,233.677 351.327,233.628 351.536,233.528 C 351.715,233.446 351.823,233.351 351.864,233.242 z"
   id="path3630"
   style="fill:#000000;fill-opacity:1" />
			<path
   d="M 365.452,235.845 C 365.048,236.098 364.612,236.225 364.145,236.225 L 360.034,236.225 C 359.602,236.225 359.28,236.109 359.065,235.878 C 358.835,235.629 358.77,235.249 358.87,234.737 L 359.706,234.737 C 359.677,234.977 359.723,235.149 359.844,235.253 L 359.837,235.253 C 359.958,235.343 360.126,235.389 360.338,235.389 L 364.45,235.389 C 364.689,235.389 364.914,235.332 365.122,235.22 C 365.312,235.119 365.432,235.005 365.479,234.873 L 365.727,234.193 C 365.774,234.062 365.739,233.946 365.622,233.846 C 365.497,233.733 365.309,233.676 365.065,233.676 L 360.961,233.676 C 360.499,233.676 360.153,233.55 359.925,233.296 C 359.681,233.032 359.628,232.708 359.771,232.317 L 360.019,231.637 C 360.155,231.262 360.441,230.939 360.873,230.672 C 361.293,230.415 361.734,230.285 362.195,230.285 L 366.308,230.285 C 366.738,230.285 367.058,230.406 367.27,230.645 C 367.504,230.885 367.57,231.261 367.464,231.773 L 366.629,231.773 C 366.657,231.533 366.61,231.36 366.489,231.257 L 366.496,231.257 C 366.384,231.171 366.218,231.128 366.001,231.128 L 361.889,231.128 C 361.644,231.128 361.415,231.184 361.202,231.297 C 361.016,231.393 360.901,231.505 360.854,231.637 L 360.606,232.317 C 360.556,232.453 360.588,232.571 360.702,232.671 C 360.828,232.784 361.016,232.84 361.265,232.84 L 365.377,232.84 C 365.843,232.84 366.188,232.967 366.406,233.221 C 366.648,233.488 366.701,233.811 366.562,234.193 L 366.314,234.873 C 366.176,235.258 365.888,235.583 365.452,235.845 z"
   id="path3632"
   style="fill:#000000;fill-opacity:1" />
			<path
   d="M 371.985,235.913 C 371.592,236.121 371.189,236.225 370.778,236.225 L 368.8,236.225 C 368.396,236.225 368.07,236.123 367.818,235.92 C 367.513,235.67 367.435,235.343 367.582,234.941 L 368.203,233.235 C 368.348,232.84 368.659,232.517 369.142,232.263 C 369.538,232.055 369.944,231.951 370.355,231.951 L 372.334,231.951 C 372.723,231.951 373.044,232.048 373.295,232.243 C 373.609,232.497 373.695,232.825 373.547,233.228 L 372.924,234.941 C 372.78,235.334 372.468,235.659 371.985,235.913 z M 372.703,233.228 C 372.749,233.101 372.69,232.996 372.528,232.908 C 372.389,232.831 372.221,232.793 372.026,232.793 L 370.047,232.793 C 369.848,232.793 369.654,232.829 369.465,232.901 C 369.233,232.992 369.094,233.1 369.047,233.227 L 368.422,234.947 C 368.375,235.074 368.434,235.18 368.597,235.266 C 368.744,235.347 368.91,235.388 369.097,235.388 L 371.081,235.388 C 371.172,235.388 371.264,235.379 371.363,235.361 C 371.459,235.342 371.558,235.314 371.659,235.272 C 371.891,235.182 372.031,235.071 372.079,234.94 L 372.703,233.228 z"
   id="path3634"
   style="fill:#000000;fill-opacity:1" />
			<path
   d="M 375.837,232.8 L 374.59,236.225 L 373.747,236.225 L 375.442,231.563 C 375.588,231.164 375.861,230.845 376.262,230.604 C 376.614,230.396 377.054,230.292 377.584,230.292 L 377.285,231.115 C 376.953,231.164 376.713,231.228 376.562,231.304 C 376.412,231.382 376.32,231.469 376.285,231.563 L 376.139,231.964 L 376.981,231.964 L 376.677,232.8 L 375.837,232.8 z"
   id="path3636"
   style="fill:#000000;fill-opacity:1" />
			<path
   d="M 379.655,232.8 L 378.409,236.225 L 377.559,236.225 L 378.805,232.8 L 377.969,232.8 L 378.274,231.964 L 379.11,231.964 L 379.721,230.286 L 380.57,230.286 L 379.96,231.964 L 380.803,231.964 L 380.499,232.8 L 379.655,232.8 z"
   id="path3638"
   style="fill:#000000;fill-opacity:1" />
			<path
   d="M 386.091,235.898 C 385.734,236.111 385.329,236.218 384.881,236.218 C 384.637,236.218 384.408,236.183 384.198,236.115 C 383.987,236.047 383.808,235.941 383.661,235.796 C 383.407,235.937 383.144,236.043 382.876,236.115 C 382.607,236.188 382.351,236.224 382.105,236.224 C 381.674,236.224 381.353,236.12 381.139,235.912 C 380.903,235.676 380.86,235.352 381.009,234.94 L 382.092,231.963 L 382.936,231.963 L 381.85,234.946 C 381.803,235.073 381.842,235.176 381.967,235.258 C 382.104,235.344 382.294,235.387 382.538,235.387 C 382.787,235.387 383.008,235.344 383.197,235.258 C 383.383,235.181 383.5,235.075 383.551,234.94 L 384.219,233.105 L 385.062,233.105 L 384.391,234.947 C 384.344,235.079 384.383,235.18 384.512,235.253 C 384.648,235.339 384.833,235.382 385.069,235.382 C 385.323,235.382 385.545,235.339 385.735,235.253 C 385.923,235.176 386.037,235.074 386.083,234.947 L 387.169,231.964 L 388.02,231.964 L 386.937,234.941 C 386.792,235.339 386.509,235.659 386.091,235.898 z"
   id="path3641"
   style="fill:#000000;fill-opacity:1" />
			<path
   d="M 392.438,235.92 C 392.042,236.124 391.633,236.225 391.212,236.225 L 389.234,236.225 C 388.808,236.225 388.472,236.126 388.228,235.926 C 387.933,235.69 387.86,235.367 388.011,234.954 C 388.156,234.556 388.467,234.234 388.947,233.989 C 389.343,233.781 389.75,233.676 390.161,233.676 L 392.14,233.676 C 392.267,233.676 392.387,233.689 392.5,233.711 C 392.615,233.733 392.753,233.776 392.915,233.84 L 393.125,233.262 C 393.152,233.14 393.085,233.032 392.925,232.936 C 392.781,232.846 392.626,232.8 392.459,232.8 L 390.48,232.8 C 390.394,232.8 390.309,232.807 390.224,232.82 C 390.14,232.834 390.055,232.86 389.97,232.895 C 389.748,232.981 389.56,233.143 389.407,233.377 L 388.571,233.377 C 388.835,232.861 389.191,232.487 389.638,232.256 C 390.012,232.061 390.391,231.964 390.778,231.964 L 392.761,231.964 C 393.151,231.964 393.471,232.061 393.721,232.256 C 394.039,232.501 394.124,232.829 393.975,233.241 L 393.354,234.947 C 393.209,235.352 392.903,235.675 392.438,235.92 z M 392.511,234.954 C 392.557,234.828 392.499,234.721 392.335,234.635 C 392.189,234.553 392.022,234.512 391.837,234.512 L 389.858,234.512 C 389.627,234.512 389.403,234.563 389.185,234.663 C 389.006,234.744 388.897,234.839 388.857,234.948 C 388.815,235.061 388.852,235.158 388.967,235.24 C 389.104,235.339 389.291,235.389 389.532,235.389 L 391.515,235.389 C 391.71,235.389 391.902,235.353 392.091,235.28 C 392.325,235.19 392.464,235.082 392.511,234.954 z"
   id="path3643"
   style="fill:#000000;fill-opacity:1" />
			<path
   d="M 399.738,233.377 C 399.755,233.142 399.684,232.981 399.526,232.895 C 399.466,232.859 399.4,232.833 399.325,232.82 C 399.251,232.807 399.173,232.8 399.092,232.8 L 397.114,232.8 C 396.915,232.8 396.716,232.838 396.52,232.916 C 396.295,233.002 396.159,233.11 396.11,233.242 L 395.024,236.225 L 394.181,236.225 L 395.732,231.964 L 396.575,231.964 L 396.512,232.14 C 396.679,232.077 396.835,232.032 396.979,232.004 C 397.123,231.977 397.267,231.963 397.412,231.963 L 399.396,231.963 C 399.773,231.963 400.08,232.058 400.319,232.248 C 400.606,232.479 400.691,232.855 400.574,233.376 L 399.738,233.376 L 399.738,233.377 z"
   id="path3645"
   style="fill:#000000;fill-opacity:1" />
			<path
   d="M 407.239,233.228 C 407.095,233.623 406.783,233.946 406.301,234.2 C 405.903,234.408 405.5,234.512 405.093,234.512 L 403.115,234.512 C 402.982,234.512 402.861,234.502 402.746,234.479 C 402.633,234.457 402.494,234.414 402.332,234.35 L 402.124,234.92 L 402.119,234.934 C 402.09,235.052 402.159,235.159 402.328,235.254 C 402.4,235.304 402.476,235.338 402.555,235.36 C 402.635,235.38 402.715,235.39 402.795,235.39 L 404.774,235.39 C 404.855,235.39 404.938,235.383 405.022,235.37 C 405.107,235.356 405.192,235.33 405.278,235.295 C 405.499,235.208 405.686,235.047 405.841,234.812 L 406.676,234.812 C 406.415,235.328 406.059,235.702 405.603,235.934 C 405.229,236.128 404.851,236.226 404.471,236.226 L 402.492,236.226 C 402.111,236.226 401.792,236.127 401.534,235.927 C 401.212,235.677 401.126,235.349 401.274,234.942 L 401.895,233.236 C 402.041,232.832 402.347,232.511 402.811,232.27 C 403.202,232.066 403.612,231.965 404.042,231.965 L 406.021,231.965 C 406.437,231.965 406.768,232.062 407.015,232.257 C 407.313,232.497 407.388,232.82 407.239,233.228 z M 406.392,233.242 C 406.431,233.134 406.391,233.038 406.271,232.957 C 406.142,232.853 405.955,232.801 405.71,232.801 L 403.739,232.801 C 403.567,232.801 403.371,232.839 403.153,232.917 C 402.924,232.999 402.786,233.105 402.738,233.236 C 402.692,233.362 402.751,233.469 402.914,233.555 C 403.061,233.637 403.229,233.677 403.42,233.677 L 405.398,233.677 C 405.633,233.677 405.855,233.628 406.064,233.528 C 406.243,233.446 406.352,233.351 406.392,233.242 z"
   id="path3647"
   style="fill:#000000;fill-opacity:1" />
		</g><g
       id="g4086"
       transform="translate(18.701844,5.1611194)">
			<path
   d="M 332.526,231.774 C 332.562,231.525 332.52,231.353 332.395,231.258 L 332.402,231.258 C 332.288,231.172 332.124,231.129 331.905,231.129 L 327.807,231.129 C 327.563,231.129 327.336,231.185 327.127,231.298 C 326.943,231.394 326.827,231.506 326.779,231.638 L 326.344,232.834 L 329.368,232.834 L 329.063,233.67 L 326.038,233.67 L 325.108,236.225 L 324.265,236.225 L 325.935,231.638 C 326.071,231.263 326.358,230.94 326.789,230.673 C 327.209,230.416 327.65,230.286 328.111,230.286 L 332.209,230.286 C 332.645,230.286 332.967,230.407 333.18,230.646 C 333.414,230.886 333.479,231.262 333.375,231.774 L 332.526,231.774 L 332.526,231.774 z"
   id="path4088"
   style="fill:#ffffff" />
			<path
   d="M 338.577,233.377 C 338.594,233.142 338.522,232.981 338.364,232.895 C 338.305,232.859 338.239,232.833 338.165,232.82 C 338.089,232.807 338.011,232.8 337.931,232.8 L 335.952,232.8 C 335.753,232.8 335.556,232.838 335.36,232.916 C 335.133,233.002 334.997,233.11 334.95,233.242 L 333.864,236.225 L 333.02,236.225 L 334.571,231.964 L 335.415,231.964 L 335.351,232.14 C 335.518,232.077 335.673,232.032 335.818,232.004 C 335.961,231.977 336.105,231.963 336.252,231.963 L 338.236,231.963 C 338.611,231.963 338.919,232.058 339.158,232.248 C 339.445,232.479 339.529,232.855 339.413,233.376 L 338.577,233.376 L 338.577,233.377 z"
   id="path4090"
   style="fill:#ffffff" />
			<path
   d="M 346.078,233.228 C 345.934,233.623 345.622,233.946 345.14,234.2 C 344.744,234.408 344.339,234.512 343.933,234.512 L 341.954,234.512 C 341.823,234.512 341.701,234.502 341.586,234.479 C 341.472,234.457 341.333,234.414 341.171,234.35 L 340.964,234.92 L 340.958,234.934 C 340.929,235.052 340.999,235.159 341.169,235.254 C 341.241,235.304 341.317,235.338 341.396,235.36 C 341.474,235.38 341.555,235.39 341.636,235.39 L 343.615,235.39 C 343.695,235.39 343.778,235.383 343.862,235.37 C 343.947,235.356 344.031,235.33 344.117,235.295 C 344.338,235.208 344.526,235.047 344.68,234.812 L 345.515,234.812 C 345.255,235.328 344.898,235.702 344.442,235.934 C 344.068,236.128 343.691,236.226 343.31,236.226 L 341.331,236.226 C 340.95,236.226 340.632,236.127 340.374,235.927 C 340.052,235.677 339.965,235.349 340.112,234.942 L 340.733,233.236 C 340.88,232.832 341.186,232.511 341.649,232.27 C 342.04,232.066 342.451,231.965 342.881,231.965 L 344.86,231.965 C 345.276,231.965 345.608,232.062 345.854,232.257 C 346.152,232.497 346.228,232.82 346.078,233.228 z M 345.229,233.242 C 345.27,233.134 345.229,233.038 345.11,232.957 C 344.98,232.853 344.793,232.801 344.548,232.801 L 342.576,232.801 C 342.404,232.801 342.209,232.839 341.991,232.917 C 341.762,232.999 341.624,233.105 341.576,233.236 C 341.529,233.362 341.588,233.469 341.752,233.555 C 341.898,233.637 342.068,233.677 342.258,233.677 L 344.237,233.677 C 344.471,233.677 344.693,233.628 344.902,233.528 C 345.081,233.446 345.19,233.351 345.229,233.242 z"
   id="path4092"
   style="fill:#ffffff" />
			<path
   d="M 352.712,233.228 C 352.567,233.623 352.255,233.946 351.774,234.2 C 351.377,234.408 350.973,234.512 350.566,234.512 L 348.588,234.512 C 348.456,234.512 348.335,234.502 348.22,234.479 C 348.106,234.457 347.967,234.414 347.806,234.35 L 347.597,234.92 L 347.593,234.934 C 347.563,235.052 347.632,235.159 347.802,235.254 C 347.874,235.304 347.95,235.338 348.029,235.36 C 348.108,235.38 348.189,235.39 348.269,235.39 L 350.248,235.39 C 350.328,235.39 350.412,235.383 350.496,235.37 C 350.58,235.356 350.666,235.33 350.751,235.295 C 350.973,235.208 351.16,235.047 351.314,234.812 L 352.148,234.812 C 351.888,235.328 351.531,235.702 351.076,235.934 C 350.701,236.128 350.324,236.226 349.943,236.226 L 347.964,236.226 C 347.584,236.226 347.265,236.127 347.007,235.927 C 346.685,235.677 346.599,235.349 346.747,234.942 L 347.367,233.236 C 347.514,232.832 347.819,232.511 348.284,232.27 C 348.674,232.066 349.085,231.965 349.514,231.965 L 351.493,231.965 C 351.909,231.965 352.241,232.062 352.487,232.257 C 352.786,232.497 352.86,232.82 352.712,233.228 z M 351.864,233.242 C 351.903,233.134 351.862,233.038 351.743,232.957 C 351.614,232.853 351.427,232.801 351.182,232.801 L 349.21,232.801 C 349.038,232.801 348.842,232.839 348.625,232.917 C 348.396,232.999 348.258,233.105 348.209,233.236 C 348.164,233.362 348.223,233.469 348.385,233.555 C 348.532,233.637 348.701,233.677 348.891,233.677 L 350.87,233.677 C 351.104,233.677 351.327,233.628 351.536,233.528 C 351.715,233.446 351.823,233.351 351.864,233.242 z"
   id="path4094"
   style="fill:#ffffff" />
			<path
   d="M 365.452,235.845 C 365.048,236.098 364.612,236.225 364.145,236.225 L 360.034,236.225 C 359.602,236.225 359.28,236.109 359.065,235.878 C 358.835,235.629 358.77,235.249 358.87,234.737 L 359.706,234.737 C 359.677,234.977 359.723,235.149 359.844,235.253 L 359.837,235.253 C 359.958,235.343 360.126,235.389 360.338,235.389 L 364.45,235.389 C 364.689,235.389 364.914,235.332 365.122,235.22 C 365.312,235.119 365.432,235.005 365.479,234.873 L 365.727,234.193 C 365.774,234.062 365.739,233.946 365.622,233.846 C 365.497,233.733 365.309,233.676 365.065,233.676 L 360.961,233.676 C 360.499,233.676 360.153,233.55 359.925,233.296 C 359.681,233.032 359.628,232.708 359.771,232.317 L 360.019,231.637 C 360.155,231.262 360.441,230.939 360.873,230.672 C 361.293,230.415 361.734,230.285 362.195,230.285 L 366.308,230.285 C 366.738,230.285 367.058,230.406 367.27,230.645 C 367.504,230.885 367.57,231.261 367.464,231.773 L 366.629,231.773 C 366.657,231.533 366.61,231.36 366.489,231.257 L 366.496,231.257 C 366.384,231.171 366.218,231.128 366.001,231.128 L 361.889,231.128 C 361.644,231.128 361.415,231.184 361.202,231.297 C 361.016,231.393 360.901,231.505 360.854,231.637 L 360.606,232.317 C 360.556,232.453 360.588,232.571 360.702,232.671 C 360.828,232.784 361.016,232.84 361.265,232.84 L 365.377,232.84 C 365.843,232.84 366.188,232.967 366.406,233.221 C 366.648,233.488 366.701,233.811 366.562,234.193 L 366.314,234.873 C 366.176,235.258 365.888,235.583 365.452,235.845 z"
   id="path4096"
   style="fill:#ffffff" />
			<path
   d="M 371.985,235.913 C 371.592,236.121 371.189,236.225 370.778,236.225 L 368.8,236.225 C 368.396,236.225 368.07,236.123 367.818,235.92 C 367.513,235.67 367.435,235.343 367.582,234.941 L 368.203,233.235 C 368.348,232.84 368.659,232.517 369.142,232.263 C 369.538,232.055 369.944,231.951 370.355,231.951 L 372.334,231.951 C 372.723,231.951 373.044,232.048 373.295,232.243 C 373.609,232.497 373.695,232.825 373.547,233.228 L 372.924,234.941 C 372.78,235.334 372.468,235.659 371.985,235.913 z M 372.703,233.228 C 372.749,233.101 372.69,232.996 372.528,232.908 C 372.389,232.831 372.221,232.793 372.026,232.793 L 370.047,232.793 C 369.848,232.793 369.654,232.829 369.465,232.901 C 369.233,232.992 369.094,233.1 369.047,233.227 L 368.422,234.947 C 368.375,235.074 368.434,235.18 368.597,235.266 C 368.744,235.347 368.91,235.388 369.097,235.388 L 371.081,235.388 C 371.172,235.388 371.264,235.379 371.363,235.361 C 371.459,235.342 371.558,235.314 371.659,235.272 C 371.891,235.182 372.031,235.071 372.079,234.94 L 372.703,233.228 z"
   id="path4098"
   style="fill:#ffffff" />
			<path
   d="M 375.837,232.8 L 374.59,236.225 L 373.747,236.225 L 375.442,231.563 C 375.588,231.164 375.861,230.845 376.262,230.604 C 376.614,230.396 377.054,230.292 377.584,230.292 L 377.285,231.115 C 376.953,231.164 376.713,231.228 376.562,231.304 C 376.412,231.382 376.32,231.469 376.285,231.563 L 376.139,231.964 L 376.981,231.964 L 376.677,232.8 L 375.837,232.8 z"
   id="path4100"
   style="fill:#ffffff" />
			<path
   d="M 379.655,232.8 L 378.409,236.225 L 377.559,236.225 L 378.805,232.8 L 377.969,232.8 L 378.274,231.964 L 379.11,231.964 L 379.721,230.286 L 380.57,230.286 L 379.96,231.964 L 380.803,231.964 L 380.499,232.8 L 379.655,232.8 z"
   id="path4102"
   style="fill:#ffffff" />
			<path
   d="M 386.091,235.898 C 385.734,236.111 385.329,236.218 384.881,236.218 C 384.637,236.218 384.408,236.183 384.198,236.115 C 383.987,236.047 383.808,235.941 383.661,235.796 C 383.407,235.937 383.144,236.043 382.876,236.115 C 382.607,236.188 382.351,236.224 382.105,236.224 C 381.674,236.224 381.353,236.12 381.139,235.912 C 380.903,235.676 380.86,235.352 381.009,234.94 L 382.092,231.963 L 382.936,231.963 L 381.85,234.946 C 381.803,235.073 381.842,235.176 381.967,235.258 C 382.104,235.344 382.294,235.387 382.538,235.387 C 382.787,235.387 383.008,235.344 383.197,235.258 C 383.383,235.181 383.5,235.075 383.551,234.94 L 384.219,233.105 L 385.062,233.105 L 384.391,234.947 C 384.344,235.079 384.383,235.18 384.512,235.253 C 384.648,235.339 384.833,235.382 385.069,235.382 C 385.323,235.382 385.545,235.339 385.735,235.253 C 385.923,235.176 386.037,235.074 386.083,234.947 L 387.169,231.964 L 388.02,231.964 L 386.937,234.941 C 386.792,235.339 386.509,235.659 386.091,235.898 z"
   id="path4104"
   style="fill:#ffffff" />
			<path
   d="M 392.438,235.92 C 392.042,236.124 391.633,236.225 391.212,236.225 L 389.234,236.225 C 388.808,236.225 388.472,236.126 388.228,235.926 C 387.933,235.69 387.86,235.367 388.011,234.954 C 388.156,234.556 388.467,234.234 388.947,233.989 C 389.343,233.781 389.75,233.676 390.161,233.676 L 392.14,233.676 C 392.267,233.676 392.387,233.689 392.5,233.711 C 392.615,233.733 392.753,233.776 392.915,233.84 L 393.125,233.262 C 393.152,233.14 393.085,233.032 392.925,232.936 C 392.781,232.846 392.626,232.8 392.459,232.8 L 390.48,232.8 C 390.394,232.8 390.309,232.807 390.224,232.82 C 390.14,232.834 390.055,232.86 389.97,232.895 C 389.748,232.981 389.56,233.143 389.407,233.377 L 388.571,233.377 C 388.835,232.861 389.191,232.487 389.638,232.256 C 390.012,232.061 390.391,231.964 390.778,231.964 L 392.761,231.964 C 393.151,231.964 393.471,232.061 393.721,232.256 C 394.039,232.501 394.124,232.829 393.975,233.241 L 393.354,234.947 C 393.209,235.352 392.903,235.675 392.438,235.92 z M 392.511,234.954 C 392.557,234.828 392.499,234.721 392.335,234.635 C 392.189,234.553 392.022,234.512 391.837,234.512 L 389.858,234.512 C 389.627,234.512 389.403,234.563 389.185,234.663 C 389.006,234.744 388.897,234.839 388.857,234.948 C 388.815,235.061 388.852,235.158 388.967,235.24 C 389.104,235.339 389.291,235.389 389.532,235.389 L 391.515,235.389 C 391.71,235.389 391.902,235.353 392.091,235.28 C 392.325,235.19 392.464,235.082 392.511,234.954 z"
   id="path4106"
   style="fill:#ffffff" />
			<path
   d="M 399.738,233.377 C 399.755,233.142 399.684,232.981 399.526,232.895 C 399.466,232.859 399.4,232.833 399.325,232.82 C 399.251,232.807 399.173,232.8 399.092,232.8 L 397.114,232.8 C 396.915,232.8 396.716,232.838 396.52,232.916 C 396.295,233.002 396.159,233.11 396.11,233.242 L 395.024,236.225 L 394.181,236.225 L 395.732,231.964 L 396.575,231.964 L 396.512,232.14 C 396.679,232.077 396.835,232.032 396.979,232.004 C 397.123,231.977 397.267,231.963 397.412,231.963 L 399.396,231.963 C 399.773,231.963 400.08,232.058 400.319,232.248 C 400.606,232.479 400.691,232.855 400.574,233.376 L 399.738,233.376 L 399.738,233.377 z"
   id="path4108"
   style="fill:#ffffff" />
			<path
   d="M 407.239,233.228 C 407.095,233.623 406.783,233.946 406.301,234.2 C 405.903,234.408 405.5,234.512 405.093,234.512 L 403.115,234.512 C 402.982,234.512 402.861,234.502 402.746,234.479 C 402.633,234.457 402.494,234.414 402.332,234.35 L 402.124,234.92 L 402.119,234.934 C 402.09,235.052 402.159,235.159 402.328,235.254 C 402.4,235.304 402.476,235.338 402.555,235.36 C 402.635,235.38 402.715,235.39 402.795,235.39 L 404.774,235.39 C 404.855,235.39 404.938,235.383 405.022,235.37 C 405.107,235.356 405.192,235.33 405.278,235.295 C 405.499,235.208 405.686,235.047 405.841,234.812 L 406.676,234.812 C 406.415,235.328 406.059,235.702 405.603,235.934 C 405.229,236.128 404.851,236.226 404.471,236.226 L 402.492,236.226 C 402.111,236.226 401.792,236.127 401.534,235.927 C 401.212,235.677 401.126,235.349 401.274,234.942 L 401.895,233.236 C 402.041,232.832 402.347,232.511 402.811,232.27 C 403.202,232.066 403.612,231.965 404.042,231.965 L 406.021,231.965 C 406.437,231.965 406.768,232.062 407.015,232.257 C 407.313,232.497 407.388,232.82 407.239,233.228 z M 406.392,233.242 C 406.431,233.134 406.391,233.038 406.271,232.957 C 406.142,232.853 405.955,232.801 405.71,232.801 L 403.739,232.801 C 403.567,232.801 403.371,232.839 403.153,232.917 C 402.924,232.999 402.786,233.105 402.738,233.236 C 402.692,233.362 402.751,233.469 402.914,233.555 C 403.061,233.637 403.229,233.677 403.42,233.677 L 405.398,233.677 C 405.633,233.677 405.855,233.628 406.064,233.528 C 406.243,233.446 406.352,233.351 406.392,233.242 z"
   id="path4110"
   style="fill:#ffffff" />
		</g><g
       id="g3663"
       transform="translate(16.564834,16.038773)"><path
         id="path4068"
         d="M 329.34401,206.37535 L 326.37601,201.63135 L 309.23001,201.63135 L 306.20901,206.37535 L 302.44501,206.37535 C 303.62901,204.45035 304.83501,202.49735 306.06201,200.51935 C 307.29101,198.54035 308.49601,196.59735 309.67901,194.68935 C 310.86301,192.78135 312.01201,190.93535 313.12401,189.15035 C 314.23701,187.36535 315.28801,185.68735 316.27801,184.11435 C 316.56001,183.51335 317.05501,183.21335 317.76201,183.21335 C 318.41401,183.21335 318.90101,183.51335 319.21901,184.11435 L 333.13101,206.37535 L 329.34401,206.37535 z M 311.27001,198.34535 L 324.28301,198.34535 L 318.32001,188.77835 C 318.12601,188.46035 317.94901,188.30135 317.79001,188.30135 C 317.61301,188.30135 317.43601,188.46035 317.26101,188.77835 L 311.27001,198.34535 z" /><path
         id="path4070"
         d="M 362.78701,204.86535 C 361.51601,205.87235 359.97801,206.37535 358.17601,206.37535 L 342.17001,206.37535 C 340.35001,206.37535 338.83001,205.88035 337.61101,204.89135 C 336.30301,203.86735 335.65001,202.60335 335.65001,201.10135 L 335.65001,188.48635 C 335.65001,187.02035 336.30301,185.76635 337.61101,184.72335 C 338.88301,183.71635 340.42101,183.21335 342.22201,183.21335 L 358.25501,183.21335 C 359.93301,183.21335 361.35601,183.68135 362.52201,184.61835 C 363.74201,185.55535 364.52701,187.03035 364.88001,189.04335 L 361.62001,189.04335 C 361.39101,188.07135 360.95801,187.39135 360.32201,187.00235 C 359.77401,186.66735 359.07601,186.49935 358.22701,186.49935 L 342.22101,186.49935 C 341.26701,186.49935 340.45401,186.72035 339.78301,187.16235 C 339.19901,187.53335 338.90801,187.97535 338.90801,188.48735 L 338.90801,201.10235 C 338.90801,201.63235 339.19901,202.09235 339.78301,202.48035 L 339.75601,202.45435 C 340.41001,202.89535 341.21401,203.11635 342.16801,203.11635 L 358.17401,203.11635 C 359.00401,203.11635 359.74601,202.94035 360.40101,202.58635 C 361.17801,202.21535 361.56701,201.71135 361.56701,201.07535 L 361.56701,196.43735 L 348.60801,196.43735 L 348.60801,193.17735 L 364.80001,193.17735 L 364.80001,201.10135 C 364.80201,202.56835 364.13001,203.82235 362.78701,204.86535 z" /><path
         id="path4072"
         d="M 397.00001,194.92735 C 395.78101,195.91735 394.25201,196.41135 392.41501,196.41135 L 373.09601,196.41135 L 373.09601,206.37535 L 369.83701,206.37535 L 369.83701,188.48735 C 369.83701,187.02135 370.49001,185.76735 371.79801,184.72435 C 373.07001,183.71735 374.60801,183.21435 376.40801,183.21435 L 392.41501,183.21435 C 394.19901,183.21435 395.71901,183.71735 396.97401,184.72435 C 398.29901,185.76735 398.96101,187.02135 398.96101,188.48735 L 398.96101,191.13735 C 398.96101,192.63935 398.30801,193.90235 397.00001,194.92735 z M 395.72901,188.48735 C 395.72901,187.99235 395.42801,187.55135 394.82701,187.16235 C 394.15601,186.72035 393.35201,186.49935 392.41601,186.49935 L 376.38401,186.49935 C 375.57101,186.49935 374.83701,186.66735 374.18501,187.00235 C 373.45901,187.33835 373.09701,187.83335 373.09701,188.48635 L 373.09701,193.15135 L 392.41601,193.15135 C 393.35301,193.15135 394.15601,192.93935 394.82701,192.51535 C 395.42901,192.12735 395.72901,191.66735 395.72901,191.13735 L 395.72901,188.48735 z" /><path
         id="path4074"
         d="M 433.12001,201.20735 C 432.85401,202.78035 432.11301,204.04335 430.89301,204.99735 C 429.70901,205.91635 428.27901,206.37535 426.60001,206.37535 L 410.56701,206.37535 C 408.76501,206.37535 407.23701,205.88035 405.98301,204.89135 C 404.65801,203.86735 403.99601,202.60335 403.99601,201.10135 L 403.99601,183.23935 L 407.30801,183.23935 L 407.30801,201.10135 C 407.30801,201.63135 407.60001,202.09135 408.18301,202.47935 L 408.15601,202.45335 C 408.81001,202.89435 409.61401,203.11535 410.56801,203.11535 L 426.60101,203.11535 C 427.41401,203.11535 428.12101,202.93935 428.72101,202.58535 L 428.69601,202.58535 C 429.33201,202.19635 429.76301,201.53435 429.99401,200.59835 L 432.59101,200.59835 L 433.12001,201.20735 z" /><path
         id="path4114"
         d="M 519.46101,201.07635 C 519.46101,202.58135 518.79701,203.84735 517.46901,204.87435 C 516.24801,205.86635 514.72501,206.36135 512.90101,206.36135 L 496.83301,206.36135 C 495.15101,206.36135 493.72601,205.90935 492.55801,205.00735 C 491.30001,204.03335 490.50301,202.54635 490.16701,200.54535 L 493.43501,200.54535 C 493.66401,201.48335 494.08901,202.15635 494.70901,202.56435 L 494.68301,202.56435 C 495.28501,202.91835 496.00101,203.09535 496.83301,203.09535 L 512.90101,203.09535 C 513.82201,203.09535 514.61901,202.88235 515.29201,202.45735 C 515.89401,202.06835 516.19501,201.60735 516.19501,201.07635 L 516.19501,198.42035 C 516.19501,197.92535 515.89301,197.48235 515.29201,197.09235 C 514.58401,196.63235 513.77801,196.40135 512.87601,196.40135 L 504.32301,196.40135 L 504.32301,193.13435 L 512.90101,193.13435 C 513.84001,193.13435 514.63701,192.91335 515.29201,192.47035 C 515.89401,192.08135 516.19501,191.62935 516.19501,191.11635 L 516.19501,188.46035 C 516.19501,187.96435 515.89301,187.52235 515.29201,187.13235 C 514.58401,186.67235 513.77801,186.44235 512.87601,186.44235 L 496.83301,186.44235 C 496.01901,186.44235 495.31101,186.61935 494.70901,186.97335 L 494.73501,186.97335 C 494.09801,187.34535 493.66401,188.01835 493.43401,188.99235 L 490.16601,188.99235 C 490.48401,186.97335 491.26401,185.50435 492.50401,184.58335 C 493.67201,183.64535 495.11501,183.17635 496.83201,183.17635 L 512.90001,183.17635 C 514.68901,183.17635 516.21201,183.67235 517.46801,184.66335 C 518.79601,185.70835 519.46001,186.97435 519.46001,188.46135 C 519.46001,189.75335 519.40701,190.93135 519.30101,191.99335 C 519.26501,192.52435 519.08901,193.01235 518.77001,193.45435 C 518.62801,193.64935 518.46401,193.85235 518.27901,194.06535 C 518.09401,194.27835 517.86701,194.50835 517.60101,194.75535 C 518.11501,195.23335 518.50401,195.67635 518.77001,196.08335 C 519.07101,196.57935 519.24801,197.05735 519.30101,197.51735 C 519.40801,198.56235 519.46101,199.74835 519.46101,201.07635 z" /></g><g
       id="g3655"
       transform="translate(261.91309,15.088347)"><path
         id="path3657"
         d="M 240.71946,155.66132 L 218.34446,195.81757 C 224.31015,194.5829 230.60959,192.94653 236.81321,190.81757 L 257.68821,155.66132 L 240.71946,155.66132 z M 197.59446,173.72382 L 197.59446,198.91132 C 201.82035,198.4988 206.76846,197.88729 212.25071,196.94257 L 212.18821,173.72382 L 197.59446,173.72382 z"
         style="fill:url(#linearGradient4011);fill-opacity:1" /><path
         id="path3659"
         d="M 228.37571,204.91132 C 223.8493,207.89087 217.4158,209.78632 210.28196,209.78632 C 205.60859,209.78632 201.26498,208.95653 197.53196,207.56757 L 197.53196,215.28632 L 214.40696,215.28632 C 214.65785,215.28634 215.35148,215.20982 216.34446,215.09882 C 217.16845,215.00765 218.25613,214.65954 219.56321,214.00507 C 219.57363,214.00493 219.58404,214.00491 219.59446,214.00507 C 220.84816,213.37915 222.2628,212.3236 223.84446,210.84882 C 225.30204,209.48976 226.84734,207.5048 228.43821,204.94257 C 228.41691,204.93608 228.39706,204.91777 228.37571,204.91132 z"
         style="opacity:0.65116278;fill:#ffffff;fill-opacity:1;fill-rule:nonzero;stroke-width:1;stroke-linecap:butt;stroke-linejoin:miter;marker:none;marker-start:none;marker-mid:none;marker-end:none;stroke-miterlimit:4;stroke-dasharray:none;stroke-dashoffset:0;stroke-opacity:1;visibility:visible;display:inline;overflow:visible;filter:url(#filter3797);enable-background:accumulate" /></g></g><g
     transform="matrix(1.0020157,0,0,1,15.694954,15.914314)"
     id="g2776"><path
       sodipodi:type="inkscape:offset"
       inkscape:radius="-0.941535"
       inkscape:original="M 76.9375 318.0625 L 76.9375 322.5 C 93.103607 326.0298 115.45019 328.1875 140.125 328.1875 C 160.26114 328.1875 178.83943 326.76607 193.78125 324.3125 L 193.78125 318.0625 L 76.9375 318.0625 z "
       style="opacity:0.34883722;fill:#ffffff;fill-opacity:1;filter:url(#filter3676)"
       id="path2770"
       d="M 77.875,319 L 77.875,321.71875 C 93.887997,325.13909 115.85526,327.25 140.125,327.25 C 159.88372,327.25 178.09556,325.86881 192.84375,323.5 L 192.84375,319 L 77.875,319 z"
       transform="matrix(-1.265412,0,0,-0.4576597,539.25901,374.66724)" /><path
       sodipodi:type="inkscape:offset"
       inkscape:radius="-0.941535"
       inkscape:original="M 76.9375 318.0625 L 76.9375 322.5 C 93.103607 326.0298 115.45019 328.1875 140.125 328.1875 C 160.26114 328.1875 178.83943 326.76607 193.78125 324.3125 L 193.78125 318.0625 L 76.9375 318.0625 z "
       style="opacity:0.70542632;fill:url(#linearGradient4009);fill-opacity:1"
       id="path2772"
       d="M 77.875,319 L 77.875,321.71875 C 93.887997,325.13909 115.85526,327.25 140.125,327.25 C 159.88372,327.25 178.09556,325.86881 192.84375,323.5 L 192.84375,319 L 77.875,319 z"
       transform="matrix(1.265412,0,0,1,196.68825,-102.57618)" /></g></g></svg>