<?xml version="1.0" encoding="UTF-8" standalone="no"?>
<!-- Created with Inkscape (http://www.inkscape.org/) -->
<svg
   xmlns:dc="http://purl.org/dc/elements/1.1/"
   xmlns:cc="http://web.resource.org/cc/"
   xmlns:rdf="http://www.w3.org/1999/02/22-rdf-syntax-ns#"
   xmlns:svg="http://www.w3.org/2000/svg"
   xmlns="http://www.w3.org/2000/svg"
   xmlns:sodipodi="http://sodipodi.sourceforge.net/DTD/sodipodi-0.dtd"
   xmlns:inkscape="http://www.inkscape.org/namespaces/inkscape"
   width="1620"
   height="1080"
   id="svg1341"
   sodipodi:version="0.32"
   inkscape:version="0.45.1"
   sodipodi:docname="agpl-logo2.svg"
   inkscape:output_extension="org.inkscape.output.svg.inkscape"
   version="1.0">
  <sodipodi:namedview
     id="base"
     pagecolor="#ffffff"
     bordercolor="#666666"
     borderopacity="1.0"
     inkscape:pageopacity="0.0"
     inkscape:pageshadow="2"
     inkscape:zoom="0.5054504"
     inkscape:cx="897.55388"
     inkscape:cy="461.72056"
     inkscape:document-units="px"
     inkscape:current-layer="g2803"
     inkscape:window-width="1278"
     inkscape:window-height="971"
     inkscape:window-x="0"
     inkscape:window-y="27"
     showguides="true"
     inkscape:guide-bbox="true"
     width="18in"
     height="12in"
     units="in"
     showborder="true">
  </sodipodi:namedview>
  <metadata
     id="metadata1346">
    <rdf:RDF>
      <cc:Work
         rdf:about="">
        <dc:format>image/svg+xml</dc:format>
        <dc:type
           rdf:resource="http://purl.org/dc/dcmitype/StillImage" />
      </cc:Work>
    </rdf:RDF>
  </metadata>
  <g
     inkscape:label="Layer 1"
     id="layer1"
     inkscape:groupmode="layer">
    <g
       id="g2947"
       transform="matrix(0.329743,0,0,0.329743,1073.5062,645.02907)">
      <g
         transform="matrix(0.385154,0,0,0.385154,330.53849,1073.2023)"
         id="g2953"
         style="fill:#663366;fill-opacity:1">
        <g
           transform="matrix(1.705222,0,0,1.705222,-769.6823,-728.9956)"
           id="g2955"
           style="fill:#663366;fill-opacity:1;fill-rule:evenodd;stroke:none;stroke-width:1pt;stroke-linecap:butt;stroke-linejoin:miter">
          <path
             d="M 0,36 C 0,36 7.46,36 7.46,36 C 7.46,36 10.81,22 10.81,22 C 10.81,22 22.93,22 22.93,22 C 22.93,22 24.49,16 24.49,16 C 24.49,16 12.32,16 12.32,16 C 12.32,16 14.34,7 14.34,7 C 14.34,7 27.29,7 27.29,7 C 27.29,7 28.85,0 28.85,0 C 28.85,0 8.4,0 8.4,0 C 8.4,0 0,36 0,36 z "
             id="path2957"
             style="fill:#663366;fill-opacity:1" />
        </g>
        <g
           transform="matrix(1.705222,0,0,1.705222,-725.4318,-711.9434)"
           id="g2959"
           style="fill:#663366;fill-opacity:1;fill-rule:evenodd;stroke:none;stroke-width:1pt;stroke-linecap:butt;stroke-linejoin:miter">
          <path
             d="M 7.51,26 C 7.51,26 9.75,16.6 9.75,16.6 C 10.93,11.51 13.42,7 18.13,7 C 18.55,7 18.96,7.21 19.27,7.26 C 19.27,7.26 21.09,0.05 21.09,0.05 C 20.67,0.05 20.21,0 19.69,0 C 16.22,0 13.31,2.44 11.37,5.94 C 11.37,5.94 11.17,5.94 11.17,5.94 C 11.46,4.23 11.71,2.61 11.9,1 C 11.9,1 5.47,1 5.47,1 C 5.1,3.08 4.53,7.15 3.66,10.82 C 3.66,10.82 0,26 0,26 C 0,26 7.51,26 7.51,26 z "
             id="path2961"
             style="fill:#663366;fill-opacity:1" />
        </g>
        <g
           transform="matrix(1.705222,0,0,1.705222,-690.253,-711.9434)"
           id="g2963"
           style="fill:#663366;fill-opacity:1;fill-rule:evenodd;stroke:none;stroke-width:1pt;stroke-linecap:butt;stroke-linejoin:miter">
          <path
             d="M 20.06,19.25 C 17.99,20.26 15.63,20 12.88,20 C 10.71,20 9.03,19.62 8.11,18.88 C 7.63,18.07 7.43,16.81 7.47,16 C 17.6,16.27 23.99,13.93 24.31,7.53 C 24.55,2.7 21.02,0 15.89,0 C 6.73,0 0.73,8.08 0.34,15.86 C 0,22.65 3.52,26 10.78,26 C 13.57,26 17.27,25.68 20.3,24.77 C 20.3,24.77 20.06,19.25 20.06,19.25 z M 17.32,7.53 C 17.2,9.91 14.26,10.05 8.47,10 C 9.1,7.91 11.22,6 14.69,6 C 16.4,6 17.38,6.65 17.32,7.53 z "
             id="path2965"
             style="fill:#663366;fill-opacity:1" />
        </g>
        <g
           transform="matrix(1.705222,0,0,1.705222,-645.0305,-711.9434)"
           id="g2967"
           style="fill:#663366;fill-opacity:1;fill-rule:evenodd;stroke:none;stroke-width:1pt;stroke-linecap:butt;stroke-linejoin:miter">
          <path
             d="M 20.05,19.25 C 17.98,20.26 15.62,20 12.88,20 C 10.7,20 9.03,19.62 8.11,18.88 C 7.63,18.07 7.42,16.81 7.46,16 C 17.6,16.27 23.98,13.93 24.31,7.53 C 24.55,2.7 21.02,0 15.89,0 C 6.72,0 0.72,8.08 0.33,15.86 C 0,22.65 3.52,26 10.77,26 C 13.57,26 17.27,25.68 20.3,24.77 C 20.3,24.77 20.05,19.25 20.05,19.25 z M 17.32,7.53 C 17.2,9.91 14.26,10.05 8.46,10 C 9.1,7.91 11.21,6 14.68,6 C 16.39,6 17.38,6.65 17.32,7.53 z "
             id="path2969"
             style="fill:#663366;fill-opacity:1" />
        </g>
        <g
           transform="matrix(1.705222,0,0,1.705222,-583.796,-711.9434)"
           id="g2971"
           style="fill:#663366;fill-opacity:1;fill-rule:evenodd;stroke:none;stroke-width:1pt;stroke-linecap:butt;stroke-linejoin:miter">
          <path
             d="M 22.74,26 C 22.8,22.83 23.56,17.85 24.35,14.58 C 24.35,14.58 27.56,1 27.56,1 C 25.52,0.31 22.34,0 19.28,0 C 6.86,0 0.7,9.2 0.27,17.82 C 0,23.23 2.93,26 7.49,26 C 10.44,26 13.77,24.57 16.36,20.27 C 16.36,20.27 16.47,20.27 16.47,20.27 C 16.27,22.34 16.03,24.35 15.9,26 C 15.9,26 22.74,26 22.74,26 z M 17.61,11.72 C 16.15,18.08 13.17,20 10.95,20 C 8.88,20 7.98,18.53 8.1,16.39 C 8.34,11.56 12.16,6 16.98,6 C 17.76,6 18.37,5.86 18.94,5.72 C 18.94,5.72 17.61,11.72 17.61,11.72 z "
             id="path2973"
             style="fill:#663366;fill-opacity:1" />
        </g>
        <g
           transform="matrix(1.705222,0,0,1.705222,-536.6807,-711.9434)"
           id="g2975"
           style="fill:#663366;fill-opacity:1;fill-rule:evenodd;stroke:none;stroke-width:1pt;stroke-linecap:butt;stroke-linejoin:miter">
          <path
             d="M 0,24.82 C 1.44,25.94 4.46,25.95 7.61,26 C 14.34,26.05 19.42,23.11 19.72,17.71 C 19.89,14.11 17.1,11.98 14.37,10.55 C 12.4,9.6 11.41,8.69 11.46,7.63 C 11.53,6.2 12.87,6 14.84,6 C 17.06,6 18.84,6.27 19.86,6.47 C 19.86,6.47 21.88,1.05 21.88,1.05 C 20.73,0.36 18.43,0 15.48,0 C 8.95,0 4.17,3.45 3.9,8.69 C 3.74,11.93 6.07,14.11 8.89,15.59 C 11.17,16.76 11.95,17.66 11.89,18.93 C 11.82,20.21 10.68,20 8.61,20 C 6.18,20 3.49,19.68 2.07,19.46 C 2.07,19.46 0,24.82 0,24.82 z "
             id="path2977"
             style="fill:#663366;fill-opacity:1" />
        </g>
        <g
           transform="matrix(1.705222,0,0,1.705222,-481.3463,-730.7008)"
           id="g2979"
           style="fill:#663366;fill-opacity:1;fill-rule:evenodd;stroke:none;stroke-width:1pt;stroke-linecap:butt;stroke-linejoin:miter">
          <path
             d="M 7.45,37 C 7.45,37 13.5,12 13.5,12 C 13.5,12 6.09,12 6.09,12 C 6.09,12 0,37 0,37 C 0,37 7.45,37 7.45,37 z M 10.92,9 C 13.46,9 15.72,6.9 15.86,3.3 C 15.98,0.86 14.4,0 12.07,0 C 9.64,0 7.42,1.58 7.29,3.94 C 7.17,6.32 8.75,9 10.92,9 z "
             id="path2981"
             style="fill:#663366;fill-opacity:1" />
        </g>
        <g
           transform="matrix(1.705222,0,0,1.705222,-456.9787,-710.7668)"
           id="g2983"
           style="fill:#663366;fill-opacity:1;fill-rule:evenodd;stroke:none;stroke-width:1pt;stroke-linecap:butt;stroke-linejoin:miter">
          <path
             d="M 7.46,25.31 C 7.46,25.31 10.1,14.05 10.1,14.05 C 11.47,8.32 14.42,6.31 16.85,6.31 C 18.77,6.31 19.33,7.13 19.24,8.32 C 19.19,9.28 19.04,10.29 18.84,11.19 C 18.84,11.19 15.48,25.31 15.48,25.31 C 15.48,25.31 22.94,25.31 22.94,25.31 C 22.94,25.31 26.48,10.5 26.48,10.5 C 26.75,9.22 27.05,7.31 27.11,6.15 C 27.33,1.64 25.08,0 20.94,0 C 17.62,0 14.39,1.54 11.84,4.88 C 11.84,4.88 11.74,4.88 11.74,4.88 C 11.74,4.88 12.42,0.31 12.42,0.31 C 12.42,0.31 5.84,0.31 5.84,0.31 C 5.41,2.45 4.86,5.04 4.08,8.06 C 4.08,8.06 0,25.31 0,25.31 C 0,25.31 7.46,25.31 7.46,25.31 z "
             id="path2985"
             style="fill:#663366;fill-opacity:1" />
        </g>
        <g
           transform="matrix(1.705222,0,0,1.705222,-389.5201,-728.9956)"
           id="g2987"
           style="fill:#663366;fill-opacity:1;fill-rule:evenodd;stroke:none;stroke-width:1pt;stroke-linecap:butt;stroke-linejoin:miter">
          <path
             d="M 0,36 C 0,36 7.46,36 7.46,36 C 7.46,36 10.82,22 10.82,22 C 10.82,22 22.93,22 22.93,22 C 22.93,22 24.49,16 24.49,16 C 24.49,16 12.32,16 12.32,16 C 12.32,16 14.34,7 14.34,7 C 14.34,7 27.29,7 27.29,7 C 27.29,7 28.85,0 28.85,0 C 28.85,0 8.4,0 8.4,0 C 8.4,0 0,36 0,36 z "
             id="path2989"
             style="fill:#663366;fill-opacity:1" />
        </g>
        <g
           transform="matrix(1.705222,0,0,1.705222,-345.2696,-711.9434)"
           id="g2991"
           style="fill:#663366;fill-opacity:1;fill-rule:evenodd;stroke:none;stroke-width:1pt;stroke-linecap:butt;stroke-linejoin:miter">
          <path
             d="M 7.51,26 C 7.51,26 9.75,16.6 9.75,16.6 C 10.93,11.51 13.42,7 18.13,7 C 18.55,7 18.96,7.21 19.27,7.26 C 19.27,7.26 21.09,0.05 21.09,0.05 C 20.67,0.05 20.21,0 19.69,0 C 16.22,0 13.31,2.44 11.37,5.94 C 11.37,5.94 11.17,5.94 11.17,5.94 C 11.46,4.23 11.71,2.61 11.9,1 C 11.9,1 5.47,1 5.47,1 C 5.11,3.08 4.53,7.15 3.66,10.82 C 3.66,10.82 0,26 0,26 C 0,26 7.51,26 7.51,26 z "
             id="path2993"
             style="fill:#663366;fill-opacity:1" />
        </g>
        <g
           transform="matrix(1.705222,0,0,1.705222,-310.0908,-711.9434)"
           id="g2995"
           style="fill:#663366;fill-opacity:1;fill-rule:evenodd;stroke:none;stroke-width:1pt;stroke-linecap:butt;stroke-linejoin:miter">
          <path
             d="M 20.06,19.25 C 17.99,20.26 15.63,20 12.88,20 C 10.71,20 9.03,19.62 8.11,18.88 C 7.63,18.07 7.43,16.81 7.47,16 C 17.6,16.27 23.99,13.93 24.31,7.53 C 24.55,2.7 21.02,0 15.89,0 C 6.73,0 0.73,8.08 0.34,15.86 C 0,22.65 3.53,26 10.78,26 C 13.57,26 17.28,25.68 20.3,24.77 C 20.3,24.77 20.06,19.25 20.06,19.25 z M 17.32,7.53 C 17.2,9.91 14.26,10.05 8.47,10 C 9.1,7.91 11.22,6 14.69,6 C 16.4,6 17.38,6.65 17.32,7.53 z "
             id="path2997"
             style="fill:#663366;fill-opacity:1" />
        </g>
        <g
           transform="matrix(1.705222,0,0,1.705222,-264.8684,-711.9434)"
           id="g2999"
           style="fill:#663366;fill-opacity:1;fill-rule:evenodd;stroke:none;stroke-width:1pt;stroke-linecap:butt;stroke-linejoin:miter">
          <path
             d="M 20.05,19.25 C 17.98,20.26 15.62,20 12.88,20 C 10.7,20 9.03,19.62 8.11,18.88 C 7.63,18.07 7.42,16.81 7.46,16 C 17.6,16.27 23.98,13.93 24.31,7.53 C 24.55,2.7 21.02,0 15.89,0 C 6.72,0 0.72,8.08 0.33,15.86 C 0,22.65 3.52,26 10.77,26 C 13.57,26 17.27,25.68 20.3,24.77 C 20.3,24.77 20.05,19.25 20.05,19.25 z M 17.32,7.53 C 17.2,9.91 14.26,10.05 8.46,10 C 9.1,7.91 11.21,6 14.68,6 C 16.39,6 17.38,6.65 17.32,7.53 z "
             id="path3001"
             style="fill:#663366;fill-opacity:1" />
        </g>
        <g
           transform="matrix(1.705222,0,0,1.705222,-219.8846,-730.7008)"
           id="g3003"
           style="fill:#663366;fill-opacity:1;fill-rule:evenodd;stroke:none;stroke-width:1pt;stroke-linecap:butt;stroke-linejoin:miter">
          <path
             d="M 23.31,0 C 23.31,0 20.5,11.36 20.5,11.36 C 19.48,10.94 18.15,11 17.11,11 C 7.53,11 0.75,19.2 0.3,28.08 C 0,34.34 3.34,37 7.64,37 C 10.65,37 13.82,35.67 16.22,32.23 C 16.22,32.23 16.32,32.23 16.32,32.23 C 16.32,32.23 15.75,37 15.75,37 C 15.75,37 22.53,37 22.53,37 C 22.84,34 23.49,30.43 24.22,27.17 C 24.22,27.17 30.71,0 30.71,0 C 30.71,0 23.31,0 23.31,0 z M 17.47,24.42 C 16.3,29.35 13.54,31 11.36,31 C 9.19,31 7.98,29.49 8.13,26.8 C 8.38,21.82 11.8,17 16.25,17 C 17.5,17 18.57,17.19 19.16,17.47 C 19.16,17.47 17.47,24.42 17.47,24.42 z "
             id="path3005"
             style="fill:#663366;fill-opacity:1" />
        </g>
        <g
           transform="matrix(1.705222,0,0,1.705222,-169.2225,-711.9434)"
           id="g3007"
           style="fill:#663366;fill-opacity:1;fill-rule:evenodd;stroke:none;stroke-width:1pt;stroke-linecap:butt;stroke-linejoin:miter">
          <path
             d="M 10.61,26 C 19.31,26 26.02,19.41 26.49,10.44 C 26.78,4.5 23.08,0 16.25,0 C 7.23,0 0.76,7.3 0.31,16.12 C 0,22.54 4.14,26 10.61,26 z M 11.78,20 C 9.24,20 7.84,18.38 7.99,15.96 C 8.19,11.93 10.68,6 14.97,6 C 17.93,6 18.84,8.27 18.72,10.5 C 18.5,14.9 15.82,20 11.78,20 z "
             id="path3009"
             style="fill:#663366;fill-opacity:1" />
        </g>
        <g
           transform="matrix(1.705222,0,0,1.705222,-120.5213,-711.9434)"
           id="g3011"
           style="fill:#663366;fill-opacity:1;fill-rule:evenodd;stroke:none;stroke-width:1pt;stroke-linecap:butt;stroke-linejoin:miter">
          <path
             d="M 7.2,26 C 7.2,26 9.9,14.58 9.9,14.58 C 11.03,9.49 13.85,6 16.38,6 C 18.2,6 18.7,7.33 18.61,9.07 C 18.56,9.97 18.36,10.98 18.15,11.98 C 18.15,11.98 14.81,26 14.81,26 C 14.81,26 22.01,26 22.01,26 C 22.01,26 24.71,14.53 24.71,14.53 C 25.95,9.28 28.61,6 31.09,6 C 32.8,6 33.51,7.22 33.43,8.96 C 33.38,9.97 33.17,11.08 32.91,12.09 C 32.91,12.09 29.67,26 29.67,26 C 29.67,26 36.92,26 36.92,26 C 36.92,26 40.41,11.19 40.41,11.19 C 40.68,9.86 40.99,7.79 41.04,6.73 C 41.26,2.33 39.11,0 35.23,0 C 31.91,0 28.68,1.5 26.23,4.66 C 26.14,2.38 24.51,0 20.47,0 C 17.2,0 14.08,1.48 11.58,4.83 C 11.58,4.83 11.48,4.83 11.48,4.83 C 11.48,4.83 12.15,1 12.15,1 C 12.15,1 5.73,1 5.73,1 C 5.31,3.14 4.8,5.73 4.02,8.75 C 4.02,8.75 0,26 0,26 C 0,26 7.2,26 7.2,26 z "
             id="path3013"
             style="fill:#663366;fill-opacity:1" />
        </g>
      </g>
      <path
         id="path3015"
         sodipodi:nodetypes="cccccssccccscccsccc"
         d="M 242.27371,772.00406 C 242.54037,772.68943 242.80691,773.37376 243.08464,774.04303 C 243.51237,774.95236 244.00664,775.82277 244.60103,776.6353 C 247.81154,780.99943 253.18819,783.38896 260.01456,783.98392 C 260.01456,783.98392 267.35758,783.98392 267.35758,783.98392 C 269.67931,783.80276 272.11222,783.4651 274.63394,782.97185 C 278.983,782.12142 283.59323,780.81507 288.3812,779.06924 C 292.00825,777.74679 295.7353,776.18212 299.51782,774.36357 C 307.75511,770.41484 316.26453,765.32209 324.61288,759.17606 C 327.36234,757.15364 330.0006,755.07848 332.53351,752.96839 C 334.85524,751.0366 337.08256,749.07468 339.21,747.09119 C 345.14759,741.369 349.63009,735.55743 352.16848,730.45452 C 354.81234,725.14054 355.34006,720.59708 353.17381,717.73485 C 351.84634,715.97795 349.6245,715.03642 346.76398,714.81486 C 359.65031,705.14566 367.15988,693.41636 364.46602,686.02117 C 363.61057,683.66109 361.72764,681.90031 359.02818,680.92659 C 357.82845,680.4951 356.47872,680.22171 355.00674,680.09728 C 355.00674,680.09728 351.04089,680.09728 351.04089,680.09728 C 345.50317,680.4967 337.45013,682.47962 330.61816,685.8278"
         style="fill:#ffffff;fill-opacity:0;fill-rule:evenodd;stroke:#663266;stroke-width:3.28386545;stroke-linecap:butt;stroke-linejoin:miter;stroke-miterlimit:4;stroke-opacity:1" />
      <path
         d="M 62.777261,682.66638 C 62.777261,682.66638 39.933871,782.33169 39.933871,782.33169 C 39.940451,782.33169 100.02529,782.33169 100.03843,782.33169 C 126.46327,782.33169 205.71727,782.33169 205.71727,782.33169 C 205.71739,782.33169 260.68098,782.33169 260.68098,782.33169 C 254.13302,781.76024 248.96333,779.46158 245.88307,775.27142 C 245.31174,774.49633 244.83961,773.66143 244.42592,772.78794 C 244.16315,772.14435 243.91612,771.49494 243.66647,770.83823 C 243.00965,768.7496 242.74778,766.4321 242.86604,763.96255 C 243.19446,757.07955 246.42414,748.89227 252.01985,740.31869 C 257.9636,731.20735 266.57804,721.65767 277.24402,712.79586 C 279.63469,710.81111 282.10664,708.85113 284.69423,706.94639 C 287.89275,704.59328 291.11593,702.426 294.3406,700.39924 C 306.2216,692.91923 318.07314,687.68527 328.57497,685.02669 C 318.53945,688.30066 307.26517,693.85881 296.12627,701.42546 C 295.7256,701.696 295.32995,701.97316 294.93578,702.24644 C 288.75562,706.5286 283.15661,711.0764 278.27024,715.66917 C 262.54701,730.45315 254.23644,745.77239 258.01292,754.74721 C 258.2822,755.36454 258.60319,755.95402 258.9775,756.51234 C 263.03638,762.48234 273.09564,763.51427 285.84362,760.30924 C 286.7106,760.09258 287.57758,759.84704 288.4707,759.59089 C 292.54271,758.41535 296.86597,756.82751 301.3189,754.87038 C 302.38942,754.39745 303.47146,753.91151 304.56172,753.39258 C 304.67336,753.34007 304.77838,753.28756 304.89002,753.22843 C 318.94503,746.24498 329.7465,738.20952 332.08455,733.38159 C 332.59687,732.3314 332.72003,731.436 332.37187,730.73396 C 330.70366,727.35154 319.03042,729.63663 304.89002,735.76234 C 303.75387,736.25501 302.60448,736.76185 301.44196,737.30167 C 302.3877,736.42362 303.37215,735.54214 304.37691,734.67459 C 305.97948,733.29404 307.63867,731.94408 309.40539,730.61079 C 312.17037,728.51703 314.96571,726.62417 317.71768,724.94614 C 330.60355,715.22455 337.11795,706.0285 335.7584,702.61583 C 335.50225,701.97282 334.95718,701.53059 334.11645,701.26119 C 331.43024,700.40677 326.52743,701.4266 320.57055,703.86784 C 315.65781,705.88285 310.01531,708.87122 304.29483,712.59061 C 304.29483,712.59061 303.51495,713.10373 303.51495,713.10373 C 303.51495,713.10373 303.37123,713.1858 303.37123,713.1858 C 303.37123,713.1858 300.6211,715.01245 300.6211,715.01245 C 300.6211,715.01245 302.20141,712.1186 302.20141,712.1186 C 304.54608,707.8265 308.36525,703.34834 313.12023,699.18832 C 316.60767,696.14675 320.5919,693.28098 324.88057,690.77341 C 326.50277,689.82367 328.12258,688.94163 329.74479,688.14633 C 331.40649,687.33449 333.06888,686.61305 334.69109,685.97072 C 339.40417,684.10685 344.58163,681.75305 348.50513,681.44507 C 348.14783,681.44507 336.80517,682.66638 336.80517,682.66638 C 336.80517,682.66638 299.6564,682.66638 299.6564,682.66638 C 299.6564,682.66638 135.85314,682.66638 135.85314,682.66638 C 135.85314,682.66638 62.777261,682.66638 62.777261,682.66638 z M 240.71098,682.81009 C 240.06739,692.6334 241.97201,707.02162 246.29356,722.99632 C 247.06202,725.83881 247.89853,728.73163 248.81802,731.65756 C 249.38946,733.46435 249.97894,735.24283 250.58314,736.9938 C 250.22847,737.51525 249.87141,738.03349 249.53637,738.55368 C 244.14431,746.81711 240.99259,754.62655 240.19787,761.41754 C 237.91883,753.78583 236.20314,745.42663 235.23102,736.56277 C 234.95523,734.02312 234.73937,731.51179 234.59486,729.03048 C 233.53085,711.00665 235.88374,694.66803 240.71098,682.81009 z M 133.10289,695.59654 C 133.22583,695.59369 133.34706,695.59654 133.47229,695.59654 C 133.47229,695.59654 157.75242,695.59654 157.75242,695.59654 C 159.82781,695.59654 161.43278,695.98557 162.57555,696.76648 C 163.7117,697.55196 164.13783,698.56802 163.86854,699.80405 C 163.86854,699.80405 160.97469,712.87793 160.97469,712.87793 C 160.97469,712.87793 152.41607,712.87793 152.41607,712.87793 C 152.41607,712.87793 155.22785,700.15301 155.22785,700.15301 C 155.22785,700.15301 133.8007,700.15301 133.8007,700.15301 C 133.8007,700.15301 126.06306,735.12606 126.06306,735.12606 C 126.06306,735.12606 123.27171,747.78956 123.27171,747.78956 C 123.27171,747.78956 144.67842,747.78956 144.67842,747.78956 C 144.67842,747.78956 144.69897,747.70749 144.69897,747.70749 C 144.69897,747.70749 148.98855,728.33256 148.98855,728.33256 C 148.98855,728.33256 138.9317,728.33256 138.9317,728.33256 C 138.9317,728.33256 139.89639,723.96101 139.89639,723.96101 C 139.89639,723.9609 158.51176,723.96101 158.51176,723.96101 C 158.51176,723.9609 153.17552,748.13841 153.17552,748.13841 C 153.10326,748.48258 152.97678,748.79433 152.80601,749.10311 C 152.36595,749.90433 151.5984,750.59061 150.52789,751.15555 C 149.04358,751.93703 147.26704,752.32537 145.19153,752.32537 C 145.19153,752.32537 120.93206,752.32537 120.93206,752.32537 C 118.85667,752.32537 117.2517,751.93703 116.10882,751.15555 C 114.97267,750.37395 114.53998,749.37581 114.81583,748.13841 C 114.81583,748.13841 125.50897,699.80405 125.50897,699.80405 C 125.78476,698.56802 126.64512,697.55196 128.13593,696.76648 C 128.18856,696.73817 128.24769,696.73178 128.3002,696.70495 C 129.661,696.02335 131.25798,695.64015 133.10289,695.59654 z M 171.15472,695.59654 C 171.1546,695.59654 201.71512,695.59654 201.71512,695.59654 C 203.76425,695.59654 205.37493,695.98557 206.51782,696.76648 C 207.66709,697.55196 208.10715,698.56802 207.83136,699.80405 C 207.83136,699.80405 202.12561,725.58242 202.12561,725.58242 C 201.85633,726.81058 200.97542,727.8126 199.47798,728.59945 C 197.98054,729.38892 196.21793,729.78982 194.16217,729.78982 C 194.16217,729.78982 171.95503,729.78982 171.95503,729.78982 C 171.95503,729.78982 167.66556,749.14409 167.66556,749.14409 C 167.66556,749.14409 166.96775,752.32537 166.96775,752.32537 C 166.96775,752.32537 158.59383,752.32537 158.59383,752.32537 C 158.59383,752.32537 159.23011,749.45195 159.23011,749.45195 C 159.23011,749.45195 171.15472,695.59654 171.15472,695.59654 z M 213.37284,695.59654 C 213.37284,695.59654 221.74665,695.59654 221.74665,695.59654 C 221.74665,695.59654 212.26454,738.43051 212.26454,738.43051 C 212.26454,738.43051 210.19155,747.78956 210.19155,747.78956 C 210.19155,747.78956 230.2232,747.78956 230.2232,747.78956 C 230.43335,749.3257 230.67877,750.83456 230.94155,752.32537 C 230.94155,752.32537 200.81207,752.32537 200.81207,752.32537 C 200.81207,752.32537 203.19281,741.57071 203.19281,741.57071 C 203.19281,741.57071 213.37284,695.59654 213.37284,695.59654 z M 178.52285,700.15301 C 178.52285,700.15301 172.96071,725.23346 172.96071,725.23346 C 172.96071,725.23346 193.83387,725.23346 193.83387,725.23346 C 193.83387,725.23346 199.37536,700.15301 199.37536,700.15301 C 199.37536,700.15301 178.52285,700.15301 178.52285,700.15301 z M 134.01382,759.34729 C 134.09578,759.34443 134.17763,759.34729 134.26016,759.34729 C 135.23216,759.34729 136.0811,759.51794 136.76407,759.83985 C 137.49316,760.18139 138.01449,760.68868 138.30341,761.35864 C 138.58582,762.00884 138.65967,762.74683 138.50865,763.55468 C 138.50865,763.55468 138.44712,763.86255 138.44712,763.86255 C 138.44712,763.86255 136.04583,763.86255 136.04583,763.86255 C 136.04572,763.86255 136.06626,763.57523 136.06626,763.57523 C 136.12836,763.01075 136.05839,762.56693 135.84059,762.26169 C 135.81216,762.22345 135.77096,762.17288 135.73785,762.13852 C 135.68374,762.08316 135.60235,762.02003 135.53272,761.97437 C 135.19666,761.76262 134.67111,761.64596 133.99339,761.64596 C 133.09353,761.64596 132.42118,761.80269 131.96149,762.11797 C 131.51482,762.42664 131.23241,762.77149 131.14051,763.18529 C 131.04851,763.60559 131.19953,763.82648 131.30466,763.94462 C 131.30797,763.94793 131.32122,763.96152 131.32521,763.96517 C 131.45831,764.07852 131.9204,764.3445 133.35711,764.68353 C 134.65752,764.99881 135.51868,765.28202 136.00474,765.52505 C 136.74033,765.89935 137.25424,766.38461 137.52352,766.98219 C 137.79281,767.57339 137.85194,768.26537 137.68767,769.01409 C 137.52352,769.74318 137.15162,770.41553 136.59992,771.04599 C 136.05485,771.67645 135.36115,772.17563 134.52693,772.52379 C 133.69945,772.86533 132.79149,773.05734 131.85887,773.05734 C 130.6766,773.05734 129.72755,772.87846 128.98545,772.52379 C 128.21047,772.156 127.65136,771.57554 127.32306,770.8202 C 127.00777,770.08472 126.94043,769.2497 127.1177,768.33683 C 127.1177,768.33683 127.17934,768.04951 127.17934,768.04951 C 127.17934,768.04951 129.53965,768.04951 129.53965,768.04951 C 129.53965,768.04951 129.51911,768.33683 129.51911,768.33683 C 129.45998,768.8819 129.51831,769.32196 129.66271,769.65037 C 129.80072,769.96566 130.06338,770.22672 130.48369,770.43025 C 130.93036,770.64703 131.48856,770.75867 132.12564,770.75867 C 132.69708,770.75867 133.21921,770.66267 133.68552,770.4919 C 134.14521,770.32763 134.51061,770.11097 134.77327,769.83507 C 135.02943,769.55928 135.17965,769.26774 135.24529,768.95256 C 135.31104,768.67015 135.2954,768.43123 135.18376,768.23421 C 135.05899,768.02406 134.81185,767.83765 134.42431,767.68012 C 134.42431,767.68 132.41296,767.08482 132.41296,767.08482 C 131.28994,766.80241 130.5338,766.53312 130.09375,766.26384 C 129.49605,765.90928 129.06513,765.45439 128.84173,764.90932 C 128.61845,764.37075 128.59471,763.77385 128.73922,763.12365 C 128.89025,762.42744 129.22597,761.76502 129.7449,761.17394 C 130.27034,760.57624 130.9484,760.10742 131.75625,759.79876 C 132.47049,759.53096 133.22207,759.37388 134.01382,759.34729 z M 155.56425,759.38827 C 155.69415,759.37822 155.8163,759.38827 155.95419,759.38827 C 155.95419,759.38827 157.43188,759.55242 157.43188,759.55242 C 157.43188,759.55242 157.92445,759.59351 157.92445,759.59351 C 157.92456,759.59351 157.2062,761.42016 157.2062,761.42016 C 157.2062,761.42016 157.06249,761.70748 157.06249,761.70748 C 157.06249,761.70748 155.93364,761.60486 155.93364,761.60486 C 155.60032,761.60486 155.35547,761.65634 155.19474,761.76913 C 155.18413,761.77712 155.16358,761.80154 155.15376,761.81011 C 155.13219,761.82905 155.096,761.86193 155.07169,761.89229 C 154.97283,762.02186 154.85252,762.25347 154.76382,762.67218 C 154.76382,762.67218 154.72113,762.84945 154.68175,763.00059 C 155.20056,763.00059 156.44676,763.00059 156.44676,763.00059 C 156.44676,763.00059 155.99529,765.03249 155.99529,765.03249 C 155.99529,765.03249 154.70469,765.03249 154.27126,765.03249 C 154.13987,765.62356 152.52668,772.85209 152.52668,772.85209 C 152.52668,772.85209 150.14582,772.85209 150.14582,772.85209 C 150.14582,772.85209 151.69337,765.90597 151.8904,765.03249 C 151.48973,765.03249 150.51533,765.03249 150.51533,765.03249 C 150.51533,765.03249 150.9668,763.00059 150.9668,763.00059 C 150.9668,763.00059 151.94702,763.00059 152.32144,763.00059 C 152.38707,762.71818 152.48558,762.36431 152.48558,762.36431 C 152.6301,761.70748 152.78112,761.23547 152.97815,760.90705 C 153.24755,760.45387 153.62756,760.07466 154.10699,759.79876 C 154.50196,759.56931 155.00137,759.4321 155.56425,759.38827 z M 161.24945,759.49089 C 161.24945,759.49089 160.6271,762.29125 160.46957,763.00059 C 160.92926,763.00059 162.00879,763.00059 162.00879,763.00059 C 162.00879,763.00059 161.55732,765.03249 161.55732,765.03249 C 161.55732,765.03249 160.42516,765.03249 160.01798,765.03249 C 159.89322,765.59719 158.90969,769.97879 158.90969,769.97879 C 158.90969,769.97879 158.82761,770.50502 158.82761,770.65605 C 158.82773,770.66107 158.82716,770.67283 158.82761,770.67659 C 158.82795,770.67819 158.82716,770.69577 158.82761,770.69714 C 158.82818,770.69817 158.84725,770.69634 158.84805,770.69714 C 158.84805,770.69714 159.09438,770.71757 159.09438,770.71757 C 159.09438,770.71757 160.22323,770.6355 160.22323,770.6355 C 160.22323,770.6355 160.10006,772.46215 160.10006,772.46215 C 160.10006,772.46215 160.12061,772.79056 160.12061,772.79056 C 160.12061,772.79056 158.4992,772.97526 158.4992,772.97526 C 157.85561,772.97526 157.38348,772.87024 157.04194,772.64685 C 156.68077,772.41044 156.47061,772.09687 156.38523,771.70281 C 156.3721,771.63056 156.34413,771.52542 156.34413,771.3744 C 156.34413,771.07886 156.39995,770.57888 156.59047,769.7119 C 156.59047,769.7119 157.45323,765.84684 157.63713,765.03249 C 157.32846,765.03249 156.5084,765.03249 156.5084,765.03249 C 156.5084,765.03249 156.95987,763.00059 156.95987,763.00059 C 156.95987,763.00059 157.7603,763.00059 158.08871,763.00059 C 158.19384,762.52766 158.56073,760.90705 158.56073,760.90705 C 158.56073,760.90705 160.46957,759.90138 160.46957,759.90138 C 160.46957,759.90138 161.24945,759.49089 161.24945,759.49089 z M 85.617911,759.57296 C 85.617911,759.57296 94.853781,759.57296 94.853781,759.57296 C 94.853781,759.57296 94.340681,761.87175 94.340681,761.87175 C 94.340681,761.87175 88.179331,761.87175 87.588231,761.87175 C 87.483171,762.33806 87.062011,764.22624 86.910951,764.90932 C 87.764761,764.90932 92.760321,764.90932 92.760321,764.90932 C 92.760321,764.90932 92.247211,767.20799 92.247211,767.20799 C 92.247211,767.20799 86.988941,767.20799 86.397841,767.20799 C 86.273051,767.77943 85.145861,772.85209 85.145861,772.85209 C 85.145861,772.85209 82.662431,772.85209 82.662431,772.85209 C 82.662431,772.85209 85.617911,759.57296 85.617911,759.57296 z M 97.993991,762.81589 C 98.086651,762.80448 98.187911,762.81589 98.281301,762.81589 C 98.872401,762.81589 99.418371,762.99568 99.943781,763.36999 C 99.943781,763.36999 100.27217,763.59578 100.27217,763.59578 C 100.27217,763.59578 98.999661,765.6892 98.999661,765.6892 C 98.999661,765.6892 98.650741,765.44286 98.650741,765.44286 C 98.394621,765.27871 98.118781,765.19664 97.829791,765.19664 C 97.580211,765.19664 97.347891,765.28533 97.111451,765.44286 C 96.861871,765.60713 96.653341,765.8247 96.495741,766.12024 C 96.219891,766.62593 96.017911,767.19235 95.879991,767.80317 C 95.879991,767.80317 94.771671,772.85209 94.771671,772.85209 C 94.771671,772.85209 92.390881,772.85209 92.390881,772.85209 C 92.390881,772.85209 94.586991,763.00059 94.586991,763.00059 C 94.586991,763.00059 96.803591,763.00059 96.803591,763.00059 C 96.803591,763.00059 96.727211,763.29933 96.700951,763.41097 C 96.806061,763.3322 96.916861,763.22387 97.008841,763.16474 C 97.326941,762.97491 97.662951,762.85642 97.993991,762.81589 z M 105.05429,762.81589 C 105.19764,762.80494 105.33875,762.81589 105.48531,762.81589 C 106.82511,762.81589 107.83899,763.2854 108.50234,764.21151 C 108.91611,764.80909 109.13862,765.548 109.13862,766.4281 C 109.13862,766.91405 109.07869,767.43709 108.9539,768.00842 C 108.9539,768.00842 108.76918,768.72677 108.76918,768.72677 C 108.76918,768.72677 102.74821,768.72677 102.07828,768.72677 C 102.06514,768.86467 102.05774,769.01249 102.05774,769.13726 C 102.05774,769.64957 102.16285,770.05264 102.38612,770.34818 C 102.49224,770.49269 102.61526,770.62283 102.75556,770.71757 C 103.0201,770.89017 103.36157,770.98446 103.76128,770.98446 C 104.24727,770.98446 104.67418,770.85056 105.07481,770.59452 C 105.45572,770.35149 105.82024,769.96315 106.14207,769.42458 C 106.14207,769.42458 108.68706,769.42458 108.68706,769.42458 C 108.68706,769.42458 108.46132,769.91714 108.46132,769.91714 C 107.97529,770.90238 107.29715,771.67074 106.44993,772.21593 C 105.60271,772.761 104.59045,773.05734 103.47392,773.05734 C 102.02247,773.05734 100.94207,772.58783 100.27217,771.66172 C 99.608821,770.75536 99.465971,769.50255 99.820611,767.92634 C 100.17531,766.32377 100.88295,765.0431 101.91408,764.14987 C 102.8383,763.34852 103.88703,762.90402 105.05429,762.81589 z M 115.74742,762.81589 C 115.89068,762.80494 116.03188,762.81589 116.17834,762.81589 C 117.51825,762.81589 118.53214,763.2854 119.19548,764.21151 C 119.60927,764.80909 119.83164,765.548 119.83164,766.4281 C 119.83164,766.90754 119.77171,767.42305 119.64694,767.98787 C 119.64694,767.98787 119.46225,768.72677 119.46225,768.72677 C 119.46225,768.72677 113.44128,768.72677 112.77138,768.72677 C 112.7648,768.81878 112.7574,768.90165 112.75086,768.99354 C 112.74593,769.02802 112.75302,769.08041 112.75086,769.11671 C 112.75067,769.12265 112.75086,769.13155 112.75086,769.13726 C 112.75086,769.23577 112.7648,769.33269 112.77138,769.42458 C 112.8042,769.799 112.90192,770.11177 113.07924,770.34818 C 113.11302,770.39418 113.14475,770.45092 113.18184,770.4919 C 113.48265,770.81369 113.9084,770.98446 114.45435,770.98446 C 114.94037,770.98446 115.3738,770.85056 115.76785,770.59452 C 116.14889,770.35149 116.51337,769.96315 116.83517,769.42458 C 116.83517,769.42458 119.40061,769.42458 119.40061,769.42458 C 119.40061,769.42458 119.15438,769.91714 119.15438,769.91714 C 118.66832,770.90238 117.99026,771.67074 117.14303,772.21593 C 116.2958,772.761 115.2835,773.05734 114.16703,773.05734 C 112.71554,773.05734 111.63514,772.58783 110.96525,771.66172 C 110.53179,771.07064 110.32901,770.31781 110.32901,769.42458 C 110.32901,769.28668 110.33636,769.13806 110.34954,768.99354 C 110.3758,768.65212 110.42833,768.30726 110.51373,767.92634 C 110.86838,766.33039 111.55553,765.0431 112.58666,764.14987 C 113.51085,763.34852 114.5801,762.90402 115.74742,762.81589 z M 144.87111,762.81589 C 145.0178,762.80459 145.15272,762.81589 145.30215,762.81589 C 146.66831,762.81589 147.71828,763.27798 148.40125,764.19096 C 149.07782,765.10383 149.24197,766.3353 148.89392,767.88525 C 148.62464,769.09377 148.2355,770.06988 147.70344,770.77922 C 147.17149,771.48855 146.49343,772.0681 145.69209,772.46215 C 144.89748,772.8562 144.05595,773.05734 143.20872,773.05734 C 141.8163,773.05734 140.77947,772.58121 140.10951,771.66172 C 139.67608,771.07715 139.4528,770.32444 139.4528,769.42458 C 139.4528,768.93864 139.50611,768.42222 139.63749,767.84427 C 140.03154,766.08405 140.83608,764.74346 142.01824,763.8831 C 142.88602,763.25663 143.84443,762.89477 144.87111,762.81589 z M 180.93213,762.81589 C 181.1053,762.80516 181.26557,762.81589 181.44524,762.81589 C 182.27273,762.81589 182.92293,762.89957 183.4155,763.10321 C 183.94094,763.31337 184.31364,763.6105 184.52379,763.96517 C 184.72744,764.30009 184.83166,764.71149 184.83166,765.21718 C 184.83166,765.21718 184.58544,766.71542 184.58544,766.71542 C 184.58544,766.71542 184.13385,768.74732 184.13385,768.74732 C 183.74631,770.48117 183.66104,771.13137 183.64129,771.3744 C 183.62154,771.70281 183.65191,772.0229 183.74391,772.31855 C 183.74391,772.31855 183.90806,772.85209 183.90806,772.85209 C 183.90806,772.85209 181.48622,772.85209 181.48622,772.85209 C 181.48622,772.85209 181.3836,772.54423 181.3836,772.54423 C 181.34422,772.39982 181.35575,772.21593 181.34262,772.05166 C 180.88282,772.33407 180.42233,772.58452 180.00853,772.72892 C 179.39771,772.93919 178.76394,773.05734 178.12024,773.05734 C 177.00384,773.05734 176.17704,772.76671 175.67785,772.19538 C 175.29704,771.77507 175.12376,771.26116 175.12376,770.67659 C 175.12376,770.45331 175.15333,770.22181 175.20584,769.97879 C 175.31748,769.4796 175.52033,769.0174 175.84212,768.6036 C 176.1574,768.19642 176.53011,767.8615 176.95041,767.61847 C 177.35759,767.37545 177.81157,767.20308 178.2845,767.08482 C 178.2845,767.08482 179.74176,766.83859 179.74176,766.83859 C 180.86478,766.7072 181.703,766.54385 182.3072,766.36646 C 182.32033,766.30082 182.3483,766.22286 182.3483,766.22286 C 182.4435,765.80027 182.43163,765.48259 182.32775,765.31981 C 182.3201,765.3093 182.29533,765.28773 182.28665,765.27871 C 182.26451,765.25508 182.23049,765.21798 182.20458,765.19664 C 181.95756,765.00121 181.53634,764.90932 180.97311,764.90932 C 180.33603,764.90932 179.86482,765.01354 179.53652,765.21718 C 179.21461,765.42072 178.91667,765.79342 178.6539,766.32548 C 178.6539,766.32548 176.17053,766.32548 176.17053,766.32548 C 176.17053,766.32548 176.39621,765.83292 176.39621,765.83292 C 176.69175,765.14984 177.04402,764.5833 177.48407,764.14987 C 177.92413,763.71644 178.51851,763.3806 179.2081,763.14419 C 179.73651,762.96977 180.31366,762.85402 180.93213,762.81589 z M 191.33784,762.81589 C 191.43053,762.80448 191.53178,762.81589 191.62516,762.81589 C 192.22286,762.81589 192.78277,762.99568 193.30821,763.36999 C 193.30821,763.36999 193.61607,763.59578 193.61607,763.59578 C 193.61607,763.59578 192.34351,765.6892 192.34351,765.6892 C 192.34351,765.6892 191.99467,765.44286 191.99467,765.44286 C 191.73851,765.27871 191.47653,765.19664 191.19424,765.19664 C 190.94459,765.19664 190.69825,765.28533 190.45533,765.44286 C 190.20568,765.60713 190.0243,765.8247 189.86015,766.12024 C 189.59086,766.62593 189.38231,767.19235 189.24441,767.80317 C 189.24441,767.80317 188.11557,772.85209 188.11557,772.85209 C 188.11557,772.85209 185.73471,772.85209 185.73471,772.85209 C 185.73471,772.85209 187.93087,763.00059 187.93087,763.00059 C 187.93087,763.00059 190.14747,763.00059 190.14747,763.00059 C 190.14747,763.00059 190.09165,763.29933 190.06539,763.41097 C 190.17041,763.3322 190.27475,763.22387 190.37326,763.16474 C 190.68626,762.97491 191.00703,762.85642 191.33784,762.81589 z M 198.37767,762.81589 C 198.52082,762.80494 198.66214,762.81589 198.8086,762.81589 C 200.14851,762.81589 201.16891,763.2854 201.82573,764.21151 C 202.24604,764.80909 202.4619,765.548 202.4619,766.4281 C 202.4619,766.91405 202.38154,767.43709 202.25666,768.00842 C 202.25666,768.00842 202.09251,768.72677 202.09251,768.72677 C 202.09251,768.72677 196.06497,768.72677 195.40163,768.72677 C 195.3885,768.86467 195.36054,769.01249 195.36054,769.13726 C 195.36054,769.64957 195.47229,770.05264 195.68895,770.34818 C 195.72274,770.39418 195.77491,770.45092 195.81212,770.4919 C 195.83369,770.51484 195.87148,770.55262 195.89419,770.57397 C 196.18779,770.84086 196.58744,770.98446 197.08457,770.98446 C 197.57062,770.98446 197.99755,770.85056 198.39811,770.59452 C 198.77915,770.35149 199.13701,769.96315 199.46542,769.42458 C 199.46542,769.42458 202.03098,769.42458 202.03098,769.42458 C 202.03098,769.42458 201.78464,769.91714 201.78464,769.91714 C 201.29858,770.90238 200.6139,771.67074 199.77329,772.21593 C 198.91944,772.761 197.92038,773.05734 196.79725,773.05734 C 195.34581,773.05734 194.28591,772.58783 193.61607,771.66172 C 192.95274,770.75536 192.7959,769.50255 193.14394,767.92634 C 193.49861,766.32377 194.1858,765.0431 195.21693,764.14987 C 196.14693,763.34852 197.2115,762.90402 198.37767,762.81589 z M 162.43982,763.00059 C 162.43982,763.00059 164.88221,763.00059 164.88221,763.00059 C 164.88221,763.00059 165.18345,768.84663 165.19007,768.93202 C 165.28859,768.72266 165.36507,768.54653 165.37477,768.52153 C 165.37477,768.52153 168.06349,763.00059 168.06349,763.00059 C 168.06349,763.00059 170.30063,763.00059 170.30063,763.00059 C 170.30063,763.00059 170.50588,768.77597 170.50588,768.80885 C 170.57152,768.6907 173.56388,763.00059 173.56388,763.00059 C 173.56388,763.00059 175.98572,763.00059 175.98572,763.00059 C 175.98572,763.00059 170.64948,772.85209 170.64948,772.85209 C 170.64948,772.85209 168.45344,772.85209 168.45344,772.85209 C 168.45344,772.85209 168.24077,767.51015 168.22764,767.20799 C 167.32128,769.06671 165.47739,772.85209 165.47739,772.85209 C 165.47739,772.85209 163.2197,772.85209 163.2197,772.85209 C 163.2197,772.85209 162.43982,763.00059 162.43982,763.00059 z M 105.09534,764.86822 C 104.52959,764.89208 104.01575,765.09607 103.5355,765.48396 C 103.15459,765.78612 102.89761,766.20071 102.69402,766.65378 C 102.69402,766.6539 106.73726,766.65378 106.73726,766.65378 C 106.74384,766.58164 106.75778,766.49374 106.75778,766.4281 C 106.75778,766.05369 106.6913,765.76306 106.57306,765.56603 C 106.28412,765.09322 105.85556,764.86822 105.21847,764.86822 C 105.1803,764.86822 105.13305,764.86663 105.09534,764.86822 z M 115.7884,764.86822 C 115.22266,764.89208 114.70887,765.09607 114.22857,765.48396 C 113.84766,765.78612 113.59727,766.20071 113.38709,766.65378 C 113.38709,766.6539 117.43035,766.65378 117.43035,766.65378 C 117.43686,766.58164 117.4509,766.49374 117.4509,766.4281 C 117.4509,766.05369 117.39097,765.76306 117.2662,765.56603 C 117.20878,765.47003 117.13116,765.37449 117.06096,765.29926 C 116.78665,765.01594 116.40927,764.86822 115.91157,764.86822 C 115.87333,764.86822 115.82618,764.86663 115.7884,764.86822 z M 198.50084,764.86822 C 197.91901,764.88615 197.37565,765.08317 196.87932,765.48396 C 196.50502,765.78612 196.24806,766.20071 196.03791,766.65378 C 196.03791,766.6539 200.06061,766.65378 200.06061,766.65378 C 200.06723,766.58164 200.08116,766.49374 200.08116,766.4281 C 200.08116,766.05369 200.02123,765.76306 199.89646,765.56603 C 199.61405,765.09972 199.1789,764.87484 198.54182,764.86822 C 198.52299,764.86845 198.51956,764.86765 198.50084,764.86822 z M 144.72751,764.90932 C 144.1846,764.9737 143.67971,765.22152 143.20872,765.64811 C 142.6439,766.16042 142.23421,766.96496 141.9978,768.02896 C 141.89929,768.47552 141.85409,768.85736 141.85409,769.19879 C 141.85409,769.6651 141.94358,770.03129 142.12097,770.30708 C 142.16812,770.37797 142.23079,770.45274 142.28512,770.51233 C 142.57712,770.82236 142.98476,770.98446 143.49604,770.98446 C 144.15938,770.98446 144.74395,770.73732 145.30215,770.22501 C 145.86697,769.70619 146.27004,768.89343 146.51307,767.80317 C 146.73635,766.80492 146.70518,766.05951 146.3899,765.58658 C 146.08785,765.12689 145.64609,764.90932 145.03537,764.90932 C 144.93173,764.90932 144.82808,764.89733 144.72751,764.90932 z M 181.81464,768.50098 C 181.25644,768.65212 180.63077,768.77928 179.80329,768.89104 C 179.18596,768.98293 178.7459,769.07984 178.48975,769.17835 C 178.26647,769.27025 178.08668,769.39753 177.93554,769.5683 C 177.79114,769.73245 177.69423,769.90481 177.64822,770.10195 C 177.6351,770.18072 177.62768,770.26199 177.62768,770.32763 C 177.62768,770.333 177.62756,770.34293 177.62768,770.34818 C 177.62836,770.36382 177.62596,770.39464 177.62768,770.40982 C 177.63179,770.4395 177.64012,770.48459 177.64822,770.51233 C 177.65119,770.52158 177.66535,770.54452 177.66877,770.55342 C 177.67596,770.57112 177.68041,770.59817 177.68932,770.61507 C 177.69856,770.63162 177.71934,770.66061 177.7303,770.67659 C 177.74753,770.70022 177.77094,770.73652 177.79194,770.75867 C 177.95609,770.94257 178.2837,771.02544 178.75652,771.02544 C 179.27545,771.02544 179.77452,770.92693 180.23432,770.69714 C 180.68751,770.47375 181.05279,770.14042 181.32207,769.75299 C 181.5191,769.4772 181.67674,769.05267 181.81464,768.50098 z M 56.449981,752.04486 L 111.53258,695.17287 L 120.52776,695.17287 L 107.22796,752.04486 L 99.829331,752.04486 L 103.60567,735.6738 L 80.514152,735.6738 L 64.82212,752.04486 L 56.449981,752.04486 M 86.12566,729.8159 L 105.01164,729.8159 L 108.49613,715.53972 C 109.90242,709.87584 111.25609,705.15591 112.55715,701.37992 C 109.95708,704.63865 106.51714,708.50512 102.23733,712.97931 L 86.12566,729.8159"
         style="fill:#663366;fill-opacity:1;fill-rule:evenodd;stroke:none;stroke-width:1pt;stroke-linecap:butt;stroke-linejoin:miter;stroke-opacity:1"
         id="path3017" />
    </g>
  </g>
</svg>
