<?xml version="1.0" encoding="UTF-8" standalone="no"?>
<!-- Generator: Adobe Illustrator 14.0.0, SVG Export Plug-In . SVG Version: 6.00 Build 43363)  -->

<svg
   xmlns:dc="http://purl.org/dc/elements/1.1/"
   xmlns:cc="http://creativecommons.org/ns#"
   xmlns:rdf="http://www.w3.org/1999/02/22-rdf-syntax-ns#"
   xmlns:svg="http://www.w3.org/2000/svg"
   xmlns="http://www.w3.org/2000/svg"
   xmlns:xlink="http://www.w3.org/1999/xlink"
   xmlns:sodipodi="http://sodipodi.sourceforge.net/DTD/sodipodi-0.dtd"
   xmlns:inkscape="http://www.inkscape.org/namespaces/inkscape"
   version="1.1"
   id="Capa_1"
   x="0px"
   y="0px"
   width="841.89px"
   height="595.28px"
   viewBox="0 0 841.89 595.28"
   enable-background="new 0 0 841.89 595.28"
   xml:space="preserve"
   inkscape:version="0.48.2 r9819"
   sodipodi:docname="Licencias.svg"
   sodipodi:version="0.32"
   inkscape:output_extension="org.inkscape.output.svg.inkscape"><metadata
   id="metadata507"><rdf:RDF><cc:Work
       rdf:about=""><dc:format>image/svg+xml</dc:format><dc:type
         rdf:resource="http://purl.org/dc/dcmitype/StillImage" /><dc:title></dc:title><cc:license
         rdf:resource="http://creativecommons.org/licenses/by/3.0/" /></cc:Work><cc:License
       rdf:about="http://creativecommons.org/licenses/by/3.0/"><cc:permits
         rdf:resource="http://creativecommons.org/ns#Reproduction" /><cc:permits
         rdf:resource="http://creativecommons.org/ns#Distribution" /><cc:requires
         rdf:resource="http://creativecommons.org/ns#Notice" /><cc:requires
         rdf:resource="http://creativecommons.org/ns#Attribution" /><cc:permits
         rdf:resource="http://creativecommons.org/ns#DerivativeWorks" /></cc:License></rdf:RDF></metadata><defs
   id="defs505"><linearGradient
   id="linearGradient4471"><stop
     style="stop-color:#696a6b;stop-opacity:1;"
     offset="0"
     id="stop4473" /><stop
     style="stop-color:#9b9c9e;stop-opacity:1;"
     offset="1"
     id="stop4475" /></linearGradient><linearGradient
   id="linearGradient4455"><stop
     style="stop-color:#696a6b;stop-opacity:1;"
     offset="0"
     id="stop4457" /><stop
     style="stop-color:#9b9c9e;stop-opacity:1;"
     offset="1"
     id="stop4459" /></linearGradient><linearGradient
   id="linearGradient4260"><stop
     style="stop-color:#911d21;stop-opacity:1;"
     offset="0"
     id="stop4262" /><stop
     style="stop-color:#c4282d;stop-opacity:1;"
     offset="1"
     id="stop4264" /></linearGradient><linearGradient
   id="linearGradient4235"><stop
     style="stop-color:#592350;stop-opacity:1;"
     offset="0"
     id="stop4237" /><stop
     style="stop-color:#742e68;stop-opacity:1;"
     offset="1"
     id="stop4239" /></linearGradient><linearGradient
   id="linearGradient4197"><stop
     style="stop-color:#16813d;stop-opacity:1;"
     offset="0"
     id="stop4199" /><stop
     style="stop-color:#0d4f25;stop-opacity:1;"
     offset="1"
     id="stop4201" /></linearGradient><linearGradient
   id="linearGradient3598"><stop
     style="stop-color:#742e68;stop-opacity:1;"
     offset="0"
     id="stop3600" /><stop
     style="stop-color:#481c40;stop-opacity:1;"
     offset="1"
     id="stop3602" /></linearGradient><linearGradient
   inkscape:collect="always"
   id="linearGradient3584"><stop
     style="stop-color:#ffffff;stop-opacity:1;"
     offset="0"
     id="stop3586" /><stop
     style="stop-color:#ffffff;stop-opacity:0;"
     offset="1"
     id="stop3588" /></linearGradient><linearGradient
   inkscape:collect="always"
   id="linearGradient3542"><stop
     style="stop-color:#ffffff;stop-opacity:1;"
     offset="0"
     id="stop3544" /><stop
     style="stop-color:#ffffff;stop-opacity:0;"
     offset="1"
     id="stop3546" /></linearGradient><linearGradient
   id="linearGradient3536"><stop
     style="stop-color:#ffffff;stop-opacity:1"
     offset="0"
     id="stop3538" /><stop
     style="stop-color:#ffffff;stop-opacity:0"
     offset="1"
     id="stop3540" /></linearGradient><linearGradient
   id="linearGradient3530"><stop
     style="stop-color:#ffffff;stop-opacity:1"
     offset="0"
     id="stop3532" /><stop
     style="stop-color:#7f1a1d;stop-opacity:1;"
     offset="1"
     id="stop3534" /></linearGradient><linearGradient
   id="linearGradient3483"><stop
     id="stop3485"
     offset="0"
     style="stop-color:#c4282d;stop-opacity:1;" /><stop
     id="stop3487"
     offset="1"
     style="stop-color:#7f1a1d;stop-opacity:1;" /></linearGradient><linearGradient
   id="linearGradient3467"><stop
     style="stop-color:#000000;stop-opacity:1;"
     offset="0"
     id="stop3469" /><stop
     style="stop-color:#000000;stop-opacity:0;"
     offset="1"
     id="stop3471" /></linearGradient><inkscape:perspective
   sodipodi:type="inkscape:persp3d"
   inkscape:vp_x="0 : 297.64001 : 1"
   inkscape:vp_y="0 : 1000 : 0"
   inkscape:vp_z="841.89001 : 297.64001 : 1"
   inkscape:persp3d-origin="420.94501 : 198.42668 : 1"
   id="perspective509" />
	
	
	
	
<linearGradient
   inkscape:collect="always"
   xlink:href="#linearGradient3483"
   id="linearGradient3481"
   x1="193.67853"
   y1="227.42769"
   x2="192.737"
   y2="164.42589"
   gradientUnits="userSpaceOnUse" /><linearGradient
   inkscape:collect="always"
   xlink:href="#linearGradient3542"
   id="linearGradient3548"
   x1="223.70312"
   y1="167.78789"
   x2="223.70312"
   y2="224.78125"
   gradientUnits="userSpaceOnUse" />
		
		
	<linearGradient
   inkscape:collect="always"
   xlink:href="#linearGradient3584"
   id="linearGradient3590"
   x1="234.03793"
   y1="165.15395"
   x2="234.35178"
   y2="210.66147"
   gradientUnits="userSpaceOnUse" />
		
	<linearGradient
   inkscape:collect="always"
   xlink:href="#linearGradient3483"
   id="linearGradient3947"
   gradientUnits="userSpaceOnUse"
   x1="193.67853"
   y1="227.42769"
   x2="192.737"
   y2="164.42589" />
	
	
	
	

		
	
		
		
		
	
		
		
		
		
		
		
		
		
		
		
		
		
	
		
	
	
	
	
	

		
	
		
		
	
		
	
		
		
		
		
	<linearGradient
   inkscape:collect="always"
   xlink:href="#linearGradient3598"
   id="linearGradient3620"
   x1="473.95499"
   y1="225.58197"
   x2="473.95499"
   y2="164.577"
   gradientUnits="userSpaceOnUse" /><linearGradient
   inkscape:collect="always"
   xlink:href="#linearGradient3483"
   id="linearGradient3883"
   gradientUnits="userSpaceOnUse"
   gradientTransform="translate(2.7507074,-101.77618)"
   x1="138.40564"
   y1="330.10239"
   x2="138.40564"
   y2="319.71936" /><linearGradient
   inkscape:collect="always"
   xlink:href="#linearGradient3598"
   id="linearGradient3891"
   gradientUnits="userSpaceOnUse"
   x1="473.95499"
   y1="225.58197"
   x2="473.95499"
   y2="164.577" /><linearGradient
   inkscape:collect="always"
   xlink:href="#linearGradient3598"
   id="linearGradient4005"
   gradientUnits="userSpaceOnUse"
   x1="473.95499"
   y1="225.58197"
   x2="473.95499"
   y2="164.577" /><linearGradient
   inkscape:collect="always"
   xlink:href="#linearGradient3598"
   id="linearGradient2938"
   gradientUnits="userSpaceOnUse"
   gradientTransform="translate(16.564834,16.038773)"
   x1="365.68323"
   y1="228.72025"
   x2="365.68323"
   y2="216.25424" />
	
	
	
	
	
	
	
	
	
	
	
	
	
	
	
	
	
	
	
<linearGradient
   inkscape:collect="always"
   xlink:href="#linearGradient4471"
   id="linearGradient4477"
   x1="664.09625"
   y1="501.10046"
   x2="664.09625"
   y2="510.29501"
   gradientUnits="userSpaceOnUse" /><linearGradient
   inkscape:collect="always"
   xlink:href="#linearGradient4471"
   id="linearGradient4513"
   gradientUnits="userSpaceOnUse"
   x1="664.09625"
   y1="501.10046"
   x2="664.09625"
   y2="510.29501" />
		
		
	</defs><sodipodi:namedview
   pagecolor="#ffffff"
   bordercolor="#666666"
   borderopacity="1"
   objecttolerance="10"
   gridtolerance="10"
   guidetolerance="10"
   inkscape:pageopacity="0"
   inkscape:pageshadow="2"
   inkscape:window-width="1280"
   inkscape:window-height="746"
   id="namedview503"
   showgrid="false"
   inkscape:zoom="0.90545621"
   inkscape:cx="420.94501"
   inkscape:cy="443.33958"
   inkscape:window-x="0"
   inkscape:window-y="0"
   inkscape:window-maximized="1"
   inkscape:current-layer="Capa_1"
   showguides="true"
   inkscape:guide-bbox="true" />










<g
   id="g441"
   transform="translate(5.0732821,-17.568071)">
	<g
   id="g443">
		<path
   d="M 744.663,295.604 L 764.117,295.604 L 734.149,346.104 C 732.437,348.918 730.767,351.084 729.14,352.602 C 727.511,354.121 726.007,355.224 724.628,355.914 C 723.248,356.604 722.062,357.005 721.068,357.114 C 720.075,357.225 719.383,357.28 718.999,357.28 L 701.116,357.28 L 701.116,313.652 L 717.84,313.652 L 717.923,343.62 L 744.663,295.604 z"
   id="path445"
   style="fill:#16813d" />
	</g>
	<g
   id="g447">
		<path
   d="M 707.385,362.856 C 707.412,362.667 707.379,362.536 707.285,362.464 L 707.29,362.464 C 707.203,362.399 707.078,362.366 706.914,362.366 L 703.805,362.366 C 703.619,362.366 703.447,362.407 703.288,362.494 C 703.148,362.565 703.06,362.652 703.024,362.751 L 702.695,363.658 L 704.989,363.658 L 704.758,364.294 L 702.463,364.294 L 701.758,366.232 L 701.117,366.232 L 702.385,362.751 C 702.489,362.468 702.705,362.223 703.033,362.02 C 703.351,361.825 703.687,361.726 704.037,361.726 L 707.146,361.726 C 707.476,361.726 707.72,361.819 707.882,361.998 C 708.059,362.181 708.109,362.468 708.029,362.855 L 707.385,362.855 L 707.385,362.856 z"
   id="path449"
   style="fill:#16813d" />
		<path
   d="M 711.976,364.073 C 711.989,363.893 711.934,363.771 711.815,363.707 C 711.77,363.68 711.719,363.659 711.663,363.648 C 711.606,363.639 711.547,363.633 711.485,363.633 L 709.984,363.633 C 709.833,363.633 709.683,363.663 709.534,363.722 C 709.363,363.786 709.261,363.869 709.223,363.968 L 708.399,366.233 L 707.759,366.233 L 708.936,362.999 L 709.577,362.999 L 709.528,363.134 C 709.654,363.086 709.772,363.052 709.882,363.031 C 709.991,363.01 710.101,362.999 710.21,362.999 L 711.716,362.999 C 712.002,362.999 712.235,363.072 712.416,363.216 C 712.634,363.393 712.698,363.677 712.61,364.073 L 711.976,364.073 z"
   id="path451"
   style="fill:#16813d" />
		<path
   d="M 717.667,363.959 C 717.559,364.259 717.32,364.504 716.955,364.696 C 716.654,364.855 716.348,364.932 716.039,364.932 L 714.537,364.932 C 714.437,364.932 714.346,364.923 714.258,364.907 C 714.172,364.89 714.067,364.858 713.944,364.809 L 713.787,365.242 L 713.783,365.252 C 713.761,365.343 713.813,365.423 713.942,365.495 C 713.997,365.534 714.055,365.559 714.114,365.576 C 714.175,365.592 714.235,365.598 714.296,365.598 L 715.798,365.598 C 715.859,365.598 715.923,365.592 715.986,365.583 C 716.05,365.572 716.115,365.553 716.179,365.526 C 716.347,365.46 716.49,365.338 716.607,365.159 L 717.241,365.159 C 717.044,365.552 716.773,365.835 716.427,366.011 C 716.143,366.158 715.857,366.233 715.568,366.233 L 714.067,366.233 C 713.778,366.233 713.536,366.157 713.34,366.006 C 713.096,365.816 713.029,365.567 713.143,365.258 L 713.614,363.964 C 713.726,363.657 713.958,363.413 714.309,363.231 C 714.605,363.077 714.916,362.999 715.245,362.999 L 716.745,362.999 C 717.061,362.999 717.313,363.073 717.501,363.222 C 717.723,363.404 717.779,363.648 717.667,363.959 z M 717.023,363.969 C 717.053,363.887 717.023,363.816 716.931,363.753 C 716.833,363.674 716.691,363.634 716.505,363.634 L 715.009,363.634 C 714.879,363.634 714.732,363.664 714.566,363.723 C 714.392,363.784 714.288,363.865 714.252,363.965 C 714.217,364.062 714.261,364.142 714.385,364.206 C 714.496,364.269 714.625,364.3 714.768,364.3 L 716.27,364.3 C 716.448,364.3 716.617,364.262 716.775,364.186 C 716.91,364.124 716.993,364.052 717.023,363.969 z"
   id="path453"
   style="fill:#16813d" />
		<path
   d="M 722.699,363.959 C 722.591,364.259 722.353,364.504 721.988,364.696 C 721.686,364.855 721.381,364.932 721.072,364.932 L 719.57,364.932 C 719.47,364.932 719.379,364.923 719.291,364.907 C 719.205,364.89 719.1,364.858 718.977,364.809 L 718.82,365.242 L 718.816,365.252 C 718.794,365.343 718.846,365.423 718.975,365.495 C 719.03,365.534 719.088,365.559 719.147,365.576 C 719.208,365.592 719.268,365.598 719.329,365.598 L 720.831,365.598 C 720.892,365.598 720.955,365.592 721.019,365.583 C 721.083,365.572 721.148,365.553 721.213,365.526 C 721.38,365.46 721.523,365.338 721.64,365.159 L 722.273,365.159 C 722.077,365.552 721.806,365.835 721.46,366.011 C 721.176,366.158 720.891,366.233 720.602,366.233 L 719.1,366.233 C 718.812,366.233 718.57,366.157 718.373,366.006 C 718.129,365.816 718.063,365.567 718.176,365.258 L 718.647,363.964 C 718.758,363.657 718.991,363.413 719.342,363.231 C 719.639,363.077 719.949,362.999 720.277,362.999 L 721.778,362.999 C 722.094,362.999 722.346,363.073 722.533,363.222 C 722.756,363.404 722.813,363.648 722.699,363.959 z M 722.057,363.969 C 722.086,363.887 722.056,363.816 721.965,363.753 C 721.867,363.674 721.725,363.634 721.539,363.634 L 720.044,363.634 C 719.913,363.634 719.765,363.664 719.6,363.723 C 719.426,363.784 719.322,363.865 719.286,363.965 C 719.251,364.062 719.295,364.142 719.419,364.206 C 719.53,364.269 719.659,364.3 719.803,364.3 L 721.304,364.3 C 721.482,364.3 721.65,364.262 721.809,364.186 C 721.943,364.124 722.026,364.052 722.057,363.969 z"
   id="path455"
   style="fill:#16813d" />
		<path
   d="M 732.366,365.943 C 732.06,366.136 731.729,366.233 731.375,366.233 L 728.256,366.233 C 727.929,366.233 727.684,366.145 727.522,365.97 C 727.346,365.781 727.297,365.491 727.374,365.103 L 728.008,365.103 C 727.986,365.286 728.021,365.416 728.112,365.495 L 728.106,365.495 C 728.199,365.563 728.326,365.599 728.487,365.599 L 731.607,365.599 C 731.789,365.599 731.96,365.556 732.117,365.471 C 732.263,365.396 732.352,365.307 732.389,365.207 L 732.577,364.691 C 732.612,364.59 732.586,364.503 732.497,364.428 C 732.401,364.342 732.261,364.299 732.075,364.299 L 728.96,364.299 C 728.61,364.299 728.347,364.202 728.174,364.009 C 727.989,363.81 727.948,363.563 728.057,363.268 L 728.245,362.751 C 728.349,362.468 728.565,362.223 728.893,362.02 C 729.211,361.825 729.545,361.726 729.896,361.726 L 733.016,361.726 C 733.343,361.726 733.586,361.819 733.746,361.998 C 733.924,362.181 733.974,362.468 733.894,362.855 L 733.259,362.855 C 733.28,362.672 733.245,362.541 733.154,362.463 L 733.159,362.463 C 733.074,362.398 732.947,362.365 732.783,362.365 L 729.663,362.365 C 729.477,362.365 729.303,362.406 729.142,362.493 C 729.001,362.564 728.913,362.651 728.878,362.75 L 728.69,363.267 C 728.652,363.371 728.676,363.459 728.762,363.535 C 728.858,363.621 729.001,363.664 729.19,363.664 L 732.31,363.664 C 732.664,363.664 732.925,363.761 733.091,363.953 C 733.275,364.157 733.315,364.401 733.209,364.69 L 733.021,365.206 C 732.916,365.498 732.697,365.746 732.366,365.943 z"
   id="path457"
   style="fill:#16813d" />
		<path
   d="M 737.324,365.997 C 737.026,366.154 736.72,366.233 736.408,366.233 L 734.906,366.233 C 734.6,366.233 734.352,366.155 734.162,366.002 C 733.931,365.812 733.871,365.564 733.982,365.259 L 734.453,363.965 C 734.562,363.665 734.8,363.42 735.166,363.227 C 735.467,363.069 735.775,362.99 736.087,362.99 L 737.588,362.99 C 737.883,362.99 738.127,363.064 738.317,363.213 C 738.557,363.405 738.622,363.653 738.509,363.96 L 738.036,365.26 C 737.928,365.558 737.69,365.804 737.324,365.997 z M 737.869,363.959 C 737.904,363.862 737.859,363.782 737.736,363.717 C 737.631,363.658 737.504,363.63 737.355,363.63 L 735.854,363.63 C 735.703,363.63 735.555,363.656 735.412,363.712 C 735.236,363.78 735.131,363.862 735.096,363.959 L 734.621,365.264 C 734.586,365.361 734.63,365.441 734.754,365.506 C 734.865,365.568 734.992,365.599 735.133,365.599 L 736.639,365.599 C 736.707,365.599 736.778,365.592 736.853,365.578 C 736.926,365.563 737.002,365.543 737.078,365.512 C 737.255,365.443 737.36,365.359 737.397,365.259 L 737.869,363.959 z"
   id="path459"
   style="fill:#16813d" />
		<path
   d="M 740.246,363.634 L 739.301,366.234 L 738.66,366.234 L 739.947,362.697 C 740.058,362.395 740.265,362.151 740.569,361.969 C 740.837,361.811 741.171,361.732 741.572,361.732 L 741.345,362.357 C 741.093,362.395 740.911,362.442 740.796,362.5 C 740.683,362.56 740.613,362.625 740.587,362.697 L 740.476,363 L 741.116,363 L 740.885,363.635 L 740.246,363.635 L 740.246,363.634 z"
   id="path461"
   style="fill:#16813d" />
		<path
   d="M 743.145,363.634 L 742.198,366.234 L 741.554,366.234 L 742.5,363.634 L 741.865,363.634 L 742.095,362.999 L 742.73,362.999 L 743.193,361.727 L 743.838,361.727 L 743.375,362.999 L 744.015,362.999 L 743.784,363.634 L 743.145,363.634 z"
   id="path463"
   style="fill:#16813d" />
		<path
   d="M 748.027,365.985 C 747.756,366.146 747.449,366.228 747.109,366.228 C 746.923,366.228 746.75,366.202 746.59,366.15 C 746.429,366.098 746.294,366.017 746.183,365.908 C 745.99,366.014 745.79,366.096 745.587,366.15 C 745.383,366.206 745.189,366.233 745.003,366.233 C 744.675,366.233 744.431,366.154 744.269,365.997 C 744.089,365.816 744.057,365.571 744.171,365.259 L 744.993,362.999 L 745.632,362.999 L 744.809,365.264 C 744.775,365.361 744.803,365.439 744.898,365.501 C 745.002,365.566 745.146,365.599 745.332,365.599 C 745.521,365.599 745.687,365.567 745.832,365.501 C 745.973,365.442 746.062,365.361 746.1,365.259 L 746.608,363.866 L 747.247,363.866 L 746.739,365.263 C 746.702,365.363 746.733,365.44 746.83,365.494 C 746.934,365.559 747.073,365.592 747.253,365.592 C 747.445,365.592 747.614,365.56 747.758,365.494 C 747.901,365.436 747.987,365.359 748.023,365.263 L 748.847,362.998 L 749.492,362.998 L 748.67,365.258 C 748.559,365.561 748.344,365.804 748.027,365.985 z"
   id="path465"
   style="fill:#16813d" />
		<path
   d="M 752.844,366.002 C 752.543,366.155 752.233,366.233 751.914,366.233 L 750.412,366.233 C 750.09,366.233 749.834,366.157 749.65,366.006 C 749.425,365.825 749.37,365.581 749.484,365.268 C 749.594,364.965 749.831,364.721 750.195,364.536 C 750.496,364.378 750.803,364.3 751.116,364.3 L 752.617,364.3 C 752.713,364.3 752.805,364.309 752.89,364.325 C 752.978,364.343 753.081,364.376 753.204,364.424 L 753.364,363.985 C 753.385,363.892 753.333,363.81 753.212,363.739 C 753.103,363.67 752.985,363.635 752.858,363.635 L 751.357,363.635 C 751.292,363.635 751.227,363.641 751.164,363.65 C 751.101,363.661 751.035,363.681 750.97,363.709 C 750.803,363.773 750.659,363.896 750.544,364.075 L 749.909,364.075 C 750.11,363.682 750.38,363.399 750.72,363.223 C 751.003,363.075 751.291,363 751.583,363 L 753.089,363 C 753.384,363 753.628,363.074 753.818,363.223 C 754.06,363.409 754.125,363.658 754.009,363.97 L 753.539,365.265 C 753.428,365.57 753.195,365.815 752.844,366.002 z M 752.898,365.269 C 752.932,365.173 752.888,365.092 752.764,365.027 C 752.652,364.965 752.527,364.933 752.386,364.933 L 750.884,364.933 C 750.71,364.933 750.54,364.972 750.374,365.047 C 750.238,365.109 750.155,365.182 750.125,365.264 C 750.094,365.349 750.122,365.423 750.209,365.486 C 750.313,365.561 750.455,365.599 750.638,365.599 L 752.144,365.599 C 752.291,365.599 752.437,365.572 752.581,365.517 C 752.758,365.448 752.863,365.365 752.898,365.269 z"
   id="path467"
   style="fill:#16813d" />
		<path
   d="M 758.382,364.073 C 758.395,363.893 758.341,363.771 758.221,363.707 C 758.176,363.68 758.125,363.659 758.069,363.648 C 758.012,363.639 757.954,363.633 757.892,363.633 L 756.391,363.633 C 756.241,363.633 756.089,363.663 755.942,363.722 C 755.77,363.786 755.667,363.869 755.629,363.968 L 754.807,366.233 L 754.166,366.233 L 755.342,362.999 L 755.983,362.999 L 755.934,363.134 C 756.061,363.086 756.18,363.052 756.288,363.031 C 756.396,363.01 756.506,362.999 756.617,362.999 L 758.122,362.999 C 758.408,362.999 758.641,363.072 758.822,363.216 C 759.041,363.393 759.103,363.677 759.015,364.073 L 758.382,364.073 z"
   id="path469"
   style="fill:#16813d" />
		<path
   d="M 764.074,363.959 C 763.965,364.259 763.728,364.504 763.361,364.696 C 763.06,364.855 762.754,364.932 762.445,364.932 L 760.945,364.932 C 760.844,364.932 760.752,364.923 760.666,364.907 C 760.579,364.89 760.474,364.858 760.351,364.809 L 760.194,365.242 L 760.19,365.252 C 760.168,365.343 760.221,365.423 760.348,365.495 C 760.404,365.534 760.461,365.559 760.521,365.576 C 760.581,365.592 760.641,365.598 760.704,365.598 L 762.204,365.598 C 762.267,365.598 762.329,365.592 762.392,365.583 C 762.456,365.572 762.521,365.553 762.586,365.526 C 762.754,365.46 762.897,365.338 763.013,365.159 L 763.647,365.159 C 763.449,365.552 763.178,365.835 762.833,366.011 C 762.549,366.158 762.263,366.233 761.974,366.233 L 760.473,366.233 C 760.185,366.233 759.943,366.157 759.746,366.006 C 759.501,365.816 759.436,365.567 759.548,365.258 L 760.02,363.964 C 760.131,363.657 760.363,363.413 760.714,363.231 C 761.011,363.077 761.323,362.999 761.65,362.999 L 763.152,362.999 C 763.466,362.999 763.718,363.073 763.906,363.222 C 764.13,363.404 764.187,363.648 764.074,363.959 z M 763.43,363.969 C 763.461,363.887 763.43,363.816 763.339,363.753 C 763.24,363.674 763.099,363.634 762.913,363.634 L 761.418,363.634 C 761.287,363.634 761.139,363.664 760.973,363.723 C 760.799,363.784 760.696,363.865 760.659,363.965 C 760.624,364.062 760.669,364.142 760.792,364.206 C 760.904,364.269 761.032,364.3 761.177,364.3 L 762.677,364.3 C 762.856,364.3 763.025,364.262 763.183,364.186 C 763.318,364.124 763.4,364.052 763.43,363.969 z"
   id="path471"
   style="fill:#16813d" />
	</g>
	<g
   id="g473">
		<path
   d="M 764.117,354.047 C 764.117,354.968 763.711,355.742 762.898,356.37 C 762.152,356.976 761.219,357.28 760.103,357.28 L 750.273,357.28 C 749.244,357.28 748.371,357.004 747.656,356.451 C 746.886,355.855 746.4,354.946 746.193,353.722 L 748.193,353.722 C 748.334,354.296 748.593,354.707 748.972,354.957 L 748.956,354.957 C 749.323,355.174 749.763,355.281 750.272,355.281 L 760.102,355.281 C 760.665,355.281 761.153,355.151 761.565,354.891 C 761.933,354.653 762.118,354.371 762.118,354.046 L 762.118,352.421 C 762.118,352.117 761.933,351.847 761.565,351.608 C 761.131,351.327 760.639,351.186 760.086,351.186 L 754.854,351.186 L 754.854,349.187 L 760.102,349.187 C 760.676,349.187 761.165,349.052 761.565,348.781 C 761.933,348.544 762.118,348.266 762.118,347.953 L 762.118,346.328 C 762.118,346.024 761.933,345.753 761.565,345.515 C 761.131,345.233 760.639,345.092 760.086,345.092 L 750.272,345.092 C 749.773,345.092 749.339,345.2 748.971,345.417 L 748.988,345.417 C 748.598,345.645 748.333,346.056 748.192,346.652 L 746.192,346.652 C 746.387,345.417 746.864,344.517 747.623,343.954 C 748.338,343.38 749.221,343.094 750.272,343.094 L 760.102,343.094 C 761.197,343.094 762.128,343.397 762.897,344.003 C 763.71,344.643 764.116,345.417 764.116,346.327 C 764.116,347.118 764.085,347.838 764.019,348.487 C 763.997,348.812 763.889,349.111 763.694,349.382 C 763.607,349.501 763.506,349.625 763.393,349.756 C 763.28,349.886 763.141,350.027 762.979,350.178 C 763.293,350.471 763.532,350.741 763.694,350.991 C 763.878,351.295 763.987,351.587 764.019,351.869 C 764.086,352.509 764.117,353.234 764.117,354.047 z"
   id="path475" />
	</g>
	<g
   id="g477">
		<path
   d="M 711.166,345.909 C 711.617,345.985 711.979,346.197 712.252,346.547 C 712.516,346.887 712.648,347.297 712.648,347.777 L 712.648,352.374 C 712.648,352.891 712.506,353.328 712.222,353.687 C 711.929,354.067 711.567,354.257 711.136,354.257 L 706.016,354.257 L 706.016,353.307 L 711.136,353.307 C 711.287,353.307 711.42,353.224 711.532,353.057 L 711.524,353.065 C 711.65,352.877 711.713,352.647 711.713,352.374 L 711.713,347.777 C 711.713,347.545 711.662,347.341 711.561,347.17 L 711.561,347.178 C 711.451,346.995 711.26,346.871 710.992,346.806 L 710.992,346.061 L 711.166,345.909 z"
   id="path479"
   style="fill:#ffffff" />
		<path
   d="M 712.215,336.475 C 712.503,336.839 712.648,337.28 712.648,337.796 L 712.648,342.385 C 712.648,342.906 712.506,343.342 712.222,343.692 C 711.929,344.067 711.567,344.254 711.136,344.254 L 707.52,344.254 C 707.1,344.254 706.741,344.067 706.442,343.692 C 706.153,343.327 706.008,342.886 706.008,342.37 L 706.008,337.774 C 706.008,337.293 706.143,336.885 706.411,336.551 C 706.679,336.201 707.102,335.976 707.68,335.874 L 707.68,336.809 C 707.401,336.875 707.206,336.998 707.095,337.181 C 706.998,337.338 706.95,337.538 706.95,337.782 L 706.95,342.37 C 706.95,342.643 707.013,342.877 707.139,343.069 C 707.245,343.236 707.372,343.32 707.519,343.32 L 711.135,343.32 C 711.286,343.32 711.419,343.236 711.531,343.069 L 711.523,343.076 C 711.649,342.889 711.712,342.659 711.712,342.386 L 711.712,337.797 C 711.712,337.559 711.661,337.347 711.56,337.159 C 711.455,336.936 711.31,336.825 711.127,336.825 L 709.798,336.825 L 709.798,340.539 L 708.863,340.539 L 708.863,335.898 L 711.134,335.898 C 711.556,335.897 711.916,336.09 712.215,336.475 z"
   id="path481"
   style="fill:#ffffff" />
		<path
   d="M 709.366,326.433 C 709.649,326.782 709.791,327.22 709.791,327.746 L 709.791,333.284 L 712.647,333.284 L 712.647,334.219 L 707.519,334.219 C 707.099,334.219 706.74,334.031 706.441,333.656 C 706.152,333.292 706.007,332.851 706.007,332.335 L 706.007,327.746 C 706.007,327.235 706.152,326.8 706.441,326.439 C 706.74,326.059 707.099,325.87 707.519,325.87 L 708.279,325.87 C 708.71,325.87 709.072,326.058 709.366,326.433 z M 707.52,326.797 C 707.378,326.797 707.251,326.883 707.14,327.056 C 707.013,327.248 706.951,327.478 706.951,327.746 L 706.951,332.343 C 706.951,332.575 706.999,332.785 707.096,332.973 C 707.192,333.181 707.333,333.285 707.521,333.285 L 708.858,333.285 L 708.858,327.747 C 708.858,327.478 708.797,327.249 708.676,327.057 C 708.564,326.884 708.433,326.798 708.28,326.798 L 707.52,326.798 L 707.52,326.797 z"
   id="path483"
   style="fill:#ffffff" />
		<path
   d="M 711.166,315.851 C 711.617,315.927 711.979,316.139 712.252,316.489 C 712.516,316.829 712.648,317.239 712.648,317.719 L 712.648,322.316 C 712.648,322.833 712.506,323.27 712.222,323.629 C 711.929,324.009 711.567,324.199 711.136,324.199 L 706.016,324.199 L 706.016,323.249 L 711.136,323.249 C 711.287,323.249 711.42,323.166 711.532,322.999 L 711.524,323.007 C 711.65,322.819 711.713,322.589 711.713,322.316 L 711.713,317.719 C 711.713,317.487 711.662,317.283 711.561,317.112 L 711.561,317.12 C 711.451,316.937 711.26,316.813 710.992,316.748 L 710.992,316.003 L 711.166,315.851 z"
   id="path485"
   style="fill:#ffffff" />
	</g>
</g>
</svg>
