<?xml version="1.0" encoding="UTF-8" standalone="no"?>
<!-- Generator: Adobe Illustrator 14.0.0, SVG Export Plug-In . SVG Version: 6.00 Build 43363)  -->

<svg
   xmlns:dc="http://purl.org/dc/elements/1.1/"
   xmlns:cc="http://creativecommons.org/ns#"
   xmlns:rdf="http://www.w3.org/1999/02/22-rdf-syntax-ns#"
   xmlns:svg="http://www.w3.org/2000/svg"
   xmlns="http://www.w3.org/2000/svg"
   xmlns:xlink="http://www.w3.org/1999/xlink"
   xmlns:sodipodi="http://sodipodi.sourceforge.net/DTD/sodipodi-0.dtd"
   xmlns:inkscape="http://www.inkscape.org/namespaces/inkscape"
   version="1.1"
   id="Capa_1"
   x="0px"
   y="0px"
   width="841.89px"
   height="595.28px"
   viewBox="0 0 841.89 595.28"
   enable-background="new 0 0 841.89 595.28"
   xml:space="preserve"
   inkscape:version="0.48.2 r9819"
   sodipodi:docname="Licencias.svg"
   sodipodi:version="0.32"
   inkscape:output_extension="org.inkscape.output.svg.inkscape"><metadata
   id="metadata507"><rdf:RDF><cc:Work
       rdf:about=""><dc:format>image/svg+xml</dc:format><dc:type
         rdf:resource="http://purl.org/dc/dcmitype/StillImage" /><dc:title></dc:title><cc:license
         rdf:resource="http://creativecommons.org/licenses/by/3.0/" /></cc:Work><cc:License
       rdf:about="http://creativecommons.org/licenses/by/3.0/"><cc:permits
         rdf:resource="http://creativecommons.org/ns#Reproduction" /><cc:permits
         rdf:resource="http://creativecommons.org/ns#Distribution" /><cc:requires
         rdf:resource="http://creativecommons.org/ns#Notice" /><cc:requires
         rdf:resource="http://creativecommons.org/ns#Attribution" /><cc:permits
         rdf:resource="http://creativecommons.org/ns#DerivativeWorks" /></cc:License></rdf:RDF></metadata><defs
   id="defs505"><linearGradient
   id="linearGradient4471"><stop
     style="stop-color:#696a6b;stop-opacity:1;"
     offset="0"
     id="stop4473" /><stop
     style="stop-color:#9b9c9e;stop-opacity:1;"
     offset="1"
     id="stop4475" /></linearGradient><linearGradient
   id="linearGradient4455"><stop
     style="stop-color:#696a6b;stop-opacity:1;"
     offset="0"
     id="stop4457" /><stop
     style="stop-color:#9b9c9e;stop-opacity:1;"
     offset="1"
     id="stop4459" /></linearGradient><linearGradient
   id="linearGradient4260"><stop
     style="stop-color:#911d21;stop-opacity:1;"
     offset="0"
     id="stop4262" /><stop
     style="stop-color:#c4282d;stop-opacity:1;"
     offset="1"
     id="stop4264" /></linearGradient><linearGradient
   id="linearGradient4235"><stop
     style="stop-color:#592350;stop-opacity:1;"
     offset="0"
     id="stop4237" /><stop
     style="stop-color:#742e68;stop-opacity:1;"
     offset="1"
     id="stop4239" /></linearGradient><linearGradient
   id="linearGradient4197"><stop
     style="stop-color:#16813d;stop-opacity:1;"
     offset="0"
     id="stop4199" /><stop
     style="stop-color:#0d4f25;stop-opacity:1;"
     offset="1"
     id="stop4201" /></linearGradient><linearGradient
   id="linearGradient3598"><stop
     style="stop-color:#742e68;stop-opacity:1;"
     offset="0"
     id="stop3600" /><stop
     style="stop-color:#481c40;stop-opacity:1;"
     offset="1"
     id="stop3602" /></linearGradient><linearGradient
   inkscape:collect="always"
   id="linearGradient3584"><stop
     style="stop-color:#ffffff;stop-opacity:1;"
     offset="0"
     id="stop3586" /><stop
     style="stop-color:#ffffff;stop-opacity:0;"
     offset="1"
     id="stop3588" /></linearGradient><linearGradient
   inkscape:collect="always"
   id="linearGradient3542"><stop
     style="stop-color:#ffffff;stop-opacity:1;"
     offset="0"
     id="stop3544" /><stop
     style="stop-color:#ffffff;stop-opacity:0;"
     offset="1"
     id="stop3546" /></linearGradient><linearGradient
   id="linearGradient3536"><stop
     style="stop-color:#ffffff;stop-opacity:1"
     offset="0"
     id="stop3538" /><stop
     style="stop-color:#ffffff;stop-opacity:0"
     offset="1"
     id="stop3540" /></linearGradient><linearGradient
   id="linearGradient3530"><stop
     style="stop-color:#ffffff;stop-opacity:1"
     offset="0"
     id="stop3532" /><stop
     style="stop-color:#7f1a1d;stop-opacity:1;"
     offset="1"
     id="stop3534" /></linearGradient><linearGradient
   id="linearGradient3483"><stop
     id="stop3485"
     offset="0"
     style="stop-color:#c4282d;stop-opacity:1;" /><stop
     id="stop3487"
     offset="1"
     style="stop-color:#7f1a1d;stop-opacity:1;" /></linearGradient><linearGradient
   id="linearGradient3467"><stop
     style="stop-color:#000000;stop-opacity:1;"
     offset="0"
     id="stop3469" /><stop
     style="stop-color:#000000;stop-opacity:0;"
     offset="1"
     id="stop3471" /></linearGradient><inkscape:perspective
   sodipodi:type="inkscape:persp3d"
   inkscape:vp_x="0 : 297.64001 : 1"
   inkscape:vp_y="0 : 1000 : 0"
   inkscape:vp_z="841.89001 : 297.64001 : 1"
   inkscape:persp3d-origin="420.94501 : 198.42668 : 1"
   id="perspective509" />
	
	
	
	
<linearGradient
   inkscape:collect="always"
   xlink:href="#linearGradient3483"
   id="linearGradient3481"
   x1="193.67853"
   y1="227.42769"
   x2="192.737"
   y2="164.42589"
   gradientUnits="userSpaceOnUse" /><linearGradient
   inkscape:collect="always"
   xlink:href="#linearGradient3542"
   id="linearGradient3548"
   x1="223.70312"
   y1="167.78789"
   x2="223.70312"
   y2="224.78125"
   gradientUnits="userSpaceOnUse" />
		
		
	<linearGradient
   inkscape:collect="always"
   xlink:href="#linearGradient3584"
   id="linearGradient3590"
   x1="234.03793"
   y1="165.15395"
   x2="234.35178"
   y2="210.66147"
   gradientUnits="userSpaceOnUse" />
		
	<linearGradient
   inkscape:collect="always"
   xlink:href="#linearGradient3483"
   id="linearGradient3947"
   gradientUnits="userSpaceOnUse"
   x1="193.67853"
   y1="227.42769"
   x2="192.737"
   y2="164.42589" />
	
	
	
	

		
	
		
		
		
	
		
		
		
		
		
		
		
		
		
		
		
		
	
		
	
	
	
	
	

		
	
		
		
	
		
	
		
		
		
		
	<linearGradient
   inkscape:collect="always"
   xlink:href="#linearGradient3598"
   id="linearGradient3620"
   x1="473.95499"
   y1="225.58197"
   x2="473.95499"
   y2="164.577"
   gradientUnits="userSpaceOnUse" /><linearGradient
   inkscape:collect="always"
   xlink:href="#linearGradient3483"
   id="linearGradient3883"
   gradientUnits="userSpaceOnUse"
   gradientTransform="translate(2.7507074,-101.77618)"
   x1="138.40564"
   y1="330.10239"
   x2="138.40564"
   y2="319.71936" /><linearGradient
   inkscape:collect="always"
   xlink:href="#linearGradient3598"
   id="linearGradient3891"
   gradientUnits="userSpaceOnUse"
   x1="473.95499"
   y1="225.58197"
   x2="473.95499"
   y2="164.577" /><linearGradient
   inkscape:collect="always"
   xlink:href="#linearGradient3598"
   id="linearGradient4005"
   gradientUnits="userSpaceOnUse"
   x1="473.95499"
   y1="225.58197"
   x2="473.95499"
   y2="164.577" /><linearGradient
   inkscape:collect="always"
   xlink:href="#linearGradient3598"
   id="linearGradient2938"
   gradientUnits="userSpaceOnUse"
   gradientTransform="translate(16.564834,16.038773)"
   x1="365.68323"
   y1="228.72025"
   x2="365.68323"
   y2="216.25424" />
	
	
	
	
	
	
	
	
	
	
	
	
	
	
	
	
	
	
	
<linearGradient
   inkscape:collect="always"
   xlink:href="#linearGradient4471"
   id="linearGradient4477"
   x1="664.09625"
   y1="501.10046"
   x2="664.09625"
   y2="510.29501"
   gradientUnits="userSpaceOnUse" /><linearGradient
   inkscape:collect="always"
   xlink:href="#linearGradient4471"
   id="linearGradient4513"
   gradientUnits="userSpaceOnUse"
   x1="664.09625"
   y1="501.10046"
   x2="664.09625"
   y2="510.29501" />
		
		
	</defs><sodipodi:namedview
   pagecolor="#ffffff"
   bordercolor="#666666"
   borderopacity="1"
   objecttolerance="10"
   gridtolerance="10"
   guidetolerance="10"
   inkscape:pageopacity="0"
   inkscape:pageshadow="2"
   inkscape:window-width="1280"
   inkscape:window-height="746"
   id="namedview503"
   showgrid="false"
   inkscape:zoom="0.90545621"
   inkscape:cx="420.94501"
   inkscape:cy="443.33958"
   inkscape:window-x="0"
   inkscape:window-y="0"
   inkscape:window-maximized="1"
   inkscape:current-layer="Capa_1"
   showguides="true"
   inkscape:guide-bbox="true" />










<g
   id="g325"
   transform="translate(3.4383843,-105.21456)">
	<g
   id="g327">
		<path
   d="M 589.022,212.291 C 588.773,213.766 588.078,214.951 586.934,215.845 C 585.824,216.707 584.482,217.137 582.908,217.137 L 567.871,217.137 C 566.182,217.137 564.748,216.673 563.572,215.745 C 562.329,214.784 561.708,213.599 561.708,212.191 L 561.708,195.44 L 564.814,195.44 L 564.814,212.191 C 564.814,212.688 565.087,213.119 565.634,213.483 L 565.609,213.458 C 566.222,213.872 566.976,214.079 567.871,214.079 L 582.908,214.079 C 583.67,214.079 584.333,213.913 584.896,213.582 L 584.871,213.582 C 585.468,213.218 585.874,212.597 586.09,211.718 L 588.526,211.718 L 589.022,212.291 z"
   id="path329" />
		<path
   d="M 619.89,215.721 C 618.697,216.665 617.255,217.138 615.566,217.138 L 600.554,217.138 C 598.847,217.138 597.422,216.674 596.279,215.746 C 595.052,214.785 594.44,213.6 594.44,212.192 L 594.44,200.361 C 594.44,198.986 595.052,197.81 596.279,196.832 C 597.472,195.888 598.914,195.415 600.603,195.415 L 615.64,195.415 C 617.214,195.415 618.548,195.854 619.641,196.732 C 620.785,197.61 621.522,198.994 621.853,200.882 L 618.796,200.882 C 618.58,199.971 618.175,199.333 617.578,198.968 C 617.064,198.653 616.41,198.496 615.614,198.496 L 600.602,198.496 C 599.707,198.496 598.946,198.703 598.316,199.117 C 597.769,199.465 597.496,199.879 597.496,200.36 L 597.496,212.191 C 597.496,212.688 597.769,213.119 598.316,213.483 L 598.292,213.458 C 598.904,213.872 599.658,214.079 600.554,214.079 L 615.566,214.079 C 616.344,214.079 617.04,213.913 617.653,213.582 C 618.382,213.234 618.747,212.762 618.747,212.165 L 618.747,207.815 L 606.594,207.815 L 606.594,204.758 L 621.78,204.758 L 621.78,212.19 C 621.778,213.567 621.148,214.743 619.89,215.721 z"
   id="path331" />
		<path
   d="M 652.744,206.4 C 651.601,207.328 650.168,207.792 648.444,207.792 L 630.326,207.792 L 630.326,217.137 L 627.269,217.137 L 627.269,200.361 C 627.269,198.986 627.881,197.81 629.108,196.832 C 630.301,195.888 631.743,195.415 633.432,195.415 L 648.444,195.415 C 650.118,195.415 651.543,195.887 652.719,196.832 C 653.961,197.81 654.583,198.986 654.583,200.361 L 654.583,202.846 C 654.584,204.255 653.971,205.439 652.744,206.4 z M 651.552,200.361 C 651.552,199.897 651.27,199.483 650.706,199.118 C 650.076,198.704 649.323,198.497 648.444,198.497 L 633.408,198.497 C 632.645,198.497 631.958,198.654 631.345,198.969 C 630.665,199.284 630.325,199.748 630.325,200.361 L 630.325,204.736 L 648.443,204.736 C 649.322,204.736 650.075,204.537 650.705,204.139 C 651.268,203.775 651.551,203.344 651.551,202.847 L 651.551,200.361 L 651.552,200.361 z"
   id="path333" />
		<path
   d="M 687.365,212.291 C 687.116,213.766 686.421,214.951 685.277,215.845 C 684.167,216.707 682.825,217.137 681.251,217.137 L 666.214,217.137 C 664.525,217.137 663.091,216.673 661.915,215.745 C 660.672,214.784 660.051,213.599 660.051,212.191 L 660.051,195.44 L 663.157,195.44 L 663.157,212.191 C 663.157,212.688 663.43,213.119 663.977,213.483 L 663.952,213.458 C 664.565,213.872 665.319,214.079 666.214,214.079 L 681.251,214.079 C 682.013,214.079 682.676,213.913 683.239,213.582 L 683.215,213.582 C 683.812,213.218 684.217,212.597 684.433,211.718 L 686.869,211.718 L 687.365,212.291 z"
   id="path335" />
	</g>
	<g
   id="g337">
		<path
   d="M 740.254,164.577 L 759.708,164.577 L 729.74,215.077 C 728.028,217.892 726.358,220.058 724.73,221.576 C 723.102,223.094 721.598,224.198 720.218,224.887 C 718.839,225.578 717.652,225.978 716.659,226.088 C 715.665,226.199 714.973,226.254 714.589,226.254 L 696.707,226.254 L 696.707,182.626 L 713.431,182.626 L 713.513,212.594 L 740.254,164.577 z"
   id="path339"
   style="fill:#16813d" />
	</g>
	<rect
   x="552.78601"
   y="226.267"
   width="143.922"
   height="13.788"
   id="rect341"
   style="fill:#16813d" />
	<g
   id="g343">
		<path
   d="M 591.483,231.774 C 591.519,231.525 591.477,231.353 591.352,231.258 L 591.359,231.258 C 591.245,231.172 591.081,231.129 590.862,231.129 L 586.764,231.129 C 586.52,231.129 586.293,231.185 586.084,231.298 C 585.9,231.394 585.784,231.506 585.736,231.638 L 585.301,232.834 L 588.325,232.834 L 588.02,233.67 L 584.995,233.67 L 584.065,236.225 L 583.222,236.225 L 584.892,231.638 C 585.028,231.263 585.315,230.94 585.746,230.673 C 586.166,230.416 586.607,230.286 587.068,230.286 L 591.166,230.286 C 591.602,230.286 591.924,230.407 592.137,230.646 C 592.371,230.886 592.436,231.262 592.332,231.774 L 591.483,231.774 L 591.483,231.774 z"
   id="path345"
   style="fill:#ffffff" />
		<path
   d="M 597.534,233.377 C 597.551,233.142 597.479,232.981 597.321,232.895 C 597.262,232.859 597.196,232.833 597.122,232.82 C 597.046,232.807 596.968,232.8 596.888,232.8 L 594.909,232.8 C 594.71,232.8 594.513,232.838 594.317,232.916 C 594.09,233.002 593.954,233.11 593.907,233.242 L 592.821,236.225 L 591.977,236.225 L 593.528,231.964 L 594.372,231.964 L 594.308,232.14 C 594.475,232.077 594.63,232.032 594.775,232.004 C 594.918,231.977 595.062,231.963 595.209,231.963 L 597.193,231.963 C 597.568,231.963 597.876,232.058 598.115,232.248 C 598.402,232.479 598.486,232.855 598.37,233.376 L 597.534,233.376 L 597.534,233.377 z"
   id="path347"
   style="fill:#ffffff" />
		<path
   d="M 605.035,233.228 C 604.891,233.623 604.579,233.946 604.097,234.2 C 603.701,234.408 603.296,234.512 602.89,234.512 L 600.911,234.512 C 600.78,234.512 600.658,234.502 600.543,234.479 C 600.429,234.457 600.29,234.414 600.128,234.35 L 599.921,234.92 L 599.915,234.934 C 599.886,235.052 599.956,235.159 600.126,235.254 C 600.198,235.304 600.274,235.338 600.353,235.36 C 600.431,235.38 600.512,235.39 600.593,235.39 L 602.572,235.39 C 602.652,235.39 602.735,235.383 602.819,235.37 C 602.904,235.356 602.988,235.33 603.074,235.295 C 603.295,235.208 603.483,235.047 603.637,234.812 L 604.472,234.812 C 604.212,235.328 603.855,235.702 603.399,235.934 C 603.025,236.128 602.648,236.226 602.267,236.226 L 600.288,236.226 C 599.907,236.226 599.589,236.127 599.331,235.927 C 599.009,235.677 598.922,235.349 599.069,234.942 L 599.69,233.236 C 599.837,232.832 600.143,232.511 600.606,232.27 C 600.997,232.066 601.408,231.965 601.838,231.965 L 603.817,231.965 C 604.233,231.965 604.565,232.062 604.811,232.257 C 605.109,232.497 605.185,232.82 605.035,233.228 z M 604.187,233.242 C 604.228,233.134 604.187,233.038 604.068,232.957 C 603.938,232.853 603.751,232.801 603.506,232.801 L 601.534,232.801 C 601.362,232.801 601.167,232.839 600.949,232.917 C 600.72,232.999 600.582,233.105 600.534,233.236 C 600.487,233.362 600.546,233.469 600.71,233.555 C 600.856,233.637 601.026,233.677 601.216,233.677 L 603.195,233.677 C 603.429,233.677 603.651,233.628 603.86,233.528 C 604.038,233.446 604.147,233.351 604.187,233.242 z"
   id="path349"
   style="fill:#ffffff" />
		<path
   d="M 611.669,233.228 C 611.524,233.623 611.212,233.946 610.731,234.2 C 610.334,234.408 609.93,234.512 609.523,234.512 L 607.545,234.512 C 607.413,234.512 607.292,234.502 607.177,234.479 C 607.063,234.457 606.924,234.414 606.763,234.35 L 606.554,234.92 L 606.55,234.934 C 606.52,235.052 606.589,235.159 606.759,235.254 C 606.831,235.304 606.907,235.338 606.986,235.36 C 607.065,235.38 607.146,235.39 607.226,235.39 L 609.205,235.39 C 609.285,235.39 609.369,235.383 609.453,235.37 C 609.537,235.356 609.623,235.33 609.708,235.295 C 609.93,235.208 610.117,235.047 610.271,234.812 L 611.105,234.812 C 610.845,235.328 610.488,235.702 610.033,235.934 C 609.658,236.128 609.281,236.226 608.9,236.226 L 606.921,236.226 C 606.541,236.226 606.222,236.127 605.964,235.927 C 605.642,235.677 605.556,235.349 605.704,234.942 L 606.324,233.236 C 606.471,232.832 606.776,232.511 607.241,232.27 C 607.631,232.066 608.042,231.965 608.471,231.965 L 610.45,231.965 C 610.866,231.965 611.198,232.062 611.444,232.257 C 611.743,232.497 611.817,232.82 611.669,233.228 z M 610.821,233.242 C 610.86,233.134 610.819,233.038 610.7,232.957 C 610.571,232.853 610.384,232.801 610.139,232.801 L 608.167,232.801 C 607.995,232.801 607.799,232.839 607.582,232.917 C 607.353,232.999 607.215,233.105 607.166,233.236 C 607.121,233.362 607.18,233.469 607.342,233.555 C 607.489,233.637 607.658,233.677 607.848,233.677 L 609.827,233.677 C 610.061,233.677 610.284,233.628 610.493,233.528 C 610.672,233.446 610.78,233.351 610.821,233.242 z"
   id="path351"
   style="fill:#ffffff" />
		<path
   d="M 624.409,235.845 C 624.005,236.098 623.569,236.225 623.102,236.225 L 618.991,236.225 C 618.559,236.225 618.237,236.109 618.022,235.878 C 617.792,235.629 617.727,235.249 617.827,234.737 L 618.663,234.737 C 618.634,234.977 618.68,235.149 618.801,235.253 L 618.794,235.253 C 618.915,235.343 619.083,235.389 619.295,235.389 L 623.407,235.389 C 623.646,235.389 623.871,235.332 624.079,235.22 C 624.269,235.119 624.389,235.005 624.436,234.873 L 624.684,234.193 C 624.731,234.062 624.696,233.946 624.579,233.846 C 624.454,233.733 624.266,233.676 624.022,233.676 L 619.918,233.676 C 619.456,233.676 619.11,233.55 618.882,233.296 C 618.638,233.032 618.585,232.708 618.728,232.317 L 618.976,231.637 C 619.112,231.262 619.398,230.939 619.83,230.672 C 620.25,230.415 620.691,230.285 621.152,230.285 L 625.265,230.285 C 625.695,230.285 626.015,230.406 626.227,230.645 C 626.461,230.885 626.527,231.261 626.421,231.773 L 625.586,231.773 C 625.614,231.533 625.567,231.36 625.446,231.257 L 625.453,231.257 C 625.341,231.171 625.175,231.128 624.958,231.128 L 620.846,231.128 C 620.601,231.128 620.372,231.184 620.159,231.297 C 619.973,231.393 619.858,231.505 619.811,231.637 L 619.563,232.317 C 619.513,232.453 619.545,232.571 619.659,232.671 C 619.785,232.784 619.973,232.84 620.222,232.84 L 624.334,232.84 C 624.8,232.84 625.145,232.967 625.363,233.221 C 625.605,233.488 625.658,233.811 625.519,234.193 L 625.271,234.873 C 625.133,235.258 624.845,235.583 624.409,235.845 z"
   id="path353"
   style="fill:#ffffff" />
		<path
   d="M 630.942,235.913 C 630.549,236.121 630.146,236.225 629.735,236.225 L 627.756,236.225 C 627.352,236.225 627.026,236.123 626.774,235.92 C 626.469,235.67 626.391,235.343 626.538,234.941 L 627.159,233.235 C 627.304,232.84 627.615,232.517 628.098,232.263 C 628.494,232.055 628.9,231.951 629.311,231.951 L 631.29,231.951 C 631.679,231.951 632,232.048 632.251,232.243 C 632.565,232.497 632.651,232.825 632.503,233.228 L 631.88,234.941 C 631.737,235.334 631.425,235.659 630.942,235.913 z M 631.66,233.228 C 631.706,233.101 631.647,232.996 631.485,232.908 C 631.346,232.831 631.178,232.793 630.983,232.793 L 629.004,232.793 C 628.805,232.793 628.611,232.829 628.422,232.901 C 628.19,232.992 628.051,233.1 628.004,233.227 L 627.379,234.947 C 627.332,235.074 627.391,235.18 627.554,235.266 C 627.701,235.347 627.867,235.388 628.054,235.388 L 630.038,235.388 C 630.129,235.388 630.221,235.379 630.32,235.361 C 630.416,235.342 630.515,235.314 630.616,235.272 C 630.848,235.182 630.988,235.071 631.036,234.94 L 631.66,233.228 z"
   id="path355"
   style="fill:#ffffff" />
		<path
   d="M 634.794,232.8 L 633.547,236.225 L 632.704,236.225 L 634.399,231.563 C 634.545,231.164 634.818,230.845 635.219,230.604 C 635.571,230.396 636.011,230.292 636.541,230.292 L 636.242,231.115 C 635.91,231.164 635.67,231.228 635.519,231.304 C 635.369,231.382 635.277,231.469 635.242,231.563 L 635.096,231.964 L 635.938,231.964 L 635.634,232.8 L 634.794,232.8 z"
   id="path357"
   style="fill:#ffffff" />
		<path
   d="M 638.612,232.8 L 637.366,236.225 L 636.516,236.225 L 637.762,232.8 L 636.926,232.8 L 637.231,231.964 L 638.067,231.964 L 638.678,230.286 L 639.527,230.286 L 638.917,231.964 L 639.76,231.964 L 639.456,232.8 L 638.612,232.8 z"
   id="path359"
   style="fill:#ffffff" />
		<path
   d="M 645.048,235.898 C 644.691,236.111 644.286,236.218 643.838,236.218 C 643.594,236.218 643.365,236.183 643.155,236.115 C 642.944,236.047 642.765,235.941 642.618,235.796 C 642.364,235.937 642.101,236.043 641.833,236.115 C 641.564,236.188 641.308,236.224 641.062,236.224 C 640.631,236.224 640.31,236.12 640.096,235.912 C 639.86,235.676 639.817,235.352 639.966,234.94 L 641.049,231.963 L 641.893,231.963 L 640.807,234.946 C 640.76,235.073 640.799,235.176 640.924,235.258 C 641.061,235.344 641.251,235.387 641.495,235.387 C 641.744,235.387 641.965,235.344 642.154,235.258 C 642.34,235.181 642.457,235.075 642.508,234.94 L 643.176,233.105 L 644.019,233.105 L 643.348,234.947 C 643.301,235.079 643.34,235.18 643.469,235.253 C 643.605,235.339 643.79,235.382 644.026,235.382 C 644.28,235.382 644.502,235.339 644.692,235.253 C 644.88,235.176 644.994,235.074 645.04,234.947 L 646.126,231.964 L 646.977,231.964 L 645.894,234.941 C 645.749,235.339 645.466,235.659 645.048,235.898 z"
   id="path361"
   style="fill:#ffffff" />
		<path
   d="M 651.396,235.92 C 651,236.124 650.591,236.225 650.17,236.225 L 648.192,236.225 C 647.766,236.225 647.43,236.126 647.186,235.926 C 646.891,235.69 646.818,235.367 646.969,234.954 C 647.114,234.556 647.425,234.234 647.905,233.989 C 648.301,233.781 648.708,233.676 649.119,233.676 L 651.098,233.676 C 651.225,233.676 651.345,233.689 651.458,233.711 C 651.573,233.733 651.711,233.776 651.873,233.84 L 652.083,233.262 C 652.11,233.14 652.043,233.032 651.883,232.936 C 651.739,232.846 651.584,232.8 651.417,232.8 L 649.438,232.8 C 649.352,232.8 649.267,232.807 649.182,232.82 C 649.098,232.834 649.013,232.86 648.928,232.895 C 648.706,232.981 648.518,233.143 648.365,233.377 L 647.529,233.377 C 647.793,232.861 648.149,232.487 648.596,232.256 C 648.97,232.061 649.349,231.964 649.736,231.964 L 651.719,231.964 C 652.109,231.964 652.429,232.061 652.679,232.256 C 652.997,232.501 653.082,232.829 652.933,233.241 L 652.312,234.947 C 652.166,235.352 651.86,235.675 651.396,235.92 z M 651.468,234.954 C 651.514,234.828 651.456,234.721 651.292,234.635 C 651.146,234.553 650.979,234.512 650.794,234.512 L 648.815,234.512 C 648.584,234.512 648.36,234.563 648.142,234.663 C 647.963,234.744 647.854,234.839 647.814,234.948 C 647.772,235.061 647.809,235.158 647.924,235.24 C 648.061,235.339 648.248,235.389 648.489,235.389 L 650.472,235.389 C 650.667,235.389 650.859,235.353 651.048,235.28 C 651.282,235.19 651.421,235.082 651.468,234.954 z"
   id="path363"
   style="fill:#ffffff" />
		<path
   d="M 658.695,233.377 C 658.712,233.142 658.641,232.981 658.483,232.895 C 658.423,232.859 658.357,232.833 658.282,232.82 C 658.208,232.807 658.13,232.8 658.049,232.8 L 656.071,232.8 C 655.872,232.8 655.673,232.838 655.477,232.916 C 655.252,233.002 655.116,233.11 655.067,233.242 L 653.981,236.225 L 653.138,236.225 L 654.689,231.964 L 655.532,231.964 L 655.469,232.14 C 655.636,232.077 655.792,232.032 655.936,232.004 C 656.08,231.977 656.224,231.963 656.369,231.963 L 658.353,231.963 C 658.73,231.963 659.037,232.058 659.276,232.248 C 659.563,232.479 659.648,232.855 659.531,233.376 L 658.695,233.376 L 658.695,233.377 z"
   id="path365"
   style="fill:#ffffff" />
		<path
   d="M 666.196,233.228 C 666.052,233.623 665.74,233.946 665.258,234.2 C 664.86,234.408 664.457,234.512 664.05,234.512 L 662.072,234.512 C 661.939,234.512 661.818,234.502 661.703,234.479 C 661.59,234.457 661.451,234.414 661.289,234.35 L 661.081,234.92 L 661.076,234.934 C 661.047,235.052 661.116,235.159 661.285,235.254 C 661.357,235.304 661.433,235.338 661.512,235.36 C 661.592,235.38 661.672,235.39 661.752,235.39 L 663.731,235.39 C 663.812,235.39 663.895,235.383 663.979,235.37 C 664.064,235.356 664.149,235.33 664.235,235.295 C 664.456,235.208 664.643,235.047 664.798,234.812 L 665.633,234.812 C 665.372,235.328 665.016,235.702 664.56,235.934 C 664.186,236.128 663.808,236.226 663.428,236.226 L 661.449,236.226 C 661.068,236.226 660.749,236.127 660.491,235.927 C 660.169,235.677 660.083,235.349 660.231,234.942 L 660.852,233.236 C 660.998,232.832 661.304,232.511 661.768,232.27 C 662.159,232.066 662.569,231.965 662.999,231.965 L 664.978,231.965 C 665.394,231.965 665.725,232.062 665.972,232.257 C 666.271,232.497 666.345,232.82 666.196,233.228 z M 665.349,233.242 C 665.388,233.134 665.348,233.038 665.228,232.957 C 665.099,232.853 664.912,232.801 664.667,232.801 L 662.696,232.801 C 662.524,232.801 662.328,232.839 662.11,232.917 C 661.881,232.999 661.743,233.105 661.695,233.236 C 661.649,233.362 661.708,233.469 661.871,233.555 C 662.018,233.637 662.186,233.677 662.377,233.677 L 664.355,233.677 C 664.59,233.677 664.812,233.628 665.021,233.528 C 665.2,233.446 665.309,233.351 665.349,233.242 z"
   id="path367"
   style="fill:#ffffff" />
	</g>
	<g
   id="g369">
		<path
   d="M 774.246,211.954 C 774.246,213.459 773.582,214.725 772.254,215.752 C 771.033,216.744 769.51,217.239 767.686,217.239 L 751.618,217.239 C 749.936,217.239 748.511,216.787 747.343,215.885 C 746.085,214.911 745.288,213.424 744.952,211.423 L 748.22,211.423 C 748.449,212.361 748.874,213.034 749.494,213.442 L 749.468,213.442 C 750.07,213.796 750.786,213.973 751.618,213.973 L 767.686,213.973 C 768.607,213.973 769.404,213.76 770.077,213.335 C 770.679,212.946 770.98,212.485 770.98,211.954 L 770.98,209.298 C 770.98,208.803 770.678,208.36 770.077,207.97 C 769.369,207.51 768.563,207.279 767.661,207.279 L 759.108,207.279 L 759.108,204.012 L 767.686,204.012 C 768.625,204.012 769.422,203.791 770.077,203.348 C 770.679,202.959 770.98,202.507 770.98,201.994 L 770.98,199.338 C 770.98,198.842 770.678,198.4 770.077,198.01 C 769.369,197.55 768.563,197.32 767.661,197.32 L 751.618,197.32 C 750.804,197.32 750.096,197.497 749.494,197.851 L 749.52,197.851 C 748.883,198.223 748.449,198.896 748.219,199.87 L 744.951,199.87 C 745.269,197.851 746.049,196.382 747.289,195.461 C 748.457,194.523 749.9,194.054 751.617,194.054 L 767.685,194.054 C 769.474,194.054 770.997,194.55 772.253,195.541 C 773.581,196.586 774.245,197.852 774.245,199.339 C 774.245,200.631 774.192,201.809 774.086,202.871 C 774.05,203.402 773.874,203.89 773.555,204.332 C 773.413,204.527 773.249,204.73 773.064,204.943 C 772.879,205.156 772.652,205.386 772.386,205.633 C 772.9,206.111 773.289,206.554 773.555,206.961 C 773.856,207.457 774.033,207.935 774.086,208.395 C 774.193,209.44 774.246,210.626 774.246,211.954 z"
   id="path371" />
	</g>
</g>
</svg>
